<?xml version="1.0" encoding="UTF-8"?>
<svg id="image" xmlns="http://www.w3.org/2000/svg" viewBox="0 0 425.2 326.94">
  <path d="M424.93,73.33c-.4-3.56-1.52-6.93-2.21-10.41-.38-1.91-1.15-3.61-2.07-5.29-2.35-4.3-5.69-7.82-8.9-11.46-3.92-4.46-9.02-6.98-14.59-8.55-7.37-2.09-14.7-1.89-21.92,.94-5.69,2.23-10.7,5.68-15.95,8.71-4.5,2.59-8.77,5.57-13.14,8.4-1.53,1-3.05,2.09-4.89,2.32-5.16,.63-10.23,0-15.12-1.65-3.12-1.05-4.4-3.84-3.6-7.1,.25-1.01,.55-2.02,.96-2.96,1.27-2.94,2.63-5.84,3.91-8.78,2.35-5.41,3.3-10.85,.95-16.6-1.11-2.7-2.59-5.11-4.33-7.37-4.26-5.57-9.58-9.61-16.47-11.59-5.41-1.55-10.82-2.2-16.41-1.53-5.27,.64-10.08,2.23-14.39,5.45-5.29,3.96-8.74,9.3-11.84,14.95-2.26,4.1-4.24,8.36-6.67,12.35-4.56,7.51-10.58,13.26-19.7,14.79-.94,.15-1.9,.25-2.82,.49-1.75,.44-3.46,.3-5.12-.28-5.91-2.05-10.45-5.76-13.21-11.41-2.87-5.9-5.55-11.9-8.84-17.62-2.5-4.35-5.41-8.26-9.45-11.23-2.79-2.05-5.49-4.25-8.79-5.49-5.87-2.18-11.76-1.59-17.66-.23-3.55,.82-6.98,2.06-10.32,3.52-7.09,3.12-13.28,7.42-17.95,13.73-3.66,4.93-7.41,9.82-11.38,14.52-4.26,5.02-9.06,9.29-15.45,11.48-2.74,.94-5.44,1.05-8.13,.02-6.43-2.45-11.58-6.46-15.19-12.41-1.7-2.8-3.21-5.76-5.78-7.96-6.94-5.93-14.63-10.46-23.4-13.13-2.99-.91-5.96-.89-8.98-.24-7.13,1.55-14.13,3.57-20.84,6.43-4.39,1.88-8.73,3.91-12.52,6.83-5.24,4.04-9.77,8.84-13.66,14.19-1.93,2.67-3.61,5.51-4.78,8.61C.96,56.59-.16,65.74,.39,75.09c.48,8.01,2.36,15.67,5.55,23.09,3.24,7.57,7.5,14.42,12.5,20.89,3.18,4.12,6.69,7.95,10.09,11.86,4.49,5.16,8.76,10.51,12.77,16.07,5.22,7.25,9.92,14.83,14.55,22.46,6.41,10.56,10.83,22.1,15.29,33.55,3.77,9.67,6.78,19.65,10.12,29.49,1.7,5,3.2,10.08,5.13,14.99,2.47,6.29,5.38,12.41,8.84,18.21,3.72,6.21,7.08,12.64,12.22,18,4.54,4.75,9.44,8.9,14.98,12.32,5.17,3.18,10.78,5.55,16.25,8.15,9.31,4.42,18.29,9.53,27.68,13.78,1.27,.57,2.53,1.16,3.76,1.78,7.93,3.94,16.14,6.77,25.15,6.41,1.39,0,2.79,.11,4.16-.02,4.05-.38,8.15-.91,11.9-2.5,4.17-1.78,8.49-3.04,12.86-4.02,4.86-1.1,9.47-2.67,13.96-4.79,3.75-1.78,7.42-3.76,11.35-5.16,7.46-2.65,14.52-6.08,21.04-10.61,3.2-2.22,6.41-4.46,9.82-6.31,3.47-1.88,6.58-4.25,9.47-6.8,5.64-4.99,11.06-10.25,16.3-15.65,5.9-6.09,11.99-12.07,16.4-19.41,2.35-3.94,4.89-7.75,6.78-11.96,1.49-3.34,2.56-6.8,3.81-10.2,1.26-3.43,2.19-6.93,2.62-10.56,.38-3.26,.47-6.59,1.2-9.77,1.42-6.13,1.69-12.33,1.86-18.55,.08-3.11,.02-6.23,.46-9.32,.52-3.69,1.3-7.37,1.4-11.08,.11-3.97,.96-7.71,2.17-11.42,.72-2.17,1.89-4.05,3.46-5.75,3.84-4.12,8.58-6.96,13.46-9.6,9.14-4.93,18.59-9.25,27.73-14.19,4.19-2.27,8.24-4.79,12.5-6.9,2.94-1.44,5.24-3.7,7.56-5.82,4.43-4.05,7.76-9.05,10.74-14.26,1.55-2.72,2.55-5.63,3.53-8.61,1.19-3.63,2.08-7.32,2.89-11.03,.62-2.81,.52-5.66,.2-8.53Zm-3.78,15.78c-2.43,8.24-6.28,15.57-11.74,22.06-2.96,3.51-6.45,6.46-10.43,8.87-8.91,5.4-18.33,9.79-27.53,14.63-6.98,3.65-14.15,6.96-20.74,11.34-7.41,4.93-11.35,11.83-11.88,20.57-.31,5.03-1.37,9.95-1.59,14.97-.13,3.12-.37,6.22-.25,9.35,.05,1.56-.04,3.11-.18,4.67-.62,6.73-1.73,13.39-2.61,20.09-1.59,12.14-6.01,23.2-12.54,33.53-5.67,8.97-13.03,16.36-20.69,23.55-2.33,2.19-4.54,4.52-6.85,6.74-4.75,4.59-9.65,8.89-15.37,12.28-6.26,3.71-12.03,8.2-18.61,11.41-3.89,1.9-7.85,3.64-11.93,5.14-2.92,1.07-5.75,2.44-8.52,3.85-6.65,3.37-13.78,5.07-20.99,6.67-3.26,.72-6.44,2.03-9.51,3.4-2.67,1.18-5.42,1.85-8.26,2.11-5.12,.47-10.27,.44-15.29-.63-4.56-.98-8.97-2.63-13.18-4.71-7-3.43-14.01-6.87-21-10.32-1.32-.65-2.61-1.36-3.94-2.01-6.15-3-12.27-6.06-18.45-9-10.32-4.91-18.9-11.95-25.35-21.35-3.91-5.7-7.22-11.81-10.41-17.98-3.73-7.2-6.39-14.78-8.96-22.42-3.6-10.66-7.04-21.39-10.85-31.97-2.47-6.84-5.46-13.5-8.33-20.19-4.81-11.29-11.55-21.49-18.16-31.76-2.82-4.39-5.95-8.53-9.07-12.67-3.27-4.36-6.92-8.44-10.58-12.48-6.25-6.91-12.07-14.13-16.44-22.35-4.22-7.91-7.25-16.32-8.54-25.24-.37-2.47-.31-5.01-.41-6.82,.2-5.12,.37-9.52,1.18-13.89,1.55-8.36,4.92-15.8,10.66-22.19,2.79-3.11,5.74-6.02,8.89-8.71,3.87-3.3,8.42-5.52,13.04-7.49,6.85-2.94,13.93-5.24,21.28-6.69,3.1-.62,6.01-.35,8.98,.47,4.91,1.33,9.29,3.79,13.52,6.53,1.81,1.18,3.66,2.3,5.36,3.68,2.37,1.95,4.3,4.23,5.93,6.82,1.56,2.49,3,5.06,4.91,7.34,4.3,5.14,9.78,8.21,16.31,9.4,4.46,.81,8.38-.91,12.07-3.13,5.44-3.27,9.45-8.07,13.35-12.96,3.94-4.95,7.78-9.97,11.75-14.9,1.59-1.97,3.78-3.3,5.85-4.72,7.82-5.37,16.58-8.22,25.96-9.05,4.66-.41,9.15,.57,13.08,3.4,3.59,2.58,7.18,5.17,9.8,8.83,.46,.63,1.04,1.19,1.39,1.88,2.54,5.03,5.66,9.74,7.96,14.9,1.88,4.19,3.65,8.46,7.03,11.74,3.29,3.2,6.96,5.69,11.59,6.53,3.46,.63,6.71-.41,10.01-1.1,6.51-1.34,10.94-5.69,15.09-10.46,3.3-3.78,5.08-8.44,7.45-12.76,2.66-4.86,5.1-9.86,8.85-14.02,4.61-5.1,9.96-8.65,17.08-9.41,5.43-.57,10.71-.53,15.96,.95,5.42,1.55,10.32,3.84,13.98,8.42,1.84,2.3,3.77,4.52,5.26,7.07,3.1,5.29,3.44,10.82,1.23,16.49-.88,2.26-1.88,4.48-2.91,6.67-1.03,2.21-1.93,4.46-2.56,6.81-1.18,4.38,.52,7.88,4.75,9.34,4.46,1.52,9.14,1.97,13.82,2.03,2.78,.02,5.23-1.27,7.46-2.78,7.55-5.08,15.22-9.96,23.15-14.42,10.8-6.05,21.84-6.7,33.02-.89,1.95,1.02,3.66,2.34,5.22,3.84,4.72,4.52,9.2,9.28,11.46,15.56,3.24,9.03,3.81,18.11,1.02,27.53Z"/>
  <path d="M421.14,89.1c-2.43,8.24-6.28,15.57-11.74,22.06-2.96,3.51-6.45,6.46-10.43,8.87-8.91,5.4-18.33,9.79-27.53,14.63-6.98,3.65-14.15,6.96-20.74,11.34-7.41,4.93-11.35,11.83-11.88,20.57-.31,5.03-1.37,9.95-1.59,14.97-.13,3.12-.37,6.22-.25,9.35,.05,1.56-.04,3.11-.18,4.67-.62,6.73-1.73,13.39-2.61,20.09-1.59,12.14-6.01,23.2-12.54,33.53-5.67,8.97-13.03,16.36-20.69,23.55-2.33,2.19-4.54,4.52-6.85,6.74-4.75,4.59-9.65,8.89-15.37,12.28-6.26,3.71-12.03,8.2-18.61,11.41-3.89,1.9-7.85,3.64-11.93,5.14-2.92,1.07-5.75,2.44-8.52,3.85-6.65,3.37-13.78,5.07-20.99,6.67-3.26,.72-6.44,2.03-9.51,3.4-2.67,1.18-5.42,1.85-8.26,2.11-5.12,.47-10.27,.44-15.29-.63-4.56-.98-8.97-2.63-13.18-4.71-7-3.43-14.01-6.87-21-10.32-1.32-.65-2.61-1.36-3.94-2.01-6.15-3-12.27-6.06-18.45-9-10.32-4.91-18.9-11.95-25.35-21.35-3.91-5.7-7.22-11.81-10.41-17.98-3.73-7.2-6.39-14.78-8.96-22.42-3.6-10.66-7.04-21.39-10.85-31.97-2.47-6.84-5.46-13.5-8.33-20.19-4.81-11.29-11.55-21.49-18.16-31.76-2.82-4.39-5.95-8.53-9.07-12.67-3.27-4.36-6.92-8.44-10.58-12.48-6.25-6.91-12.07-14.13-16.44-22.35-4.22-7.91-7.25-16.32-8.54-25.24-.37-2.47-.31-5.01-.41-6.82,.2-5.12,.37-9.52,1.18-13.89,1.55-8.36,4.92-15.8,10.66-22.19,2.79-3.11,5.74-6.02,8.89-8.71,3.87-3.3,8.42-5.52,13.04-7.49,6.85-2.94,13.93-5.24,21.28-6.69,3.1-.62,6.01-.35,8.98,.47,4.91,1.33,9.29,3.79,13.52,6.53,1.81,1.18,3.66,2.3,5.36,3.68,2.37,1.95,4.3,4.23,5.93,6.82,1.56,2.49,3,5.06,4.91,7.34,4.3,5.14,9.78,8.21,16.31,9.4,4.46,.81,8.38-.91,12.07-3.13,5.44-3.27,9.45-8.07,13.35-12.96,3.94-4.95,7.78-9.97,11.75-14.9,1.59-1.97,3.78-3.3,5.85-4.72,7.82-5.37,16.58-8.22,25.96-9.05,4.66-.41,9.15,.57,13.08,3.4,3.59,2.58,7.18,5.17,9.8,8.83,.46,.63,1.04,1.19,1.39,1.88,2.54,5.03,5.66,9.74,7.96,14.9,1.88,4.19,3.65,8.46,7.03,11.74,3.29,3.2,6.96,5.69,11.59,6.53,3.46,.63,6.71-.41,10.01-1.1,6.51-1.34,10.94-5.69,15.09-10.46,3.3-3.78,5.08-8.44,7.45-12.76,2.66-4.86,5.1-9.86,8.85-14.02,4.61-5.1,9.96-8.65,17.08-9.41,5.43-.57,10.71-.53,15.96,.95,5.42,1.55,10.32,3.84,13.98,8.42,1.84,2.3,3.77,4.52,5.26,7.07,3.1,5.29,3.44,10.82,1.23,16.49-.88,2.26-1.88,4.48-2.91,6.67-1.03,2.21-1.93,4.46-2.56,6.81-1.18,4.38,.52,7.88,4.75,9.34,4.46,1.52,9.14,1.97,13.82,2.03,2.78,.02,5.23-1.27,7.46-2.78,7.55-5.08,15.22-9.96,23.15-14.42,10.8-6.05,21.84-6.7,33.02-.89,1.95,1.02,3.66,2.34,5.22,3.84,4.72,4.52,9.2,9.28,11.46,15.56,3.24,9.03,3.81,18.11,1.02,27.53Z"/>
</svg>