<?xml version="1.0" encoding="UTF-8"?>
<svg id="Layer_4" data-name="Layer 4" xmlns="http://www.w3.org/2000/svg" viewBox="0 0 420.68 425.2">
  <path d="M283.09,343.91c5.91,2.36,24.95,8.95,48.39-.27,21.37-8.41,33.7-24.97,37.97-30.85,3.6-4.96,27.7-39.19,19.27-76.9-3.38-15.13-10.74-25.18-15.6-30.65,11.25-4.69,83.05-40.8,22.67-130.58-51.74-76.93-106.54-27.09-109.82-26.02C241.74-4.66,178.03-13.19,138.06,18.85c-26.53,21.27-36.2,55.31-39.56,70.37-3.35-1.69-43.92-13.38-68.28,4.26C5.57,111.32,3.71,147.43,2.78,165.32c-2.04,39.41,15.08,65.33,19.34,71.4,11.33,16.15,33.28,31.57,41.34,35.69-2.46,2.65-10.25,11.64-10.05,22.28,.27,14.32,14.98,27.73,36.33,25.82,5.79,19.51,36.48,64.59,73.21,86.02,48.41,28.24,105.14,22.08,117.44-8.08,1.02-2.49,6.51-12.64,6.08-25.08-.2-5.82-2.58-25.97-3.39-29.46Z"/>
</svg>