<?xml version="1.0" encoding="UTF-8"?>
<svg id="image" xmlns="http://www.w3.org/2000/svg" viewBox="0 0 342.19 425.2">
  <path d="M340.98,180.09c-3.12-.35-6.24-.86-9.37-.92-10.45-.21-20.88,.37-31.23,1.63-8.34,1-16.64,2.34-24.9,3.75-11.35,1.93-22.67,4.04-33.98,6.15-9.64,1.8-19.28,3.53-29.07,4.44-6.36,.59-12.73,1.08-19.13,.23-2.32-.31-3.94-1.15-5.28-3.41,.64-.42,1.37-.79,1.92-1.32,4.94-4.72,10.07-9.29,14.7-14.24,8.42-8.99,16.63-18.17,24.8-27.36,9.58-10.8,19.86-21.04,30.16-31.23,6.36-6.29,13.03-12.32,19.48-18.53,10.97-10.53,22.18-20.84,34.11-30.46,5.2-4.19,10.63-8.11,16.73-11.16,.82-.41,1.86-.76,1.75-2.08-2.23-.33-3.75,.92-5.3,1.85-1.78,1.06-3.34,2.46-5.11,3.55-5.76,3.5-11.59,6.91-17.37,10.38-13.1,7.89-25.55,16.62-37.72,25.69-9.08,6.77-18.14,13.56-27.13,20.43-5.47,4.18-10.95,8.37-16.16,12.82-7.45,6.36-14.67,12.95-21.95,19.48-7.2,6.47-14.32,13.01-21.51,19.48-4.57,4.11-9.16,8.2-13.84,12.2-1.74,1.49-3.7,2.86-6.75,2.66,.19-.99,.24-1.8,.51-2.54,2.11-5.96,4.16-11.94,6.45-17.85,2.28-5.9,4.78-11.74,7.25-17.57,2.73-6.45,5.47-12.89,8.35-19.28,3.11-6.92,6.37-13.78,9.63-20.64,2.88-6.09,5.88-12.13,8.74-18.23,2.58-5.49,5.08-11.02,7.56-16.54,4.01-8.9,8.12-17.76,11.93-26.73,3.53-8.27,6.73-16.66,10.09-24.99,2.53-6.23,5.11-12.43,7.66-18.65,.33-.8,1.08-1.66-.24-2.56-1.33,1.3-2.85,2.41-3.86,3.85-2.49,3.52-4.61,7.25-7.09,10.76-5.48,7.78-11.22,15.39-16.58,23.23-5.86,8.55-11.51,17.23-17.1,25.92-5.71,8.86-11.6,17.63-16.16,27.08-.84,1.75-2.05,3.35-3.09,5.01-.49-.54-.61-.97-.55-1.37,.96-8.3,2.05-16.57,2.85-24.88,.67-6.92,.99-13.85,1.41-20.78,.05-.87,.39-2.1-.95-2.36-1.42-.29-1.46,1.1-1.81,1.87-3.62,7.84-7.27,15.67-10.72,23.56-4.33,9.91-8.28,19.93-10.7,30.44-1.92,8.29-3.05,16.63-3.22,25.08-.08,4.29-.3,8.57-.46,12.95-2.71-.17-4.63-1.26-6.03-2.87-2.79-3.19-5.8-6.34-7.92-9.91-6.18-10.44-11.99-21.08-17.89-31.67-2.51-4.49-4.69-9.17-7.35-13.58-7.29-12.07-12.86-24.84-18.15-37.72-2.99-7.27-5.57-14.67-8.56-21.94-1.03-2.5-2.72-4.77-4.23-7.1-.28-.44-1.07-.58-2.08-1.08-.12,1.41-.29,2.4-.24,3.39,.08,2.16,.38,4.3,.4,6.46,.1,9.03,1.74,17.9,3.06,26.82,.73,4.91,1.88,9.76,2.85,14.64,2.36,11.89,4.82,23.74,8.86,35.26,2.42,6.95,4.77,13.93,7.42,20.8,1.75,4.59,3.84,9.08,6.03,13.5,2.71,5.43,5.71,10.74,8.56,16.12,.22,.41,.36,.88,.76,1.88-4.81-3.07-9.04-5.78-13.28-8.48-5.51-3.51-10.99-7.08-16.56-10.49-4.56-2.78-9.37-5.23-13.88-8.1-7.34-4.66-14.54-9.5-21.75-14.34-4.66-3.14-9.19-6.46-13.83-9.63-3.59-2.45-7.15-4.96-10.93-7.12-2.01-1.15-4.43-1.88-6.77-2.29-2.89-.53-5.04,.73-5.9,3.29-.58,1.75-.97,3.65-.91,5.48,.14,4.29,1.64,8.25,4.11,11.91,3.35,4.95,7.3,9.47,11.57,13.74,5.58,5.59,11.82,10.45,18.32,15.15,9.39,6.8,19.72,12.18,29.92,17.76,5.25,2.86,10.59,5.56,15.13,9.39,1.27,1.08,2.86,2.27,2.33,3.99-.49,1.57-2.48,1.82-4.02,2.12-4.57,.91-9.14,1.78-13.74,2.51-3.67,.58-7.36,1.16-11.07,1.35-7.99,.41-16,.64-24,.84-8.82,.22-17.65,.32-26.46,.53-3.44,.08-6.9,.21-10.32,.59-1.52,.17-3.62,.64-3.77,2.28-.1,.99,1.36,2.11,2.14,3.16,.11,.15,.31,.24,.47,.36,4.16,3.05,8.68,5.52,13.69,7.2,7.46,2.52,15.12,4.27,22.98,5.33,5.92,.8,11.75,2.26,17.69,2.75,8.79,.71,17.63,.99,26.44,1.14,12.8,.21,25.53-.91,38.18-2.69,3.41-.49,6.81-1,10.24-1.35,1.54-.16,3.13,.01,4.7,.04-.34,.78-.74,1.05-1.18,1.22-3.27,1.29-6.52,2.6-9.82,3.79-2.55,.92-5.09,2.12-7.74,2.43-7.58,.9-14.45,3.63-21.35,6.33-4.66,1.82-9.21,3.81-14.13,5.1-8.49,2.2-16.9,4.66-25.27,7.19-4.32,1.32-8.56,2.9-12.76,4.55-4.65,1.82-9.22,3.85-13.83,5.78-.99,.41-2.01,.78-3.07,1.19,.61,1.75,1.88,1.31,3.02,1,6.22-1.69,12.46-3.3,18.61-5.16,3.75-1.14,7.35-2.68,11.03-4.01,7.08-2.56,14.17-5.07,21.24-7.65,3.11-1.14,6.12-2.53,9.25-3.59,8.65-2.94,17.35-5.77,26.02-8.66,3.22-1.06,6.17-.11,7.43,2.33,.36,.67,.58,1.46,.65,2.34,.16,2.19-.14,4.56-.92,6.62-3.05,7.95-6.34,15.81-9.61,23.67-.35,.82-1.01,1.69-1.78,2.17-6.9,4.28-13.86,8.47-20.78,12.73-12.06,7.44-24.14,14.86-36.13,22.41-8.49,5.33-16.32,11.43-23.82,17.9-2.92,2.52-5.95,4.92-8.92,7.37,.93-2.37,2.91-3.96,4.62-5.74,5.46-5.67,11.02-11.27,16.32-17.07,5.37-5.86,10.28-12.09,15.74-17.88,11.26-11.94,22.69-23.76,34.18-35.52,5.6-5.73,12.25-10.07,20.6-11.79,.38-.07,.71-.39,1.06-.61-.01-.03-.02-.05-.03-.08-.06-.16-.13-.33-.19-.49-1.74,.37-3.55,.59-5.22,1.16-5.91,2.01-11.01,5.23-15.32,9.41-5.17,5.03-10.27,10.11-15.25,15.3-6.65,6.96-13.2,13.99-19.71,21.07-9.13,9.92-18.11,19.96-27.27,29.86-5.33,5.78-10.93,11.34-16.27,17.12-1.83,1.99-3.23,4.31-4.74,6.52-.29,.42-.16,1.08-.3,2.21,1.01-.73,1.51-1.02,1.91-1.4,2.82-2.69,5.72-5.32,8.41-8.12,6.23-6.47,13.43-11.98,20.5-17.58,5.91-4.69,12.39-8.78,18.71-13,6.91-4.61,13.83-9.2,20.91-13.57,9.17-5.66,18.5-11.11,27.76-16.64,.8-.47,1.66-.83,3.03-1.51-.4,1.22-.56,1.83-.8,2.41-1.47,3.59-3.06,7.14-4.4,10.76-5.2,14-10.52,27.96-15.38,42.06-4.16,12.04-7.81,24.23-11.6,36.39-4.11,13.16-7.07,26.57-9.13,40.14-.65,4.23-.78,8.58,1.19,12.63,1.7,.68,3.22,.24,4.4-.65,2.26-1.71,4.63-3.43,6.44-5.52,3.79-4.4,6.99-9.19,9.52-14.33,3.07-6.22,6.08-12.46,9.13-18.7,2.38-4.87,4.92-9.66,7.12-14.59,3.41-7.62,6.58-15.33,9.87-23,2.99-6.97,6.08-13.91,8.99-20.91,7.46-17.91,14.26-36.07,22.96-53.53,1.48-2.96,3.34-5.78,5.15-8.59,.94-1.47,2.23-2.66,4.47-2.56,.24,.54,.63,1.02,.67,1.53,.27,4.01,.72,8.02,.63,12.03-.24,9.93-.9,19.86-1.12,29.8-.25,11.91-.18,23.82-.31,35.73-.12,12.66-.4,25.32-.45,37.98-.05,16.88,.16,33.76,1.21,50.62,.54,8.79,1.13,17.57,1.75,26.36,.03,.5,.51,.98,.79,1.48,.24-.01,.49-.03,.73-.04,.27-.95,.59-1.87,.79-2.83,.37-1.84,.67-3.69,.99-5.54,.9-5.38,1.97-10.73,2.66-16.13,.84-6.42,1.34-12.87,2.02-19.3,.95-8.95,1.97-17.88,2.89-26.84,.56-5.4,.98-10.82,1.52-16.22,.83-8.3,1.74-16.59,2.57-24.89,.72-7.16,1.51-14.33,2.03-21.5,.54-7.56,.84-15.15,1.18-22.73,.37-8.22,.17-16.48,1.31-24.66,.14-1.05,.48-2.08,.88-3.76,1.78,1.57,3.41,2.52,4.3,3.88,3.51,5.37,7.13,10.72,10.05,16.36,3.75,7.26,6.8,14.82,10.28,22.19,5.72,12.1,11.64,24.11,17.3,36.23,3.64,7.83,6.9,15.82,10.43,23.69,4.08,9.08,8.1,18.19,12.49,27.14,2.72,5.52,5.94,10.87,9.22,16.13,1.29,2.06,3.34,3.72,5.12,5.48,.89,.88,2.08,1.05,3.62,.58,.1-.88,.37-1.81,.24-2.68-.3-2.14-.63-4.29-1.23-6.36-1.8-6.14-3.6-12.29-5.66-18.36-1.2-3.56-2.94-6.96-4.35-10.45-1.51-3.77-2.82-7.61-4.37-11.35-3.86-9.31-7.69-18.62-11.76-27.86-3.53-8.02-7.28-15.97-11.09-23.87-2.71-5.64-5.56-11.24-8.6-16.73-5.34-9.68-10.88-19.27-16.34-28.91-1.08-1.93-2.15-3.88-3.46-6.29,1.31,.5,2.05,.73,2.75,1.05,7.65,3.45,15.27,6.97,22.94,10.36,5.29,2.35,10.69,4.49,16.01,6.79,8.36,3.59,16.85,6.97,25.03,10.9,12.15,5.85,23.69,12.71,34.88,20.03,8.02,5.25,15.78,10.87,23.53,16.46,3.2,2.29,6.03,5.01,9.13,7.43,1.81,1.41,3.87,2.37,6.67,1.26-.28-.93-.36-1.88-.82-2.63-1.18-1.97-2.29-4.02-3.85-5.71-7.92-8.58-16.91-16.13-26.45-23.14-2.69-1.98-5.34-3.99-8.04-5.97-6.45-4.7-12.89-9.39-19.38-14.02-1.32-.93-2.88-1.56-4.33-2.34-.02-.01-.04-.02-.06-.03-.02-.02-.04-.04-.05-.06-.42-.46-.79-.99-1.32-1.31-1.92-1.17-3.89-2.27-5.86-3.35-.98-.53-2.02-.96-3.03-1.42-.04-.02-.1-.04-.14-.06-.03-.04-.06-.07-.1-.12-.37-.46-.67-1-1.15-1.29-4.35-2.56-8.7-5.12-13.12-7.58-7.71-4.29-15.48-8.5-23.19-12.77-5.22-2.89-10.43-5.77-15.56-8.79-3.68-2.16-7.26-4.46-10.79-6.82-2.79-1.85-5.52-3.8-8.12-5.89-1.17-.93-2.4-2.05-2.34-4.07,1.67-.67,3.35-1.58,5.16-2.02,9.21-2.23,18.43-4.43,27.7-6.46,5.23-1.15,10.53-2.01,15.82-2.88,7.69-1.25,15.39-2.48,23.11-3.56,10.93-1.54,21.84-3.21,32.82-4.32,10.89-1.09,21.85-1.46,32.76-2.39,4.11-.35,8.16-1.4,12.24-2.11,.95-.16,1.78-.39,1.72-1.66-.3-.14-.63-.4-.99-.44Z"/>
  <path d="M340.98,180.09c-3.12-.35-6.24-.86-9.37-.92-10.45-.21-20.88,.37-31.23,1.63-8.34,1-16.64,2.34-24.9,3.75-11.35,1.93-22.67,4.04-33.98,6.15-9.64,1.8-19.28,3.53-29.07,4.44-6.36,.59-12.73,1.08-19.13,.23-2.32-.31-3.94-1.15-5.28-3.41,.64-.42,1.37-.79,1.92-1.32,4.94-4.72,10.07-9.29,14.7-14.24,8.42-8.99,16.63-18.17,24.8-27.36,9.58-10.8,19.86-21.04,30.16-31.23,6.36-6.29,13.03-12.32,19.48-18.53,10.97-10.53,22.18-20.84,34.11-30.46,5.2-4.19,10.63-8.11,16.73-11.16,.82-.41,1.86-.76,1.75-2.08-2.23-.33-3.75,.92-5.3,1.85-1.78,1.06-3.34,2.46-5.11,3.55-5.76,3.5-11.59,6.91-17.37,10.38-13.1,7.89-25.55,16.62-37.72,25.69-9.08,6.77-18.14,13.56-27.13,20.43-5.47,4.18-10.95,8.37-16.16,12.82-7.45,6.36-14.67,12.95-21.95,19.48-7.2,6.47-14.32,13.01-21.51,19.48-4.57,4.11-9.16,8.2-13.84,12.2-1.74,1.49-3.7,2.86-6.75,2.66,.19-.99,.24-1.8,.51-2.54,2.11-5.96,4.16-11.94,6.45-17.85,2.28-5.9,4.78-11.74,7.25-17.57,2.73-6.45,5.47-12.89,8.35-19.28,3.11-6.92,6.37-13.78,9.63-20.64,2.88-6.09,5.88-12.13,8.74-18.23,2.58-5.49,5.08-11.02,7.56-16.54,4.01-8.9,8.12-17.76,11.93-26.73,3.53-8.27,6.73-16.66,10.09-24.99,2.53-6.23,5.11-12.43,7.66-18.65,.33-.8,1.08-1.66-.24-2.56-1.33,1.3-2.85,2.41-3.86,3.85-2.49,3.52-4.61,7.25-7.09,10.76-5.48,7.78-11.22,15.39-16.58,23.23-5.86,8.55-11.51,17.23-17.1,25.92-5.71,8.86-11.6,17.63-16.16,27.08-.84,1.75-2.05,3.35-3.09,5.01-.49-.54-.61-.97-.55-1.37,.96-8.3,2.05-16.57,2.85-24.88,.67-6.92,.99-13.85,1.41-20.78,.05-.87,.39-2.1-.95-2.36-1.42-.29-1.46,1.1-1.81,1.87-3.62,7.84-7.27,15.67-10.72,23.56-4.33,9.91-8.28,19.93-10.7,30.44-1.92,8.29-3.05,16.63-3.22,25.08-.08,4.29-.3,8.57-.46,12.95-2.71-.17-4.63-1.26-6.03-2.87-2.79-3.19-5.8-6.34-7.92-9.91-6.18-10.44-11.99-21.08-17.89-31.67-2.51-4.49-4.69-9.17-7.35-13.58-7.29-12.07-12.86-24.84-18.15-37.72-2.99-7.27-5.57-14.67-8.56-21.94-1.03-2.5-2.72-4.77-4.23-7.1-.28-.44-1.07-.58-2.08-1.08-.12,1.41-.29,2.4-.24,3.39,.08,2.16,.38,4.3,.4,6.46,.1,9.03,1.74,17.9,3.06,26.82,.73,4.91,1.88,9.76,2.85,14.64,2.36,11.89,4.82,23.74,8.86,35.26,2.42,6.95,4.77,13.93,7.42,20.8,1.75,4.59,3.84,9.08,6.03,13.5,2.71,5.43,5.71,10.74,8.56,16.12,.22,.41,.36,.88,.76,1.88-4.81-3.07-9.04-5.78-13.28-8.48-5.51-3.51-10.99-7.08-16.56-10.49-4.56-2.78-9.37-5.23-13.88-8.1-7.34-4.66-14.54-9.5-21.75-14.34-4.66-3.14-9.19-6.46-13.83-9.63-3.59-2.45-7.15-4.96-10.93-7.12-2.01-1.15-4.43-1.88-6.77-2.29-2.89-.53-5.04,.73-5.9,3.29-.58,1.75-.97,3.65-.91,5.48,.14,4.29,1.64,8.25,4.11,11.91,3.35,4.95,7.3,9.47,11.57,13.74,5.58,5.59,11.82,10.45,18.32,15.15,9.39,6.8,19.72,12.18,29.92,17.76,5.25,2.86,10.59,5.56,15.13,9.39,1.27,1.08,2.86,2.27,2.33,3.99-.49,1.57-2.48,1.82-4.02,2.12-4.57,.91-9.14,1.78-13.74,2.51-3.67,.58-7.36,1.16-11.07,1.35-7.99,.41-16,.64-24,.84-8.82,.22-17.65,.32-26.46,.53-3.44,.08-6.9,.21-10.32,.59-1.52,.17-3.62,.64-3.77,2.28-.1,.99,1.36,2.11,2.14,3.16,.11,.15,.31,.24,.47,.36,4.16,3.05,8.68,5.52,13.69,7.2,7.46,2.52,15.12,4.27,22.98,5.33,5.92,.8,11.75,2.26,17.69,2.75,8.79,.71,17.63,.99,26.44,1.14,12.8,.21,25.53-.91,38.18-2.69,3.41-.49,6.81-1,10.24-1.35,1.54-.16,3.13,.01,4.7,.04-.34,.78-.74,1.05-1.18,1.22-3.27,1.29-6.52,2.6-9.82,3.79-2.55,.92-5.09,2.12-7.74,2.43-7.58,.9-14.45,3.63-21.35,6.33-4.66,1.82-9.21,3.81-14.13,5.1-8.49,2.2-16.9,4.66-25.27,7.19-4.32,1.32-8.56,2.9-12.76,4.55-4.65,1.82-9.22,3.85-13.83,5.78-.99,.41-2.01,.78-3.07,1.19,.61,1.75,1.88,1.31,3.02,1,6.22-1.69,12.46-3.3,18.61-5.16,3.75-1.14,7.35-2.68,11.03-4.01,7.08-2.56,14.17-5.07,21.24-7.65,3.11-1.14,6.12-2.53,9.25-3.59,8.65-2.94,17.35-5.77,26.02-8.66,3.22-1.06,6.17-.11,7.43,2.33,.36,.67,.58,1.46,.65,2.34,.16,2.19-.14,4.56-.92,6.62-3.05,7.95-6.34,15.81-9.61,23.67-.35,.82-1.01,1.69-1.78,2.17-6.9,4.28-13.86,8.47-20.78,12.73-12.06,7.44-24.14,14.86-36.13,22.41-8.49,5.33-16.32,11.43-23.82,17.9-2.92,2.52-5.95,4.92-8.92,7.37,.93-2.37,2.91-3.96,4.62-5.74,5.46-5.67,11.02-11.27,16.32-17.07,5.37-5.86,10.28-12.09,15.74-17.88,11.26-11.94,22.69-23.76,34.18-35.52,5.6-5.73,12.25-10.07,20.6-11.79,.07-.02,.46-.28,1.03-.69,2.46-1.74,8.48-6.28,8.83-6.51-.32,0-8.95,6.22-9.02,6.02-1.74,.37-3.55,.59-5.22,1.16-5.91,2.01-11.01,5.23-15.32,9.41-5.17,5.03-10.27,10.11-15.25,15.3-6.65,6.96-13.2,13.99-19.71,21.07-9.13,9.92-18.11,19.96-27.27,29.86-5.33,5.78-10.93,11.34-16.27,17.12-1.83,1.99-3.23,4.31-4.74,6.52-.29,.42-.16,1.08-.3,2.21,1.01-.73,1.51-1.02,1.91-1.4,2.82-2.69,5.72-5.32,8.41-8.12,6.23-6.47,13.43-11.98,20.5-17.58,5.91-4.69,12.39-8.78,18.71-13,6.91-4.61,13.83-9.2,20.91-13.57,9.17-5.66,18.5-11.11,27.76-16.64,.8-.47,1.66-.83,3.03-1.51-.4,1.22-.56,1.83-.8,2.41-1.47,3.59-3.06,7.14-4.4,10.76-5.2,14-10.52,27.96-15.38,42.06-4.16,12.04-7.81,24.23-11.6,36.39-4.11,13.16-7.07,26.57-9.13,40.14-.65,4.23-.78,8.58,1.19,12.63,1.7,.68,3.22,.24,4.4-.65,2.26-1.71,4.63-3.43,6.44-5.52,3.79-4.4,6.99-9.19,9.52-14.33,3.07-6.22,6.08-12.46,9.13-18.7,2.38-4.87,4.92-9.66,7.12-14.59,3.41-7.62,6.58-15.33,9.87-23,2.99-6.97,6.08-13.91,8.99-20.91,7.46-17.91,14.26-36.07,22.96-53.53,1.48-2.96,3.34-5.78,5.15-8.59,.94-1.47,2.23-2.66,4.47-2.56,.24,.54,.63,1.02,.67,1.53,.27,4.01,.72,8.02,.63,12.03-.24,9.93-.9,19.86-1.12,29.8-.25,11.91-.18,23.82-.31,35.73-.12,12.66-.4,25.32-.45,37.98-.05,16.88,.16,33.76,1.21,50.62,.54,8.79,1.13,17.57,1.75,26.36,.03,.5,.51,.98,.79,1.48,.24-.01,.49-.03,.73-.04,.27-.95,.59-1.87,.79-2.83,.37-1.84,.67-3.69,.99-5.54,.9-5.38,1.97-10.73,2.66-16.13,.84-6.42,1.34-12.87,2.02-19.3,.95-8.95,1.97-17.88,2.89-26.84,.56-5.4,.98-10.82,1.52-16.22,.83-8.3,1.74-16.59,2.57-24.89,.72-7.16,1.51-14.33,2.03-21.5,.54-7.56,.84-15.15,1.18-22.73,.37-8.22,.17-16.48,1.31-24.66,.14-1.05,.48-2.08,.88-3.76,1.78,1.57,3.41,2.52,4.3,3.88,3.51,5.37,7.13,10.72,10.05,16.36,3.75,7.26,6.8,14.82,10.28,22.19,5.72,12.1,11.64,24.11,17.3,36.23,3.64,7.83,6.9,15.82,10.43,23.69,4.08,9.08,8.1,18.19,12.49,27.14,2.72,5.52,5.94,10.87,9.22,16.13,1.29,2.06,3.34,3.72,5.12,5.48,.89,.88,2.08,1.05,3.62,.58,.1-.88,.37-1.81,.24-2.68-.3-2.14-.63-4.29-1.23-6.36-1.8-6.14-3.6-12.29-5.66-18.36-1.2-3.56-2.94-6.96-4.35-10.45-1.51-3.77-2.82-7.61-4.37-11.35-3.86-9.31-7.69-18.62-11.76-27.86-3.53-8.02-7.28-15.97-11.09-23.87-2.71-5.64-5.56-11.24-8.6-16.73-5.34-9.68-10.88-19.27-16.34-28.91-1.08-1.93-2.15-3.88-3.46-6.29,1.31,.5,2.05,.73,2.75,1.05,7.65,3.45,15.27,6.97,22.94,10.36,5.29,2.35,10.69,4.49,16.01,6.79,8.36,3.59,16.85,6.97,25.03,10.9,12.15,5.85,23.69,12.71,34.88,20.03,8.02,5.25,15.78,10.87,23.53,16.46,3.2,2.29,6.03,5.01,9.13,7.43,1.81,1.41,3.87,2.37,6.67,1.26-.28-.93-.36-1.88-.82-2.63-1.18-1.97-2.29-4.02-3.85-5.71-7.92-8.58-16.91-16.13-26.45-23.14-2.69-1.98-5.34-3.99-8.04-5.97-6.45-4.7-12.89-9.39-19.38-14.02-1.32-.93-2.88-1.56-4.33-2.34,.22,2.03,2.4,2.42,3.71,3.29,5.39,3.59,10.48,7.52,15.65,11.35,5.14,3.81,10.26,7.66,15.39,11.47,8.17,6.08,15.54,12.91,22.44,20.2,1.72,1.82,3.1,3.89,3.78,6.45-1.72,.35-2.87-.51-3.92-1.3-3.23-2.42-6.29-5.04-9.57-7.39-11.35-8.19-22.63-16.48-34.97-23.39-6.68-3.74-13.24-7.65-19.93-11.37-2.6-1.44-5.4-2.59-8.15-3.79-7.97-3.46-15.96-6.91-23.96-10.33-6.71-2.87-13.52-5.58-20.18-8.57-7.11-3.2-14.07-6.65-21.11-9.97-.93-.44-1.97-.68-3.54-1.22,.42,1,.48,1.59,.78,1.73,3.5,1.68,5.06,4.81,6.78,7.76,4.92,8.4,9.83,16.82,14.54,25.32,3.23,5.84,6.24,11.79,9.15,17.77,4.61,9.48,9.21,18.96,13.55,28.56,4.39,9.67,8.5,19.45,12.62,29.23,2.28,5.41,4.47,10.85,6.44,16.36,2.96,8.25,5.88,16.54,7.59,25.14,.21,1.08,.18,2.21,.28,3.47-2.09,.14-3.19-1.06-4.19-2.11-1.34-1.39-2.54-2.93-3.6-4.53-4.22-6.3-7.47-13.07-10.85-19.78-4.62-9.17-8.24-18.7-12.29-28.08-4.4-10.17-9.06-20.25-13.76-30.31-3.17-6.78-6.65-13.45-9.88-20.21-4.54-9.52-8.76-19.16-13.52-28.58-2.4-4.73-5.56-9.14-8.61-13.56-1-1.43-2.66-2.57-4.23-3.56-1.49-.92-2.48-.45-2.66,1.26-.48,4.28-.93,8.56-1.14,12.87-.49,10.39-.65,20.8-1.26,31.19-.65,10.95-1.58,21.9-2.56,32.83-.83,9.25-1.91,18.48-2.85,27.72-.68,6.82-1.26,13.64-1.97,20.45-.67,6.53-1.43,13.06-2.18,19.58-.67,5.88-1.27,11.75-2.08,17.6-.7,5.09-1.64,10.15-2.5,15.43-1.5-.63-1.15-1.69-1.2-2.49-.5-7.67-.96-15.34-1.4-23.02-.35-5.97-.82-11.95-1-17.93-.18-5.69-.05-11.41-.06-17.12-.01-7.86-.07-15.73-.02-23.61,.03-4.87,.29-9.73,.33-14.61,.02-4.02-.2-8.04-.17-12.06,.03-4.69,.24-9.36,.32-14.03,.1-6.47,.05-12.93,.22-19.4,.16-6.17,.51-12.35,.78-18.52,.24-5.85,.61-11.71,.68-17.57,.03-2.69-.33-5.42-.87-8.06-.49-2.36-2.29-3-4.47-1.67-1.22,.74-2.36,1.84-3.09,3.02-1.71,2.75-3.14,5.65-4.73,8.48-5.9,10.53-9.71,21.83-14.4,32.81-3.46,8.11-6.94,16.2-10.34,24.33-4.36,10.4-8.51,20.87-12.99,31.22-2.94,6.77-6.31,13.39-9.48,20.08-2.43,5.15-4.86,10.32-7.3,15.47-3.46,7.32-7.5,14.35-12.88,20.63-1.74,2.04-3.95,3.77-6.14,5.42-2,1.5-3.28,.98-3.79-1.46-.85-4.01-.69-8.03,.05-12.04,2.19-11.63,4.78-23.19,8.07-34.61,1.88-6.5,3.45-13.09,5.39-19.58,1.18-3.94,2.79-7.78,4.2-11.67,1.08-3.02,2.17-6.03,3.2-9.06,1.82-5.33,3.48-10.72,5.42-16.02,2.28-6.28,4.76-12.5,7.19-18.74,1.94-5,3.91-10.01,5.92-14.99,.67-1.67,1.37-3.34,2.29-4.89,.5-.85,1.39-1.6,2.28-2.15,6.31-3.9,12.63-7.79,19.03-11.56,5.46-3.23,11.07-6.26,16.55-9.46,1.41-.82,2.61-1.95,4.02-3.04-1.44-1.4-2.54-1.01-3.34-.07-2,2.36-4.75,3.76-7.39,5.31-8.13,4.78-16.22,9.58-24.35,14.36-1.42,.85-2.89,1.64-4.98,2.82,.36-1.52,.46-2.42,.79-3.25,2.8-6.92,5.68-13.8,8.48-20.73,.49-1.21,.85-2.51,1.05-3.8,.51-3.19-.34-5.95-3.34-7.9-.33-.21-.64-.46-.93-.7-.05-.04-.02-.17-.03-.42,6.03-2.41,12.49-4.14,18.82-7.5-3.14-1.72-5.81-1.92-8.51-1.58-5.73,.72-11.42,1.75-17.16,2.28-8.17,.76-16.37,1.44-24.57,1.69-8.2,.23-16.44,.07-24.64-.27-6.87-.29-13.74-.92-20.46-2.55-2.93-.71-6-.87-9.01-1.35-1.78-.29-3.59-.57-5.33-1.05-5.83-1.58-11.73-3.02-17.41-4.97-4.55-1.57-8.65-4.04-11.8-7.67,.72-1.27,1.86-1.59,3.09-1.69,2.92-.22,5.85-.48,8.79-.58,10.54-.39,21.08-.63,31.61-1.09,9.64-.42,19.26-.91,28.87-1.69,5.13-.41,10.21-1.48,15.31-2.32,.99-.16,1.94-.53,2.88-.89,2.93-1.17,3.73-3.62,1.6-5.86-1.73-1.82-3.74-3.5-5.92-4.81-4.82-2.93-9.81-5.64-14.77-8.38-8.97-4.95-18.01-9.73-26.28-15.72-6.73-4.88-13.24-9.92-19.02-15.73-4.61-4.63-8.87-9.52-11.93-15.19-2.14-3.94-3.31-8.07-2.26-12.48,.71-2.96,2.53-4.25,5.74-3.61,2.32,.46,4.66,1.37,6.65,2.58,4.48,2.71,8.76,5.72,13.11,8.63,5.58,3.73,11.16,7.46,16.68,11.24,2.82,1.92,5.43,4.09,8.31,5.91,3.68,2.32,7.56,4.33,11.3,6.57,3.95,2.38,7.83,4.86,11.75,7.28,1.18,.73,2.39,1.42,3.57,2.16,5.39,3.31,10.79,6.6,16.12,9.99,3.17,2.02,6.17,4.22,9.27,6.32,2.2,1.49,2.57,1.61,4.74,1.8-.3-.56-.45-1.09-.8-1.48-3.62-4.1-6.48-8.63-8.91-13.39-8.82-17.24-15.54-35.21-20.58-53.68-2.59-9.52-4.78-19.16-6.58-28.83-2.06-11.08-3.94-22.22-4.5-33.48-.13-2.67-.02-5.34-.02-8.02,.21-.06,.43-.13,.64-.2,.8,1.46,1.75,2.85,2.36,4.37,2.31,5.8,4.4,11.68,6.76,17.47,2.78,6.83,5.73,13.61,8.65,20.4,5.15,11.95,11.96,23.16,18.2,34.62,6.01,11.05,12.14,22.06,18.5,32.95,2.09,3.6,4.84,6.93,7.68,10.08,1.42,1.58,3.59,2.73,5.64,3.65,2.66,1.19,4.04,.28,4.11-2.4,.14-4.78,.19-9.57,.35-14.35,.37-10.84,2.32-21.48,5.77-31.81,3.73-11.2,8.22-22.16,13.37-32.89,1.07-2.22,2-4.5,3.04-6.75,.34-.72,.82-1.38,1.64-1.93,0,2.01,.15,4.03-.03,6.01-.92,9.99-1.89,19.97-2.93,29.95-.45,4.29-1.08,8.56-1.68,12.83-.07,.54-.29,1.09-.56,1.58-4.87,8.64-9.24,17.54-15.95,25.18-.39,.45-.51,1.08-.85,1.85,1.48,.23,2.32,.33,2.89-1.01,.54-1.27,1.49-2.4,2.33-3.55,1.07-1.44,2.39-2.74,3.28-4.27,2.6-4.41,5.05-8.9,8.06-13.31-.32,3.24-.68,6.48-.96,9.72-.28,3.37-.75,6.75-.64,10.1,.12,3.2-1.54,6.47,.56,9.69,.2-.46,.54-.91,.57-1.38,.4-6.56,.67-13.11,1.17-19.65,.31-4.11,.89-8.21,1.5-12.29,.17-1.18,.69-2.36,1.3-3.42,4.54-7.96,8.97-15.98,13.78-23.8,5.65-9.21,11.59-18.27,17.53-27.33,4.78-7.29,9.65-14.52,14.65-21.68,3.89-5.57,8.03-10.99,12.08-16.46,.28-.37,.66-.66,1.37-1.35-.1,.99-.02,1.53-.2,1.99-1.91,5.04-3.84,10.07-5.81,15.09-2.16,5.45-4.28,10.92-6.6,16.32-5.48,12.8-11.01,25.6-16.66,38.34-2.77,6.25-5.89,12.36-8.83,18.53-3.26,6.86-6.49,13.75-9.73,20.62-2.36,4.98-4.83,9.91-7.04,14.95-3.23,7.38-6.36,14.81-9.36,22.27-3.39,8.44-6.6,16.92-9.86,25.39-.34,.88-.63,1.8-.79,2.71-.37,2.24,.52,3.07,2.88,2.36,1.89-.57,3.81-1.4,5.35-2.55,3.23-2.41,6.3-5.01,9.27-7.7,7.4-6.68,14.71-13.45,22.06-20.2,6.33-5.81,12.58-11.7,19-17.41,4.52-4.03,9.16-7.95,13.95-11.7,6.25-4.9,12.75-9.54,19.06-14.37,5.46-4.18,10.72-8.57,16.23-12.67,5.99-4.45,12.18-8.69,18.29-12.99,3.54-2.5,7.04-5.03,10.67-7.39,4.05-2.65,8.22-5.13,12.35-7.68,.83-.51,1.69-1,2.88-1.29-.49,.55-.92,1.16-1.47,1.66-11.82,10.82-23.74,21.54-35.45,32.47-7.2,6.73-14.09,13.74-21.06,20.66-4.91,4.88-9.87,9.71-14.53,14.77-7.9,8.55-15.5,17.34-23.39,25.9-5.92,6.42-12.02,12.7-18.17,18.92-2.39,2.41-5.16,4.49-7.75,6.74-2.05,1.8-2.03,2.8,.48,4.06,1.56,.79,3.38,1.33,5.15,1.55,5.76,.74,11.53,.65,17.29-.21,1.7-.26,3.45-.2,5.14-.48,8.78-1.44,17.54-2.94,26.31-4.42,6.57-1.09,13.14-2.14,19.71-3.27,4.19-.72,8.33-1.64,12.53-2.32,8.09-1.29,16.19-2.44,24.29-3.7,8.72-1.35,17.51-1.97,26.35-1.99,3.25,0,6.49-.15,9.73-.15,1.08,0,2.16,.28,3.39,.45-.47,1.41-1.67,1.25-2.52,1.36-5.93,.72-11.86,1.56-17.81,2.01-16.58,1.25-33.16,2.44-49.57,5.13-12.07,1.97-24.19,3.64-36.25,5.68-6.67,1.14-13.26,2.74-19.86,4.2-5.23,1.15-10.44,2.35-15.64,3.64-2.15,.53-4.25,1.25-6.29,2.07-1.59,.65-1.87,1.54-1.05,2.94,.52,.89,1.24,1.71,1.99,2.45,3.21,3.19,6.94,5.68,11.04,7.84,3.69,1.93,7.03,4.42,10.63,6.5,4.54,2.65,9.18,5.12,13.77,7.68,2.84,1.57,5.65,3.19,8.51,4.72,2.17,1.16,4.41,2.18,6.58,3.31,1.98,1.04,3.89,2.17,5.83,3.24,4.98,2.74,9.85,5.64,14.58,8.74,.87,.57,2.08,.72,3.16,1.02-.37-.46-.67-1-1.15-1.29-4.35-2.56-8.7-5.12-13.12-7.58-7.71-4.29-15.48-8.5-23.19-12.77-5.22-2.89-10.43-5.77-15.56-8.79-3.68-2.16-7.26-4.46-10.79-6.82-2.79-1.85-5.52-3.8-8.12-5.89-1.17-.93-2.4-2.05-2.34-4.07,1.67-.67,3.35-1.58,5.16-2.02,9.21-2.23,18.43-4.43,27.7-6.46,5.23-1.15,10.53-2.01,15.82-2.88,7.69-1.25,15.39-2.48,23.11-3.56,10.93-1.54,21.84-3.21,32.82-4.32,10.89-1.09,21.85-1.46,32.76-2.39,4.11-.35,8.16-1.4,12.24-2.11,.95-.16,1.78-.39,1.72-1.66-.3-.14-.63-.4-.99-.44ZM36.1,233.36c12.1-5.75,24.96-9.47,38.52-12.99-3.13,2.28-34.83,12.99-38.52,12.99Zm239.31,26.08s.04,.02,.06,.03c-.01-.03-.01-.06-.01-.1l-.05,.06Zm-10.32-6.27c-.06-.02-.12-.03-.18-.05,.03,.04,.06,.07,.1,.12l.09-.06Z"/>
  <path d="M122.11,219.19c-3.05,7.95-6.34,15.81-9.61,23.67-.35,.82-1.01,1.69-1.78,2.17-6.9,4.28-13.86,8.47-20.78,12.73-12.06,7.44-24.14,14.86-36.13,22.41-8.49,5.33-16.32,11.43-23.82,17.9-2.92,2.52-5.95,4.92-8.92,7.37,.93-2.37,2.91-3.96,4.62-5.74,5.46-5.67,11.02-11.27,16.32-17.07,5.37-5.86,10.28-12.09,15.74-17.88,11.26-11.94,22.69-23.76,34.18-35.52,5.6-5.73,12.25-10.07,20.6-11.79,.38-.07,.71-.39,1.06-.61-.01-.03-.02-.05-.03-.08,2.46-1.74,8.48-6.28,8.83-6.51h.01c.36,.67,.58,1.46,.65,2.34,.16,2.19-.14,4.56-.92,6.62Z"/>
  <path d="M265,253.24c1.06,.49,2.15,.94,3.17,1.49,1.98,1.08,3.95,2.18,5.87,3.34,.55,.33,.92,.91,1.37,1.37,0,0,.05-.06,.05-.06-.49-.01-1.07,.13-1.45-.06-1.47-.75-3.03-1.45-4.28-2.46-1.53-1.24-3.98-1.51-4.64-3.67l-.1,.06Z"/>
  <path d="M265.1,253.18c.66,2.17,3.11,2.43,4.64,3.67,1.25,1.01,2.8,1.71,4.28,2.46,.38,.19,.96,.05,1.45,.06,.16,2.11,2.39,2.5,3.72,3.39,5.39,3.59,10.47,7.52,15.65,11.35,5.14,3.81,10.26,7.65,15.4,11.47,8.17,6.08,15.55,12.91,22.43,20.19,1.72,1.82,3.11,3.89,3.78,6.45-1.71,.35-2.86-.51-3.91-1.3-3.23-2.42-6.3-5.03-9.57-7.39-11.35-8.19-22.63-16.47-34.98-23.39-6.68-3.74-13.24-7.66-19.93-11.37-2.6-1.44-5.39-2.6-8.15-3.79-7.97-3.47-15.96-6.91-23.96-10.33-6.72-2.87-13.52-5.58-20.17-8.57-7.1-3.2-14.07-6.65-21.12-9.97-.93-.44-1.96-.68-3.54-1.22,.43,1,.48,1.59,.78,1.73,3.49,1.67,5.05,4.81,6.77,7.75,4.92,8.4,9.83,16.82,14.54,25.32,3.23,5.84,6.23,11.79,9.15,17.77,4.62,9.48,9.21,18.97,13.55,28.56,4.38,9.68,8.5,19.45,12.62,29.23,2.28,5.41,4.47,10.85,6.44,16.36,2.96,8.26,5.87,16.55,7.58,25.14,.22,1.08,.18,2.21,.27,3.48-2.09,.14-3.18-1.06-4.18-2.11-1.34-1.4-2.53-2.94-3.6-4.53-4.23-6.31-7.47-13.07-10.85-19.79-4.62-9.17-8.24-18.7-12.29-28.08-4.4-10.17-9.06-20.25-13.76-30.31-3.17-6.79-6.65-13.45-9.87-20.21-4.54-9.51-8.77-19.16-13.53-28.57-2.39-4.73-5.55-9.14-8.6-13.56-1-1.44-2.65-2.58-4.22-3.56-1.49-.93-2.48-.45-2.66,1.26-.47,4.28-.93,8.57-1.13,12.87-.48,10.39-.64,20.8-1.26,31.19-.65,10.96-1.59,21.9-2.57,32.84-.83,9.25-1.91,18.48-2.84,27.72-.69,6.81-1.26,13.64-1.97,20.45-.67,6.53-1.44,13.06-2.18,19.59-.67,5.87-1.28,11.75-2.08,17.6-.7,5.09-1.63,10.15-2.5,15.43-1.49-.63-1.15-1.69-1.2-2.49-.5-7.67-.95-15.35-1.4-23.02-.35-5.98-.81-11.95-1-17.94-.18-5.7-.06-11.41-.07-17.11-.01-7.87-.07-15.74-.02-23.61,.03-4.87,.29-9.73,.32-14.6,.03-4.02-.19-8.04-.17-12.07,.03-4.68,.24-9.36,.31-14.03,.1-6.46,.06-12.93,.23-19.39,.16-6.18,.51-12.35,.77-18.52,.25-5.86,.61-11.72,.68-17.58,.03-2.69-.32-5.42-.87-8.06-.49-2.35-2.29-2.99-4.47-1.66-1.22,.74-2.35,1.84-3.09,3.01-1.72,2.75-3.15,5.66-4.73,8.48-5.89,10.53-9.71,21.83-14.4,32.81-3.46,8.1-6.93,16.2-10.33,24.33-4.35,10.4-8.51,20.87-13,31.22-2.94,6.78-6.3,13.4-9.47,20.09-2.44,5.15-4.86,10.31-7.3,15.46-3.47,7.32-7.5,14.36-12.88,20.64-1.74,2.03-3.95,3.77-6.14,5.41-1.99,1.5-3.28,.98-3.79-1.46-.85-4-.69-8.03,.06-12.04,2.19-11.64,4.78-23.19,8.07-34.61,1.88-6.51,3.45-13.09,5.39-19.58,1.18-3.95,2.79-7.78,4.19-11.67,1.09-3.02,2.17-6.03,3.21-9.06,1.82-5.34,3.48-10.72,5.41-16.02,2.29-6.28,4.77-12.51,7.19-18.75,1.95-5.01,3.91-10,5.92-14.99,.67-1.67,1.37-3.34,2.3-4.89,.5-.85,1.39-1.6,2.28-2.15,6.31-3.89,12.63-7.79,19.03-11.56,5.47-3.22,11.07-6.25,16.56-9.45,1.41-.82,2.61-1.96,4.02-3.05-1.44-1.4-2.54-1.01-3.34-.07-2,2.36-4.75,3.75-7.4,5.31-8.12,4.78-16.22,9.58-24.34,14.36-1.43,.84-2.89,1.63-4.99,2.81,.36-1.52,.45-2.42,.79-3.24,2.81-6.92,5.68-13.81,8.48-20.73,.49-1.22,.85-2.51,1.05-3.8,.51-3.19-.33-5.96-3.34-7.91-.33-.21-.63-.45-.93-.7-.05-.04-.02-.18-.03-.43,6.04-2.41,12.5-4.15,18.81-7.5-3.14-1.72-5.8-1.92-8.51-1.58-5.73,.72-11.42,1.75-17.16,2.29-8.17,.76-16.36,1.44-24.57,1.68-8.21,.24-16.44,.08-24.65-.26-6.87-.29-13.74-.92-20.46-2.55-2.93-.71-6.01-.88-9.01-1.35-1.79-.28-3.6-.58-5.34-1.05-5.83-1.59-11.72-3.02-17.41-4.98-4.55-1.57-8.65-4.04-11.81-7.66,.72-1.28,1.86-1.6,3.09-1.69,2.93-.22,5.86-.48,8.79-.59,10.54-.39,21.08-.63,31.61-1.09,9.63-.43,19.26-.91,28.86-1.68,5.14-.42,10.22-1.48,15.31-2.32,.99-.16,1.95-.53,2.88-.9,2.94-1.17,3.73-3.62,1.6-5.87-1.72-1.81-3.74-3.49-5.91-4.81-4.82-2.93-9.81-5.64-14.77-8.38-8.96-4.95-18.01-9.73-26.28-15.73-6.73-4.88-13.24-9.92-19.03-15.73-4.61-4.63-8.87-9.52-11.93-15.2-2.13-3.94-3.31-8.07-2.26-12.48,.71-2.97,2.53-4.25,5.73-3.62,2.32,.46,4.67,1.38,6.65,2.58,4.49,2.72,8.77,5.72,13.11,8.63,5.57,3.73,11.15,7.46,16.68,11.24,2.81,1.92,5.43,4.09,8.31,5.91,3.67,2.31,7.56,4.33,11.3,6.57,3.96,2.37,7.84,4.85,11.76,7.28,1.18,.73,2.39,1.42,3.57,2.15,5.38,3.32,10.79,6.6,16.12,9.99,3.16,2.01,6.17,4.22,9.27,6.31,2.2,1.49,2.57,1.62,4.75,1.8-.3-.56-.45-1.09-.8-1.48-3.62-4.09-6.48-8.62-8.91-13.38-8.82-17.25-15.55-35.21-20.58-53.69-2.59-9.52-4.78-19.16-6.58-28.84-2.06-11.08-3.94-22.21-4.5-33.47-.13-2.67-.02-5.35-.02-8.02,.21-.07,.42-.13,.63-.2,.8,1.45,1.75,2.84,2.36,4.36,2.31,5.81,4.4,11.68,6.76,17.47,2.78,6.83,5.73,13.61,8.65,20.4,5.15,11.95,11.96,23.16,18.2,34.62,6.01,11.05,12.14,22.05,18.49,32.94,2.1,3.6,4.85,6.93,7.69,10.09,1.42,1.58,3.59,2.72,5.64,3.65,2.65,1.19,4.04,.28,4.11-2.4,.14-4.78,.19-9.57,.35-14.35,.37-10.84,2.32-21.48,5.76-31.81,3.73-11.2,8.22-22.16,13.37-32.88,1.07-2.23,2-4.51,3.04-6.75,.33-.72,.81-1.38,1.63-1.93,0,2,.16,4.02-.03,6.01-.92,9.99-1.89,19.97-2.93,29.95-.45,4.29-1.09,8.56-1.68,12.83-.07,.54-.29,1.1-.57,1.58-4.87,8.63-9.24,17.54-15.95,25.18-.39,.44-.51,1.09-.84,1.84,1.47,.24,2.31,.34,2.89-1.01,.54-1.27,1.48-2.4,2.33-3.54,1.06-1.44,2.39-2.74,3.28-4.27,2.6-4.42,5.04-8.91,8.06-13.31-.32,3.24-.68,6.47-.95,9.71-.28,3.37-.76,6.75-.63,10.1,.12,3.2-1.55,6.47,.56,9.7,.2-.46,.54-.92,.57-1.39,.4-6.55,.67-13.11,1.17-19.66,.31-4.11,.9-8.2,1.5-12.29,.17-1.18,.69-2.36,1.29-3.43,4.54-7.96,8.97-15.98,13.78-23.8,5.66-9.2,11.6-18.27,17.53-27.32,4.78-7.29,9.65-14.52,14.64-21.68,3.89-5.57,8.04-10.99,12.09-16.46,.27-.37,.66-.66,1.37-1.35-.09,.99-.02,1.53-.2,1.99-1.91,5.04-3.84,10.07-5.82,15.08-2.16,5.45-4.28,10.92-6.59,16.32-5.49,12.81-11.01,25.61-16.66,38.35-2.77,6.24-5.89,12.35-8.82,18.53-3.26,6.87-6.49,13.75-9.74,20.62-2.35,4.98-4.83,9.91-7.04,14.95-3.23,7.38-6.36,14.81-9.36,22.27-3.39,8.43-6.59,16.92-9.86,25.39-.34,.88-.63,1.79-.78,2.71-.37,2.24,.52,3.07,2.88,2.35,1.89-.57,3.81-1.4,5.35-2.55,3.23-2.41,6.3-5.02,9.27-7.7,7.4-6.69,14.72-13.46,22.06-20.2,6.33-5.81,12.57-11.69,18.99-17.41,4.52-4.03,9.16-7.95,13.95-11.7,6.25-4.9,12.75-9.54,19.06-14.37,5.46-4.17,10.71-8.57,16.23-12.68,5.99-4.45,12.18-8.69,18.29-13,3.53-2.49,7.04-5.02,10.67-7.39,4.05-2.64,8.22-5.13,12.34-7.68,.84-.52,1.7-1,2.89-1.29-.49,.55-.92,1.16-1.47,1.66-11.82,10.82-23.75,21.54-35.45,32.47-7.2,6.72-14.09,13.74-21.06,20.67-4.9,4.87-9.86,9.7-14.53,14.76-7.9,8.55-15.5,17.34-23.39,25.9-5.92,6.42-12.02,12.7-18.17,18.93-2.38,2.41-5.16,4.49-7.74,6.73-2.06,1.79-2.03,2.8,.47,4.06,1.56,.79,3.39,1.32,5.15,1.55,5.76,.75,11.53,.64,17.29-.21,1.7-.25,3.45-.21,5.14-.48,8.77-1.44,17.53-2.94,26.3-4.41,6.57-1.1,13.15-2.14,19.71-3.27,4.18-.72,8.33-1.64,12.52-2.31,8.08-1.29,16.19-2.45,24.29-3.7,8.73-1.35,17.51-1.96,26.36-1.98,3.24,0,6.48-.15,9.72-.15,1.08,0,2.17,.27,3.39,.44-.47,1.41-1.66,1.25-2.52,1.36-5.93,.73-11.85,1.57-17.81,2.01-16.58,1.25-33.16,2.44-49.57,5.13-12.07,1.97-24.2,3.64-36.25,5.69-6.67,1.13-13.26,2.73-19.86,4.19-5.23,1.15-10.44,2.35-15.63,3.64-2.14,.53-4.25,1.25-6.29,2.07-1.6,.64-1.87,1.54-1.05,2.95,.52,.89,1.24,1.71,1.99,2.45,3.2,3.18,6.93,5.69,11.04,7.84,3.69,1.94,7.03,4.41,10.63,6.5,4.54,2.64,9.18,5.12,13.78,7.67,2.84,1.58,5.65,3.19,8.51,4.72,2.16,1.16,4.41,2.17,6.58,3.31,1.97,1.04,3.88,2.17,5.83,3.24,4.98,2.74,9.85,5.64,14.58,8.74,.92,.61,2.22,.73,3.34,1.08Z"/>
  <path d="M36.09,233.36c12.1-5.75,24.97-9.46,38.53-12.99-3.13,2.28-34.85,13-38.53,12.99Z"/>
</svg>