<?xml version="1.0" encoding="UTF-8"?>
<svg id="image" xmlns="http://www.w3.org/2000/svg" viewBox="0 0 375.22 425.2">
  <path d="M223.28,426.8c2.16,.38,3.88-.69,5.69-1.34,7.14-2.54,14.28-5.1,21.46-7.54,1.23-.42,3.02-.88,3.91-.32,2.43,1.54,4.92,1.09,7.23,.55,12.46-2.94,24.88-6.06,37.29-9.24,1.2-.31,2.23-1.4,3.26-2.22,1.53-1.22,2.84-2.81,4.52-3.75,3.89-2.18,8-3.98,11.93-6.11,1.96-1.06,3.8-2.38,5.54-3.78,1.9-1.52,1.84-2.49,.19-4.36-1.67-1.89-3.95-2.48-6.25-3.07-3.29-.84-6.74-1.19-10.52-3.06,2.17-1.47,3.8-2.75,5.58-3.73,3.48-1.92,7.07-3.63,10.57-5.52,1.62-.87,3.28-1.79,3.96-3.85-3.18-4.57-8.7-4.9-13.3-7.15,1.53-2.52,3.95-3.35,6.16-4.3,4.9-2.09,9.91-3.92,14.82-5.98,2.4-1,4.79-2.1,7-3.46,2.58-1.59,2.84-3.7,.67-5.85-1.74-1.73-3.84-3.11-5.85-4.55-2.38-1.7-5.44-2.48-7.23-5.37,1.01-.86,1.83-1.89,2.89-2.42,4.21-2.1,8.51-4.03,12.75-6.06,1-.48,2.04-.98,2.87-1.69,1.81-1.55,1.76-2.75-.19-4.22-1.37-1.03-2.92-1.81-4.59-2.82,2.14-2.44,4.92-3.48,7.56-4.76,2.57-1.24,5.16-2.47,7.59-3.94,2.13-1.29,2.45-2.87,.96-4.64-1.18-1.4-2.67-2.59-4.19-3.62-1.62-1.1-3.44-1.9-5.26-2.87,1.25-2.69,3.54-3.67,5.72-4.82,2.74-1.45,5.64-2.71,8.14-4.51,2.64-1.9,4.18-3.18,.38-6.34-.95-.79-1.95-1.57-3.05-2.1-3.13-1.52-6.34-2.89-9.5-4.35-3.34-1.53-3.69-2.79-.93-5.05,2.38-1.95,5.15-3.43,7.81-5.02,2.13-1.27,4.4-2.31,6.5-3.62,3.04-1.91,3.15-3.76,.19-5.66-1.63-1.05-3.59-1.68-5.48-2.22-3.11-.89-6.29-1.5-9.42-2.32-1.24-.32-2.41-.87-4.11-1.49,1.35-1.19,2.07-2.08,3-2.6,2.38-1.33,4.81-2.61,7.31-3.69,3.65-1.57,7.4-2.9,11.06-4.45,1.02-.43,1.87-1.3,2.93-2.07-2.43-2.69-4.98-4.09-7.99-4.63-4.04-.73-8.09-1.37-12.12-2.13-.87-.16-1.67-.67-3.11-1.27,1.68-1.09,2.73-1.96,3.92-2.52,4.5-2.11,9.07-4.07,13.55-6.21,1.43-.68,2.69-1.75,3.96-2.72,1.36-1.03,1.25-2.19,.32-3.56-1.86-2.72-4.57-4.16-7.49-5.32-2.19-.88-4.49-1.52-6.63-2.5-1.75-.8-3.34-1.94-4.99-2.92,1.73-3.04,3.01-4.28,6.17-5.84,2.45-1.21,4.99-2.24,7.43-3.45,1.67-.82,3.32-1.72,4.85-2.77,2.32-1.6,2.44-2.79,.35-4.76-1.24-1.16-2.75-2.14-4.3-2.86-2.71-1.26-5.56-2.18-8.29-3.39-1.27-.56-2.39-1.47-3.59-2.22,1.49-3.43,4.09-4.92,6.7-6.36,3.92-2.17,8-4.08,11.77-6.48,4.31-2.74,4.99-4.47-.13-8.28-.2-.15-.43-.26-.66-.35-3.61-1.32-7.19-2.73-10.84-3.93-4.13-1.35-8.35-2.44-12.48-3.81-1.29-.43-2.41-1.41-4.14-2.46,1.88-1.51,3.09-2.79,4.56-3.6,2.93-1.61,6.02-2.93,9.01-4.44,2.05-1.04,4.35-1.83,5.36-4.29-1.7-2.27-3.71-3.85-6.29-4.65-2.02-.63-4.07-1.13-6.09-1.76-3.41-1.06-6.96-1.84-9.73-4.29,0-2.26,1.3-3.5,2.84-4.66,3.58-2.69,7.2-5.33,10.64-8.2,2.8-2.33,2.78-4.51,.62-7.48-1.56-2.14-3.75-3.3-6.09-4.12-5.99-2.08-12.08-3.89-18.06-6-3.39-1.2-6.77-2.54-9.94-4.22-3.07-1.62-3.25-3.65-1.07-6.4,.46-.58,1.01-1.12,1.61-1.55,2.12-1.51,4.26-3.01,6.44-4.44,2.81-1.84,5.73-3.51,8.47-5.45,2.03-1.44,2.2-2.84,.52-4.68-1.12-1.23-2.62-2.44-4.17-2.88-5.37-1.54-10.85-2.7-16.27-4.08-1.98-.51-4.11-.85-5.62-3,1.36-1.24,2.55-2.51,3.92-3.53,1.99-1.48,4.13-2.77,6.19-4.16,3.42-2.3,3.31-4.78-.34-6.64-.76-.38-1.64-.6-2.49-.71-2.59-.34-5.2-.59-7.8-.86-6.68-.7-13.38-1.27-20.04-2.13-2.37-.31-4.9-.63-6.94-2.29,1.27-4.6,6.91-4.07,8.72-7.97-1.31-2.23-3.5-2.97-5.89-3.18-3.6-.31-7.21-.62-10.81-.66-8.73-.09-17.4-.87-26.01-2.28-2.92-.48-5.8-1.16-8.45-3.32,1.84-3.61,6.32-4.04,8.4-7.32-1.93-2.87-4.78-3.49-7.83-3.57-10.08-.26-20.16-.46-30.23-.7-1.9-.05-3.81-.22-5.71-.33,2.33-2.12,5.54-.66,8.25-3.12-2.73-.98-5.05-.69-7.29-.54-6.58,.41-13.15,1.13-19.74,1.35-8.46,.29-16.94,.2-25.41,.33-.92,.01-2.55,.23-2.65,.63-.5,2.07-2.2,1.71-3.52,2.15-1.72,.57-3.44,1.13-5.09,1.67,.19,3.51,2.77,3.99,4.86,4.9,2.18,.94,4.75,.92,7.11,2.61-.86,.44-1.25,.75-1.69,.85-3.27,.75-6.55,1.46-9.82,2.19-2.55,.57-5.17,.94-7.62,1.77-2.9,.98-3.47,2.5-2.76,5.44,.24,1.01,.28,2.07,.42,3.12-.7,.11-1.06,.24-1.42,.22-8.86-.4-17.69,.25-26.46,1.37-3.91,.5-7.8,1.53-11.56,2.77-2.81,.92-3.26,2.74-1.8,5.3,.67,1.18,1.59,2.22,2.49,3.25,1.22,1.4,2.53,2.74,3.8,4.1,2.64,2.83,2.28,4.39-1.51,5.41-2.63,.71-5.35,1.27-8.07,1.5-8.97,.73-17.78,2.24-26.41,4.76-1.81,.53-4.34,.34-4.92,2.72-.58,2.4,1.5,3.76,2.93,5.27,.51,.54,1.2,.9,1.72,1.43,.78,.79,1.52,1.64,2.22,2.51,.95,1.18,.83,2.37-.36,3.25-1.8,1.33-3.64,2.59-5.55,3.75-2.55,1.55-5.28,2.81-7.74,4.49-2.68,1.83-2.72,3.36-.41,5.73,1.13,1.15,2.46,2.1,3.68,3.16,2.3,2,2.47,3.42,.24,5.56-1.5,1.44-3.25,2.71-5.07,3.73-5.1,2.85-10.35,5.44-15.44,8.31-3.23,1.82-3.26,3.33-.32,5.56,1.28,.97,2.69,1.81,4.15,2.47,2.15,.98,4.41,1.7,6.58,2.62,1.18,.5,2.64,.75,3.02,2.56-2.55,.84-5.03,1.6-7.47,2.47-3.4,1.2-6.84,2.33-10.15,3.76-3.34,1.44-3.58,2.44-1.55,5.34,1.06,1.51,2.43,2.81,3.66,4.21,1.54,1.76,1.55,2.47-.08,4.03-.53,.51-1.17,.92-1.78,1.35-4.9,3.41-9.97,6.59-14.67,10.26-6.33,4.95-6.05,8.91,.49,13.5,1.93,1.36,3.79,2.82,5.75,4.14,1.42,.96,1.63,2.23,.91,3.55-.37,.67-1.29,1.09-2.02,1.51-2.91,1.67-5.95,3.15-8.74,4.99-2.27,1.5-2.28,3.43-.22,5.2,.92,.79,2.1,1.31,3.22,1.83,1.69,.78,3.49,1.34,5.15,2.19,3.26,1.67,2.92,4.06,.19,5.53-4.27,2.3-8.47,4.73-12.68,7.14-1.4,.8-2.83,1.59-4.09,2.58-3.09,2.42-3.43,5.15-.7,7.92,1.81,1.84,4.07,3.23,6.17,4.77,1.5,1.1,3.2,1.97,4.55,3.22,2.02,1.88,2.19,4.57,.41,6.31-2.48,2.43-5.11,4.71-7.75,6.98-2.54,2.19-5.29,4.15-7.71,6.46-1.6,1.52-3,3.34-4.11,5.25-1.23,2.11-.87,4.21,.88,6.14,2.44,2.68,5.49,3.7,8.96,3.98,2.38,.19,4.74,.53,7.11,.8-.76,1.24-1.57,1.76-2.35,2.31-2.43,1.72-5.04,3.24-7.23,5.22-2.6,2.36-1.76,5.59,1.57,6.58,2.25,.67,4.61,.99,6.93,1.42,3.73,.69,7.64,.79,11.4,3.25-.94,1.06-1.63,2.06-2.52,2.81-2.29,1.92-4.74,3.64-6.98,5.61-2.04,1.79-4.09,3.65-5.78,5.77-2.54,3.18-2.15,6.45,.65,9.33,3.46,3.56,8.02,4.86,12.57,6.18,3.58,1.04,7.2,1.96,10.76,3.07,1.87,.59,3.7,1.41,4.71,3.29-.78,2.18-2.73,2.95-4.31,4.11-2.31,1.68-4.73,3.23-6.92,5.06-1.93,1.62-1.84,2.85-.16,4.73,1.65,1.86,3.87,1.95,6.13,2.18,4.57,.47,9.13,1.09,13.68,1.76,.87,.13,1.65,.77,3.37,1.61-1.29,.86-2.01,1.32-2.72,1.81-1.84,1.26-3.76,2.43-5.49,3.83-.89,.72-2.02,1.85-2.03,2.79,0,1.67,1.65,2.36,3.14,2.73,1.07,.27,2.22,.27,3.33,.38,2.35,.24,4.72,.35,7.05,.75,1.39,.24,2.71,.9,4,1.36,.08,2.48-1.07,3.94-2.3,5.35-1.56,1.78-3.26,3.45-4.73,5.29-2.74,3.45-2.39,6.31,1.19,8.93,1.37,1,3.03,1.75,4.67,2.24,6.09,1.79,12.23,3.38,18.33,5.14,1.78,.51,3.56,1.18,5.2,2.03,2.19,1.14,2.35,2.18,.79,4.08-1.26,1.53-2.75,2.89-3.97,4.46-2.74,3.51-1.98,5.88,2.41,7.05,2.26,.6,4.65,.86,7,.98,5.35,.28,10.71,.29,16.05,.58,2.28,.12,4.6,.44,6.74,1.63-1.25,3.62-5.83,4.32-6.39,8.04,1.32,1.86,3.06,2.28,5.03,2.08,1.73-.18,3.47-.33,5.2-.58,7.68-1.11,15.37-1.53,23.08-.37,1.52,.23,3,.7,5.14,1.22-1.43,1.74-2.41,2.96-3.43,4.16-2.25,2.66-1.87,4.47,1.44,5.53,1.48,.47,3.2,.49,4.78,.36,9.32-.74,18.64-1.27,27.98-.69,4.04,.25,8.16,.28,12.05,1.68,.12,3.24-4.41,3.31-3.84,7.02,1.09,.25,2.36,.82,3.59,.76,3.48-.16,6.94-.65,10.42-.86,6.7-.41,13.4-.95,20.11-.97,3.61-.01,7.39,.32,10.43,2.54,.04,2.81-3.7,2.82-3.54,5.74Z"/>
  <path d="M223.28,426.8c-.16-2.92,3.58-2.93,3.54-5.74-3.04-2.22-6.82-2.55-10.43-2.54-6.7,.02-13.41,.56-20.11,.97-3.48,.21-6.94,.71-10.42,.86-1.23,.06-2.5-.51-3.59-.76-.58-3.7,3.96-3.77,3.84-7.02-3.89-1.41-8.01-1.43-12.05-1.68-9.34-.59-18.66-.05-27.98,.69-1.58,.12-3.29,.11-4.78-.36-3.31-1.06-3.69-2.87-1.44-5.53,1.01-1.2,1.99-2.42,3.43-4.16-2.14-.51-3.62-.99-5.14-1.22-7.71-1.16-15.4-.73-23.08,.37-1.72,.25-3.46,.4-5.2,.58-1.97,.2-3.71-.21-5.03-2.08,.56-3.71,5.13-4.42,6.39-8.04-2.15-1.19-4.47-1.5-6.74-1.63-5.35-.29-10.71-.31-16.05-.58-2.35-.12-4.74-.37-7-.98-4.39-1.17-5.15-3.54-2.41-7.05,1.22-1.56,2.7-2.92,3.97-4.46,1.57-1.9,1.41-2.94-.79-4.08-1.64-.85-3.42-1.52-5.2-2.03-6.1-1.75-12.24-3.35-18.33-5.14-1.64-.48-3.3-1.23-4.67-2.24-3.58-2.62-3.93-5.48-1.19-8.93,1.47-1.85,3.17-3.51,4.73-5.29,1.23-1.41,2.38-2.87,2.3-5.35-1.29-.45-2.61-1.12-4-1.36-2.32-.39-4.7-.51-7.05-.75-1.11-.11-2.25-.11-3.33-.38-1.48-.37-3.14-1.07-3.14-2.73,0-.95,1.14-2.08,2.03-2.79,1.73-1.4,3.65-2.57,5.49-3.83,.71-.48,1.43-.95,2.72-1.81-1.72-.84-2.51-1.48-3.37-1.61-4.55-.67-9.11-1.3-13.68-1.76-2.27-.23-4.48-.33-6.13-2.18-1.68-1.88-1.78-3.12,.16-4.73,2.19-1.83,4.61-3.37,6.92-5.06,1.58-1.15,3.53-1.92,4.31-4.11-1.01-1.88-2.84-2.7-4.71-3.29-3.56-1.12-7.18-2.03-10.76-3.07-4.55-1.33-9.11-2.62-12.57-6.18-2.8-2.88-3.19-6.15-.65-9.33,1.69-2.11,3.73-3.97,5.78-5.77,2.24-1.97,4.7-3.69,6.98-5.61,.89-.75,1.58-1.74,2.52-2.81-3.76-2.46-7.66-2.56-11.4-3.25-2.32-.43-4.68-.75-6.93-1.42-3.34-.99-4.18-4.22-1.57-6.58,2.19-1.98,4.8-3.51,7.23-5.22,.78-.55,1.59-1.07,2.35-2.31-2.37-.27-4.73-.61-7.11-.8-3.47-.28-6.52-1.3-8.96-3.98-1.75-1.93-2.12-4.02-.88-6.14,1.11-1.91,2.51-3.73,4.11-5.25,2.43-2.3,5.17-4.27,7.71-6.46,2.63-2.27,5.27-4.54,7.75-6.98,1.78-1.75,1.61-4.43-.41-6.31-1.35-1.26-3.05-2.12-4.55-3.22-2.09-1.54-4.36-2.93-6.17-4.77-2.73-2.77-2.39-5.5,.7-7.92,1.26-.99,2.69-1.78,4.09-2.58,4.21-2.41,8.41-4.84,12.68-7.14,2.73-1.47,3.07-3.86-.19-5.53-1.66-.85-3.46-1.41-5.15-2.19-1.12-.52-2.3-1.04-3.22-1.83-2.06-1.78-2.06-3.71,.22-5.2,2.8-1.84,5.83-3.32,8.74-4.99,.73-.42,1.65-.84,2.02-1.51,.72-1.32,.52-2.59-.91-3.55-1.96-1.32-3.82-2.79-5.75-4.14-6.54-4.59-6.82-8.55-.49-13.5,4.69-3.67,9.77-6.85,14.67-10.26,.61-.43,1.25-.84,1.78-1.35,1.63-1.56,1.62-2.27,.08-4.03-1.23-1.4-2.6-2.7-3.66-4.21-2.03-2.9-1.79-3.9,1.55-5.34,3.31-1.42,6.74-2.55,10.15-3.76,2.45-.86,4.93-1.63,7.47-2.47-.38-1.81-1.84-2.06-3.02-2.56-2.18-.92-4.44-1.64-6.58-2.62-1.46-.66-2.87-1.5-4.15-2.47-2.94-2.23-2.9-3.75,.32-5.56,5.09-2.87,10.34-5.46,15.44-8.31,1.82-1.02,3.57-2.29,5.07-3.73,2.23-2.14,2.07-3.55-.24-5.56-1.22-1.06-2.55-2.01-3.68-3.16-2.31-2.36-2.27-3.9,.41-5.73,2.46-1.67,5.19-2.94,7.74-4.49,1.91-1.16,3.75-2.43,5.55-3.75,1.19-.88,1.31-2.07,.36-3.25-.7-.87-1.44-1.71-2.22-2.51-.52-.53-1.21-.89-1.72-1.43-1.43-1.51-3.52-2.87-2.93-5.27,.58-2.38,3.11-2.19,4.92-2.72,8.63-2.52,17.44-4.03,26.41-4.76,2.71-.22,5.43-.78,8.07-1.5,3.79-1.03,4.16-2.58,1.51-5.41-1.27-1.36-2.58-2.7-3.8-4.1-.9-1.03-1.82-2.07-2.49-3.25-1.46-2.56-1.01-4.38,1.8-5.3,3.75-1.24,7.65-2.27,11.56-2.77,8.77-1.12,17.59-1.77,26.46-1.37,.36,.02,.72-.11,1.42-.22-.13-1.05-.18-2.11-.42-3.12-.71-2.95-.13-4.46,2.76-5.44,2.46-.83,5.08-1.2,7.62-1.77,3.28-.73,6.55-1.44,9.82-2.19,.44-.1,.83-.41,1.69-.85-2.36-1.69-4.93-1.66-7.11-2.61-2.09-.91-4.67-1.39-4.86-4.9,1.66-.54,3.37-1.11,5.09-1.67,1.32-.43,3.03-.08,3.52-2.15,.1-.41,1.72-.62,2.65-.63,8.47-.13,16.94-.04,25.41-.33,6.59-.22,13.15-.94,19.74-1.35,2.25-.14,4.56-.44,7.29,.54-2.71,2.46-5.92,.99-8.25,3.12,1.9,.11,3.8,.28,5.71,.33,10.08,.25,20.16,.44,30.23,.7,3.04,.08,5.9,.69,7.83,3.57-2.07,3.28-6.56,3.71-8.4,7.32,2.64,2.16,5.52,2.84,8.45,3.32,8.61,1.41,17.27,2.19,26.01,2.28,3.61,.04,7.21,.35,10.81,.66,2.39,.2,4.57,.95,5.89,3.18-1.81,3.9-7.45,3.37-8.72,7.97,2.05,1.66,4.57,1.98,6.94,2.29,6.66,.86,13.35,1.44,20.04,2.13,2.6,.27,5.2,.53,7.8,.86,.85,.11,1.74,.32,2.49,.71,3.64,1.85,3.76,4.33,.34,6.64-2.06,1.39-4.19,2.68-6.19,4.16-1.37,1.02-2.56,2.29-3.92,3.53,1.51,2.15,3.64,2.49,5.62,3,5.42,1.39,10.89,2.55,16.27,4.08,1.55,.44,3.05,1.66,4.17,2.88,1.68,1.84,1.51,3.24-.52,4.68-2.73,1.94-5.66,3.61-8.47,5.45-2.18,1.43-4.32,2.93-6.44,4.44-.6,.43-1.15,.97-1.61,1.55-2.18,2.75-2,4.77,1.07,6.4,3.17,1.68,6.55,3.03,9.94,4.22,5.98,2.11,12.07,3.92,18.06,6,2.35,.81,4.53,1.98,6.09,4.12,2.17,2.97,2.18,5.15-.62,7.48-3.44,2.86-7.06,5.51-10.64,8.2-1.54,1.16-2.85,2.4-2.84,4.66,2.77,2.45,6.32,3.23,9.73,4.29,2.02,.63,4.07,1.13,6.09,1.76,2.57,.8,4.59,2.38,6.29,4.65-1,2.46-3.3,3.25-5.36,4.29-2.99,1.51-6.08,2.82-9.01,4.44-1.47,.81-2.68,2.09-4.56,3.6,1.73,1.05,2.84,2.03,4.14,2.46,4.13,1.37,8.35,2.45,12.48,3.81,3.65,1.2,7.23,2.61,10.84,3.93,.23,.08,.46,.2,.66,.35,5.12,3.81,4.44,5.54,.13,8.28-3.77,2.4-7.85,4.31-11.77,6.48-2.61,1.45-5.21,2.93-6.7,6.36,1.2,.76,2.32,1.66,3.59,2.22,2.73,1.21,5.59,2.13,8.29,3.39,1.55,.72,3.06,1.69,4.3,2.86,2.1,1.96,1.97,3.16-.35,4.76-1.53,1.05-3.18,1.95-4.85,2.77-2.45,1.21-4.99,2.24-7.43,3.45-3.15,1.56-4.44,2.8-6.17,5.84,1.65,.98,3.24,2.12,4.99,2.92,2.14,.98,4.43,1.63,6.63,2.5,2.92,1.16,5.63,2.61,7.49,5.32,.93,1.37,1.05,2.52-.32,3.56-1.28,.97-2.53,2.03-3.96,2.72-4.48,2.15-9.06,4.1-13.55,6.21-1.19,.56-2.24,1.42-3.92,2.52,1.43,.6,2.24,1.1,3.11,1.27,4.03,.76,8.08,1.4,12.12,2.13,3.01,.54,5.56,1.94,7.99,4.63-1.07,.77-1.91,1.63-2.93,2.07-3.66,1.55-7.41,2.88-11.06,4.45-2.5,1.08-4.93,2.36-7.31,3.69-.93,.52-1.65,1.41-3,2.6,1.7,.62,2.88,1.17,4.11,1.49,3.13,.81,6.32,1.43,9.42,2.32,1.89,.54,3.85,1.17,5.48,2.22,2.96,1.9,2.85,3.75-.19,5.66-2.1,1.32-4.37,2.35-6.5,3.62-2.66,1.59-5.43,3.07-7.81,5.02-2.76,2.27-2.41,3.52,.93,5.05,3.16,1.46,6.37,2.83,9.5,4.35,1.1,.53,2.1,1.32,3.05,2.1,3.8,3.15,2.26,4.44-.38,6.34-2.5,1.8-5.4,3.05-8.14,4.51-2.17,1.15-4.47,2.13-5.72,4.82,1.82,.97,3.64,1.77,5.26,2.87,1.52,1.03,3.01,2.22,4.19,3.62,1.49,1.77,1.17,3.35-.96,4.64-2.43,1.47-5.03,2.7-7.59,3.94-2.64,1.28-5.42,2.32-7.56,4.76,1.67,1.01,3.22,1.79,4.59,2.82,1.96,1.46,2,2.67,.19,4.22-.83,.71-1.87,1.21-2.87,1.69-4.25,2.03-8.54,3.96-12.75,6.06-1.07,.53-1.88,1.56-2.89,2.42,1.79,2.89,4.85,3.67,7.23,5.37,2.01,1.44,4.11,2.82,5.85,4.55,2.17,2.15,1.91,4.26-.67,5.85-2.21,1.36-4.6,2.46-7,3.46-4.92,2.06-9.93,3.89-14.82,5.98-2.22,.95-4.63,1.78-6.16,4.3,4.6,2.26,10.12,2.58,13.3,7.15-.68,2.06-2.34,2.98-3.96,3.85-3.5,1.88-7.09,3.6-10.57,5.52-1.78,.98-3.41,2.26-5.58,3.73,3.78,1.88,7.23,2.23,10.52,3.06,2.31,.59,4.59,1.17,6.25,3.07,1.64,1.87,1.7,2.84-.19,4.36-1.74,1.39-3.58,2.72-5.54,3.78-3.93,2.12-8.03,3.93-11.93,6.11-1.68,.94-2.99,2.53-4.52,3.75-1.03,.82-2.06,1.91-3.26,2.22-12.4,3.18-24.82,6.3-37.29,9.24-2.31,.54-4.79,.99-7.23-.55-.89-.57-2.68-.1-3.91,.32-7.18,2.44-14.32,4.99-21.46,7.54-1.82,.65-3.53,1.72-5.69,1.34ZM20.61,254.85c.06,.38,.12,.77,.18,1.15-2.76,1.61-5.57,3.16-8.27,4.87-1.45,.92-2.89,1.99-4.03,3.27-1.48,1.65-1.17,2.97,.87,3.74,1.72,.65,3.61,.85,5.42,1.27,3.62,.85,7.34,1.44,10.84,2.64,3.48,1.2,3.66,2.81,1.11,5.43-.69,.71-1.44,1.38-2.22,2-2.43,1.94-5.02,3.71-7.29,5.82-1.7,1.57-3.29,3.4-4.43,5.41-1.43,2.53-.99,4.55,1.22,6.3,1.92,1.52,4,3.04,6.26,3.89,4.53,1.69,9.3,2.75,13.85,4.4,2.52,.91,4.86,2.4,7.16,3.82,1.5,.92,1.36,2.36,.18,3.47-1.35,1.27-2.86,2.38-4.37,3.47-1.91,1.39-3.98,2.57-5.81,4.06-1.94,1.58-1.64,3.31,.65,4.28,.89,.38,1.93,.44,2.91,.52,2.11,.18,4.26,.09,6.33,.46,3.53,.64,7.08,1.35,10.49,2.43,2.28,.72,2.45,2.31,.62,3.92-1.39,1.22-3.07,2.12-4.55,3.25-1.32,1-2.55,2.13-4.41,3.71,1.85,.51,2.87,.91,3.93,1.05,2.35,.31,4.7,.53,7.06,.73,2.64,.22,5.57,.28,6.79,3.03,1.27,2.88-1.15,4.84-2.73,6.85-1.38,1.76-3,3.34-4.27,5.17-2.2,3.16-1.83,5.29,1.63,6.97,2.99,1.45,6.28,2.31,9.48,3.29,4.64,1.42,9.34,2.62,13.96,4.12,1.75,.57,3.4,1.58,4.93,2.62,1.87,1.27,2.07,2.6,.71,4.43-1.26,1.69-2.79,3.17-4.11,4.82-2.29,2.86-1.79,4.31,1.74,5.24,.48,.13,.97,.28,1.46,.3,5.1,.18,10.2,.21,15.29,.55,3.7,.25,7.38,.81,11.03,1.48,1.19,.22,2.24,1.24,3.27,1.84-.86,4.05-5.62,4.55-6.52,8.86,3.22-.31,6.02-.5,8.8-.86,7.56-.97,15.12-1.45,22.7-.25,2.34,.37,4.67,.88,6.03,3.61-1.49,2.06-3.03,4.18-4.61,6.35,3.45,1.68,3.85,1.78,7.64,1.28,10.92-1.44,21.87-1.34,32.8-.27,2.88,.28,6,.55,8.36,3.48-1.34,1.66-2.67,3.31-4.18,5.17,2.59,0,4.79,.14,6.97-.03,6.33-.49,12.65-1.49,18.98-1.53,4.92-.03,9.89,.84,14.77,1.73,3.18,.58,3.63,1.55,3.88,4.89,1.87-.74,3.68-1.58,5.56-2.18,6.04-1.95,12.08-3.89,18.17-5.66,1.19-.35,2.93-.38,3.83,.27,1.19,.86,2.16,.91,3.42,.67,11.88-2.18,23.65-4.77,35.23-8.22,1.9-.57,2.13-1.64,2.2-3,5.27-1.06,9.27-4.2,13.56-6.63,4.35-2.47,9.61-3.62,12.85-8.05-1.25-2.79-3.93-2.92-6.24-3.54-3.24-.86-6.55-1.47-9.83-2.22-1.33-.31-2.7-.64-2.99-2.5,2.42-2.32,5.24-4.05,8.29-5.51,3.59-1.72,7.14-3.53,10.65-5.4,.77-.41,1.32-1.23,2.19-2.09-3.1-2.37-6.21-3.46-9.49-4.27-1.89-.47-3.96-.74-4.89-3.17,.72-.64,1.38-1.37,2.19-1.9,1.87-1.22,3.71-2.58,5.74-3.46,5.37-2.33,10.84-4.4,16.24-6.64,1.83-.76,3.67-1.56,5.36-2.59,1.88-1.16,2.04-2.41,.47-3.92-1.24-1.2-2.73-2.16-4.2-3.09-1.89-1.2-3.9-2.21-5.79-3.41-1.66-1.05-4.15-2.11-3.63-4.21,.39-1.57,2.4-3.06,4.05-3.94,4.17-2.22,8.53-4.05,12.8-6.07,.96-.45,1.86-1.03,2.98-1.66-1.63-2.21-3.83-2.84-5.79-3.86-1.91-.99-1.99-2.06-.29-3.26,.71-.5,1.48-.92,2.25-1.32,4.21-2.15,8.44-4.26,12.63-6.44,.82-.43,1.49-1.13,2.64-2.02-1.35-1.28-2.29-2.42-3.46-3.21-1.54-1.04-3.3-1.74-4.88-2.72-1.09-.67-2.04-1.56-2.98-2.3,1.4-3.48,4.14-4.76,6.76-6.19,2.73-1.49,5.51-2.91,8.14-4.56,2.23-1.4,2.35-2.53,.17-3.89-3.25-2.04-6.76-3.67-10.16-5.45-1.21-.63-2.55-1.05-3.65-1.82-2.29-1.62-2.37-2.61-.76-4.98,1.89-2.79,4.73-4.32,7.61-5.85,3.25-1.72,6.42-3.61,9.57-5.4-.71-2.25-1.98-3.1-3.65-3.5-1.45-.35-2.91-.69-4.35-1.07-3.6-.96-7.21-1.87-10.77-2.94-1.24-.37-2.73-.82-2.6-2.79,6.65-6.39,15.99-7.74,24.15-12.09-2.38-1.97-4.75-2.61-7.18-3.06-3.55-.65-7.12-1.16-10.65-1.86-2.03-.4-4.16-.79-5.48-2.93,1.91-2.33,4.43-3.57,7.04-4.72,4.33-1.9,8.62-3.88,12.92-5.85,1.47-.68,2.93-1.42,3.17-3.41-1.54-2.23-3.74-3.56-6.2-4.52-2.66-1.04-5.35-2.02-8-3.08-2.58-1.03-4.85-2.45-5.86-5.32,2.34-3.13,5.3-5.31,8.74-6.91,2.48-1.15,5.01-2.21,7.44-3.47,1.48-.76,2.81-1.82,4.86-3.18-1.99-1.4-3.27-2.56-4.76-3.28-2.34-1.14-4.84-1.94-7.25-2.96-1.48-.63-3-1.23-4.31-2.13-2.5-1.72-2.64-3.49-.37-5.44,1.97-1.69,4.1-3.24,6.32-4.57,3.63-2.16,7.44-4.03,11.1-6.15,1.2-.69,2.19-1.77,3.66-2.99-1.58-1.29-2.58-2.47-3.85-3.07-2.69-1.26-5.47-2.39-8.31-3.25-4.04-1.23-8.22-2.02-12.25-3.27-2.35-.73-4.62-1.86-6.75-3.11-1.73-1.02-1.81-2.31-.38-3.65,1.53-1.43,3.16-2.86,4.97-3.86,3.26-1.8,6.71-3.25,10.05-4.91,.91-.45,1.7-1.13,3.16-2.12-2.15-1.21-3.56-2.2-5.11-2.83-1.95-.78-4.06-1.19-6.04-1.9-3.03-1.08-6.1-2.13-9-3.5-2.6-1.22-3.03-2.75-1.31-5.08,1.37-1.85,3.24-3.38,5.04-4.87,2.68-2.21,5.62-4.13,8.22-6.42,2.34-2.06,2.29-4.03-.18-5.94-1.95-1.5-4.15-2.78-6.4-3.77-2.49-1.09-5.2-1.67-7.78-2.58-5.86-2.07-11.72-4.13-17.52-6.37-1.32-.51-2.54-1.59-3.48-2.68-1.93-2.26-2.05-3.43,0-5.52,2.42-2.46,5.11-4.71,7.92-6.72,2.72-1.95,5.8-3.39,8.62-5.22,2.45-1.59,2.45-2.87,.15-4.54-.89-.65-1.93-1.19-2.98-1.51-2.37-.72-4.8-1.26-7.19-1.9-4.31-1.16-8.7-2.11-12.9-3.6-2.82-1-3.12-2.84-.92-4.8,2.3-2.05,4.99-3.67,7.52-5.46,1.39-.98,3.17-1.55,3.65-3.49-.92-2.01-2.71-2.49-4.62-2.65-4.1-.34-8.22-.46-12.29-.95-6.42-.78-12.81-1.75-19.19-2.74-1.07-.17-2.16-.66-3.09-1.25-1.78-1.14-1.91-2.44-.32-3.9,1.55-1.42,3.31-2.6,4.97-3.89,.74-.57,1.45-1.17,2.3-1.85-1.71-1.69-3.59-1.75-5.44-1.89-10.05-.73-20.11-1.42-30.16-2.2-4.49-.35-8.89-1.15-12.95-3.24-2.24-1.16-2.6-2.61-.87-4.37,1.2-1.23,2.71-2.16,4.12-3.18,.92-.67,1.91-1.24,3.16-2.04-3.43-2.24-6.74-1.99-9.93-2.1-9.83-.33-19.67-.43-29.5-.89-3.6-.17-7.53,.5-10.59-2.41-.3-.28-.95-.29-1.44-.27-3.86,.14-7.72,.23-11.56,.53-3.08,.24-6.13,.88-9.21,1.13-3.6,.29-7.23,.15-10.81,.55-3.9,.44-7.75,1.3-11.63,1.97-.05,.33-.1,.66-.14,.98,1.37,.7,2.69,1.51,4.11,2.08,1.73,.69,3.56,1.11,5.3,1.78,1.11,.42,2.45,.77,2.43,2.84-1.18,.51-2.46,1.27-3.84,1.62-3.98,1.01-8.01,1.8-11.99,2.78-1.8,.44-3.58,1.05-5.29,1.77-.58,.24-1.41,1.32-1.28,1.58,1.09,2.15,.51,5.26,3.58,6.33,1.32,.46,2.54,1.18,4.46,2.1-1.16,.23-1.54,.44-1.81,.33-5.45-2.15-11.1-2.58-16.88-2.18-3.85,.26-7.73,.2-11.56,.63-4.82,.54-9.66,1.12-14.37,2.23-5.55,1.31-5.87,2.83-2.14,7.18,1.54,1.8,3.29,3.43,4.69,5.32,2.04,2.74,1.56,4.33-1.48,5.91-3.29,1.71-6.89,2.04-10.48,2.37-8.95,.83-17.78,2.33-26.44,4.76-1.02,.29-1.96,.87-2.81,1.26-.07,2.22,1.07,3.3,2.33,4.38,1.23,1.04,2.46,2.11,3.5,3.34,2.4,2.83,2.3,4.19-.77,6.38-2.32,1.65-4.91,2.94-7.37,4.4-1.71,1.01-3.52,1.91-5.09,3.11-1.84,1.4-1.84,2.28-.18,3.96,1.31,1.32,2.88,2.39,4.17,3.72,2.07,2.15,2.1,4.08,0,6.2-1.3,1.31-2.79,2.52-4.39,3.44-3.99,2.29-8.09,4.38-12.15,6.56-2.26,1.21-4.6,2.31-6.59,4.88,1.7,1.13,3.11,2.29,4.71,3.09,3,1.5,6.14,2.73,9.17,4.19,1.02,.49,1.88,1.33,3.33,2.38-1.56,.91-2.42,1.59-3.41,1.96-3.03,1.11-6.13,2.05-9.17,3.14-3,1.07-6.22,1.7-9.08,4.35,1.34,1.74,2.48,3.48,3.87,4.98,3.04,3.3,3.01,4.72-.69,7.43-2.71,1.99-5.58,3.74-8.31,5.69-2.83,2.02-5.76,3.96-8.34,6.27-4,3.59-3.65,6.45,.76,9.69,2.41,1.77,4.81,3.56,7.11,5.46,2.18,1.8,2.17,3.3,.05,5.25-.72,.66-1.61,1.18-2.47,1.67-2.27,1.3-4.65,2.41-6.82,3.85-2.8,1.86-2.58,3.69,.5,5.13,1.58,.74,3.27,1.21,4.85,1.93,2.03,.93,4.45,1.82,4.76,4.32,.32,2.65-2.15,3.8-3.98,4.93-3.49,2.16-7.18,3.99-10.76,6.02-1.73,.98-3.49,1.96-5.02,3.2-2.01,1.63-2.22,3.58-.55,5.52,1.11,1.3,2.57,2.32,3.96,3.36,2.19,1.64,4.63,2.97,6.63,4.81,2.88,2.64,3.06,4.93,.4,7.75-3.05,3.25-6.53,6.09-9.78,9.15-2.9,2.72-5.93,5.32-8.55,8.28-2.15,2.43-1.66,5.12,.9,7.14,.95,.75,2.14,1.37,3.3,1.62,2.17,.46,4.43,.54,6.63,.91,2.53,.42,5.04,.97,7.55,1.47Z"/>
  <path d="M20.61,254.85c-2.52-.5-5.02-1.05-7.55-1.47-2.2-.36-4.45-.44-6.63-.91-1.17-.25-2.36-.87-3.3-1.62-2.56-2.02-3.06-4.71-.9-7.14,2.62-2.96,5.66-5.56,8.55-8.28,3.26-3.06,6.73-5.91,9.78-9.15,2.66-2.82,2.48-5.11-.4-7.75-2-1.83-4.44-3.17-6.63-4.81-1.39-1.04-2.84-2.06-3.96-3.36-1.67-1.94-1.47-3.89,.55-5.52,1.53-1.24,3.29-2.22,5.02-3.2,3.57-2.03,7.27-3.86,10.76-6.02,1.83-1.13,4.3-2.28,3.98-4.93-.3-2.49-2.72-3.39-4.76-4.32-1.58-.72-3.28-1.2-4.85-1.93-3.08-1.44-3.29-3.27-.5-5.13,2.17-1.44,4.55-2.55,6.82-3.85,.86-.49,1.74-1.01,2.47-1.67,2.12-1.94,2.13-3.44-.05-5.25-2.3-1.9-4.7-3.69-7.11-5.46-4.4-3.23-4.76-6.1-.76-9.69,2.58-2.32,5.51-4.25,8.34-6.27,2.73-1.95,5.61-3.7,8.31-5.69,3.7-2.71,3.73-4.14,.69-7.43-1.39-1.51-2.53-3.24-3.87-4.98,2.86-2.65,6.08-3.28,9.08-4.35,3.04-1.09,6.14-2.03,9.17-3.14,.99-.36,1.86-1.05,3.41-1.96-1.45-1.05-2.31-1.89-3.33-2.38-3.03-1.46-6.16-2.69-9.17-4.19-1.6-.8-3.02-1.96-4.71-3.09,1.99-2.57,4.33-3.67,6.59-4.88,4.06-2.18,8.16-4.27,12.15-6.56,1.6-.92,3.08-2.13,4.39-3.44,2.1-2.11,2.07-4.05,0-6.2-1.29-1.34-2.86-2.4-4.17-3.72-1.67-1.68-1.67-2.56,.18-3.96,1.57-1.2,3.38-2.1,5.09-3.11,2.46-1.46,5.05-2.74,7.37-4.4,3.07-2.18,3.17-3.55,.77-6.38-1.04-1.22-2.27-2.29-3.5-3.34-1.26-1.08-2.41-2.16-2.33-4.38,.85-.39,1.79-.97,2.81-1.26,8.66-2.43,17.48-3.93,26.44-4.76,3.59-.33,7.2-.66,10.48-2.37,3.03-1.58,3.52-3.17,1.48-5.91-1.41-1.89-3.15-3.52-4.69-5.32-3.73-4.35-3.41-5.86,2.14-7.18,4.7-1.11,9.55-1.7,14.37-2.23,3.83-.43,7.71-.36,11.56-.63,5.78-.4,11.43,.03,16.88,2.18,.26,.1,.65-.11,1.81-.33-1.91-.91-3.14-1.64-4.46-2.1-3.08-1.06-2.49-4.17-3.58-6.33-.13-.26,.7-1.34,1.28-1.58,1.71-.72,3.49-1.33,5.29-1.77,3.98-.98,8.01-1.77,11.99-2.78,1.38-.35,2.66-1.11,3.84-1.62,.02-2.07-1.32-2.41-2.43-2.84-1.74-.66-3.57-1.09-5.3-1.78-1.42-.57-2.75-1.38-4.11-2.08,.05-.33,.1-.66,.14-.98,3.87-.67,7.73-1.53,11.63-1.97,3.58-.4,7.22-.26,10.81-.55,3.08-.25,6.13-.89,9.21-1.13,3.84-.3,7.71-.38,11.56-.53,.48-.02,1.14-.01,1.44,.27,3.06,2.91,6.99,2.24,10.59,2.41,9.83,.46,19.67,.56,29.5,.89,3.19,.11,6.5-.14,9.93,2.1-1.25,.8-2.24,1.37-3.16,2.04-1.41,1.01-2.92,1.95-4.12,3.18-1.73,1.77-1.37,3.21,.87,4.37,4.06,2.1,8.46,2.9,12.95,3.24,10.05,.78,20.11,1.47,30.16,2.2,1.85,.13,3.73,.2,5.44,1.89-.85,.68-1.56,1.28-2.3,1.85-1.66,1.29-3.43,2.47-4.97,3.89-1.59,1.46-1.46,2.76,.32,3.9,.92,.59,2.01,1.08,3.09,1.25,6.39,.98,12.78,1.96,19.19,2.74,4.08,.49,8.2,.61,12.29,.95,1.91,.16,3.7,.63,4.62,2.65-.48,1.94-2.26,2.51-3.65,3.49-2.53,1.79-5.22,3.41-7.52,5.46-2.2,1.96-1.9,3.8,.92,4.8,4.2,1.49,8.59,2.44,12.9,3.6,2.4,.64,4.82,1.18,7.19,1.9,1.05,.32,2.09,.86,2.98,1.51,2.31,1.67,2.3,2.95-.15,4.54-2.82,1.83-5.9,3.27-8.62,5.22-2.81,2.01-5.5,4.26-7.92,6.72-2.05,2.09-1.93,3.26,0,5.52,.94,1.1,2.16,2.17,3.48,2.68,5.79,2.24,11.66,4.3,17.52,6.37,2.58,.91,5.29,1.49,7.78,2.58,2.26,.99,4.45,2.26,6.4,3.77,2.47,1.9,2.52,3.88,.18,5.94-2.61,2.29-5.54,4.21-8.22,6.42-1.8,1.49-3.67,3.02-5.04,4.87-1.72,2.33-1.28,3.86,1.31,5.08,2.91,1.36,5.97,2.41,9,3.5,1.99,.71,4.09,1.11,6.04,1.9,1.55,.62,2.96,1.62,5.11,2.83-1.46,.99-2.25,1.67-3.16,2.12-3.34,1.66-6.79,3.11-10.05,4.91-1.82,1-3.44,2.43-4.97,3.86-1.43,1.33-1.35,2.63,.38,3.65,2.13,1.25,4.4,2.38,6.75,3.11,4.03,1.26,8.21,2.05,12.25,3.27,2.84,.86,5.62,1.99,8.31,3.25,1.27,.6,2.27,1.78,3.85,3.07-1.47,1.22-2.46,2.3-3.66,2.99-3.66,2.11-7.47,3.98-11.1,6.15-2.23,1.33-4.36,2.88-6.32,4.57-2.28,1.96-2.13,3.72,.37,5.44,1.31,.9,2.84,1.51,4.31,2.13,2.4,1.02,4.9,1.83,7.25,2.96,1.49,.72,2.76,1.88,4.76,3.28-2.05,1.36-3.38,2.42-4.86,3.18-2.43,1.26-4.96,2.32-7.44,3.47-3.44,1.59-6.4,3.77-8.74,6.91,1.01,2.88,3.28,4.29,5.86,5.32,2.65,1.06,5.34,2.04,8,3.08,2.46,.96,4.66,2.29,6.2,4.52-.24,1.99-1.7,2.73-3.17,3.41-4.29,1.98-8.59,3.95-12.92,5.85-2.61,1.15-5.12,2.39-7.04,4.72,1.32,2.14,3.45,2.53,5.48,2.93,3.54,.7,7.11,1.22,10.65,1.86,2.43,.44,4.8,1.09,7.18,3.06-8.16,4.35-17.51,5.7-24.15,12.09-.13,1.98,1.35,2.42,2.6,2.79,3.56,1.07,7.17,1.99,10.77,2.94,1.44,.38,2.9,.73,4.35,1.07,1.67,.4,2.94,1.25,3.65,3.5-3.16,1.79-6.32,3.68-9.57,5.4-2.88,1.53-5.72,3.06-7.61,5.85-1.61,2.37-1.52,3.35,.76,4.98,1.09,.78,2.44,1.19,3.65,1.82,3.41,1.78,6.91,3.42,10.16,5.45,2.18,1.36,2.06,2.5-.17,3.89-2.63,1.65-5.41,3.07-8.14,4.56-2.62,1.43-5.36,2.7-6.76,6.19,.94,.74,1.89,1.63,2.98,2.3,1.59,.98,3.35,1.68,4.88,2.72,1.17,.79,2.1,1.93,3.46,3.21-1.15,.89-1.82,1.59-2.64,2.02-4.19,2.18-8.42,4.29-12.63,6.44-.77,.4-1.54,.82-2.25,1.32-1.71,1.2-1.63,2.27,.29,3.26,1.96,1.01,4.15,1.65,5.79,3.86-1.12,.63-2.02,1.2-2.98,1.66-4.27,2.02-8.64,3.85-12.8,6.07-1.64,.87-3.66,2.37-4.05,3.94-.52,2.1,1.97,3.17,3.63,4.21,1.89,1.2,3.9,2.21,5.79,3.41,1.47,.93,2.96,1.89,4.2,3.09,1.56,1.51,1.41,2.76-.47,3.92-1.68,1.03-3.53,1.83-5.36,2.59-5.41,2.24-10.88,4.31-16.24,6.64-2.03,.88-3.87,2.24-5.74,3.46-.8,.53-1.47,1.27-2.19,1.9,.93,2.43,2.99,2.7,4.89,3.17,3.27,.81,6.39,1.91,9.49,4.27-.88,.85-1.42,1.68-2.19,2.09-3.52,1.87-7.07,3.67-10.65,5.4-3.04,1.46-5.87,3.19-8.29,5.51,.29,1.86,1.65,2.19,2.99,2.5,3.27,.75,6.58,1.36,9.83,2.22,2.3,.61,4.99,.74,6.24,3.54-3.24,4.43-8.5,5.58-12.85,8.05-4.29,2.43-8.29,5.57-13.56,6.63-.07,1.36-.3,2.44-2.2,3-11.58,3.46-23.36,6.05-35.23,8.22-1.26,.23-2.22,.19-3.42-.67-.89-.65-2.64-.61-3.83-.27-6.09,1.77-12.13,3.71-18.17,5.66-1.88,.61-3.68,1.44-5.56,2.18-.25-3.34-.7-4.31-3.88-4.89-4.87-.89-9.85-1.77-14.77-1.73-6.33,.04-12.65,1.04-18.98,1.53-2.18,.17-4.37,.03-6.97,.03,1.5-1.86,2.84-3.51,4.18-5.17-2.37-2.93-5.48-3.19-8.36-3.48-10.93-1.07-21.88-1.17-32.8,.27-3.78,.5-4.19,.4-7.64-1.28,1.58-2.18,3.11-4.29,4.61-6.35-1.35-2.72-3.69-3.24-6.03-3.61-7.57-1.2-15.14-.72-22.7,.25-2.78,.36-5.59,.55-8.8,.86,.9-4.31,5.67-4.81,6.52-8.86-1.03-.61-2.08-1.62-3.27-1.84-3.64-.67-7.33-1.23-11.03-1.48-5.08-.35-10.19-.37-15.29-.55-.49-.02-.98-.17-1.46-.3-3.53-.93-4.04-2.39-1.74-5.24,1.32-1.65,2.86-3.13,4.11-4.82,1.36-1.83,1.15-3.16-.71-4.43-1.53-1.05-3.18-2.05-4.93-2.62-4.61-1.5-9.32-2.7-13.96-4.12-3.2-.98-6.49-1.84-9.48-3.29-3.46-1.67-3.83-3.81-1.63-6.97,1.27-1.83,2.89-3.41,4.27-5.17,1.58-2.02,4-3.97,2.73-6.85-1.21-2.75-4.15-2.81-6.79-3.03-2.36-.2-4.72-.41-7.06-.73-1.05-.14-2.07-.54-3.93-1.05,1.87-1.58,3.1-2.71,4.41-3.71,1.48-1.13,3.16-2.02,4.55-3.25,1.83-1.6,1.66-3.2-.62-3.92-3.41-1.08-6.96-1.79-10.49-2.43-2.07-.38-4.22-.28-6.33-.46-.98-.08-2.02-.15-2.91-.52-2.29-.97-2.59-2.7-.65-4.28,1.83-1.49,3.9-2.68,5.81-4.06,1.5-1.09,3.01-2.21,4.37-3.47,1.19-1.11,1.32-2.55-.18-3.47-2.3-1.42-4.64-2.91-7.16-3.82-4.55-1.65-9.32-2.71-13.85-4.4-2.26-.84-4.35-2.36-6.26-3.89-2.21-1.75-2.65-3.77-1.22-6.3,1.14-2,2.73-3.83,4.43-5.41,2.28-2.11,4.86-3.88,7.29-5.82,.78-.62,1.53-1.29,2.22-2,2.55-2.61,2.37-4.23-1.11-5.43-3.5-1.2-7.21-1.8-10.84-2.64-1.81-.42-3.7-.62-5.42-1.27-2.04-.77-2.35-2.09-.87-3.74,1.14-1.27,2.58-2.34,4.03-3.27,2.7-1.71,5.51-3.26,8.27-4.87-.06-.38-.12-.77-.18-1.15Z"/>
</svg>