<?xml version="1.0" encoding="UTF-8"?>
<svg id="image" xmlns="http://www.w3.org/2000/svg" viewBox="0 0 425.2 425.2">
  <path d="M178.9,335.6c2.73-2.61,5.68-4.85,8.16-7.88,7.88-9.64,15.64-19.51,23.36-29.43,4.01-5.16,7.89-10.54,11.72-15.98,1.55-2.19,2.81-4.79,4.28-7.32-1.73-3.43-4.25-2.94-6.22-3.32-10.27-2.01-20.56-4.24-30.9-5.1-11.74-.98-23.53-.8-35.3-.74-8.45,.04-16.89,.59-25.34,1.09-10.94,.66-21.88,1.25-32.8,2.34-11.04,1.1-22.06,2.65-33.08,4.22-8.67,1.24-17.35,2.62-25.98,4.31-12.63,2.47-24.94,7.07-37.59,11.77,.78-2.28,2.11-3.51,3.42-4.67,7.42-6.58,14.75-13.36,22.31-19.57,10.44-8.57,20.98-16.91,31.64-24.92,7.46-5.61,15.27-10.27,22.77-15.8,5.65-4.17,11.13-8.88,15.5-15.76,5.24-8.28,4.66-13.35-2.41-18.43-5.81-4.18-11.76-7.87-18.18-9.9-4.18-1.32-8.25-3.33-12.32-5.26-1.33-.64-2.49-2.03-4.53-3.74,2.45-1.55,3.98-2.79,5.63-3.52,7.79-3.46,15.58-6.99,23.44-10.09,15.1-5.97,29.98-12.79,44.27-22.03,4.01-2.6,7.87-5.9,11.47-9.54,3.6-3.63,3.43-6.47-.33-9.97-7.88-7.35-15.68-14.82-24.47-20.02-7.41-4.38-14.44-10.05-21.78-14.68-7.95-5.01-16.08-9.44-24.12-14.18-8.19-4.83-16.33-9.85-24.56-14.55-2.94-1.68-6.08-2.68-9.12-4.02-.71-.31-1.4-.76-2.96-1.61,1.48-.63,2.07-1.02,2.69-1.14,10.57-1.97,21.15-3.93,31.72-5.83,11.81-2.12,23.61-4.33,35.43-6.22,8.68-1.39,17.21-3.85,25.7-6.66,5.79-1.91,11.56-3.96,17.39-5.62,2.25-.64,4.63-.4,6.95-.5,1.48-.06,2.97-.01,4.78-.39-4.17-3.72-1.91-8.36-1.32-12.57,.36-2.6,2.11-2.88,3.67-3,6.36-.5,12.73-.83,19.08-1.48,7.73-.79,15.43-2,23.17-2.67,3.42-.3,6.91,.01,10.31,.61,2.01,.35,3.94,1.78,4.93,5.27-3.4,3.61-7.34,5.43-11.04,7.91-6.77,4.54-13.67,8.69-20.31,13.58-2.9,2.13-5.46,5.43-7.88,8.64-2.78,3.7-2.81,7.28,.14,10.59,2.58,2.89,5.52,5.53,8.6,7.01,8.91,4.26,17.99,7.82,26.98,11.79,3.52,1.56,7.13,3.04,9.89,7.72-8.79,6.35-18.75,7.61-27.28,15.49,.86,1.39,1.32,2.7,2.07,3.24,2.09,1.51,4.22,3.07,6.46,3.97,9.63,3.88,19.47,5.93,29.48,6.24,9.97,.3,19.95,.71,29.92,1.08,.63,.02,1.26,.18,2.01,1.22-2.58,1.1-5.13,2.36-7.74,3.29-14.23,5.07-27.53,13.21-39.91,24.44-3.17,2.87-3.3,5.98-.08,8.98,2.07,1.93,4.35,3.57,6.69,4.69,15.68,7.55,31.78,12.17,48.25,14.55,11.42,1.65,22.8,4.07,34.18,6.29,16.34,3.19,32.68,6.23,49.2,6.75,4.15,.13,8.31,.44,12.44,1.02,10.11,1.44,20.22,.71,30.31,.15,7.17-.4,14.3-2,21.46-3.04,.37-.05,.76,.1,1.22,.92-3.5,.97-7.03,1.77-10.49,2.93-9.29,3.12-18.52,6.68-27.85,9.55-12.64,3.9-24.65,10.49-36.74,16.75-3.87,2-7.51,5.11-11.01,8.27-4.05,3.66-3.93,7.71,.26,11.26,2.73,2.31,5.73,3.95,8.61,5.89,.48,.32,.96,.64,1.47,2.01-2.87,.61-5.74,1.15-8.6,1.86-10.22,2.53-20.52,4.59-30.61,7.9-5.86,1.92-11.69,5.01-16.48,10.81-.32,.38-.69,.68-.99,1.08-4.3,5.65-4.36,8.27-.19,13.85,4.49,6.01,10.01,9.86,15.11,14.58,2.78,2.57,5.56,5.19,8.11,8.19,6.31,7.43,12.59,14.89,17.84,23.98,1.05,1.81,2.81,2.76,4.76,4.59-4.29,1.94-8.01,3.83-11.81,5.32-11.35,4.43-22.7,8.8-34.09,12.99-25.28,9.3-49.51,22.88-73.62,36.93-17.06,9.94-34.33,18.96-51.93,26.85-15.18,6.8-30.09,14.84-45.13,22.29-1.64,.81-3.33,1.38-5.57,2.29,.13-2.27-.08-3.8,.34-4.74,1.27-2.82,2.57-5.73,4.24-8.05,11.21-15.6,22.1-31.69,34.47-45.51,7.31-8.16,14.36-16.8,21.47-25.3,1.14-1.37,2.04-3.16,3.05-4.76,0,0-.14,.2-.14,.2Z"/>
</svg>