<?xml version="1.0" encoding="UTF-8"?>
<svg id="image" xmlns="http://www.w3.org/2000/svg" viewBox="0 0 317.9 425.2">
  <path d="M145.46,419.26c.84,1.18,1.87,2.06,3.37,2.23,1.23,1.68,2.99,2.16,4.95,2.2,4.62,1.87,8.44,.94,11.48-2.91,2.44-3.09,3.96-6.68,4.29-10.56,.56-6.76,.87-13.54,1.11-20.31,.11-3.1-.28-6.22-.3-9.33-.03-5.78,.14-11.56,.04-17.33-.07-4.21-.19-8.46-.74-12.62-.87-6.57-1.44-13.12-.93-19.76,.19-2.55,.11-5.14,0-7.7-.17-4.68-.56-9.35-.66-14.03-.16-7.34-.09-14.69-.23-22.03-.19-9.64-.14-19.27,.34-28.91,.32-6.41,.2-12.84-.75-19.23-.6-4.08-1.11-8.17-1.67-12.25-.99-7.11-1.13-14.27-1.16-21.43-.02-6.34,1.3-12.38,4.45-17.95,2.52-4.46,5.57-8.62,7.55-13.39,.27-.66,1.1-1.1,1.71-1.68,2.85,2.4,4.56,5.23,5.9,8.41,1.6,3.78,3.56,7.41,5.27,11.14,1.95,4.24,4.28,8.39,5.55,12.84,1.32,4.63,1.57,9.55,1.43,14.44-.09,3.27-.2,6.61,1.04,9.73,1.62,4.07,1.67,8.42,2.5,12.63,.74,3.77,1.29,7.57,1.88,11.36,.58,3.71,1.16,7.43,1.68,11.15,.48,3.44,.89,6.89,1.32,10.34,.43,3.45,1.17,6.9,1.2,10.36,.07,7.06-.33,14.13-.38,21.19-.04,5.78,.22,11.56,.22,17.34,0,4.04-.08,8.08-.32,12.11-.35,5.86-.77,11.73-1.35,17.57-.46,4.7-.4,9.37,.71,13.95,1.18,4.89,2.7,9.7,3.97,14.57,.64,2.45,2.12,4.16,4.43,4.84,2.52,.74,5.16,1.17,7.78,1.52,2.65,.35,2.57,.18,3.8-2.08,3.03-5.57,4.23-11.72,5.35-17.83,1.19-6.49,1.87-13.07,2.77-19.61,.57-4.18,1.18-8.35,1.69-12.54,.72-5.82,1.44-11.64,2.02-17.48,.69-6.93,1.33-13.87,1.82-20.81,.3-4.2,.32-8.42,.39-12.63,.05-2.75,.04-5.5-.07-8.25-.18-4.4-.7-8.8-.66-13.19,.08-10.19-.73-20.34-1.41-30.49-.36-5.34-.24-10.66,.54-15.91,1-6.69,2.69-13.29,3.77-19.97,.69-4.23,.87-8.55,1.18-12.84,.19-2.65,.1-5.32,.27-7.97,.49-7.77,1.29-15.53,.43-23.33-.35-3.19-.35-6.41-.62-9.61-.16-1.88,.32-3.44,1.71-4.71,3.04-2.78,5.97-5.67,9.87-7.34,1.12-.48,2.1-1.46,2.94-2.39,3.12-3.49,5.04-7.71,6.26-12.13,.67-2.43,1.95-3.31,4.13-3.51,2.64-.25,5.29-.41,7.92-.7,.66-.07,1.6-.33,1.83-.79,.23-.47-.09-1.44-.49-1.92-.69-.83-1.63-1.47-2.48-2.16-2.46-2-4.93-3.99-7.47-6.04,.5-.43,.74-.72,1.05-.9,.63-.37,1.29-.7,1.95-1.02,5.95-2.95,12.36-4.62,18.58-6.82,5.79-2.05,11.55-4.18,17.29-6.38,3.59-1.38,7.08-3.03,10.97-3.53,.58-.07,1.1-.61,1.65-.93l-.1-.67c-1.92-.51-3.82-1.16-5.77-1.5-6.5-1.15-13.07-1.98-19.53-3.34-5.35-1.13-10.71-1.48-16.13-1.71-3.38-.14-6.78-.43-10.13-.93-5.22-.78-10.03-2.92-14.83-5.01-3.21-1.4-5.76-3.69-7.67-6.53-1.98-2.94-3.09-6.3-2.42-9.92,.5-2.7,1.11-5.4,1.95-8.02,2.15-6.68,5.66-12.73,9.11-18.8,4.3-7.58,8.52-15.21,12.75-22.84,.27-.48,.26-1.11,.46-2.07-1.61,.36-2.88,.53-4.06,.94-4.59,1.6-9.13,3.36-13.73,4.92-8.1,2.75-15.35,7.17-22.18,12.08-11.78,8.46-23.09,17.55-34.7,26.26-3.51,2.64-7.25,4.99-11.02,7.25-3.31,1.99-5.6,1.26-7.04-2.3-1.19-2.96-2.24-6.04-2.8-9.17-.99-5.5-1.54-11.07-2.31-16.61-.13-.94-.46-1.85-.75-3-1.41,.67-2.46,1.17-3.51,1.67-6.33,3-12.3,6.6-17.65,11.13-5.6,4.74-11.05,9.66-16.6,14.48-.78,.68-1.72,1.19-2.79,1.92-.98-2.63-1.22-4.98-1.01-7.34,.73-8.31,1.47-16.62,3.11-24.82,.37-1.87,1.06-3.85,.21-6.31-.99,.76-1.82,1.26-2.48,1.94-3.4,3.48-6.84,6.91-10.09,10.52-5.53,6.15-10.85,12.49-15,19.68-4.72,8.19-9.23,16.49-13.86,24.73-.47,.84-1.1,1.58-1.73,2.49-1.51-.92-2.82-1.6-4-2.45-4.25-3.03-8.39-6.24-12.71-9.16-8.22-5.56-16.29-11.28-23.39-18.28-4.7-4.64-9.86-8.82-13.55-14.41-.25-.38-.79-.58-1.4-1-.2,.68-.47,1.11-.41,1.49,.57,3.81,1.1,7.62,1.83,11.4,.77,3.96,1.77,7.87,2.63,11.81,2.39,10.96,1.4,21.92-.21,32.84-.64,4.34-1.64,8.65-2.83,12.87-1.58,5.55-3.49,11-5.31,16.48-1.15,3.48-2.31,6.95-3.62,10.37-1.29,3.36-1.57,7.11-3.84,10.11-.25,.33-.23,.88-.36,1.31-1.01,3.5-1.57,7.14-3.3,10.41-.17,.32-.3,.68-.34,1.04-.8,5.91-1.65,11.81-2.36,17.72-.8,6.65-1.41,13.32-2.26,19.96-.65,5.09-1.64,10.14-1.29,15.31,.43,6.39,.29,12.84,1.92,19.12,.57,2.21,1.06,4.52,1.06,6.78,0,4.49-.14,9-.62,13.45-.75,6.95-3.33,13.31-6.95,19.27-2.56,4.22-3.87,8.9-4.57,13.74-1.36,9.37,.05,18.7,.78,28.01,.58,7.49,1.92,14.91,2.78,22.38,.76,6.56,1.56,13.13,1.92,19.72,.53,9.71,.63,19.45,1.01,29.17,.33,8.52,.51,17.07,1.31,25.55,.56,5.93,2,11.8,7.79,15.24,.08,.05,.13,.13,.21,.18,2.73,1.65,5.43,3.34,8.2,4.91,1.11,.63,2.35,1.08,3.58,1.4,1.03,.26,2.22,.5,3.2,.24,4.03-1.08,6.84-3.61,7.63-7.8,1.35-7.21,2.61-14.44,3.69-21.69,.51-3.43,.72-6.94,.72-10.41,0-7.52-.36-15.04-.35-22.55,0-7.25,.2-14.51,.47-21.75,.18-4.85,.67-9.7,.99-14.55,.41-6.22,1.07-12.45,1.11-18.68,.04-6.5-.42-13.02-.88-19.51-.54-7.59-1.28-15.18-2.01-22.75-.49-5.04-.21-9.86,2.82-14.21,1.69-2.42,3.36-4.81,5.78-6.57,1.47-1.07,2.27-.9,2.97,.72,.44,1,.83,2.05,1.04,3.12,.95,4.95,1.53,9.94,1.63,14.98,.07,3.66,.34,7.32,.26,10.98-.09,4.22-.41,8.43-.74,12.63-.32,4.21-.9,8.4-1.14,12.61-.41,7.42-.55,14.86-.98,22.28-.27,4.69,.14,9.29,2.45,13.34,2.99,5.25,6.44,10.24,9.77,15.29,1.21,1.83,2.52,3.63,4.01,5.24,2.02,2.19,4.11,2.08,6.12-.08,3.06-3.29,5.36-6.98,6.13-11.49,.29-1.71,.59-3.43,.91-5.14,.63-3.33,1.22-6.66,1.93-9.98,1.39-6.47,2.5-13,2.4-19.62-.07-4.39-.8-8.76-1.01-13.15-.27-5.44-1.43-10.75-2.85-15.93-1.46-5.34-1.25-10.31,.86-15.3,2.94-6.94,3.35-14.03,1.28-21.27-1.01-3.52-2.14-7.01-2.97-10.57-1.23-5.29-1.94-10.64-.69-16.06,1.23-5.37,3.65-10.12,7.27-14.29,2.3-2.64,4.95-2.01,6.97-.1,1.18,1.12,2.28,2.44,3.06,3.86,3.42,6.16,5.37,12.83,6.27,19.79,.2,1.52-.08,3.1-.08,4.65,0,1.83,.26,3.67,.07,5.48-.78,7.42-.81,14.81-.06,22.25,.5,5.02,.74,10.08,.74,15.12,0,8.26-.37,16.51-.39,24.77-.01,3.39,.38,6.78,.71,10.16,.63,6.39,1.46,12.76,2.01,19.15,.38,4.48,.29,8.99,.66,13.47,.55,6.85,1.37,13.68,1.97,20.53,.54,6.17,1.75,12.16,4.35,17.81,1.14,2.49,2.44,4.92,3.45,7.47,1.75,4.43,3.31,8.93,5.02,13.38,.46,1.19,1.02,2.4,1.81,3.37,3.83,4.67,7.74,9.28,11.67,13.88,1.48,1.73,3.1,3.36,4.65,5.03,1.1,1.1,2.21,2.21,3.31,3.31Z"/>
  <path d="M142.15,415.95c-1.56-1.67-3.17-3.3-4.65-5.03-3.93-4.59-7.83-9.2-11.67-13.88-.8-.97-1.36-2.19-1.81-3.37-1.71-4.44-3.26-8.95-5.02-13.38-1.01-2.54-2.31-4.97-3.45-7.47-2.6-5.66-3.8-11.64-4.35-17.81-.6-6.85-1.42-13.68-1.97-20.53-.36-4.48-.27-9-.66-13.47-.55-6.39-1.38-12.76-2.01-19.15-.33-3.38-.73-6.77-.71-10.16,.03-8.26,.4-16.51,.39-24.77,0-5.04-.23-10.11-.74-15.12-.75-7.43-.72-14.83,.06-22.25,.19-1.8-.07-3.65-.07-5.48,0-1.55,.28-3.13,.08-4.65-.9-6.96-2.85-13.63-6.27-19.79-.79-1.42-1.88-2.74-3.06-3.86-2.02-1.91-4.67-2.54-6.97,.1-3.62,4.17-6.04,8.91-7.27,14.29-1.24,5.42-.54,10.77,.69,16.06,.83,3.56,1.96,7.05,2.97,10.57,2.08,7.24,1.66,14.33-1.28,21.27-2.11,4.99-2.32,9.96-.86,15.3,1.42,5.18,2.58,10.49,2.85,15.93,.22,4.39,.94,8.76,1.01,13.15,.1,6.63-1.01,13.15-2.4,19.62-.71,3.31-1.3,6.65-1.93,9.98-.32,1.71-.62,3.42-.91,5.14-.77,4.51-3.07,8.2-6.13,11.49-2.01,2.16-4.11,2.27-6.12,.08-1.48-1.61-2.8-3.41-4.01-5.24-3.33-5.05-6.78-10.04-9.77-15.29-2.31-4.06-2.72-8.66-2.45-13.34,.43-7.42,.57-14.86,.98-22.28,.23-4.21,.81-8.4,1.14-12.61,.32-4.21,.65-8.42,.74-12.63,.08-3.66-.19-7.32-.26-10.98-.1-5.04-.67-10.03-1.63-14.98-.21-1.07-.6-2.12-1.04-3.12-.7-1.62-1.5-1.79-2.97-.72-2.42,1.76-4.1,4.15-5.78,6.57-3.03,4.36-3.31,9.17-2.82,14.21,.73,7.58,1.47,15.16,2.01,22.75,.46,6.49,.92,13.01,.88,19.51-.04,6.23-.69,12.45-1.11,18.68-.32,4.85-.81,9.69-.99,14.55-.27,7.25-.46,14.5-.47,21.75,0,7.52,.34,15.04,.35,22.55,0,3.47-.2,6.98-.72,10.41-1.08,7.25-2.33,14.48-3.69,21.69-.79,4.19-3.6,6.72-7.63,7.8-.98,.26-2.17,.03-3.2-.24-1.23-.32-2.47-.77-3.58-1.4-2.77-1.57-5.47-3.26-8.2-4.91-.08-.05-.13-.13-.21-.18-5.79-3.44-7.23-9.31-7.79-15.24-.8-8.48-.98-17.03-1.31-25.55-.38-9.72-.48-19.46-1.01-29.17-.36-6.59-1.16-13.16-1.92-19.72-.86-7.47-2.2-14.89-2.78-22.38-.73-9.31-2.14-18.64-.78-28.01,.7-4.84,2.01-9.52,4.57-13.74,3.62-5.96,6.2-12.32,6.95-19.27,.48-4.46,.62-8.97,.62-13.45,0-2.26-.49-4.57-1.06-6.78-1.63-6.29-1.49-12.73-1.92-19.12-.35-5.17,.64-10.22,1.29-15.31,.85-6.64,1.45-13.31,2.26-19.96,.72-5.92,1.56-11.82,2.36-17.72,.05-.36,.18-.72,.34-1.04,1.73-3.27,2.29-6.91,3.3-10.41,.13-.44,.1-.98,.36-1.31,2.28-3,2.56-6.75,3.84-10.11,1.31-3.42,2.47-6.9,3.62-10.37,1.82-5.48,3.73-10.93,5.31-16.48,1.2-4.22,2.19-8.53,2.83-12.87,1.61-10.92,2.6-21.88,.21-32.84-.86-3.94-1.86-7.85-2.63-11.81-.73-3.78-1.26-7.59-1.83-11.4-.06-.39,.21-.82,.41-1.49,.61,.42,1.15,.62,1.4,1,3.68,5.59,8.85,9.77,13.55,14.41,7.1,7,15.17,12.72,23.39,18.28,4.33,2.92,8.46,6.13,12.71,9.16,1.19,.85,2.49,1.53,4,2.45,.63-.9,1.26-1.65,1.73-2.49,4.63-8.24,9.14-16.54,13.86-24.73,4.14-7.19,9.46-13.53,15-19.68,3.25-3.61,6.7-7.05,10.09-10.52,.66-.67,1.49-1.17,2.48-1.94,.85,2.46,.16,4.45-.21,6.31-1.64,8.21-2.37,16.51-3.11,24.82-.21,2.35,.04,4.71,1.01,7.34,1.07-.73,2.01-1.24,2.79-1.92,5.54-4.81,10.99-9.73,16.6-14.48,5.35-4.53,11.32-8.12,17.65-11.13,1.05-.5,2.1-1,3.51-1.67,.29,1.15,.62,2.06,.75,3,.77,5.54,1.33,11.11,2.31,16.61,.56,3.13,1.61,6.21,2.8,9.17,1.43,3.55,3.73,4.29,7.04,2.3,3.77-2.27,7.51-4.62,11.02-7.25,11.6-8.71,22.92-17.8,34.7-26.26,6.83-4.91,14.08-9.33,22.18-12.08,4.6-1.56,9.14-3.32,13.73-4.92,1.18-.41,2.45-.57,4.06-.94-.2,.96-.19,1.59-.46,2.07-4.22,7.63-8.44,15.26-12.75,22.84-3.45,6.07-6.96,12.12-9.11,18.8-.84,2.61-1.45,5.31-1.95,8.02-.67,3.62,.44,6.98,2.42,9.92,1.91,2.84,4.47,5.12,7.67,6.53,4.8,2.1,9.6,4.24,14.83,5.01,3.35,.5,6.74,.78,10.13,.93,5.42,.23,10.78,.57,16.13,1.71,6.46,1.37,13.03,2.19,19.53,3.34,1.95,.35,3.85,.99,5.77,1.5l.1,.67c-.55,.32-1.07,.85-1.65,.93-3.88,.5-7.37,2.15-10.97,3.53-5.74,2.2-11.5,4.33-17.29,6.38-6.22,2.2-12.64,3.87-18.58,6.82-.66,.33-1.32,.65-1.95,1.02-.31,.18-.55,.47-1.05,.9,2.54,2.05,5.01,4.04,7.47,6.04,.85,.69,1.79,1.33,2.48,2.16,.4,.48,.72,1.46,.49,1.92-.23,.46-1.17,.72-1.83,.79-2.64,.29-5.28,.45-7.92,.7-2.18,.21-3.46,1.08-4.13,3.51-1.22,4.42-3.15,8.63-6.26,12.13-.83,.94-1.82,1.91-2.94,2.39-3.89,1.68-6.83,4.57-9.87,7.34-1.39,1.27-1.87,2.83-1.71,4.71,.27,3.2,.27,6.42,.62,9.61,.86,7.8,.06,15.56-.43,23.33-.17,2.65-.08,5.32-.27,7.97-.3,4.29-.49,8.61-1.18,12.84-1.08,6.68-2.77,13.28-3.77,19.97-.79,5.24-.9,10.57-.54,15.91,.68,10.15,1.49,20.3,1.41,30.49-.03,4.39,.48,8.79,.66,13.19,.11,2.75,.12,5.5,.07,8.25-.07,4.21-.1,8.43-.39,12.63-.49,6.95-1.13,13.88-1.82,20.81-.58,5.83-1.3,11.66-2.02,17.48-.51,4.19-1.12,8.36-1.69,12.54-.9,6.54-1.58,13.12-2.77,19.61-1.12,6.11-2.31,12.25-5.35,17.83-1.23,2.26-1.16,2.43-3.8,2.08-2.62-.35-5.26-.77-7.78-1.52-2.31-.68-3.79-2.39-4.43-4.84-1.27-4.87-2.79-9.68-3.97-14.57-1.1-4.58-1.17-9.24-.71-13.95,.58-5.84,1-11.71,1.35-17.57,.24-4.03,.33-8.07,.32-12.11,0-5.78-.26-11.56-.22-17.34,.05-7.06,.45-14.13,.38-21.19-.03-3.46-.77-6.91-1.2-10.36-.43-3.45-.84-6.9-1.32-10.34-.52-3.72-1.09-7.44-1.68-11.15-.6-3.79-1.14-7.6-1.88-11.36-.83-4.21-.88-8.56-2.5-12.63-1.24-3.11-1.13-6.45-1.04-9.73,.13-4.89-.12-9.81-1.43-14.44-1.26-4.45-3.6-8.59-5.55-12.84-1.71-3.73-3.67-7.36-5.27-11.14-1.34-3.18-3.05-6.01-5.9-8.41-.62,.58-1.44,1.02-1.71,1.68-1.98,4.77-5.03,8.93-7.55,13.39-3.15,5.57-4.47,11.61-4.45,17.95,.02,7.16,.17,14.32,1.16,21.43,.57,4.08,1.07,8.17,1.67,12.25,.94,6.38,1.06,12.82,.75,19.23-.48,9.64-.53,19.27-.34,28.91,.14,7.34,.08,14.69,.23,22.03,.1,4.68,.49,9.35,.66,14.03,.1,2.57,.18,5.15,0,7.7-.5,6.63,.06,13.18,.93,19.76,.55,4.17,.67,8.41,.74,12.62,.1,5.78-.07,11.55-.04,17.33,.02,3.11,.41,6.23,.3,9.33-.24,6.78-.55,13.56-1.11,20.31-.32,3.88-1.84,7.47-4.29,10.56-3.04,3.85-6.86,4.77-11.48,2.91l-.09,.07c.46,.02,.92,.02,1.38,.08,5.45,.64,9.14-1.47,11.62-7.47,1.84-4.44,2.29-9.06,2.38-13.72,.18-9.26,.13-18.53,.14-27.79,.01-10,.31-20.01-1.5-29.94-.62-3.4-.57-6.94-.59-10.42-.03-4.12,.38-8.24,.28-12.36-.19-7.89-.72-15.77-.9-23.66-.17-7.44-.15-14.88-.08-22.32,.06-5.78,.49-11.56,.46-17.34-.02-6.32,.13-12.71-.7-18.95-1.46-10.92-2.95-21.82-3.01-32.86-.04-7.37,1.32-14.4,5.01-20.87,2.64-4.62,5.34-9.2,8.02-13.79,.36-.61,.77-1.18,1.33-2.02,.88,.63,1.66,1.08,2.3,1.67,2.7,2.47,4.48,5.54,5.77,8.93,.49,1.28,.94,2.59,1.56,3.81,2.19,4.34,4.61,8.57,6.65,12.98,2.68,5.8,4.19,11.94,3.99,18.38-.13,4.25-.07,8.43,1.18,12.55,.47,1.57,.8,3.2,1.05,4.83,.62,4.08,1.09,8.18,1.75,12.25,.86,5.33,1.92,10.62,2.75,15.95,.77,4.97,1.41,9.97,2.01,14.97,.43,3.55,.96,7.11,.97,10.67,.03,6.61-.32,13.21-.46,19.82-.08,3.76-.27,7.54-.05,11.29,.64,10.96-.44,21.83-1.17,32.73-.3,4.47-.67,9.07,0,13.45,.84,5.5,2.66,10.85,4.21,16.23,.33,1.17,1.17,2.26,1.99,3.2,1.92,2.18,4.72,2.3,7.32,2.75,2.4,.42,3.29,.67,4.58-2.21,.49-1.08,1.2-2.09,1.52-3.22,1.13-3.95,2.35-7.9,3.13-11.92,1.01-5.21,1.69-10.48,2.41-15.74,.51-3.73,.82-7.48,1.3-11.21,.63-4.9,1.38-9.79,2.01-14.69,.34-2.64,.4-5.31,.81-7.93,1.67-10.73,2.24-21.55,2.36-32.36,.1-8.79-.58-17.6-.84-26.4-.13-4.29,.08-8.59-.16-12.88-.43-7.5-1.51-14.95-1.27-22.5,.2-6.26,.94-12.41,2.21-18.54,1.18-5.73,2.28-11.5,3.08-17.29,.46-3.34,.19-6.78,.38-10.17,.29-5.4,1-10.81,.94-16.2-.07-6.31-.69-12.63-1.25-18.92-.25-2.84,.11-5.29,2.41-7.19,2.12-1.75,4.2-3.54,6.34-5.27,.78-.63,1.6-1.35,2.52-1.62,2.59-.75,4.24-2.59,5.53-4.71,1.18-1.93,2.15-4.04,2.92-6.18,.83-2.3,1.33-4.72,2.05-7.38,4.12-.56,8.32-1.12,12.96-1.75-2.18-1.73-4.03-3.28-5.98-4.71-2.02-1.47-4.13-2.82-6.42-4.38,1.96-.98,3.62-1.92,5.37-2.66,3.71-1.59,7.41-3.22,11.2-4.57,5.01-1.78,10.17-3.15,15.16-4.98,5.77-2.11,11.42-4.53,17.11-6.84,.35-.14,.61-.48,1.2-.96-2.26-.45-4.13-.87-6.02-1.19-4.25-.72-8.52-1.3-12.76-2.08-4.69-.86-9.35-1.75-14.15-1.95-5.4-.23-10.8-.79-16.18-1.32-1.26-.12-2.49-.62-3.7-1.05-1.73-.61-3.47-1.21-5.12-2-2.64-1.25-5.43-2.36-7.77-4.06-5.15-3.72-8.13-8.78-7.29-15.35,.39-3.07,1.14-6.16,2.23-9.06,2.45-6.54,5.62-12.76,9.3-18.71,2.36-3.82,4.7-7.66,6.86-11.6,1.74-3.19,3.19-6.54,4.95-10.19-.99,.13-1.54,.1-2.02,.27-3.56,1.23-7.09,2.51-10.65,3.74-8.94,3.09-17.07,7.76-24.69,13.22-8.2,5.88-16.01,12.28-24.08,18.35-6.3,4.74-12.68,9.38-19.12,13.92-1.53,1.07-3.44,1.66-5.25,2.26-1.51,.51-2.97,.06-3.9-1.29-.98-1.42-1.98-2.88-2.66-4.46-2.41-5.54-3.02-11.49-3.77-17.41-.16-1.27-.35-2.55-.5-3.82-.16-1.32-.28-2.63-.44-4.15-1.11,.3-1.85,.39-2.49,.69-5.51,2.56-10.63,5.79-15.33,9.6-5.05,4.1-9.89,8.48-14.8,12.75-1.66,1.44-3.22,3.01-4.95,4.37-2.23,1.75-3.65,1.28-3.95-1.48-.35-3.17-.63-6.43-.31-9.58,.75-7.48,1.88-14.92,2.83-22.38,.08-.65,.01-1.32,.01-2.3-.99,.78-1.68,1.23-2.25,1.8-6.69,6.7-12.98,13.77-18.48,21.48-7.04,9.9-12.57,20.68-17.85,31.59-.63,1.31-1.43,2.3-2.9,2.74-1.78-1.21-3.54-2.37-5.26-3.59-6.58-4.67-13.09-9.45-19.74-14.03-8.88-6.12-16.65-13.52-24.45-20.89-1.24-1.17-2.33-2.48-3.96-4.23,.13,1.47,.12,2.27,.29,3.03,.78,3.68,1.76,7.32,2.38,11.02,.9,5.33,1.74,10.69,2.25,16.07,.32,3.36,.21,6.8-.09,10.18-.4,4.47-1.1,8.92-1.84,13.35-.66,3.98-1.27,7.99-2.39,11.85-2.38,8.19-5.09,16.28-7.65,24.42-.76,2.43-1.93,4.83-.8,7.03-1.01,1.61-1.7,2.9-2.57,4.07-1.99,2.67-2.13,6.01-3.33,8.96-.75,1.85-1.74,3.69-2.07,5.62-1.14,6.68-2.12,13.4-3,20.12-.4,3.08-.26,6.24-.63,9.33-.64,5.27-1.54,10.51-2.24,15.78-.98,7.43-.24,14.85,.51,22.24,.37,3.63,1.73,7.19,1.89,10.81,.21,4.83-.09,9.72-.58,14.55-.68,6.76-3,13.11-6.54,18.85-3.6,5.84-5.33,12.16-5.44,18.82-.14,8.99,.5,17.97,1.87,26.89,.87,5.62,1.65,11.25,2.28,16.9,.45,4.1,.54,8.24,.85,12.36,.61,8.14,1.5,16.27,1.85,24.43,.46,10.83,.54,21.67,.74,32.5,.11,5.86,1.45,11.45,3.72,16.82,.32,.75,.77,1.48,1.32,2.07,2.97,3.23,6.92,5.04,10.62,7.22,1.02,.6,2.14,1.05,3.24,1.51,1.6,.66,3.25,.75,4.79-.08,2.96-1.61,5.04-3.95,5.62-7.39,1.25-7.4,2.58-14.79,3.67-22.22,.46-3.16,.58-6.39,.55-9.59-.03-4.22-.53-8.43-.52-12.65,0-7.99,.23-15.97,.33-23.96,.04-3.3-.21-6.61,.04-9.89,.44-5.93,1.22-11.84,1.74-17.77,.33-3.74,.75-7.51,.63-11.26-.24-7.7-.72-15.4-1.26-23.09-.45-6.32-1.12-12.61-1.7-18.92-.41-4.49-.8-8.97,1.21-13.25,1.74-3.7,4.05-6.98,7.06-9.74,.59-.54,1.29-1.04,2.04-1.34,1.93-.77,2.64-.48,3.44,1.41,.43,1.01,.74,2.07,1.01,3.13,1.6,6.18,1.72,12.53,2.06,18.85,.65,11.97-1.16,23.81-1.88,35.71-.48,7.97-.65,15.97-.89,23.95-.1,3.37,.83,6.55,2.35,9.53,1.08,2.12,2.26,4.21,3.6,6.18,2.99,4.4,5.99,8.79,9.2,13.02,1.92,2.53,3.06,2.35,5.35,.1,3.71-3.65,5.38-8.2,6.17-13.2,.66-4.16,1.54-8.29,2.16-12.46,.83-5.62,1.78-11.24,2.17-16.9,.28-3.99-.15-8.05-.46-12.07-.58-7.42-1.76-14.73-3.81-21.92-.61-2.13-.63-4.58-.31-6.79,.36-2.51,1.2-5,2.19-7.36,3.19-7.62,2.61-15.21,.22-22.86-.76-2.44-1.71-4.84-2.21-7.34-.68-3.41-1.37-6.88-1.42-10.33-.12-6.9,2.18-13.16,6.22-18.73,.96-1.33,2.14-2.52,3.33-3.65,1.32-1.26,2.81-1.4,4.56-.63,2.38,1.05,4.22,2.66,5.44,4.87,1.41,2.56,2.6,5.25,3.82,7.91,.64,1.41,1.3,2.85,1.65,4.35,1.19,5,1.89,10.08,1.73,15.25-.06,1.93-.2,3.85-.23,5.78-.1,5.87-.53,11.76-.18,17.6,.6,9.91,1.21,19.79,.82,29.72-.3,7.79-.59,15.59,.63,23.36,1.4,8.89,2.2,17.85,2.34,26.87,.06,3.76,.4,7.52,.74,11.26,.54,5.94,1.19,11.87,1.79,17.8,.38,3.84,1.16,7.58,2.71,11.15,1.97,4.54,3.86,9.1,5.72,13.68,1.35,3.31,2.49,6.71,3.91,10,1.68,3.9,4.08,7.35,6.92,10.53,3.16,3.55,6.2,7.2,9.26,10.84,.4,.47,.56,1.14,.82,1.72l.05-.09Z"/>
  <path d="M153.79,423.69c-1.96-.04-3.72-.52-4.95-2.2l-.09,.06c1.65,.74,3.3,1.47,4.96,2.21l.09-.07Z"/>
  <path d="M145.46,419.26c-1.1-1.1-2.21-2.21-3.31-3.31,0,0-.05,.09-.05,.09,1.59,.62,2.66,1.75,3.31,3.31l.05-.09Z"/>
  <path d="M148.83,421.49c-1.51-.17-2.54-1.05-3.37-2.23,0,0-.05,.09-.05,.09,1.11,.73,2.22,1.47,3.33,2.2l.09-.06Z"/>
  <path d="M148.74,421.55c-1.11-.73-2.22-1.47-3.33-2.2-.65-1.56-1.72-2.69-3.31-3.31-.27-.58-.43-1.25-.82-1.72-3.05-3.64-6.1-7.29-9.26-10.84-2.84-3.18-5.24-6.63-6.92-10.53-1.42-3.28-2.56-6.68-3.91-10-1.86-4.58-3.75-9.15-5.72-13.68-1.55-3.57-2.33-7.3-2.71-11.15-.59-5.93-1.25-11.86-1.79-17.8-.34-3.75-.69-7.5-.74-11.26-.14-9.02-.94-17.97-2.34-26.87-1.22-7.77-.93-15.57-.63-23.36,.39-9.93-.22-19.82-.82-29.72-.36-5.84,.07-11.73,.18-17.6,.03-1.93,.17-3.85,.23-5.78,.16-5.16-.54-10.24-1.73-15.25-.36-1.5-1.01-2.94-1.65-4.35-1.21-2.67-2.41-5.35-3.82-7.91-1.21-2.21-3.06-3.82-5.44-4.87-1.75-.77-3.24-.63-4.56,.63-1.19,1.13-2.36,2.33-3.33,3.65-4.05,5.58-6.34,11.83-6.22,18.73,.06,3.46,.74,6.93,1.42,10.33,.5,2.49,1.45,4.9,2.21,7.34,2.39,7.64,2.98,15.24-.22,22.86-.99,2.35-1.83,4.85-2.19,7.36-.32,2.22-.3,4.66,.31,6.79,2.04,7.19,3.23,14.5,3.81,21.92,.31,4.01,.75,8.07,.46,12.07-.4,5.66-1.34,11.28-2.17,16.9-.62,4.17-1.5,8.3-2.16,12.46-.79,5.01-2.46,9.56-6.17,13.2-2.29,2.25-3.43,2.43-5.35-.1-3.21-4.23-6.21-8.63-9.2-13.02-1.34-1.97-2.52-4.06-3.6-6.18-1.52-2.98-2.46-6.16-2.35-9.53,.25-7.99,.41-15.98,.89-23.95,.72-11.9,2.53-23.74,1.88-35.71-.34-6.32-.46-12.67-2.06-18.85-.28-1.06-.58-2.13-1.01-3.13-.81-1.89-1.51-2.19-3.44-1.41-.74,.3-1.44,.8-2.04,1.34-3.01,2.76-5.32,6.04-7.06,9.74-2.01,4.28-1.62,8.76-1.21,13.25,.58,6.31,1.25,12.6,1.7,18.92,.54,7.69,1.03,15.39,1.26,23.09,.12,3.74-.3,7.51-.63,11.26-.53,5.93-1.3,11.84-1.74,17.77-.25,3.28,0,6.59-.04,9.89-.1,7.99-.33,15.97-.33,23.96,0,4.22,.49,8.43,.52,12.65,.02,3.2-.09,6.43-.55,9.59-1.09,7.43-2.43,14.82-3.67,22.22-.58,3.44-2.66,5.78-5.62,7.39-1.54,.84-3.19,.74-4.79,.08-1.1-.45-2.22-.9-3.24-1.51-3.69-2.18-7.65-3.99-10.62-7.22-.55-.59-1-1.33-1.32-2.07-2.27-5.38-3.61-10.96-3.72-16.82-.21-10.84-.28-21.68-.74-32.5-.35-8.15-1.24-16.28-1.85-24.43-.31-4.12-.4-8.26-.85-12.36-.62-5.65-1.41-11.29-2.28-16.9-1.37-8.92-2.02-17.9-1.87-26.89,.11-6.66,1.84-12.98,5.44-18.82,3.54-5.74,5.86-12.09,6.54-18.85,.48-4.83,.79-9.71,.58-14.55-.16-3.62-1.52-7.18-1.89-10.81-.75-7.39-1.49-14.81-.51-22.24,.69-5.27,1.6-10.51,2.24-15.78,.37-3.09,.23-6.24,.63-9.33,.88-6.73,1.86-13.44,3-20.12,.33-1.94,1.32-3.77,2.07-5.62,1.2-2.95,1.34-6.29,3.33-8.96,.87-1.17,1.56-2.46,2.57-4.07-1.13-2.2,.04-4.59,.8-7.03,2.56-8.14,5.27-16.23,7.65-24.42,1.12-3.86,1.73-7.88,2.39-11.85,.74-4.43,1.43-8.88,1.84-13.35,.31-3.37,.41-6.81,.09-10.18-.51-5.38-1.35-10.74-2.25-16.07-.62-3.7-1.6-7.35-2.38-11.02-.16-.76-.15-1.56-.29-3.03,1.63,1.75,2.72,3.06,3.96,4.23,7.8,7.37,15.57,14.77,24.45,20.89,6.65,4.58,13.15,9.36,19.74,14.03,1.72,1.22,3.48,2.37,5.26,3.59,1.47-.45,2.27-1.43,2.9-2.74,5.28-10.91,10.81-21.69,17.85-31.59,5.49-7.72,11.78-14.78,18.48-21.48,.57-.57,1.26-1.01,2.25-1.8,0,.98,.07,1.65-.01,2.3-.95,7.46-2.08,14.9-2.83,22.38-.32,3.15-.04,6.41,.31,9.58,.3,2.76,1.72,3.23,3.95,1.48,1.73-1.36,3.29-2.93,4.95-4.37,4.92-4.27,9.75-8.65,14.8-12.75,4.7-3.82,9.82-7.04,15.33-9.6,.64-.3,1.38-.39,2.49-.69,.16,1.51,.28,2.83,.44,4.15,.15,1.28,.34,2.55,.5,3.82,.75,5.91,1.36,11.87,3.77,17.41,.68,1.57,1.68,3.03,2.66,4.46,.93,1.35,2.39,1.8,3.9,1.29,1.81-.6,3.72-1.19,5.25-2.26,6.45-4.54,12.82-9.18,19.12-13.92,8.06-6.07,15.88-12.47,24.08-18.35,7.62-5.46,15.75-10.13,24.69-13.22,3.56-1.23,7.09-2.51,10.65-3.74,.48-.17,1.02-.14,2.02-.27-1.76,3.65-3.2,7-4.95,10.19-2.15,3.94-4.49,7.78-6.86,11.6-3.68,5.95-6.85,12.17-9.3,18.71-1.08,2.9-1.84,5.99-2.23,9.06-.83,6.57,2.14,11.63,7.29,15.35,2.34,1.69,5.13,2.8,7.77,4.06,1.65,.78,3.39,1.39,5.12,2,1.21,.43,2.44,.93,3.7,1.05,5.39,.53,10.78,1.1,16.18,1.32,4.8,.2,9.46,1.08,14.15,1.95,4.24,.78,8.51,1.37,12.76,2.08,1.89,.32,3.76,.74,6.02,1.19-.58,.48-.85,.82-1.2,.96-5.69,2.31-11.35,4.73-17.11,6.84-4.99,1.83-10.15,3.2-15.16,4.98-3.8,1.35-7.5,2.98-11.2,4.57-1.74,.74-3.4,1.68-5.37,2.66,2.3,1.56,4.41,2.9,6.42,4.38,1.95,1.42,3.8,2.98,5.98,4.71-4.63,.63-8.84,1.19-12.96,1.75-.72,2.66-1.22,5.08-2.05,7.38-.77,2.13-1.74,4.24-2.92,6.18-1.29,2.12-2.94,3.96-5.53,4.71-.92,.27-1.75,.99-2.52,1.62-2.14,1.72-4.22,3.52-6.34,5.27-2.3,1.9-2.66,4.35-2.41,7.19,.56,6.3,1.18,12.61,1.25,18.92,.06,5.4-.65,10.8-.94,16.2-.18,3.39,.09,6.83-.38,10.17-.8,5.8-1.9,11.56-3.08,17.29-1.26,6.13-2.01,12.28-2.21,18.54-.24,7.55,.84,15,1.27,22.5,.25,4.28,.04,8.59,.16,12.88,.26,8.8,.94,17.6,.84,26.4-.12,10.82-.69,21.64-2.36,32.36-.41,2.62-.47,5.3-.81,7.93-.63,4.9-1.37,9.79-2.01,14.69-.48,3.73-.79,7.49-1.3,11.21-.72,5.26-1.4,10.54-2.41,15.74-.78,4.02-2,7.97-3.13,11.92-.32,1.12-1.03,2.13-1.52,3.22-1.29,2.88-2.18,2.62-4.58,2.21-2.6-.45-5.4-.58-7.32-2.75-.82-.93-1.66-2.03-1.99-3.2-1.54-5.38-3.36-10.73-4.21-16.23-.67-4.38-.3-8.98,0-13.45,.74-10.9,1.82-21.77,1.17-32.73-.22-3.75-.03-7.53,.05-11.29,.14-6.61,.49-13.22,.46-19.82-.01-3.56-.55-7.13-.97-10.67-.6-5-1.23-10-2.01-14.97-.83-5.33-1.89-10.63-2.75-15.95-.66-4.07-1.13-8.17-1.75-12.25-.25-1.63-.58-3.26-1.05-4.83-1.24-4.11-1.31-8.3-1.18-12.55,.2-6.44-1.31-12.58-3.99-18.38-2.04-4.41-4.45-8.64-6.65-12.98-.62-1.22-1.08-2.53-1.56-3.81-1.28-3.39-3.07-6.46-5.77-8.93-.64-.59-1.42-1.04-2.3-1.67-.55,.84-.97,1.41-1.33,2.02-2.68,4.59-5.38,9.17-8.02,13.79-3.69,6.46-5.05,13.49-5.01,20.87,.06,11.04,1.55,21.93,3.01,32.86,.84,6.24,.68,12.63,.7,18.95,.02,5.78-.41,11.56-.46,17.34-.07,7.44-.09,14.89,.08,22.32,.18,7.89,.71,15.77,.9,23.66,.1,4.11-.31,8.24-.28,12.36,.02,3.48-.03,7.02,.59,10.42,1.81,9.93,1.51,19.94,1.5,29.94-.01,9.26,.04,18.53-.14,27.79-.09,4.66-.54,9.28-2.38,13.72-2.48,6-6.17,8.11-11.62,7.47-.46-.05-.92-.05-1.38-.08-1.65-.74-3.3-1.47-4.96-2.21Z"/>
</svg>