<?xml version="1.0" encoding="UTF-8"?>
<svg id="image" xmlns="http://www.w3.org/2000/svg" viewBox="0 0 425.2 270.47">
  <path d="M95.23,42.6c-1.8-.81-3.4-1.49-4.95-2.25-8.01-3.93-16.49-6.11-25.36-6.7-7.81-.51-15.5,.2-23.12,2.18-8.17,2.12-14.82,6.58-20.55,12.56-4.12,4.31-7.31,9.28-10.16,14.51-3.61,6.64-6.76,13.37-7.12,21.09-.03,.55-.18,1.09-.31,1.63-1.82,7.59-2.59,15.35-2.94,23.1-.6,13.25,.21,26.46,2.58,39.54,.95,5.27,2.01,10.53,3.06,15.79,1.32,6.58,3.61,12.8,6.99,18.63,3.67,6.32,7.27,12.69,10.78,19.1,4.14,7.55,8.86,14.75,13.76,21.82,3.68,5.31,7.17,10.76,11.78,15.42,4.76,4.8,9.37,9.7,15.31,13.09,1.44,.83,3.17,1.39,4.26,2.55,1.83,1.93,4.67,1.06,6.46,2.77,.08,.07,.4,0,.51-.09,1.09-1.08,2.28-.41,3.4-.16,8.21,1.83,16.41,3.7,24.63,5.54,2.16,.48,4.33,.98,6.51,1.33,6.66,1.09,13.31,2.23,20,3.13,3.94,.53,7.93,.84,11.9,.92,5.47,.12,10.94-.16,16.41-.11,7.13,.06,14.26,.23,21.39,.43,4.17,.12,8.33,.45,12.49,.54,2.12,.05,4.26-.39,6.37-.3,10.73,.45,21.26-1.23,31.75-3.07,9.38-1.65,18.74-3.47,28.05-5.49,6.6-1.42,13.13-3.18,19.63-4.99,5.79-1.61,11.51-3.45,17.23-5.3,4.49-1.45,8.98-2.89,13.36-4.62,6.1-2.41,12.15-4.98,18.14-7.65,5.41-2.41,10.86-4.79,16.04-7.65,8.43-4.65,16.52-9.87,24.23-15.67,5.32-4,10.71-7.92,15.98-12,4.17-3.23,8.29-6.53,12.27-9.99,4.51-3.92,7.82-8.89,11.25-13.72,5.25-7.4,10.51-14.79,14.08-23.22,3.23-7.61,4.72-15.55,4.98-23.75,.23-7.26-1-14.36-2.59-21.42-2.54-11.25-7.27-21.47-13.6-31.09-4.34-6.6-9.45-12.3-15.71-17.07-5.21-3.97-10.69-7.37-17.13-8.88-6.85-1.6-13.43-1.25-19.27,3.29-.11,.09-.35,.01-.65,.01-.75-1.07-1.47-2.26-2.34-3.33-5.32-6.56-11.23-12.58-17.8-17.87-9.27-7.47-19.2-13.96-30.71-17.5-5.39-1.65-10.88-3.11-16.42-4.06-11.83-2.03-23.7-2.81-35.56,.25-8.39,2.16-16.56,4.67-23.4,10.65-.79-.64-1.58-1.26-2.35-1.9-6.37-5.3-13.23-9.94-20.73-13.38-9.01-4.13-18.34-7.34-28.41-8.15-12.69-1.01-25.11-.42-37.41,3.21-15.31,4.52-27.87,13.07-38.47,24.81-2.56,2.84-4.87,5.83-6.6,9.24-.66,1.29-1.19,2.65-1.9,4.25Z"/>
  <path d="M95.23,42.6c.71-1.61,1.24-2.96,1.9-4.25,1.73-3.41,4.04-6.4,6.6-9.24,10.6-11.74,23.16-20.29,38.47-24.81C154.5,.67,166.93,.08,179.62,1.09c10.08,.8,19.4,4.01,28.41,8.15,7.5,3.44,14.37,8.07,20.73,13.38,.77,.64,1.56,1.26,2.35,1.9,6.84-5.98,15.01-8.49,23.4-10.65,11.86-3.06,23.73-2.27,35.56-.25,5.55,.95,11.04,2.4,16.42,4.06,11.51,3.53,21.44,10.02,30.71,17.5,6.57,5.29,12.47,11.31,17.8,17.87,.87,1.07,1.59,2.26,2.34,3.33,.3,0,.54,.07,.65-.01,5.84-4.54,12.42-4.89,19.27-3.29,6.44,1.5,11.92,4.91,17.13,8.88,6.26,4.77,11.38,10.47,15.71,17.07,6.33,9.63,11.06,19.85,13.6,31.09,1.59,7.06,2.82,14.16,2.59,21.42-.26,8.2-1.75,16.14-4.98,23.75-3.58,8.43-8.84,15.82-14.08,23.22-3.42,4.83-6.74,9.8-11.25,13.72-3.98,3.46-8.1,6.77-12.27,9.99-5.27,4.08-10.66,7.99-15.98,12-7.71,5.8-15.8,11.02-24.23,15.67-5.18,2.86-10.63,5.24-16.04,7.65-5.99,2.67-12.04,5.25-18.14,7.65-4.38,1.73-8.88,3.17-13.36,4.62-5.72,1.84-11.44,3.68-17.23,5.3-6.5,1.81-13.03,3.56-19.63,4.99-9.31,2.01-18.66,3.84-28.05,5.49-10.49,1.84-21.02,3.52-31.75,3.07-2.12-.09-4.25,.35-6.37,.3-4.17-.09-8.33-.43-12.49-.54-7.13-.2-14.26-.37-21.39-.43-5.47-.05-10.94,.23-16.41,.11-3.97-.08-7.96-.39-11.9-.92-6.69-.9-13.34-2.04-20-3.13-2.18-.36-4.35-.85-6.51-1.33-8.21-1.84-16.41-3.71-24.63-5.54-1.13-.25-2.31-.92-3.4,.16-.11,.1-.43,.17-.51,.09-1.8-1.72-4.64-.84-6.46-2.77-1.09-1.16-2.82-1.72-4.26-2.55-5.94-3.39-10.55-8.29-15.31-13.09-4.61-4.66-8.11-10.11-11.78-15.42-4.89-7.06-9.61-14.26-13.76-21.82-3.52-6.41-7.11-12.78-10.78-19.1-3.38-5.83-5.67-12.04-6.99-18.63-1.05-5.26-2.11-10.51-3.06-15.79C.93,135.19,.12,121.98,.71,108.73c.35-7.75,1.12-15.51,2.94-23.1,.13-.54,.29-1.09,.31-1.63,.36-7.71,3.51-14.45,7.12-21.09,2.85-5.24,6.03-10.21,10.16-14.51,5.73-5.98,12.39-10.44,20.55-12.56,7.61-1.98,15.31-2.7,23.12-2.18,8.87,.58,17.35,2.76,25.36,6.7,1.56,.76,3.16,1.44,4.95,2.25Zm136.52-14.79c-1.33-1.57-2.11-2.73-3.13-3.63-5.97-5.33-12.55-9.88-19.74-13.31-8.88-4.24-18.14-7.41-28.09-8.37-9.46-.91-18.87-.83-28.23,.72-14.38,2.39-27.29,8.09-38.32,17.72-3.06,2.67-5.92,5.59-8.88,8.38-3.93,3.7-6.69,8.11-8.07,13.34-.33,1.27-1,1.74-2.22,1.23-1.62-.68-3.2-1.45-4.83-2.11-3.68-1.51-7.28-3.27-11.07-4.42-9.45-2.85-19.14-3.25-28.88-1.91-11.38,1.56-21.28,6.11-29.11,14.73-4.85,5.33-8.55,11.41-11.54,17.92-1.39,3.02-2.59,6.14-3.61,9.3-.56,1.73-.43,3.67-.85,5.46-2.04,8.5-3.05,17.16-3.41,25.83-.34,8.22-.09,16.51,.6,24.71,.76,9.03,2.29,17.98,4.13,26.88,1.71,8.23,4.22,16.09,8.4,23.41,3.02,5.3,5.9,10.68,9.02,15.92,4.36,7.3,8.53,14.76,13.46,21.67,4.01,5.63,7.44,11.68,12.39,16.68,5.54,5.6,10.97,11.28,18.13,14.83,2.04,1.01,4.31,1.61,6.54,2.18,3.41,.87,6.87,1.52,10.3,2.32,5.13,1.19,10.22,2.6,15.38,3.61,8.89,1.73,17.81,3.39,26.77,4.76,5.11,.78,10.31,1.24,15.48,1.33,12.32,.23,24.64,.11,36.96,.23,7.97,.08,15.93,.51,23.9,.44,9.37-.09,18.62-1.53,27.82-3.3,11.9-2.29,23.93-3.95,35.64-7.21,6.33-1.76,12.79-3.09,19.03-5.12,9.59-3.12,19.09-6.56,28.54-10.07,4.76-1.77,9.39-3.93,14.01-6.07,5.37-2.49,10.75-4.98,15.97-7.76,7.03-3.76,13.66-8.16,20.03-12.97,8.2-6.19,16.55-12.2,24.75-18.39,3.84-2.91,7.48-6.1,10.45-9.93,5.57-7.17,10.89-14.52,15.6-22.29,4.26-7.02,7.61-14.44,8.88-22.6,1.3-8.37,1.42-16.78-.12-25.16-.35-1.91-.8-3.81-1.28-5.69-.94-3.67-1.55-7.48-2.99-10.94-2.43-5.89-5.23-11.64-8.2-17.28-1.76-3.34-4.05-6.42-6.26-9.5-3.72-5.21-8.85-8.94-13.98-12.58-4.4-3.12-9.17-5.61-14.57-6.62-4.73-.88-9.39-.97-13.92,.98-2.13,.92-3.92,2.1-3.95,4.75,0,.08-.3,.15-.79,.37-.56-1.2-.92-2.56-1.72-3.58-3.14-4.01-6.16-8.15-9.7-11.79-6.59-6.78-13.93-12.66-22.04-17.68-8.71-5.39-18.03-9.01-27.95-11.12-5.42-1.15-10.96-1.75-16.47-2.44-13.99-1.73-27.33,.71-40.04,6.64-3.17,1.48-6.36,3.1-8.17,7.5Z"/>
  <path d="M231.75,27.8c1.82-4.4,5-6.02,8.17-7.5,12.71-5.93,26.05-8.37,40.04-6.64,5.51,.68,11.05,1.28,16.47,2.44,9.92,2.11,19.23,5.73,27.95,11.12,8.11,5.02,15.44,10.9,22.04,17.68,3.54,3.64,6.56,7.78,9.7,11.79,.8,1.02,1.16,2.38,1.72,3.58,.49-.23,.79-.3,.79-.37,.04-2.66,1.82-3.83,3.95-4.75,4.53-1.95,9.19-1.86,13.92-.98,5.4,1.01,10.17,3.5,14.57,6.62,5.13,3.64,10.26,7.37,13.98,12.58,2.21,3.09,4.5,6.16,6.26,9.5,2.97,5.64,5.77,11.39,8.2,17.28,1.43,3.47,2.05,7.28,2.99,10.94,.48,1.88,.93,3.78,1.28,5.69,1.54,8.38,1.43,16.79,.12,25.16-1.27,8.16-4.62,15.58-8.88,22.6-4.71,7.77-10.04,15.12-15.6,22.29-2.98,3.83-6.61,7.02-10.45,9.93-8.2,6.2-16.54,12.2-24.75,18.39-6.37,4.81-13,9.22-20.03,12.97-5.22,2.79-10.6,5.28-15.97,7.76-4.62,2.14-9.25,4.29-14.01,6.07-9.46,3.52-18.95,6.96-28.54,10.07-6.24,2.03-12.7,3.36-19.03,5.12-11.71,3.26-23.74,4.92-35.64,7.21-9.19,1.77-18.44,3.21-27.82,3.3-7.96,.08-15.93-.36-23.9-.44-12.32-.12-24.64,0-36.96-.23-5.17-.1-10.37-.55-15.48-1.33-8.96-1.37-17.87-3.03-26.77-4.76-5.16-1.01-10.25-2.42-15.38-3.61-3.43-.8-6.89-1.45-10.3-2.32-2.22-.57-4.5-1.16-6.54-2.18-7.16-3.55-12.59-9.22-18.13-14.83-4.95-5-8.38-11.06-12.39-16.68-4.92-6.91-9.1-14.37-13.46-21.67-3.13-5.24-6-10.62-9.02-15.92-4.17-7.31-6.69-15.17-8.4-23.41-1.84-8.9-3.37-17.85-4.13-26.88-.69-8.2-.95-16.49-.6-24.71,.36-8.67,1.38-17.34,3.41-25.83,.43-1.79,.29-3.73,.85-5.46,1.02-3.16,2.23-6.28,3.61-9.3,2.99-6.51,6.69-12.59,11.54-17.92,7.83-8.61,17.73-13.17,29.11-14.73,9.75-1.34,19.43-.93,28.88,1.91,3.79,1.14,7.4,2.91,11.07,4.42,1.62,.67,3.21,1.44,4.83,2.11,1.22,.51,1.89,.03,2.22-1.23,1.37-5.23,4.14-9.64,8.07-13.34,2.96-2.79,5.82-5.7,8.88-8.38,11.04-9.63,23.95-15.33,38.32-17.72,9.36-1.55,18.77-1.63,28.23-.72,9.94,.96,19.2,4.13,28.09,8.37,7.2,3.43,13.77,7.97,19.74,13.31,1.01,.9,1.79,2.06,3.13,3.63Z"/>
</svg>