<?xml version="1.0" encoding="UTF-8"?>
<svg id="Layer_4" data-name="Layer 4" xmlns="http://www.w3.org/2000/svg" viewBox="0 0 425.2 425.2">
  <defs>
    <style>
      .cls-1 {
        stroke: #000;
        stroke-miterlimit: 10;
        stroke-width: .5px;
      }
    </style>
  </defs>
  <path class="cls-1" d="M321.17,252.98c-1.67-.01-3.35,0-5.03,.03-.47,.57,23.95,32.68,24.66,33.23,3.76,2.92,7.01,6.31,10.87,9.14,7.55,5.53,5.21,4.79,16.84,13.9,1.9,1.49,5.59,5.17,13,12.52,.83,.83,2.85,2.87,2.23,3.59-.49,.57-2.44,.08-3.65-.23-2.86-.73-4.74-1.81-6.16-2.58,0,0-3.43-1.89-7.06-3.45-3.7-1.6-6.84-2.2-9.4-2.67-4.78-.91-10.6-.45-22.25,.43-1.38,.1-4.04,.33-4.7,1.66-.55,1.13,.47,2.78,.66,3.08,.53,.85,1.17,1.38,1.33,1.5,2.39,1.95,4.54,4.13,6.95,6.08,6.58,5.35,4.69,6.05,8.92,8.52,1.27,.74,3.51,1.89,3.49,3.43-.01,.6-.37,1.29-1,1.72-.93,.65-2.22,.54-2.8,.47-10.09-1.11-16.76-3.39-16.76-3.39,0,0-7.75-2.64-20.49-4.18-16.49-4.06-10.39-1.85-5.61-.25-.09,.04-.18,.1-.26,.17-1.71,1.32,1.84,5.15,2.25,11.2,.04,.64,.41,6.11-1.92,6.81-1.01,.3-2.09-.44-4.85-2.23-2.48-1.62-5.08-3.11-7.51-4.77-8.02-5.49-17.44-6.18-19.74-6.36-4.99-.36-7.08,.41-8.16,.95-2.72,1.34-3.86,3.44-5,5.63-2.86,5.47-3.8,13.08-2.15,19.02,.2,.68,.72,2.46,.29,2.62-.35,.13-1.19-.85-3.24-3.45-1.94-2.45-2.92-3.68-3.76-4.85-3.07-4.23-5.5-3.63-14.39-10.61-2.3-1.8-5.23-2.92-7.77-4.47-.6-.36-1.83-1.1-2.6-.75-.83,.36-.71,1.78-.68,2.2,.33,4.66-1.41,9.34-.85,13.98,.81,6.88-.96,13.83-3.85,25.12-1.33,5.22-3.4,10.64-7.55,21.48-4.22,11-1.12,1.39-5.73,11.7-.75,1.68-2.51,5.68-3.97,5.52-.42-.04-.79-.45-.97-.64-.85-.91-.75-2.08-.72-2.34,.01-.31-1.12-7.36-3.38-21.45-.92-5.72-2.13-11.06-2.51-12.75-.31-1.41-.62-2.66-.79-3.37-2.67-10.82-7.22-20.85-7.77-22.03-.85-1.88-4.71-10.12-9.88-14.86,0,0-2.95-2.7-7.18-3.65-1.1-.25-2.13-.32-3.17-.02-.96,.29-1.63,.82-2.39,1.6-2.07,2.12-2.92,4.06-2.92,4.06-.59,1.38-2.67,4.68-6.83,11.29-1.56,2.48-3.07,4.43-6.09,8.31-.38,.5-5.7,7.28-14,15.2-2.26,2.15-4.2,3.89-5.16,3.48-.74-.31-.49-1.68-.13-4.42,.42-3.32,.59-7.05,.92-14.5,.05-1.32,.1-2.72-.33-4.48-.46-1.85-.97-3.93-2.89-5.3-2.31-1.66-5.44-1.41-7.64-1.25-4.31,.34-7.42,1.8-8.9,2.49,0,0-9.23,4.34-29.99,12.8-.29,.12-1,.4-2.4,.96-6.36,2.52-6.86,2.64-7,2.49-.32-.31,.87-1.82,7.21-7.27,3.86-3.32,10.74-9.05,16.18-15.47,.98-1.17,2.51-3.05,2.09-5.23-.42-2.22-2.6-3.64-3.89-4.46-3.64-2.32-7.64-2.7-9.06-2.84-18-1.57-26-1.25-26-1.25-9.27,.38-15.54,1.15-16.4-.74-.32-.7,.18-1.53,.96-2.85,1.56-2.62,3.85-4.11,4.4-4.47,9.59-6.23-1.05-.2,10.28-6.94,0,0,5.07-3.01,16.77-11.13,0,0,1.37-.95,3.18-3.53,.21-.31,.54-.79,.49-1.42-.03-.19-.12-.85-1.33-1.84-1.23-.99-2.51-1.43-2.6-1.47-8.65-2.94-14.03-3.65-14.03-3.65,0,0-11.69-1.56-20.84-3.89-1.1-.29-3.26-.86-3.99-2.37-.74-1.55,.26-3.57,.53-4.07,.42-.84,.91-1.41,1.08-1.61,4.6-5.28,7.51-7.42,7.51-7.42,11.95-8.8,17.93-13.2,22.25-15.12,0,0,2.31-1.03,5.07-3.93,.37-.38,.97-1.07,.88-1.91-.09-.72-.64-1.24-1.08-1.59-2.35-1.93-4.68-2.55-4.68-2.55,0,0-1.73-.46-24.43-6.9-3.99-1.13-9.18-2.59-14.73-5.82-5.7-3.3-9.43-7.67-16.89-16.42-9.57-11.25-4.06-8.32-10.2-16-.25-.31-.8-.99-.51-1.38,.29-.41,2.15-1.34,30.99,10.23,0,0,29.6,11.89,30.53,10.46,.07-.12,.26-.83-.07-1.51-.12-.26-.28-.43-.34-.5-.95-1.06-2.35-3.22-3.02-4.27-.72-1.1-1-1.78-1.54-2.88-2.06-4.19-3.13-4.78-5.71-9.67-.5-.95-1.71-3.28-2-6.31-.14-1.49,.01-2.36,.7-2.91,.85-.7,2.3-.7,3.7-.68,1.34,.01,2.34,.19,2.51,.22,3.41,.64,1.34-.02,11.56,1.58,1.94,.3,2.82,.45,4.26,.54,2.61,.17,4.1-.04,5.31-.39,1.26-.36,2.09-.61,2.47-1.2,.89-1.47-1.62-3.93-2.56-4.92-.93-.98-1.55-1.78-2-2.52h-.01c-.24-1.05-.46-2.04-1.76-4.34-.68-1.8-1.77-4.24-4.22-8.09-2.71-4.26-4.95-8.72-7.54-13.04-.07-.1-.74-1.23-.85-2.78-.05-.75-.13-1.77,.56-2.4,.68-.62,1.77-.59,3.1-.53,3.47,.14,6.93-.07,10.39,.21,.25,.02,1.59,.13,2.81-.47,.77-.39,.85-.75,.87-.83,.12-.57-.62-1.1-.85-1.28-3.59-2.69-5.88-6.41-9.17-9.38,0,0-2.04-1.85-5.24-6.24-.33-.45-.97-1.37-.6-2.17,.35-.75,1.43-1.07,2.38-1.34,1.93-.55,3.56-.51,3.72-.51,4.75,.12,8.04-.61,12.73-1.66,.92-.2,2.17-.51,2.52-1.32,.34-.76-.24-1.61-.92-2.48-2.52-3.21-4.39-4.5-4.39-4.5-2.9-2.01-5.04-4.7-7.63-7.01-6.37-5.67-10.32-11.61-12.03-14.21-3.48-5.31-6.07-10.81-6.7-13.29-.08-.31-.39-1.6-1.04-3.31-.56-1.51-.98-2.25-1.29-2.99-.98-2.4-.62-4.51-.43-6.03,.55-4.58,.07-9.15-.41-13.65-.47-4.59-1.5-8.06-2.34-10.87-1.62-5.42-2.34-5.53-4.32-11.58-3.15-9.59-2.77-13.77-2.19-13.92,.25-.07,.53,0,.53,0,.42,.12,.62,.49,.66,.54,.53,.85,12.04,10.95,20.22,16.44,6.26,4.19,5.46,2.27,13.71,7.47,2.77,1.74,12.52,8.04,14.16,7.04,.54-.33,.72-.79,.72-.79,.26-.64-.12-1.28-.22-1.46-.95-1.67-1.65-6.5-3.09-16.16,0,0-.22-1.49,.42-3.33,.32-.93,.56-1.08,.71-1.15,1.09-.49,3.19,1.24,4.65,2.33,.55,.42,3.48,2.06,9.35,5.34,0,0,3.51,1.96,10.12,4.15,.71,.23,2.15,.7,3.03,.14,.53-.33,.68-.93,.66-2.75-.05-2.81-.47-4.22-.54-6.56-.04-1.16,.05-1.19,.08-2.64,.08-3.82-.55-5.34-.92-11.06,0,0-.14-2.19,.8-4.92,.32-.89,.67-1.63,1.42-1.85,.93-.29,2.02,.36,2.47,.64,5.36,3.36,8.04,5.02,9.01,5.75,0,0,4.89,3.64,12.15,5.97,.55,.18,1.68,.52,2.43,.08,.79-.46,.79-1.53,.77-1.92-.04-6.26,.75-12.51,.37-18.75,0,0-.2-3.25,.87-12.66,.12-1.15,.38-3.26,1.25-3.39,.84-.11,1.84,1.64,2.23,2.32,1.31,2.25,4.12,5.5,9.74,11.99,.29,.33,4.22,4.81,9.97,8.76,0,0,3.81,2.64,7.41,2.47,.38-.01,1.33-.06,2.11-.61,.71-.5,.95-1.17,1.05-1.49,1.33-4.01,1.98-6.02,2.05-6.63,.29-3.25,1.18-2.36,6.5-15.4,1.13-2.75,2.02-5.09,3.34-5.1,.62,0,.83,.53,2.57,2.48,1.85,2.06,3.53,3.61,5.04,4.99,.32,.29,1.04,.95,1.79,1.57,2.34,1.96,6.5,5.46,12.37,6.53,2.8,.52,4.24,.15,4.83-.02,1.56-.49,2.65-1.4,3.39-2.03,1.22-1.04,1.9-2.01,2.26-2.53,2.88-4.15,4.32-6.23,5.65-8.54,1.65-2.9,2.13-4.05,2.92-4.02,.88,.04,1.48,1.49,2.25,3.73,1.46,4.37,1.71,6.5,2.5,9.5,1.64,6.38,2.51,9.71,4.96,11.58,.3,.23,1.27,.94,1.08,1.52l4.29,.67c-.08-.26,.05-.59,.35-.94,1.71-.38,3.72-1.47,6.46-2.76,7.37-3.47,5.92-1.7,15.76-6,2.81-1.23,5.82-2.11,8.77-3.08,1.37-.14,2.25-.06,2.46,.33,.09,.19,0,.39-.89,1.52-2.38,3.02-3.57,4.53-6.19,6.78-6.79,5.85-5.79,7.81-11.03,12.11,0,0-1.9,1.57-3.44,4.39-.56,1.05-.84,1.87-.56,2.73,.1,.31,.42,1.08,2.05,2.09,2.22,1.36,4.5,1.69,4.85,1.73,13.68,1.89,17.77,1.68,17.77,1.68,25.33-1.27,23.02,.45,33.97-.78,1.12-.13,5.66,.06,14.75,.41,1.46,.06,4.22,.19,4.53,1.14,.16,.45-.3,.99-2.04,2.41-3.18,2.59-4.49,3.32-4.49,3.32-12.34,6.9-18.52,10.34-22.18,11.55-1.98,.65-4.52,2.11-9.59,5.02-.62,.36-1.83,1.07-2.06,2.23-.25,1.15,.55,2.3,1.06,3.04,.11,.14,.7,.96,1.55,1.67,4.52,3.64,11,5.3,11,5.3,8.46,2.16,15.72,2.91,23.64,4.36,.18,.03,1.94,.45,5.46,1.3,3.69,.88,4.96,1.2,5.04,1.8,.05,.46-.63,.98-2.78,1.94-2.74,1.23-4.11,1.83-7.25,2.55-6.24,1.42-9.9,3.87-16.39,8.22-.8,.54-2.17,1.49-2.39,2.92-.21,1.35,.64,2.52,1.42,3.54,1.39,1.84,3.07,2.9,3.38,3.08,10.14,6.23,23.11,9.29,23.11,9.29,17.23,4.07,25.84,6.11,26.03,6.14,0,0,3.23,.38,3.19,1.15,0,.01,0,.07-.03,.32-.01,.17-.03,.31-.03,.31-.11,1.26-4.75,1.89-4.75,1.89-7.83,1.06-14.34,6.13-29.89,8.77-1.39,.24-4.49,1.46-10.66,3.89-.75,.29-2.22,.88-2.53,2.01-.08,.25-.29,1.23,1.38,3,2.19,2.33,5.06,3.31,5.46,3.44,13.21,4.36,20.87,5.78,20.87,5.78,14.56,2.72,11.82,2.36,20.21,3.84,8.67,1.52,10.57,1.72,15.94,2.92,6.8,1.53,5.04,1.52,14.05,3.69,1.41,.33,4.85,1.49,11.74,3.8,1.06,.36,2.78,.95,2.69,1.37-.12,.59-3.57,.52-4.41,.51-3.72-.06-10.68,.73-24.61,2.3-16.84,1.9-17.78,5.52-32.91,7.94,0,0-4.96,.79-12.28,4.7-.85,.46-2.42,1.35-2.95,2.91-.45,1.27-.01,2.43,.32,3.2,2.14,5,5.32,7.67,5.32,7.67,13.57,11.39,24.18,17.23,24.18,17.23,17.27,9.5,25.91,14.26,28.77,16.1,6.51,4.19,20.14,13.43,21.89,14.61,2.3,1.56,4.19,2.85,5.49,3.74v.03l-103.26,.79Z"/>
</svg>