<?xml version="1.0" encoding="UTF-8"?>
<svg id="image" xmlns="http://www.w3.org/2000/svg" viewBox="0 0 279.5 425.2">
  <path d="M188.67,272.65c0,2.93-.1,5.87,.02,8.8,.32,7.69,.55,15.39,2.11,23.01,1.74,8.49,3.26,17.01,6.33,25.28,1.2,3.24,2.45,6.49,4.05,9.61,1.91,3.72,4.19,7.31,8.09,10.05,4.19,2.95,8.77,2.07,10.85-2.04,1.21-2.39,1.05-4.81,1.04-7.27-.03-5.4-.4-10.82,.09-16.19,.58-6.29,2.15-12.52,2.9-18.81,1.08-9.1,1.92-18.23,2.65-27.35,.63-7.95,.99-15.92,1.41-23.88,.41-7.76,.91-15.53,1.08-23.3,.17-7.76,.02-15.53-.05-23.29-.02-2.47-.19-4.94-.29-7.42-.31-7.61-.55-15.22-.95-22.82-.49-9.25-1.22-18.5-1.63-27.75-.35-7.82,.7-15.57,3.18-23.14,.62-1.89,1.8-3.78,3.26-5.34,1.72-1.84,3.09-1.68,4.97,.11,3.27,3.12,5.62,6.66,6.98,10.59,3.14,9.09,3.19,18.48,3.97,27.79,.32,3.73-.21,7.51-.36,11.27-.39,9.35-.75,18.69-1.2,28.04-.22,4.49-.71,8.96-.91,13.45-.28,6.22-.41,12.45-.58,18.67-.22,8.45,.29,16.9,2.13,25.19,2.21,9.99,5.19,19.86,8.06,29.75,.66,2.28,2.1,4.43,3.34,6.57,.62,1.07,1.9,1.6,3.41,1.38,1.47-.21,1.92-1.16,2.13-2.21,.37-1.79,.78-3.58,1.11-5.38,.32-1.72,.31-3.5,.9-5.15,3.26-9.13,5.92-18.36,8.35-27.65,1.39-5.31,2.06-10.66,2.23-16,.25-7.75-.17-15.54-.74-23.29-.61-8.19-1.72-16.35-2.65-24.52-.31-2.73-.72-5.45-1.09-8.18-.46-3.46-1.11-6.9-1.35-10.37-.46-6.77-.84-13.54-1-20.32-.26-11.37-.67-22.75-.37-34.11,.28-10.62,1.3-21.24,2.18-31.84,1.24-15-.08-29.88-3.08-44.66-1.8-8.87-4.69-17.52-9.27-25.79-3.17-5.72-7.96-10.17-14.58-13.39-7.02-3.42-14.62-2.06-18.81,3.65-3.41,4.65-6.62,9.4-9.55,14.25-4.33,7.16-8.21,14.5-12.53,21.66-2.27,3.76-4.65,7.47-8.8,10.32-5.31,3.64-13.44,4.07-19.03,1.21-3.97-2.04-5.79-5.25-7.75-8.48-2.33-3.86-4.74-7.72-7.62-11.31-2.26-2.82-5.22-5.28-8.01-7.81-3.81-3.45-8.14-6.36-13.77-7.72-3.04-.74-6.09-1.45-9.12-2.21-3.44-.85-6.71-.53-9.91,.73-3.42,1.35-4.05,2.15-3.88,5.13,.06,1.09,.11,2.19,.06,3.28-.18,4.12-3.21,6.08-8.35,5.38-5.82-.79-11.59-1.8-17.43-2.42-11.47-1.21-22.97-2.33-34.48-3.26-4.38-.35-8.89-.37-13.26,0-4.97,.44-9.22,2.03-11.77,6.07-1.67,2.65-4.11,5.09-6.69,7.25-5.05,4.24-6.44,8.91-3.7,14.36,1.46,2.9,1.64,5.86,.98,8.9-.39,1.8-.56,3.65-1.06,5.43-.42,1.49-.95,3.01-1.82,4.35-1.72,2.65-1.69,5.51-1.56,8.3,.04,.98,.55,1.96,.28,3.08-1.78,7.36-3.51,14.73-5.17,22.11-2.06,9.13-2.59,18.4-3.14,27.64-.58,9.6-.71,19.23-.69,28.85,.02,11.93-.46,23.83-1.36,35.73-.47,6.2-.94,12.41-1.55,18.61-.52,5.2-1.44,10.38-1.83,15.59-.56,7.31-1.11,14.64-1.1,21.96,.02,7.69,.4,15.4,1.2,23.06,.71,6.83,2.1,13.63,3.39,20.42,1.78,9.33,4.81,18.44,7.95,27.52,2.59,7.49,5.44,14.93,8.2,22.38,2.6,7.03,5.32,14.02,9.35,20.63,3.51,5.77,6.94,11.53,12.27,16.43,3.78,3.48,8.42,5.2,14.05,5.21,4.72,0,8.24-1.7,10.33-5.22,1.87-3.14,2.49-6.47,2.31-9.9-.1-1.91-.51-3.82-.7-5.73-.31-3.2-.36-6.42-.84-9.6-2.21-14.39-3.92-28.8-3.9-43.31,0-6.05-.02-12.1,.19-18.15,.21-6.05,.68-12.09,1.06-18.13,.48-7.77,.86-15.55,1.51-23.31,.95-11.34,2.26-22.66,3.13-34.01,.74-9.61,1.87-19.18,4.65-28.55,2.89-9.7,5.94-19.36,9.27-28.97,1.24-3.59,3.43-6.98,6.61-9.8,2.14-1.89,4.68-1.8,6.73,.1,.44,.41,.87,.87,1.12,1.37,1.41,2.88,3.2,5.71,4.05,8.7,2.3,8.03,4.17,16.14,6.24,24.21,1.08,4.21,2.38,8.4,3.28,12.63,2.12,9.97,2.53,20.04,2.76,30.13,.21,9.28-.79,18.49-1.82,27.71-.97,8.66-2.13,17.32-3.02,25.98-.69,6.67-1.19,13.35-1.6,20.03-.39,6.41-.89,12.83-.73,19.24,.24,9.52,.98,19.04,1.59,28.56,.27,4.12,.52,8.25,1.19,12.34,1.28,7.81,2.93,15.58,4.29,23.38,1.57,9.02,4.29,17.79,8.31,26.29,1.42,3,3.19,5.87,5.91,8.29,1.65,1.48,3.56,2.55,6,2.94,4.66,.75,8.12-1.01,9.12-4.76,.41-1.52,.67-3.08,.75-4.63,.42-7.42,1.26-14.8,2.66-22.15,1.77-9.33,3.26-18.69,4.98-28.02,1.49-8.07,2.68-16.17,2.93-24.33,.26-8.7,.32-17.4,.49-26.1,.12-6.12,.32-12.23,.42-18.35,.11-6.97,.31-13.94,.15-20.91-.15-6.86-.66-13.71-1.08-20.56-.27-4.39-.63-8.77-1.01-13.16-.71-8.13-1.16-16.29-2.29-24.38-1.37-9.75-2.05-19.52-2.43-29.31-.27-6.86,.28-13.72,1.36-20.53,1.06-6.67,3.19-13.11,6.69-19.22,.73-1.27,1.71-2.59,3.58-2.67,2-.09,2.73,1.38,3.55,2.59,4.85,7.15,9.76,14.28,14.53,21.46,1.66,2.49,3.17,5.08,4.43,7.71,4.6,9.61,6,19.73,6.69,29.91,.78,11.56-.14,23.09-1.96,34.55-1.65,10.38-2.56,20.79-2.16,31.25Z"/>
  <path d="M188.67,272.65c-.4-10.46,.51-20.87,2.16-31.25,1.82-11.46,2.74-22.99,1.96-34.55-.69-10.19-2.08-20.3-6.69-29.91-1.26-2.64-2.78-5.22-4.43-7.71-4.77-7.19-9.68-14.31-14.53-21.46-.82-1.21-1.55-2.68-3.55-2.59-1.87,.09-2.85,1.4-3.58,2.67-3.5,6.12-5.64,12.56-6.69,19.22-1.08,6.81-1.63,13.67-1.36,20.53,.38,9.79,1.06,19.56,2.43,29.31,1.14,8.09,1.58,16.25,2.29,24.38,.38,4.38,.74,8.77,1.01,13.16,.42,6.85,.93,13.71,1.08,20.56,.15,6.97-.05,13.94-.15,20.91-.09,6.12-.3,12.23-.42,18.35-.17,8.7-.23,17.4-.49,26.1-.24,8.16-1.44,16.25-2.93,24.33-1.72,9.33-3.21,18.7-4.98,28.02-1.39,7.35-2.24,14.73-2.66,22.15-.09,1.55-.35,3.11-.75,4.63-1.01,3.75-4.46,5.51-9.12,4.76-2.44-.39-4.35-1.46-6-2.94-2.71-2.43-4.49-5.29-5.91-8.29-4.02-8.5-6.73-17.27-8.31-26.29-1.36-7.8-3.01-15.57-4.29-23.38-.67-4.08-.93-8.22-1.19-12.34-.61-9.52-1.35-19.03-1.59-28.56-.16-6.41,.34-12.83,.73-19.24,.41-6.68,.91-13.37,1.6-20.03,.9-8.67,2.06-17.32,3.02-25.98,1.03-9.22,2.03-18.43,1.82-27.71-.23-10.09-.64-20.17-2.76-30.13-.9-4.24-2.2-8.42-3.28-12.63-2.07-8.07-3.94-16.18-6.24-24.21-.86-2.99-2.64-5.81-4.05-8.7-.24-.5-.67-.96-1.12-1.37-2.05-1.91-4.59-2-6.73-.1-3.18,2.82-5.37,6.21-6.61,9.8-3.32,9.6-6.38,19.27-9.27,28.97-2.79,9.37-3.91,18.94-4.65,28.55-.88,11.34-2.18,22.67-3.13,34.01-.65,7.76-1.03,15.54-1.51,23.31-.38,6.04-.85,12.08-1.06,18.13-.21,6.05-.18,12.1-.19,18.15-.02,14.51,1.7,28.92,3.9,43.31,.49,3.18,.54,6.4,.84,9.6,.18,1.91,.6,3.82,.7,5.73,.18,3.43-.44,6.75-2.31,9.9-2.1,3.52-5.61,5.22-10.33,5.22-5.62,0-10.26-1.73-14.05-5.21-5.33-4.9-8.76-10.66-12.27-16.43-4.03-6.62-6.74-13.61-9.35-20.63-2.76-7.45-5.61-14.89-8.2-22.38-3.14-9.08-6.17-18.19-7.95-27.52-1.29-6.79-2.68-13.58-3.39-20.42-.8-7.66-1.18-15.37-1.2-23.06-.02-7.32,.54-14.65,1.1-21.96,.4-5.21,1.32-10.39,1.83-15.59,.61-6.2,1.08-12.4,1.55-18.61,.91-11.9,1.39-23.8,1.36-35.73-.02-9.62,.11-19.24,.69-28.85,.55-9.24,1.08-18.5,3.14-27.64,1.67-7.38,3.39-14.75,5.17-22.11,.27-1.12-.23-2.11-.28-3.08-.13-2.78-.16-5.65,1.56-8.3,.87-1.34,1.4-2.86,1.82-4.35,.5-1.78,.66-3.63,1.06-5.43,.66-3.04,.48-6-.98-8.9-2.74-5.44-1.34-10.12,3.7-14.36,2.57-2.16,5.01-4.6,6.69-7.25,2.55-4.04,6.79-5.63,11.77-6.07,4.37-.38,8.88-.36,13.26,0,11.51,.93,23.01,2.05,34.48,3.26,5.84,.62,11.62,1.63,17.43,2.42,5.14,.7,8.17-1.26,8.35-5.38,.05-1.09,0-2.19-.06-3.28-.17-2.98,.46-3.77,3.88-5.13,3.2-1.27,6.48-1.58,9.91-.73,3.03,.75,6.08,1.47,9.12,2.21,5.63,1.37,9.96,4.27,13.77,7.72,2.79,2.53,5.75,4.99,8.01,7.81,2.88,3.59,5.29,7.46,7.62,11.31,1.96,3.24,3.77,6.45,7.75,8.48,5.58,2.86,13.72,2.44,19.03-1.21,4.15-2.85,6.53-6.56,8.8-10.32,4.32-7.16,8.2-14.5,12.53-21.66,2.93-4.85,6.15-9.61,9.55-14.25,4.19-5.71,11.79-7.08,18.81-3.65,6.61,3.22,11.41,7.67,14.58,13.39,4.57,8.26,7.46,16.91,9.27,25.79,3.01,14.79,4.33,29.67,3.08,44.66-.88,10.61-1.9,21.22-2.18,31.84-.3,11.36,.11,22.74,.37,34.11,.16,6.78,.53,13.55,1,20.32,.24,3.47,.89,6.91,1.35,10.37,.37,2.73,.78,5.45,1.09,8.18,.93,8.17,2.04,16.33,2.65,24.52,.58,7.75,.99,15.54,.74,23.29-.17,5.34-.85,10.69-2.23,16-2.43,9.29-5.09,18.52-8.35,27.65-.59,1.65-.58,3.44-.9,5.15-.34,1.8-.75,3.58-1.11,5.38-.22,1.06-.66,2-2.13,2.21-1.51,.22-2.79-.31-3.41-1.38-1.24-2.15-2.68-4.29-3.34-6.57-2.86-9.88-5.85-19.76-8.06-29.75-1.83-8.29-2.35-16.74-2.13-25.19,.16-6.22,.3-12.45,.58-18.67,.2-4.49,.69-8.96,.91-13.45,.45-9.34,.81-18.69,1.2-28.04,.16-3.76,.68-7.54,.36-11.27-.79-9.31-.84-18.7-3.97-27.79-1.36-3.93-3.71-7.47-6.98-10.59-1.87-1.79-3.25-1.95-4.97-.11-1.46,1.56-2.64,3.45-3.26,5.34-2.48,7.57-3.53,15.32-3.18,23.14,.41,9.25,1.15,18.5,1.63,27.75,.4,7.6,.64,15.21,.95,22.82,.1,2.47,.28,4.94,.29,7.42,.06,7.76,.22,15.53,.05,23.29-.17,7.77-.67,15.53-1.08,23.3-.42,7.96-.78,15.93-1.41,23.88-.73,9.13-1.57,18.25-2.65,27.35-.75,6.29-2.32,12.52-2.9,18.81-.49,5.37-.12,10.79-.09,16.19,.01,2.46,.17,4.89-1.04,7.27-2.08,4.11-6.65,4.99-10.85,2.04-3.9-2.74-6.18-6.33-8.09-10.05-1.6-3.12-2.85-6.37-4.05-9.61-3.07-8.27-4.59-16.79-6.33-25.28-1.56-7.62-1.79-15.32-2.11-23.01-.12-2.93-.02-5.87-.02-8.8ZM23.03,72.33c-.95,1.83-2.13,3.45-2.64,5.19-1.84,6.31-3.5,12.65-5.16,19-3.25,12.43-4.1,25.05-4.49,37.7-.15,4.75-.25,9.5-.44,14.25-.15,3.93-.68,7.86-.52,11.78,.41,9.63-.29,19.23-.85,28.84-.29,5.03-1.08,10.03-1.55,15.05-.78,8.39-1.5,16.79-2.21,25.18-.53,6.31-1.23,12.62-1.41,18.93-.33,11.75,.9,23.44,2.81,35.09,1.55,9.45,3.41,18.87,6.57,28.06,3.97,11.56,8.14,23.08,12.24,34.62,2.92,8.21,6.66,16.18,11.58,23.74,2.95,4.54,5.91,9.1,10.67,12.67,3.61,2.71,7.84,3.97,12.72,3.77,3.9-.16,6.61-1.98,8.26-4.64,1.58-2.55,2.48-5.32,2.27-8.24-.23-3.2-.4-6.4-.76-9.59-.68-6.02-1.54-12.03-2.19-18.06-.89-8.21-2.06-16.43-2.34-24.66-.32-9.24,.09-18.5,.39-27.74,.25-8.06,.67-16.13,1.22-24.18,.6-8.87,1.43-17.73,2.18-26.6,.44-5.21,.93-10.41,1.34-15.62,.35-4.48,.49-8.97,.93-13.45,1.23-12.72,4.46-25.17,8.5-37.48,1.83-5.57,4.12-11.04,6.17-16.57,1.13-3.05,3.37-5.6,5.84-7.98,2.22-2.14,6.27-2,8.24,.3,1.66,1.94,3.22,4.03,4.22,6.24,1.29,2.82,2.13,5.8,2.9,8.75,1.61,6.17,2.69,12.44,4.61,18.54,4.75,15.03,6.32,30.31,6.22,45.74-.03,4.48-.34,8.95-.66,13.42-.33,4.54-.76,9.07-1.31,13.6-.56,4.63-1.5,9.23-1.96,13.87-1.02,10.38-1.92,20.77-2.7,31.17-.44,5.84-.73,11.69-.74,17.53-.02,6.12,.31,12.24,.6,18.35,.21,4.35,.37,8.72,.97,13.04,1.09,7.92,2.58,15.8,3.73,23.72,1.54,10.57,3.7,21.03,7.58,31.23,1.47,3.86,3.03,7.71,5.84,11.08,1.37,1.65,2.98,3.35,4.97,4.45,4.82,2.65,9.85,1.18,10.61-3.54,.25-1.54,.64-3.07,.78-4.62,.48-5.3,.59-10.63,1.39-15.9,1.36-9,2.92-17.99,4.78-26.94,2.35-11.31,3.93-22.69,4.36-34.14,.49-12.92,.53-25.85,.79-38.77,.33-15.95,.5-31.9-1.11-47.83-.34-3.38-.54-6.77-.82-10.15-.49-5.85-.9-11.7-1.5-17.55-1-9.77-2.43-19.52-3.09-29.3-.69-10.26-.2-20.53,1.92-30.7,1.15-5.54,3.1-10.88,6.19-15.92,.67-1.09,1.9-2.04,3.11-2.82,1.59-1.03,2.83-.93,4.15,.37,1.22,1.19,2.2,2.55,3.13,3.91,4.3,6.25,8.44,12.57,12.83,18.77,3.46,4.89,6.23,9.98,7.9,15.44,3.54,11.55,4.53,23.32,4.1,35.17-.11,2.91-.43,5.82-.68,8.73-.26,3.01-.48,6.03-.83,9.03-.76,6.54-1.79,13.06-2.36,19.61-.89,10.33-.98,20.67-.22,31.01,.3,4.03,.35,8.08,1.02,12.07,1.61,9.7,3.47,19.38,6.56,28.86,1.76,5.4,3.48,10.85,7.16,15.66,1.71,2.23,3.76,4.4,6.19,6.12,3.27,2.31,6.9,1.29,8.19-2.09,.59-1.55,.81-3.23,.84-4.86,.04-1.82-.35-3.65-.51-5.48-.82-9.22,.95-18.29,2.53-27.35,1.62-9.27,2.86-18.55,3.44-27.89,.87-14.01,1.65-28.02,2.34-42.03,.34-6.96,.65-13.93,.55-20.89-.13-8.8-.66-17.59-1.08-26.38-.56-11.45-1.04-22.91-1.83-34.35-.64-9.37-.72-18.69,1.51-27.94,.8-3.31,1.58-6.7,4.23-9.46,2.61-2.72,5.04-2.74,7.79-.11,4.35,4.15,7.36,8.94,8.28,14.26,1.29,7.52,2.27,15.11,2.68,22.69,.35,6.58-.24,13.19-.48,19.78-.24,6.78-.43,13.56-.86,20.34-.47,7.49-1.52,14.97-1.71,22.46-.21,8.66,.15,17.33,.49,25.99,.11,2.99,.79,5.97,1.37,8.94,.85,4.33,1.66,8.67,2.84,12.94,1.59,5.8,3.69,11.5,5.22,17.31,.63,2.38,2.23,4.33,3.31,6.5,.23,.46,1.24,.99,1.8,.93,.56-.06,1.1-.77,1.48-1.28,.28-.37,.35-.87,.42-1.32,1.27-8.95,4.8-17.5,7.18-26.25,1.63-5.99,3.4-11.98,4.38-18.04,1.45-9.02,1.09-18.11,.27-27.18-.72-7.95-1.42-15.89-2.24-23.83-.48-4.65-1.17-9.29-1.75-13.94-.53-4.28-1.26-8.55-1.53-12.84-.99-15.38-2.2-30.76-1.51-46.18,.33-7.42,.49-14.85,.95-22.26,.4-6.59,1.32-13.16,1.61-19.75,.22-5.03-.13-10.08-.33-15.11-.35-8.52-1.43-16.97-3.35-25.38-1.54-6.78-3.65-13.41-6.41-19.92-2.23-5.25-5.31-10.18-10.56-13.91-2.44-1.74-5.22-3.25-8.09-4.48-3.23-1.39-6.59-.92-9.77,.53-2.26,1.03-3.91,2.53-5.14,4.3-2.17,3.11-4.29,6.24-6.31,9.41-3.15,4.97-6.24,9.96-9.29,14.98-3.04,5.01-5.92,10.09-9.02,15.08-2.82,4.54-7.3,7.59-13.35,9.16-5.76,1.49-13.47-.05-17-3.95-2.25-2.48-3.79-5.39-5.65-8.1-2.08-3.04-3.93-6.21-6.31-9.09-2.19-2.65-4.97-4.97-7.45-7.47-2.66-2.67-5.79-4.92-9.44-6.63-5.09-2.38-10.75-3.46-16.5-4.12-2.44-.28-4.67,.51-6.78,1.5-1.54,.73-2.21,1.69-2.15,3.15,.07,1.92-.08,3.84-.15,5.76-.04,1.19-.83,1.99-1.88,2.79-2.83,2.17-6.18,2.03-9.62,1.57-5.37-.72-10.71-1.6-16.11-2.2-10.01-1.11-20.02-2.26-30.07-3.02-5.85-.44-11.79-.34-17.68-.16-3.5,.11-6.47,1.52-8.63,3.89-2.95,3.25-5.83,6.56-9.03,9.64-3.8,3.65-4.78,7.6-2.81,12.04,1.38,3.09,1.77,6.22,1.09,9.46-.26,1.26-.27,2.56-.55,3.82-.53,2.42-.71,4.9-2.45,7.08-1.1,1.39-1.33,2.99-.67,5.06,.95-1.33,.26-3.48,3.28-2.82Z"/>
  <path d="M23.03,72.33c-3.02-.65-2.33,1.5-3.28,2.82-.65-2.07-.43-3.67,.67-5.06,1.73-2.18,1.91-4.66,2.45-7.08,.28-1.26,.28-2.56,.55-3.82,.68-3.24,.28-6.37-1.09-9.46-1.97-4.43-.98-8.38,2.81-12.04,3.2-3.08,6.07-6.39,9.03-9.64,2.16-2.38,5.13-3.78,8.63-3.89,5.89-.18,11.83-.29,17.68,.16,10.05,.76,20.06,1.91,30.07,3.02,5.39,.6,10.73,1.48,16.11,2.2,3.43,.46,6.78,.6,9.62-1.57,1.05-.8,1.84-1.61,1.88-2.79,.07-1.92,.22-3.84,.15-5.76-.06-1.46,.61-2.42,2.15-3.15,2.11-1,4.34-1.79,6.78-1.5,5.76,.67,11.41,1.74,16.5,4.12,3.66,1.71,6.79,3.95,9.44,6.63,2.48,2.49,5.26,4.82,7.45,7.47,2.38,2.88,4.23,6.05,6.31,9.09,1.86,2.72,3.4,5.62,5.65,8.1,3.53,3.9,11.24,5.44,17,3.95,6.05-1.57,10.53-4.62,13.35-9.16,3.1-4.99,5.98-10.07,9.02-15.08,3.04-5.01,6.13-10.01,9.29-14.98,2.02-3.17,4.13-6.31,6.31-9.41,1.24-1.77,2.88-3.27,5.14-4.3,3.18-1.45,6.54-1.92,9.77-.53,2.87,1.24,5.65,2.75,8.09,4.48,5.25,3.73,8.34,8.66,10.56,13.91,2.76,6.5,4.87,13.14,6.41,19.92,1.91,8.4,3,16.85,3.35,25.38,.21,5.04,.55,10.09,.33,15.11-.29,6.59-1.21,13.16-1.61,19.75-.45,7.41-.61,14.84-.95,22.26-.69,15.42,.52,30.8,1.51,46.18,.28,4.29,1,8.56,1.53,12.84,.58,4.65,1.28,9.28,1.75,13.94,.82,7.94,1.51,15.89,2.24,23.83,.82,9.07,1.19,18.16-.27,27.18-.98,6.07-2.75,12.06-4.38,18.04-2.38,8.75-5.91,17.3-7.18,26.25-.06,.45-.14,.95-.42,1.32-.38,.51-.92,1.22-1.48,1.28-.56,.06-1.57-.47-1.8-.93-1.07-2.17-2.68-4.12-3.31-6.5-1.53-5.81-3.62-11.51-5.22-17.31-1.18-4.27-1.99-8.61-2.84-12.94-.58-2.96-1.26-5.95-1.37-8.94-.33-8.66-.7-17.33-.49-25.99,.18-7.49,1.23-14.97,1.71-22.46,.43-6.77,.62-13.56,.86-20.34,.23-6.59,.83-13.2,.48-19.78-.41-7.58-1.38-15.17-2.68-22.69-.92-5.33-3.93-10.12-8.28-14.26-2.76-2.63-5.18-2.61-7.79,.11-2.66,2.77-3.44,6.15-4.23,9.46-2.23,9.24-2.15,18.57-1.51,27.94,.79,11.44,1.27,22.9,1.83,34.35,.43,8.79,.95,17.58,1.08,26.38,.1,6.96-.21,13.93-.55,20.89-.69,14.01-1.47,28.02-2.34,42.03-.58,9.34-1.82,18.62-3.44,27.89-1.58,9.06-3.35,18.14-2.53,27.35,.16,1.83,.55,3.66,.51,5.48-.03,1.63-.26,3.31-.84,4.86-1.28,3.38-4.92,4.41-8.19,2.09-2.42-1.72-4.48-3.89-6.19-6.12-3.68-4.8-5.4-10.26-7.16-15.66-3.09-9.48-4.95-19.16-6.56-28.86-.66-3.99-.72-8.05-1.02-12.07-.76-10.34-.67-20.68,.22-31.01,.57-6.55,1.6-13.07,2.36-19.61,.35-3,.57-6.02,.83-9.03,.25-2.91,.57-5.82,.68-8.73,.43-11.86-.56-23.62-4.1-35.17-1.67-5.45-4.45-10.55-7.9-15.44-4.39-6.2-8.53-12.52-12.83-18.77-.93-1.36-1.92-2.72-3.13-3.91-1.32-1.29-2.57-1.39-4.15-.37-1.21,.78-2.44,1.73-3.11,2.82-3.08,5.04-5.04,10.38-6.19,15.92-2.11,10.18-2.61,20.44-1.92,30.7,.66,9.78,2.09,19.53,3.09,29.3,.6,5.84,1.01,11.7,1.5,17.55,.28,3.38,.48,6.77,.82,10.15,1.62,15.93,1.44,31.88,1.11,47.83-.26,12.92-.3,25.85-.79,38.77-.44,11.45-2.01,22.82-4.36,34.14-1.86,8.94-3.42,17.93-4.78,26.94-.8,5.27-.9,10.6-1.39,15.9-.14,1.55-.53,3.08-.78,4.62-.76,4.71-5.79,6.18-10.61,3.54-1.99-1.09-3.6-2.8-4.97-4.45-2.8-3.37-4.37-7.22-5.84-11.08-3.88-10.2-6.04-20.66-7.58-31.23-1.16-7.91-2.64-15.8-3.73-23.72-.6-4.32-.76-8.69-.97-13.04-.29-6.12-.62-12.23-.6-18.35,.02-5.85,.31-11.7,.74-17.53,.78-10.4,1.68-20.79,2.7-31.17,.45-4.64,1.39-9.24,1.96-13.87,.55-4.52,.97-9.06,1.31-13.6,.33-4.47,.64-8.95,.66-13.42,.1-15.43-1.46-30.71-6.22-45.74-1.93-6.1-3.01-12.37-4.61-18.54-.77-2.95-1.61-5.93-2.9-8.75-1.01-2.2-2.56-4.29-4.22-6.24-1.97-2.3-6.02-2.44-8.24-.3-2.47,2.38-4.7,4.93-5.84,7.98-2.05,5.52-4.34,10.99-6.17,16.57-4.03,12.31-7.27,24.75-8.5,37.48-.43,4.47-.58,8.97-.93,13.45-.41,5.21-.9,10.41-1.34,15.62-.74,8.87-1.57,17.73-2.18,26.6-.55,8.05-.96,16.12-1.22,24.18-.29,9.25-.71,18.5-.39,27.74,.29,8.23,1.46,16.44,2.34,24.66,.65,6.03,1.52,12.04,2.19,18.06,.36,3.19,.53,6.39,.76,9.59,.21,2.92-.7,5.69-2.27,8.24-1.65,2.66-4.36,4.47-8.26,4.64-4.88,.2-9.11-1.06-12.72-3.77-4.77-3.57-7.72-8.13-10.67-12.67-4.92-7.57-8.66-15.53-11.58-23.74-4.1-11.54-8.26-23.06-12.24-34.62-3.16-9.2-5.02-18.61-6.57-28.06-1.91-11.65-3.14-23.34-2.81-35.09,.18-6.32,.88-12.62,1.41-18.93,.7-8.4,1.43-16.79,2.21-25.18,.47-5.02,1.26-10.03,1.55-15.05,.56-9.6,1.26-19.2,.85-28.84-.17-3.92,.37-7.85,.52-11.78,.18-4.75,.29-9.5,.44-14.25,.39-12.65,1.23-25.27,4.49-37.7,1.66-6.34,3.32-12.69,5.16-19,.51-1.74,1.69-3.36,2.64-5.19Z"/>
</svg>