<?xml version="1.0" encoding="UTF-8"?>
<svg id="image" xmlns="http://www.w3.org/2000/svg" viewBox="0 0 425.2 425.2">
  <defs>
    <style>
      .cls-1 {
        stroke: #000;
        stroke-miterlimit: 10;
      }
    </style>
  </defs>
  <path class="cls-1" d="M422.68,165.65c-1.26-2.34-3.24-3.86-5.77-4.92-2.13-.89-4.23-1.93-6.48-2.5-6.99-1.76-14.04-3.4-21.1-4.95-8.55-1.9-16.92-4.22-24.92-7.52-2.05-.84-4.21-1.49-6.33-2.19-6.69-2.18-13.02-4.99-18.99-8.38-3.17-1.79-3.88-4.03-2.34-7.11,.76-1.5,1.74-2.98,2.93-4.24,4.27-4.53,9.63-7.69,16.04-9.45,.9-.25,1.83-.51,2.63-.91,.78-.39,.91-1.07,.33-1.7-.36-.38-.82-.71-1.29-.96-3.3-1.79-6.63-3.54-9.93-5.33-1.86-1-3.71-2.01-5.54-3.04-2.07-1.17-2.74-2.86-2.31-4.95,1.06-5.06,3.57-9.63,6.18-14.15,2.96-5.12,6.19-10.12,9.09-15.26,4.18-7.37,8.18-14.82,12.26-22.25,1.27-2.31,2.77-4.56,3.83-6.95,3.07-6.97,5.99-14,8.91-21.03,.26-.63,.2-1.34,.28-1.95-1.6-.47-2.02,.39-2.61,1.02-1.27,1.33-2.47,2.74-3.89,3.96-7.12,6.11-14.66,11.76-23.09,16.46-4.72,2.63-9.15,5.68-13.99,8.12-8.52,4.3-17.21,8.38-25.95,12.35-4.45,2.01-9.06,3.86-14.01,4.7-1.9,.32-3.94,.16-5.89,.01-1.21-.09-2-.87-2.16-2.01-.2-1.49-.44-2.97-.6-4.45-.75-6.7-1.04-13.45-2.6-20.07-1.41-6.03-3.07-12.02-4.27-18.08-1.23-6.15-3.88-11.78-7.29-17.18-.34-.53-.81-.99-1.42-1.75-.42,.7-.66,1.02-.82,1.38-1.04,2.41-2.04,4.83-3.08,7.22-2.35,5.41-6.34,10.02-9.39,15.1-.78,1.3-2,2.41-3.12,3.54-1.05,1.07-2.48,1.38-3.82,.55-1.53-.94-3.05-1.97-4.29-3.17-4.28-4.13-8.54-8.23-14-11.24-3.44-1.89-6.65-4.09-9.96-6.16-5.41-3.37-10.8-6.75-16.22-10.09-.26-.17-.69-.14-1.33-.24,.12,.72,.19,1.25,.31,1.78,.2,.98,.53,1.94,.63,2.93,.46,4.74-1.45,8.62-5,12.26-3.53,3.63-7.9,4.85-12.87,4.56-5.8-.33-11.33-1.91-16.62-4-6.44-2.55-11.83-6.56-17.59-10.03-1.08-.66-2.22-1.28-3.41-1.72-3.78-1.38-4.72-.92-5.83,2.62-.65,2.09-1.19,4.2-1.97,6.24-1.86,4.81-3.58,9.63-3.83,14.76-.02,.47-.3,.93-.44,1.33-5.9,.22-11.65,.6-17.41,.59-7.18,0-14.36-.35-21.54-.53-2.64-.06-5.31-.24-7.93-.02-10.85,.88-21.69,1.74-32.49,2.93-4.47,.49-8.86,1.71-13.22,2.77-1.08,.26-2.18,1.05-2.87,1.87-2.13,2.5-1.41,5.91,1.85,7.81,2.26,1.32,4.8,2.36,7.36,3.16,8.75,2.75,17.38,5.69,25.26,10.12,6.59,3.7,12.67,7.88,16.71,13.91,3.25,4.84,3.89,9.87,.55,14.9-2.02,3.03-4.81,5.55-7.75,7.91-6.73,5.39-14.63,9.25-22.99,12.13-7.92,2.73-15.17,6.42-22.35,10.28-5.71,3.09-11.07,6.67-16.7,9.88-6.58,3.75-13.41,7.18-19.29,11.8-1.41,1.11-2.85,2.21-4.1,3.44-.69,.69-1.03,1.64-1.74,2.81,1.77,.28,3.02,.58,4.3,.66,1.9,.09,3.79,.07,5.69,.01,10.41-.31,20.82-.65,31.22-1,.98-.03,1.97-.26,2.95-.4-.02-.18-.04-.36-.06-.54-8.61,.15-17.22,.3-25.83,.46-3.41,.05-6.82,.21-10.22,.15-1.79-.03-3.56-.45-4.5-2.2,.46-.46,.82-.96,1.32-1.31,3.21-2.32,6.44-4.65,9.72-6.89,1.56-1.06,3.26-2,4.94-2.92,4.03-2.17,8.33-4.01,12.08-6.51,6.73-4.5,13.82-8.47,21.2-12.04,4.04-1.96,8.27-3.63,12.45-5.39,2.03-.87,4.1-1.67,6.16-2.49,1.97-.79,4.09-1.38,5.9-2.39,5.9-3.32,11.44-7.05,16.13-11.69,4.3-4.25,5.99-9,4.23-14.51-1.21-3.85-3.72-7.05-6.73-9.97-5.56-5.39-12.45-9.16-19.65-12.55-2.34-1.09-4.75-2.06-7.21-2.95-5.16-1.86-10.44-3.48-15.52-5.49-1.71-.68-3.18-2.1-4.34-3.45-1.56-1.86-.77-4.51,1.65-5.47,2.39-.96,4.93-1.74,7.5-2.18,4.64-.79,9.34-1.24,14.01-1.89,8.7-1.19,17.47-1.86,26.27-2.13,5.67-.17,11.34,.27,17.02,.29,6.82,.02,13.62-.16,20.44-.18,2.51-.01,5.04,.17,7.54,.26,.19,.8,.23,1.4,.47,1.92,.14,.32,.59,.53,.91,.79,.27-.29,.7-.55,.79-.88,.13-.52,.02-1.07,.02-1.54,2.64-.62,4.56-.1,6.11,2.04,.6-.81,.98-1.33,1.52-2.06-2.86-.49-5.24-.91-7.76-1.33-.4-2.04-.13-4.09,.4-6.11,.68-2.59,1.36-5.18,2.17-7.75,.88-2.79,1.72-5.62,2.92-8.32,1.08-2.48,1.58-3.01,4.33-1.81,.84,.36,1.74,.65,2.53,1.11,3.05,1.8,6.19,3.53,9.07,5.54,7.36,5.08,15.87,7.74,24.91,9.11,5.36,.82,10.35-.44,14.33-3.97,.85-.77,1.61-1.63,2.38-2.48,3.14-3.47,4.61-7.38,3.92-11.83-.09-.54-.08-1.09-.13-1.8,.59,.1,1.02,.07,1.28,.24,4.86,3.03,9.7,6.08,14.52,9.14,2.61,1.66,5.1,3.45,7.79,4.99,3.97,2.27,7.95,4.49,11.06,7.71,1.41,1.46,2.82,2.92,4.33,4.31,1.17,1.07,2.42,2.1,3.76,3,1.42,.97,3.08,1.03,4.45-.03,1.4-1.09,2.89-2.24,3.81-3.64,3.81-5.84,8.19-11.39,10.99-17.72,.6-1.36,1.34-2.68,2.19-4.35,1.33,1.43,2.31,2.56,2.8,4.03,.37,1.12,.91,2.19,1.35,3.28,.88,2.19,1.97,4.33,2.56,6.56,1.32,4.94,2.18,9.98,3.59,14.89,1.64,5.68,2.49,11.4,2.83,17.24,.25,4.31,.81,8.61,1.4,12.9,.32,2.32,.98,2.66,3.71,2.98,3.47,.41,6.79-.28,9.95-1.36,8.65-2.97,17.09-6.39,25.08-10.54,7.82-4.06,15.41-8.44,23.13-12.65,9.54-5.19,18.15-11.39,26.1-18.33,.46-.41,1.1-.64,1.66-.96-2.25,6.56-4.55,12.91-7.54,18.99-3.24,6.63-7.07,13.05-10.73,19.53-3.86,6.85-7.76,13.7-11.77,20.49-3.22,5.47-6.52,10.88-8.38,16.88-1.16,3.7-.33,5.91,3.39,7.91,.24,.14,.51,.23,.75,.35,3.96,2.13,7.93,4.23,11.85,6.39,.82,.45,1.48,1.11,2.13,1.61-3.97,1.79-7.82,3.22-11.29,5.19-5.54,3.15-9.79,7.18-10.75,13.39-.31,1.98,.4,3.17,1.87,4,4.18,2.4,8.4,4.8,12.86,6.76,4.22,1.86,8.75,3.14,13.12,4.71,3.94,1.43,7.74,3.25,11.8,4.3,8.8,2.27,17.71,4.22,26.6,6.18,6.09,1.33,12.03,2.94,17.34,6,1.98,1.14,3.45,2.55,3.59,4.98-1.02,.39-2,.9-3.07,1.13-4.58,1.02-9.14,2.15-13.79,2.86-5.49,.84-11.05,1.53-16.6,1.85-10.49,.6-20.98,1.07-31.4,2.3-6.28,.75-12.55,1.58-18.8,2.53-3.07,.46-6.03,1.4-9.1,1.91-5.06,.83-9.96,1.97-14.33,4.5-1.33,.76-2.88,1.23-4.32,1.88-1.68,.76-3.45,1.43-4.97,2.39-4.29,2.7-7.72,6.21-10.34,10.16-2.52,3.79-3.75,8.06-2.48,12.49,1.03,3.62,2.11,7.26,3.6,10.74,2.03,4.73,4.43,9.35,6.73,14,.64,1.29,1.41,2.53,2.22,3.75,2.71,4.19,5.48,8.36,9.02,12.06,4.13,4.32,8.3,8.6,12.62,12.75,3.71,3.54,7.86,6.73,11.45,10.36,4.14,4.17,8.74,7.81,13.74,11.11,.39,.25,.7,.59,1.14,.98-.45,.14-.63,.23-.79,.23-11.75,.03-23.5,.2-35.24,.05-10.4-.13-20.77-1.29-31.2-.5-5.57,.42-10.79,1.97-15.43,4.57-3.24,1.8-6.21,4.14-8.78,6.65-5.24,5.14-9.82,10.75-13.03,17.12-3.49,6.92-6.48,13.98-8.36,21.39-1.7,6.72-1.8,13.35,.97,19.89,.08,.19-.04,.44-.08,.8-.73-.1-1.41-.08-1.98-.29-2.44-.9-4.97-1.69-7.26-2.84-4.02-2.02-7.76-4.46-11.84-6.38-6.24-2.94-12.64-5.65-19.04-8.33-1.4-.58-3.08-.76-4.67-.89-5.26-.42-10.03,1.14-14.73,2.98-4.1,1.61-7.27,4.03-10.03,7.12-2.76,3.08-5.36,6.21-7.75,9.52-5.51,7.66-11.47,15.07-16.76,22.85-5.38,7.91-10.1,16.17-15.23,24.23-2.9,4.57-5.96,9.06-9.1,13.51-1.4,1.97-3.43,3.44-5.97,4.21-.32-.31-.53-.49-.69-.69-.27-.34-.55-.69-.76-1.05-3.34-5.95-6.61-11.89-8.19-18.48-1.33-5.53-2.48-11.1-4.98-16.37-2.22-4.66-3.96-9.51-6.97-13.88-.37-.54-.56-1.23-.63-1.88-.27-2.73-.36-5.48-.72-8.2-.64-4.79-1.56-9.47-3.45-14.08-2.07-5.08-2.38-10.57-3.11-15.94-.08-.65,.11-1.32,.15-1.99,.14-1.74,.39-3.48,.38-5.22-.02-6.06,1.35-11.91,3.63-17.59,2.61-6.51,5.5-12.92,8.05-19.44,3.15-8.1,6.18-16.24,9.04-24.42,1.54-4.36,2.81-8.8,2.57-13.47-.37-6.93-2.68-12.88-9.69-16.85-2.06-1.17-4.17-1.92-6.59-2.04-4.5-.22-8.7,.92-12.45,2.89-3.64,1.91-6.96,4.3-10.31,6.59-4.71,3.22-9.63,5.86-15.84,6.1-8.03,.31-11.06-3.02-13.91-8.62-2.39-4.73-1.73-9.81,.62-14.58,1.72-3.5,3.59-6.96,5.48-10.4,7.52-13.72,15.29-27.3,24.14-40.42,3.56-5.28,6.73-10.75,8.89-16.67,1.21-3.32,.2-5.6-2.52-7.74-.07-.05-.15-.11-.24-.17-4.61-3.52-10.18-4.85-16-5.72,2.45,.89,4.92,1.71,7.35,2.61,.89,.33,1.78,.67,2.66,1.03,.06,.02,.12,.04,.17,.06,1.86,.77,3.63,1.81,5.22,2.96,2.03,1.45,3.08,3.34,2.16,5.74-.49,1.25-.76,2.58-1.3,3.82-2.63,5.89-6.01,11.46-9.51,16.99-5.62,8.86-11.04,17.83-16.3,26.84-3.71,6.36-7.02,12.91-10.57,19.34-1.99,3.6-2.89,7.36-2.84,11.34,.07,5.01,2.95,8.83,6.78,12.2,.77,.68,1.9,1.11,2.93,1.49,3.76,1.39,7.65,1.08,11.46,.34,4.73-.93,8.65-3.33,12.3-5.99,4.47-3.26,9.14-6.07,14.63-7.99,8.12-2.85,15.71,1.15,19.24,6.76,3.26,5.17,3.32,10.97,2.16,16.57-1.05,5.13-3,10.12-4.81,15.11-2.5,6.89-5.18,13.72-7.91,20.54-1.99,5.01-4.31,9.94-6.26,14.97-2.22,5.77-3.66,11.69-3.56,17.83,.02,1.49-.26,2.99-.31,4.48-.05,1.99-.13,3.99,.02,5.97,.12,1.56,.51,3.13,.88,4.67,.76,3.25,1.54,6.49,2.38,9.72,.25,.97,.82,1.87,1.09,2.83,1.6,5.6,2.13,11.31,2.36,17.06,.05,1.06,.17,2.21,.66,3.15,1.3,2.47,3.02,4.77,4.23,7.28,1.77,3.66,3.45,7.37,4.75,11.17,1.45,4.21,2.47,8.54,3.58,12.83,1.67,6.38,4.75,12.25,8.24,17.97,1.2,1.97,2.61,2.28,4.6,.97,1.65-1.08,3.27-2.31,4.53-3.73,4.75-5.34,7.92-11.49,11.46-17.46,3.53-5.97,7.07-11.97,11.07-17.7,5.93-8.5,12.25-16.81,18.46-25.16,2.11-2.84,4.04-5.77,6.53-8.41,3.62-3.85,7.6-7.11,12.92-9.06,6.71-2.46,13.34-2.97,20.02-.07,2.28,.99,4.43,2.28,6.82,3,3.27,1,6.19,2.55,8.88,4.32,5.68,3.72,11.95,6.39,18.45,8.69,1.59,.57,3.28,1.26,5.38,.88-.27-.73-.49-1.34-.75-1.95-.49-1.17-1.22-2.28-1.46-3.49-.92-4.75-1.35-9.49-.28-14.34,1.61-7.32,4.63-14.2,7.61-21.12,1.96-4.57,5.39-8.36,8.29-12.44,3.06-4.32,7.01-7.79,11.33-11.05,4.8-3.61,10.59-5.53,16.55-6.03,7.5-.62,15.11-.13,22.68-.04,3.13,.03,6.25,.32,9.36,.35,7.09,.04,14.19,.04,21.28-.01,7.17-.05,14.36-.18,21.53-.29,.73-.01,1.61-.03,1.4-1.18-.63-.04-1.29-.01-1.91-.15-2-.43-4.23-.55-5.95-1.44-5.09-2.64-9.26-6.32-13.24-10.09-4.58-4.33-8.86-8.88-14.06-12.67-.5-.36-.95-.8-1.39-1.23-4.75-4.63-9.36-9.38-13.24-14.62-2.37-3.2-4.88-6.4-6.64-9.86-3.46-6.82-6.56-13.79-9.59-20.77-2.17-4.98-2.38-10.03,.17-15.06,1.3-2.55,3.41-4.52,5.33-6.67,2.82-3.15,6.27-5.47,10.46-7.02,1.56-.58,3.12-1.25,4.53-2.07,3.21-1.88,6.8-2.8,10.48-3.59,7.81-1.68,15.61-3.37,23.64-4.14,6.67-.64,13.32-1.47,19.97-2.24,2.05-.23,4.07-.72,6.11-.8,4.53-.18,9.08,.05,13.59-.32,6.29-.52,12.6-1.25,18.84-2.24,4.26-.68,8.43-1.87,12.59-2.97,2.98-.79,3.01-1.36,1.72-3.74Z"/>
  <path class="cls-1" d="M421.84,167.68c-1.02,.39-2,.9-3.07,1.13-4.58,1.02-9.14,2.15-13.79,2.86-5.49,.84-11.05,1.53-16.6,1.85-10.49,.6-20.98,1.07-31.4,2.3-6.28,.75-12.55,1.58-18.8,2.53-3.07,.46-6.03,1.4-9.1,1.91-5.06,.83-9.96,1.97-14.33,4.5-1.33,.76-2.88,1.23-4.32,1.88-1.68,.76-3.45,1.43-4.97,2.39-4.29,2.7-7.72,6.21-10.34,10.16-2.52,3.79-3.75,8.06-2.48,12.49,1.03,3.62,2.11,7.26,3.6,10.74,2.03,4.73,4.43,9.35,6.73,14,.64,1.29,1.41,2.53,2.22,3.75,2.71,4.19,5.48,8.36,9.02,12.06,4.13,4.32,8.3,8.6,12.62,12.75,3.71,3.54,7.86,6.73,11.45,10.36,4.14,4.17,8.74,7.81,13.74,11.11,.39,.25,.7,.59,1.14,.98-.45,.14-.63,.23-.79,.23-11.75,.03-23.5,.2-35.24,.05-10.4-.13-20.77-1.29-31.2-.5-5.57,.42-10.79,1.97-15.43,4.57-3.24,1.8-6.21,4.14-8.78,6.65-5.24,5.14-9.82,10.75-13.03,17.12-3.49,6.92-6.48,13.98-8.36,21.39-1.7,6.72-1.8,13.35,.97,19.89,.08,.19-.04,.44-.08,.8-.73-.1-1.41-.08-1.98-.29-2.44-.9-4.97-1.69-7.26-2.84-4.02-2.02-7.76-4.46-11.84-6.38-6.24-2.94-12.64-5.65-19.04-8.33-1.4-.58-3.08-.76-4.67-.89-5.26-.42-10.03,1.14-14.73,2.98-4.1,1.61-7.27,4.03-10.03,7.12-2.76,3.08-5.36,6.21-7.75,9.52-5.51,7.66-11.47,15.07-16.76,22.85-5.38,7.91-10.1,16.17-15.23,24.23-2.9,4.57-5.96,9.06-9.1,13.51-1.4,1.97-3.43,3.44-5.97,4.21-.32-.31-.53-.49-.69-.69-.27-.34-.55-.69-.76-1.05-3.34-5.95-6.61-11.89-8.19-18.48-1.33-5.53-2.48-11.1-4.98-16.37-2.22-4.66-3.96-9.51-6.97-13.88-.37-.54-.56-1.23-.63-1.88-.27-2.73-.36-5.48-.72-8.2-.64-4.79-1.56-9.47-3.45-14.08-2.07-5.08-2.38-10.57-3.11-15.94-.08-.65,.11-1.32,.15-1.99,.14-1.74,.39-3.48,.38-5.22-.02-6.06,1.35-11.91,3.63-17.59,2.61-6.51,5.5-12.92,8.05-19.44,3.15-8.1,6.18-16.24,9.04-24.42,1.54-4.36,2.81-8.8,2.57-13.47-.37-6.93-2.68-12.88-9.69-16.85-2.06-1.17-4.17-1.92-6.59-2.04-4.5-.22-8.7,.92-12.45,2.89-3.64,1.91-6.96,4.3-10.31,6.59-4.71,3.22-9.63,5.86-15.84,6.1-8.03,.31-11.06-3.02-13.91-8.62-2.39-4.73-1.73-9.81,.62-14.58,1.72-3.5,3.59-6.96,5.48-10.4,7.52-13.72,15.29-27.3,24.14-40.42,3.56-5.28,6.73-10.75,8.89-16.67,1.21-3.32,.2-5.6-2.52-7.74-.07-.05-.15-.11-.24-.17-4.61-3.52-10.18-4.85-16-5.72,2.45,.89,4.92,1.71,7.35,2.61-8.76-2.18-20.86-3.87-24.91-4.47-8.61,.15-17.22,.3-25.83,.46-3.41,.05-6.82,.21-10.22,.15-1.79-.03-3.56-.45-4.5-2.2,.46-.46,.82-.96,1.32-1.31,3.21-2.32,6.44-4.65,9.72-6.89,1.56-1.06,3.26-2,4.94-2.92,4.03-2.17,8.33-4.01,12.08-6.51,6.73-4.5,13.82-8.47,21.2-12.04,4.04-1.96,8.27-3.63,12.45-5.39,2.03-.87,4.1-1.67,6.16-2.49,1.97-.79,4.09-1.38,5.9-2.39,5.9-3.32,11.44-7.05,16.13-11.69,4.3-4.25,5.99-9,4.23-14.51-1.21-3.85-3.72-7.05-6.73-9.97-5.56-5.39-12.45-9.16-19.65-12.55-2.34-1.09-4.75-2.06-7.21-2.95-5.16-1.86-10.44-3.48-15.52-5.49-1.71-.68-3.18-2.1-4.34-3.45-1.56-1.86-.77-4.51,1.65-5.47,2.39-.96,4.93-1.74,7.5-2.18,4.64-.79,9.34-1.24,14.01-1.89,8.7-1.19,17.47-1.86,26.27-2.13,5.67-.17,11.34,.27,17.02,.29,6.82,.02,13.62-.16,20.44-.18,2.51-.01,5.04,.17,7.54,.26,.19,.8,.23,1.4,.47,1.92,.14,.32,.59,.53,.91,.79,.27-.29,.7-.55,.79-.88,.13-.52,.02-1.07,.02-1.54,2.64-.62,4.56-.1,6.11,2.04,.6-.81,.98-1.33,1.52-2.06-2.86-.49-5.24-.91-7.76-1.33-.4-2.04-.13-4.09,.4-6.11,.68-2.59,1.36-5.18,2.17-7.75,.88-2.79,1.72-5.62,2.92-8.32,1.08-2.48,1.58-3.01,4.33-1.81,.84,.36,1.74,.65,2.53,1.11,3.05,1.8,6.19,3.53,9.07,5.54,7.36,5.08,15.87,7.74,24.91,9.11,5.36,.82,10.35-.44,14.33-3.97,.85-.77,1.61-1.63,2.38-2.48,3.14-3.47,4.61-7.38,3.92-11.83-.09-.54-.08-1.09-.13-1.8,.59,.1,1.02,.07,1.28,.24,4.86,3.03,9.7,6.08,14.52,9.14,2.61,1.66,5.1,3.45,7.79,4.99,3.97,2.27,7.95,4.49,11.06,7.71,1.41,1.46,2.82,2.92,4.33,4.31,1.17,1.07,2.42,2.1,3.76,3,1.42,.97,3.08,1.03,4.45-.03,1.4-1.09,2.89-2.24,3.81-3.64,3.81-5.84,8.19-11.39,10.99-17.72,.6-1.36,1.34-2.68,2.19-4.35,1.33,1.43,2.31,2.56,2.8,4.03,.37,1.12,.91,2.19,1.35,3.28,.88,2.19,1.97,4.33,2.56,6.56,1.32,4.94,2.18,9.98,3.59,14.89,1.64,5.68,2.49,11.4,2.83,17.24,.25,4.31,.81,8.61,1.4,12.9,.32,2.32,.98,2.66,3.71,2.98,3.47,.41,6.79-.28,9.95-1.36,8.65-2.97,17.09-6.39,25.08-10.54,7.82-4.06,15.41-8.44,23.13-12.65,9.54-5.19,18.15-11.39,26.1-18.33,.46-.41,1.1-.64,1.66-.96-2.25,6.56-4.55,12.91-7.54,18.99-3.24,6.63-7.07,13.05-10.73,19.53-3.86,6.85-7.76,13.7-11.77,20.49-3.22,5.47-6.52,10.88-8.38,16.88-1.16,3.7-.33,5.91,3.39,7.91,.24,.14,.51,.23,.75,.35,3.96,2.13,7.93,4.23,11.85,6.39,.82,.45,1.48,1.11,2.13,1.61-3.97,1.79-7.82,3.22-11.29,5.19-5.54,3.15-9.79,7.18-10.75,13.39-.31,1.98,.4,3.17,1.87,4,4.18,2.4,8.4,4.8,12.86,6.76,4.22,1.86,8.75,3.14,13.12,4.71,3.94,1.43,7.74,3.25,11.8,4.3,8.8,2.27,17.71,4.22,26.6,6.18,6.09,1.33,12.03,2.94,17.34,6,1.98,1.14,3.45,2.55,3.59,4.98Z"/>
  <path class="cls-1" d="M420.96,169.39c-4.16,1.11-8.33,2.29-12.59,2.97-6.24,.99-12.54,1.72-18.84,2.24-4.5,.38-9.06,.15-13.59,.32-2.04,.08-4.05,.57-6.11,.8-6.65,.77-13.3,1.61-19.97,2.24-8.03,.77-15.83,2.46-23.64,4.14-3.67,.78-7.27,1.71-10.48,3.59-1.41,.82-2.96,1.49-4.53,2.07-4.18,1.54-7.63,3.87-10.46,7.02-1.92,2.15-4.03,4.12-5.33,6.67-2.55,5.04-2.34,10.08-.17,15.06,3.03,6.97,6.13,13.95,9.59,20.77,1.75,3.46,4.27,6.66,6.64,9.86,3.88,5.23,8.49,9.99,13.24,14.62,.44,.43,.89,.87,1.39,1.23,5.2,3.78,9.48,8.34,14.06,12.67,3.98,3.77,8.16,7.45,13.24,10.09,1.72,.89,3.95,1.01,5.95,1.44,.62,.14,1.28,.1,1.91,.15,.21,1.15-.66,1.17-1.4,1.18-7.17,.11-14.36,.24-21.53,.29-7.09,.05-14.19,.05-21.28,.01-3.12-.03-6.24-.32-9.36-.35-7.56-.08-15.17-.57-22.68,.04-5.96,.5-11.75,2.42-16.55,6.03-4.33,3.26-8.27,6.73-11.33,11.05-2.89,4.08-6.33,7.87-8.29,12.44-2.98,6.92-6,13.8-7.61,21.12-1.07,4.86-.64,9.59,.28,14.34,.24,1.21,.97,2.32,1.46,3.49,.26,.6,.47,1.22,.75,1.95-2.1,.39-3.79-.3-5.38-.88-6.5-2.3-12.77-4.97-18.45-8.69-2.69-1.76-5.61-3.32-8.88-4.32-2.38-.72-4.54-2.01-6.82-3-6.69-2.9-13.31-2.39-20.02,.07-5.32,1.95-9.31,5.21-12.92,9.06-2.49,2.65-4.42,5.58-6.53,8.41-6.21,8.35-12.53,16.66-18.46,25.16-4.01,5.73-7.54,11.73-11.07,17.7-3.54,5.97-6.71,12.12-11.46,17.46-1.26,1.42-2.88,2.65-4.53,3.73-1.99,1.31-3.4,1-4.6-.97-3.49-5.72-6.57-11.59-8.24-17.97-1.11-4.3-2.13-8.62-3.58-12.83-1.3-3.79-2.99-7.51-4.75-11.17-1.21-2.5-2.93-4.81-4.23-7.28-.5-.94-.62-2.09-.66-3.15-.23-5.74-.76-11.46-2.36-17.06-.27-.96-.84-1.86-1.09-2.83-.84-3.22-1.62-6.46-2.38-9.72-.37-1.54-.76-3.11-.88-4.67-.15-1.98-.07-3.98-.02-5.97,.05-1.49,.33-2.99,.31-4.48-.11-6.14,1.34-12.06,3.56-17.83,1.94-5.04,4.27-9.96,6.26-14.97,2.73-6.82,5.41-13.65,7.91-20.54,1.81-4.98,3.76-9.98,4.81-15.11,1.16-5.6,1.1-11.39-2.16-16.57-3.53-5.61-11.12-9.6-19.24-6.76-5.49,1.92-10.16,4.72-14.63,7.99-3.65,2.67-7.57,5.07-12.3,5.99-3.82,.74-7.71,1.04-11.46-.34-1.03-.39-2.16-.81-2.93-1.49-3.83-3.37-6.71-7.18-6.78-12.2-.05-3.98,.85-7.75,2.84-11.34,3.56-6.43,6.86-12.98,10.57-19.34,5.26-9.02,10.68-17.98,16.3-26.84,3.5-5.54,6.88-11.1,9.51-16.99,.55-1.24,.82-2.56,1.3-3.82,.92-2.41-.13-4.29-2.16-5.74-1.59-1.15-3.35-2.19-5.22-2.96-.05-.02-.11-.04-.17-.06-3.79-1.39-24.21-4.3-27.56-5.5,4.04,.6,16.15,2.29,24.91,4.47,3.88,.96,7.09,2.01,8.65,3.12,.08,.05,.17,.11,.24,.17,2.73,2.14,3.73,4.42,2.52,7.74-2.16,5.92-5.33,11.39-8.89,16.67-8.84,13.11-16.62,26.7-24.14,40.42-1.88,3.44-3.76,6.9-5.48,10.4-2.35,4.77-3.01,9.85-.62,14.58,2.84,5.6,5.88,8.93,13.91,8.62,6.21-.24,11.13-2.88,15.84-6.1,3.35-2.29,6.67-4.68,10.31-6.59,3.75-1.97,7.94-3.11,12.45-2.89,2.42,.13,4.53,.88,6.59,2.04,7.01,3.97,9.32,9.91,9.69,16.85,.24,4.67-1.03,9.11-2.57,13.47-2.87,8.17-5.89,16.32-9.04,24.42-2.55,6.53-5.44,12.94-8.05,19.44-2.28,5.68-3.65,11.53-3.63,17.59,.01,1.74-.24,3.48-.38,5.22-.05,.67-.24,1.34-.15,1.99,.72,5.37,1.03,10.86,3.11,15.94,1.88,4.62,2.81,9.3,3.45,14.08,.37,2.72,.45,5.47,.72,8.2,.07,.65,.26,1.33,.63,1.88,3.01,4.37,4.75,9.22,6.97,13.88,2.5,5.26,3.65,10.84,4.98,16.37,1.58,6.59,4.85,12.53,8.19,18.48,.21,.36,.49,.71,.76,1.05,.15,.2,.37,.38,.69,.69,2.55-.77,4.58-2.24,5.97-4.21,3.14-4.45,6.2-8.94,9.1-13.51,5.13-8.06,9.85-16.32,15.23-24.23,5.29-7.78,11.25-15.19,16.76-22.85,2.39-3.3,4.99-6.44,7.75-9.52,2.76-3.09,5.93-5.51,10.03-7.12,4.71-1.85,9.47-3.4,14.73-2.98,1.59,.13,3.27,.3,4.67,.89,6.4,2.68,12.8,5.39,19.04,8.33,4.08,1.92,7.82,4.36,11.84,6.38,2.29,1.15,4.81,1.94,7.26,2.84,.57,.21,1.24,.19,1.98,.29,.05-.36,.17-.61,.08-.8-2.77-6.54-2.67-13.17-.97-19.89,1.87-7.41,4.87-14.47,8.36-21.39,3.21-6.37,7.79-11.98,13.03-17.12,2.57-2.51,5.55-4.85,8.78-6.65,4.65-2.6,9.86-4.15,15.43-4.57,10.43-.79,20.8,.38,31.2,.5,11.75,.15,23.5-.02,35.24-.05,.17,0,.34-.09,.79-.23-.44-.39-.75-.73-1.14-.98-5-3.3-9.6-6.94-13.74-11.11-3.59-3.63-7.74-6.82-11.45-10.36-4.33-4.15-8.5-8.43-12.62-12.75-3.54-3.7-6.31-7.87-9.02-12.06-.81-1.22-1.58-2.46-2.22-3.75-2.3-4.65-4.71-9.27-6.73-14-1.49-3.48-2.57-7.12-3.6-10.74-1.27-4.43-.05-8.69,2.48-12.49,2.62-3.95,6.05-7.46,10.34-10.16,1.52-.96,3.28-1.63,4.97-2.39,1.43-.65,2.99-1.12,4.32-1.88,4.37-2.53,9.27-3.67,14.33-4.5,3.07-.51,6.03-1.45,9.1-1.91,6.25-.95,12.52-1.78,18.8-2.53,10.42-1.23,20.91-1.7,31.4-2.3,5.55-.31,11.11-1,16.6-1.85,4.65-.71,9.21-1.83,13.79-2.86,1.07-.23,2.05-.74,3.07-1.13-.14-2.43-1.61-3.85-3.59-4.98-5.31-3.06-11.25-4.67-17.34-6-8.89-1.96-17.81-3.91-26.6-6.18-4.05-1.04-7.86-2.87-11.8-4.3-4.37-1.57-8.9-2.86-13.12-4.71-4.46-1.96-8.68-4.36-12.86-6.76-1.47-.83-2.18-2.02-1.87-4,.96-6.2,5.22-10.24,10.75-13.39,3.46-1.97,7.31-3.4,11.29-5.19-.65-.5-1.32-1.16-2.13-1.61-3.92-2.16-7.9-4.26-11.85-6.39-.24-.13-.51-.22-.75-.35-3.72-2-4.55-4.21-3.39-7.91,1.86-5.99,5.16-11.41,8.38-16.88,4.01-6.79,7.91-13.64,11.77-20.49,3.66-6.47,7.49-12.9,10.73-19.53,2.99-6.09,5.29-12.44,7.54-18.99-.56,.32-1.2,.55-1.66,.96-7.95,6.93-16.56,13.14-26.1,18.33-7.72,4.2-15.3,8.59-23.13,12.65-7.99,4.15-16.43,7.57-25.08,10.54-3.15,1.07-6.47,1.76-9.95,1.36-2.73-.32-3.39-.66-3.71-2.98-.59-4.28-1.15-8.59-1.4-12.9-.34-5.84-1.2-11.56-2.83-17.24-1.41-4.91-2.28-9.95-3.59-14.89-.59-2.23-1.68-4.37-2.56-6.56-.44-1.09-.98-2.17-1.35-3.28-.49-1.47-1.47-2.61-2.8-4.03-.85,1.67-1.59,2.99-2.19,4.35-2.8,6.33-7.18,11.88-10.99,17.72-.91,1.4-2.41,2.54-3.81,3.64-1.36,1.06-3.02,1-4.45,.03-1.34-.91-2.58-1.93-3.76-3-1.51-1.39-2.92-2.85-4.33-4.31-3.11-3.22-7.09-5.44-11.06-7.71-2.69-1.54-5.18-3.34-7.79-4.99-4.82-3.06-9.66-6.11-14.52-9.14-.26-.17-.69-.14-1.28-.24,.05,.71,.04,1.26,.13,1.8,.69,4.45-.78,8.36-3.92,11.83-.77,.85-1.53,1.71-2.38,2.48-3.98,3.53-8.97,4.8-14.33,3.97-9.03-1.38-17.54-4.03-24.91-9.11-2.88-2-6.02-3.73-9.07-5.54-.78-.46-1.68-.74-2.53-1.11-2.75-1.2-3.25-.67-4.33,1.81-1.2,2.7-2.04,5.53-2.92,8.32-.81,2.56-1.49,5.16-2.17,7.75-.53,2.02-.81,4.07-.4,6.11,2.52,.43,4.91,.84,7.76,1.33-.53,.73-.91,1.25-1.52,2.06-1.54-2.15-3.46-2.66-6.11-2.04,0,.47,.11,1.02-.02,1.54-.09,.32-.52,.58-.79,.88-.32-.26-.77-.47-.91-.79-.25-.52-.28-1.12-.47-1.92-2.5-.09-5.03-.27-7.54-.26-6.82,.02-13.62,.2-20.44,.18-5.68-.02-11.36-.46-17.02-.29-8.8,.27-17.57,.94-26.27,2.13-4.67,.65-9.38,1.09-14.01,1.89-2.57,.44-5.11,1.22-7.5,2.18-2.42,.96-3.21,3.62-1.65,5.47,1.16,1.36,2.63,2.77,4.34,3.45,5.07,2.01,10.36,3.64,15.52,5.49,2.45,.89,4.87,1.86,7.21,2.95,7.21,3.39,14.09,7.16,19.65,12.55,3.01,2.92,5.52,6.12,6.73,9.97,1.75,5.51,.07,10.26-4.23,14.51-4.69,4.64-10.23,8.37-16.13,11.69-1.81,1.01-3.94,1.59-5.9,2.39-2.06,.82-4.14,1.63-6.16,2.49-4.17,1.76-8.4,3.43-12.45,5.39-7.37,3.58-14.46,7.54-21.2,12.04-3.75,2.49-8.05,4.34-12.08,6.51-1.68,.92-3.38,1.86-4.94,2.92-3.28,2.24-6.51,4.57-9.72,6.89-.5,.35-.85,.85-1.32,1.31,.95,1.75,2.71,2.17,4.5,2.2,3.4,.06,6.8-.09,10.22-.15,8.61-.16,17.22-.31,25.83-.46,.02,.18,.04,.36,.06,.54-.98,.14-1.97,.36-2.95,.4-10.41,.35-20.82,.69-31.22,1-1.9,.06-3.79,.08-5.69-.01-1.28-.07-2.54-.38-4.3-.66,.71-1.18,1.06-2.13,1.74-2.81,1.26-1.23,2.69-2.34,4.1-3.44,5.88-4.62,12.71-8.05,19.29-11.8,5.63-3.21,10.99-6.8,16.7-9.88,7.17-3.86,14.43-7.55,22.35-10.28,8.36-2.89,16.25-6.74,22.99-12.13,2.94-2.37,5.74-4.88,7.75-7.91,3.34-5.02,2.7-10.06-.55-14.9-4.04-6.03-10.12-10.21-16.71-13.91-7.88-4.43-16.51-7.37-25.26-10.12-2.56-.8-5.1-1.83-7.36-3.16-3.26-1.9-3.98-5.31-1.85-7.81,.69-.81,1.79-1.61,2.87-1.87,4.36-1.06,8.75-2.28,13.22-2.77,10.8-1.19,21.65-2.05,32.49-2.93,2.62-.22,5.29-.04,7.93,.02,7.18,.18,14.36,.53,21.54,.53,5.76,.01,11.51-.38,17.41-.59,.14-.41,.41-.87,.44-1.33,.25-5.13,1.97-9.96,3.83-14.76,.78-2.04,1.32-4.16,1.97-6.24,1.11-3.53,2.05-3.99,5.83-2.62,1.2,.44,2.34,1.06,3.41,1.72,5.76,3.47,11.16,7.47,17.59,10.03,5.29,2.1,10.82,3.67,16.62,4,4.98,.29,9.34-.93,12.87-4.56,3.56-3.64,5.46-7.52,5-12.26-.09-.99-.43-1.95-.63-2.93-.12-.53-.19-1.06-.31-1.78,.64,.1,1.07,.07,1.33,.24,5.42,3.35,10.81,6.72,16.22,10.09,3.31,2.07,6.52,4.27,9.96,6.16,5.46,3.01,9.72,7.11,14,11.24,1.24,1.2,2.76,2.23,4.29,3.17,1.34,.82,2.76,.52,3.82-.55,1.11-1.14,2.34-2.24,3.12-3.54,3.05-5.08,7.04-9.68,9.39-15.1,1.04-2.4,2.04-4.82,3.08-7.22,.15-.35,.4-.68,.82-1.38,.62,.76,1.08,1.22,1.42,1.75,3.41,5.4,6.06,11.03,7.29,17.18,1.2,6.06,2.86,12.05,4.27,18.08,1.55,6.62,1.85,13.36,2.6,20.07,.17,1.48,.4,2.96,.6,4.45,.15,1.15,.95,1.92,2.16,2.01,1.96,.15,3.99,.31,5.89-.01,4.96-.84,9.57-2.69,14.01-4.7,8.74-3.97,17.43-8.06,25.95-12.35,4.84-2.44,9.27-5.49,13.99-8.12,8.43-4.7,15.97-10.35,23.09-16.46,1.42-1.22,2.62-2.63,3.89-3.96,.59-.64,1.01-1.49,2.61-1.02-.08,.6-.02,1.32-.28,1.95-2.93,7.03-5.84,14.05-8.91,21.03-1.05,2.4-2.56,4.64-3.83,6.95-4.08,7.42-8.07,14.88-12.26,22.25-2.9,5.14-6.13,10.14-9.09,15.26-2.61,4.51-5.12,9.09-6.18,14.15-.43,2.1,.24,3.78,2.31,4.95,1.83,1.03,3.67,2.04,5.54,3.04,3.31,1.78,6.64,3.53,9.93,5.33,.47,.25,.94,.58,1.29,.96,.58,.63,.45,1.31-.33,1.7-.81,.4-1.73,.66-2.63,.91-6.41,1.75-11.77,4.91-16.04,9.45-1.19,1.26-2.17,2.74-2.93,4.24-1.54,3.08-.83,5.32,2.34,7.11,5.97,3.39,12.3,6.2,18.99,8.38,2.12,.7,4.28,1.34,6.33,2.19,8,3.29,16.37,5.62,24.92,7.52,7.07,1.55,14.11,3.19,21.1,4.95,2.25,.57,4.35,1.62,6.48,2.5,2.54,1.06,4.52,2.59,5.77,4.92,1.29,2.39,1.26,2.95-1.72,3.74Z"/>
</svg>