<?xml version="1.0" encoding="UTF-8"?>
<svg id="image" xmlns="http://www.w3.org/2000/svg" viewBox="0 0 425.2 425.2">
  <path d="M49.78,302.61c.08,.19,.11,.44,.24,.57,6.46,6.12,13.99,10.09,22.25,12.14,5.55,1.38,11.32,1.36,17,.52,8.99-1.34,17.97-2.86,26.96-4.17,2.76-.4,5.58-.57,8.36-.43,5.68,.3,10.13,5.54,9.68,11.38-.18,2.34-.56,4.83-1.48,6.92-3.06,6.93-4.7,14.25-5.76,21.78-.74,5.26-1.42,10.51-.79,15.86,.17,1.47,.58,2.59,1.49,3.74,3.06,3.85,6.99,6.09,11.37,7.49,6.41,2.05,12.79,4.2,19.29,5.87,5.51,1.41,11.06,2.66,16.87,2.25,5.23-.37,9.4-2.75,12.85-6.67,3.13-3.56,5.44-7.74,6.48-12.65,.36-1.68,1.05-3.27,1.55-4.92,1.61-5.25,4.85-8.92,9.46-11.1,1.9-.9,3.99-1.35,5.98-2.05,3.69-1.3,7.44-1.64,11.19-.48,7.32,2.28,14.36,5.2,20.39,10.52,2.78,2.46,5.73,4.7,8.72,6.86,4.73,3.43,9.31,7.06,13.79,10.88,3.67,3.12,7.73,5.68,11.62,8.49,1.58,1.41,3.15,2.85,4.75,4.24,4.43,3.86,8.88,7.69,13.3,11.56,2.01,1.76,3.86,3.74,5.96,5.37,3.64,2.82,7.39,5.49,11.14,8.14,3.65,2.58,6.7,6,10.91,7.86,3.99,1.76,7.85,2.36,11.95,1.45,5.11-1.13,9.92-3.21,14.6-5.7,4.34-2.31,8.42-4.95,11.39-9.22,3.24-4.64,5.63-9.69,6.57-15.49,.9-5.54,.41-10.95-.69-16.44-1.53-7.71-3.81-15.07-7.7-21.7-2.02-3.44-4.77-6.38-7.14-9.58-4.88-6.57-9.7-13.19-14.6-19.75-4.15-5.54-8.96-10.46-12.68-16.42-4.59-7.34-10.02-14.05-13.84-21.96-1.99-4.12-4.2-8.12-5.29-12.67-1.88-7.83-2.35-15.69-1.28-23.79,.64-4.84,2.74-8.06,6.43-10.22,4.03-2.37,8.17-4.53,12.34-6.61,1.23-.61,2.68-.85,4.05-.93,6.1-.38,11.52,2.1,16.87,4.86,4.57,2.36,8.21,6.15,12.13,9.47,3.44,2.92,6.94,5.98,9.69,9.63,5.49,7.29,12.18,12.72,19.7,17.21,7.35,4.38,15.02,6.38,23.35,4.6,3.14-.67,6.01-2.26,7.69-5.17,2.41-4.16,4.85-8.31,6.06-13.24,1.21-4.93,1.66-9.85,1.01-14.79-.65-4.91-1.85-9.73-2.88-14.58-1.44-6.78-3.53-13.42-6.64-19.42-4.19-8.11-8.91-15.96-14.01-23.44-6.25-9.17-14.01-16.87-22.07-24.18-5.13-4.65-10.18-9.36-14.64-14.85-4.98-6.13-6.48-12.98-4.99-20.79,.87-4.59,2.6-8.83,4.26-13.15,4.35-11.24,11.03-20.56,19.16-28.77,4.6-4.65,9.69-8.68,13.95-13.78,3.97-4.74,7.43-9.65,8.59-16.09,1.06-5.87,1.82-11.78,1.56-17.78-.17-4.15-.95-8.18-2.59-11.95-3.07-7.06-8.28-11.86-14.38-15.62-4.1-2.52-8.54-4.17-13-5.79-7.41-2.7-15.02-4.56-22.73-5.58-6.11-.81-12.36-.53-18.54-.62-2.09-.03-4.2,.18-6.27,.5-5.13,.79-10.26,1.66-15.37,2.6-5.11,.95-10.24,1.85-15.3,3.08-7.01,1.7-13.98,3.59-20.93,5.59-5.2,1.49-10.22,3.74-15.61,4.5-.29,.04-.56,.24-.84,.34-6.37,2.2-12.71,4.49-19.12,6.56-10.71,3.47-21.45,6.8-32.18,10.19-3.07,.97-6.08,2.2-9.19,2.91-6.45,1.47-12.96,2.26-19.58,2.6-8.99,.46-17.73-.29-26.34-3.19-4.6-1.55-9.08-3.39-13.18-6.11-6.51-4.31-12.27-9.68-17.64-15.53-5.6-6.11-12.22-10.5-19.66-13.29-7.52-2.82-15.2-2.07-22.74,.11-4.05,1.17-7.98,2.8-11.96,4.26-6.19,2.28-12.04,5.27-17.05,9.93-8.47,7.89-15.66,16.8-18.65,28.84-.98,3.96-1.55,8.05-2.33,12.07-1.95,10.01-1.77,20.07-.37,30.1,1.24,8.89,2.77,17.73,4.31,26.57,1.58,9.04,2.42,18.25,5.17,27.04,1.47,4.7,3.45,8.95,7.19,12,.22,.79,.43,1.58,.77,2.83-1.68,.2-3.13,.58-4.57,.52-3.88-.19-7.31-2-10.78-3.72-2.63-1.3-5.3-2.63-8.09-3.36-5.03-1.3-10.14-2.3-15.25-3.16-4.21-.71-6.03,.63-7.57,5-.35,1.01-.51,2.09-.78,3.14-.92,3.58,.07,7.11,.14,10.67,.07,3.3,1.33,6.12,2.88,8.78,2.61,4.48,5.56,8.73,8.05,13.29,2.54,4.64,4.75,9.5,7,14.33,.47,1.02,.54,2.29,.66,3.46,.44,4.32-1.39,8-2.82,11.82-1.64,4.41-3.61,8.78-4.54,13.37-.75,3.7-.89,7.91-.04,11.55,1.34,5.72,3.75,11.15,5.7,16.71,.57,1.61,.92,3.35,1.7,4.84,1.87,3.57,3.83,7.1,5.95,10.51,1.44,2.32,3.2,4.4,4.83,6.58,2.01,2.68,4.41,5.13,5.07,8.68,.56,3.02,2,5.38,4.04,7.4,3.08,3.06,6.16,6.12,10.05,7.99Z"/>
  <path d="M47.36,151.39c-3.74-3.05-5.72-7.3-7.19-12-2.74-8.79-3.58-18-5.17-27.04-1.55-8.83-3.07-17.68-4.31-26.57-1.4-10.03-1.58-20.09,.37-30.1,.78-4.02,1.35-8.11,2.33-12.07,2.99-12.04,10.18-20.95,18.65-28.84,5.01-4.66,10.86-7.65,17.05-9.93,3.97-1.46,7.91-3.09,11.96-4.26,7.54-2.18,15.22-2.93,22.74-.11,7.43,2.79,14.05,7.18,19.66,13.29,5.37,5.85,11.13,11.22,17.64,15.53,4.11,2.72,8.58,4.56,13.18,6.11,8.61,2.9,17.35,3.65,26.34,3.19,6.62-.34,13.13-1.12,19.58-2.6,3.11-.71,6.13-1.94,9.19-2.91,10.73-3.39,21.47-6.72,32.18-10.19,6.4-2.07,12.75-4.37,19.12-6.56,.29-.1,.55-.3,.84-.34,5.39-.76,10.41-3,15.61-4.5,6.94-1.99,13.92-3.88,20.93-5.59,5.06-1.23,10.19-2.14,15.3-3.08,5.11-.94,10.23-1.81,15.37-2.6,2.07-.32,4.18-.53,6.27-.5,6.19,.09,12.43-.19,18.54,.62,7.7,1.02,15.31,2.89,22.73,5.58,4.46,1.62,8.91,3.27,13,5.79,6.1,3.76,11.31,8.56,14.38,15.62,1.64,3.77,2.42,7.8,2.59,11.95,.25,6-.5,11.91-1.56,17.78-1.16,6.44-4.62,11.34-8.59,16.09-4.26,5.1-9.35,9.13-13.95,13.78-8.13,8.21-14.82,17.53-19.16,28.77-1.67,4.31-3.39,8.56-4.26,13.15-1.48,7.82,.01,14.67,4.99,20.79,4.46,5.48,9.51,10.19,14.64,14.85,8.06,7.3,15.82,15.01,22.07,24.18,5.09,7.48,9.81,15.33,14.01,23.44,3.1,6,5.2,12.64,6.64,19.42,1.03,4.84,2.23,9.67,2.88,14.58,.65,4.94,.2,9.86-1.01,14.79-1.21,4.93-3.65,9.08-6.06,13.24-1.68,2.91-4.56,4.5-7.69,5.17-8.32,1.78-16-.22-23.35-4.6-7.52-4.49-14.21-9.91-19.7-17.21-2.75-3.65-6.24-6.7-9.69-9.63-3.92-3.33-7.55-7.12-12.13-9.47-5.35-2.76-10.78-5.24-16.87-4.86-1.37,.08-2.83,.32-4.05,.93-4.17,2.08-8.31,4.24-12.34,6.61-3.69,2.17-5.78,5.38-6.43,10.22-1.07,8.1-.6,15.96,1.28,23.79,1.09,4.55,3.3,8.56,5.29,12.67,3.82,7.91,9.25,14.62,13.84,21.96,3.72,5.96,8.54,10.88,12.68,16.42,4.9,6.55,9.72,13.17,14.6,19.75,2.38,3.2,5.12,6.14,7.14,9.58,3.89,6.63,6.17,14,7.7,21.7,1.09,5.49,1.58,10.9,.69,16.44-.94,5.8-3.33,10.85-6.57,15.49-2.98,4.26-7.05,6.91-11.39,9.22-4.68,2.49-9.49,4.56-14.6,5.7-4.1,.91-7.96,.31-11.95-1.45-4.21-1.86-7.26-5.28-10.91-7.86-3.75-2.65-7.5-5.32-11.14-8.14-2.09-1.62-3.95-3.61-5.96-5.37-4.42-3.87-8.87-7.7-13.3-11.56-1.6-1.39-3.17-2.83-4.75-4.24l-.06,.06c2.13,1.34,4.41,2.46,6.35,4.06,4.59,3.79,9.3,7.41,13.52,11.78,3.35,3.47,7.49,6.05,11.27,9.04,3.47,2.75,6.91,5.53,10.38,8.28,4.62,3.67,9.82,5.75,15.48,4.55,8.52-1.81,16.73-5.11,23.17-11.51,8.04-7.99,10.86-18.43,9.22-30.17-.72-5.14-1.88-10.17-3.54-15.07-1.88-5.56-4.57-10.58-8.06-15.11-3.64-4.73-7.32-9.43-10.96-14.16-3.39-4.41-6.71-8.88-10.12-13.28-1.54-1.98-3.3-3.76-4.79-5.79-2.18-2.96-4.26-6.02-6.29-9.11-5.17-7.83-10.69-15.41-14.72-24.06-1.34-2.89-2.75-5.82-3.59-8.9-2.18-8.1-2.65-16.39-1.43-24.75,.69-4.7,2.28-8.69,6.6-10.88,3.97-2.01,7.8-4.36,11.75-6.42,2.82-1.47,5.76-2.03,8.99-1.76,4.94,.42,9.27,2.58,13.6,4.73,3.53,1.75,6.54,4.45,9.69,6.95,5.52,4.4,10.54,9.26,14.99,14.86,1.3,1.64,2.54,3.4,4.06,4.78,5.53,5.02,11.44,9.5,18.08,12.62,5.4,2.54,11.06,3.69,16.97,2.54,3.72-.73,6.76-2.69,8.83-6.11,1.36-2.26,2.49-4.7,3.57-7.14,3.35-7.59,3.17-15.61,1.83-23.59-.86-5.1-2.15-10.15-3.62-15.09-1.42-4.73-2.89-9.55-5.1-13.87-5.08-9.95-10.85-19.41-17.55-28.24-5.89-7.76-12.94-14.13-19.76-20.77-4.9-4.77-10.11-9.12-14.27-14.75-3.84-5.19-5.43-10.99-4.77-17.54,.61-6.14,3.03-11.65,5.2-17.25,4.08-10.48,10.44-19.2,17.9-27.01,5.03-5.27,10.41-10.13,15.45-15.39,3.64-3.8,6.45-8.24,7.42-13.83,1.02-5.85,2.16-11.67,2.12-17.68-.05-7.59-2.23-14.26-6.92-19.9-4.11-4.94-9.22-8.32-14.91-10.58-6.75-2.68-13.63-4.89-20.67-6.63-8.49-2.1-17-2.23-25.61-2.16-7.86,.07-15.45,2.11-23.18,3.09-9.64,1.22-19.02,3.94-28.4,6.57-4.06,1.14-8.13,2.25-12.18,3.43-2.79,.81-5.55,1.75-8.33,2.6-1.73,.53-3.49,.92-5.21,1.5-6.58,2.2-13.13,4.53-19.72,6.67-9.27,3.01-18.58,5.91-27.88,8.83-7.67,2.4-15.28,5.15-23.35,5.65-9.48,.59-18.95,1.43-28.34-1.07-7.8-2.08-15.36-4.67-22.16-9.58-5.37-3.87-10.23-8.36-14.71-13.31-4.99-5.52-10.77-9.66-17.26-12.7-1.82-.85-3.76-1.54-5.71-1.91-7.22-1.36-14.34-.77-21.3,1.75-4.74,1.71-9.56,3.23-14.16,5.3-3.48,1.56-6.85,3.58-9.96,5.89-5.3,3.96-9.72,9.01-13.46,14.7-3.14,4.78-5.9,9.77-7.4,15.51-2.01,7.67-2.85,15.52-3.3,23.42-.56,9.81,.78,19.52,2.13,29.15,1.6,11.46,3.78,22.84,5.95,34.2,1.33,6.92,3.25,13.67,7.7,19.18,.3,.37,.36,.97,.53,1.47,0,0,.06-.07,.06-.07Z"/>
  <path d="M277.28,385.38c-3.89-2.81-7.95-5.37-11.62-8.49-4.48-3.81-9.06-7.45-13.79-10.88-2.98-2.16-5.94-4.41-8.72-6.86-6.02-5.32-13.06-8.24-20.39-10.52-3.75-1.16-7.5-.82-11.19,.48-1.99,.7-4.07,1.15-5.98,2.05-4.61,2.18-7.85,5.85-9.46,11.1-.5,1.65-1.2,3.24-1.55,4.92-1.04,4.91-3.35,9.1-6.48,12.65-3.45,3.92-7.62,6.29-12.85,6.67-5.81,.42-11.36-.83-16.87-2.25-6.49-1.66-12.88-3.82-19.29-5.87-4.38-1.4-8.31-3.63-11.37-7.49-.91-1.14-1.32-2.26-1.49-3.74-.62-5.35,.06-10.6,.79-15.86,1.06-7.53,2.7-14.85,5.76-21.78,.92-2.09,1.3-4.57,1.48-6.92,.45-5.83-4-11.07-9.68-11.38-2.78-.15-5.6,.03-8.36,.43-9,1.3-17.97,2.82-26.96,4.17-5.68,.85-11.45,.86-17-.52-8.26-2.05-15.79-6.03-22.25-12.14-.13-.12-.16-.38-.24-.57l-.06,.07c1.12,.66,2.35,1.16,3.35,1.99,5.07,4.23,10.8,6.97,16.86,8.95,5.44,1.78,11.06,1.89,16.65,1.28,4.76-.52,9.46-1.55,14.21-2.24,5.54-.81,11.09-1.62,16.65-2.21,2.66-.28,5.4-.28,8.05,.04,5.14,.61,8.93,4.88,9.63,10.4,.49,3.9-.54,7.49-1.81,11.06-1.4,3.92-3.04,7.72-3.71,11.95-1.18,7.46-2.97,14.82-2.23,22.53,.2,2.09,.86,3.71,2.12,5.2,2.24,2.65,5.17,4.19,8.18,5.24,6.55,2.28,13.22,4.2,19.85,6.19,5.21,1.56,10.59,2.02,15.95,2.41,1.95,.14,4.11,0,5.89-.77,6.36-2.75,10.59-7.96,13.15-14.76,.86-2.29,1.31-4.77,2.06-7.12,1.19-3.72,2.75-7.18,5.73-9.69,2.51-2.1,5.35-3.3,8.36-4.16,11.76-3.33,8.62-3.26,18.86,.13,5.26,1.74,10.23,4.27,14.64,7.98,2.44,2.05,4.96,4,7.47,5.94,4.14,3.2,8.31,6.35,12.45,9.56,3.97,3.08,7.94,6.16,11.84,9.34,1.23,1,2.22,2.35,3.32,3.54,0,0,.06-.06,.06-.06Z"/>
  <path d="M49.78,302.61c-3.89-1.86-6.97-4.92-10.05-7.99-2.04-2.03-3.48-4.38-4.04-7.4-.66-3.56-3.06-6-5.07-8.68-1.63-2.17-3.39-4.26-4.83-6.58-2.12-3.41-4.08-6.93-5.95-10.51-.78-1.48-1.13-3.22-1.7-4.84-1.95-5.56-4.36-10.99-5.7-16.71-.85-3.64-.72-7.85,.04-11.55,.94-4.6,2.9-8.96,4.54-13.37,1.42-3.82,3.25-7.5,2.82-11.82-.12-1.17-.19-2.44-.66-3.46-2.25-4.83-4.46-9.69-7-14.33-2.49-4.55-5.44-8.81-8.05-13.29-1.55-2.66-2.81-5.48-2.88-8.78-.07-3.56-1.06-7.09-.14-10.67,.27-1.04,.42-2.13,.78-3.14,1.54-4.37,3.37-5.71,7.57-5,5.11,.86,10.22,1.86,15.25,3.16,2.79,.72,5.46,2.06,8.09,3.36,3.47,1.71,6.9,3.53,10.78,3.72,1.43,.07,2.88-.31,4.57-.52-.34-1.25-.56-2.04-.77-2.83,0,0-.06,.07-.06,.07,1.2,1.34,2.54,.8,4.04,.28-.34,1.11-.67,2.22-1.38,2.72-1.94,1.38-4.13,2.38-6.5,1.7-3.07-.88-6.25-1.63-9.06-3.14-8.21-4.43-16.98-6.16-25.96-6.97-3.54-.32-4.71,.94-5.75,4.68-1.38,4.95-.89,9.89,.09,14.77,.43,2.15,1.43,4.26,2.51,6.15,2.58,4.51,5.53,8.77,8.01,13.33,2.37,4.37,4.35,8.99,6.48,13.5,1.7,3.59,1.74,7.35,.45,11.02-1.45,4.15-3.09,8.23-4.83,12.25-2.27,5.28-3.03,10.85-2.2,16.48,.55,3.69,1.96,7.25,3.14,10.81,.85,2.54,2.14,4.91,2.92,7.47,2.42,7.97,6.84,14.64,11.68,20.95,2.85,3.71,5.52,7.37,6.63,12.14,.16,.71,.5,1.47,.97,1.98,2.12,2.27,4.31,4.47,6.51,6.65,1.52,1.51,3.1,2.96,4.65,4.43l.06-.07Z"/>
  <path d="M49.71,302.67c-1.55-1.47-3.13-2.92-4.65-4.43-2.2-2.18-4.38-4.39-6.51-6.65-.47-.5-.8-1.27-.97-1.98-1.11-4.77-3.78-8.43-6.63-12.14-4.84-6.31-9.26-12.98-11.68-20.95-.78-2.56-2.07-4.93-2.92-7.47-1.18-3.56-2.59-7.12-3.14-10.81-.84-5.64-.08-11.2,2.2-16.48,1.73-4.02,3.37-8.1,4.83-12.25,1.29-3.67,1.25-7.43-.45-11.02-2.14-4.52-4.11-9.14-6.48-13.5-2.48-4.57-5.43-8.83-8.01-13.33-1.08-1.89-2.08-4-2.51-6.15-.97-4.87-1.47-9.82-.09-14.77,1.05-3.74,2.21-5.01,5.75-4.68,8.98,.82,17.75,2.55,25.96,6.97,2.81,1.52,6,2.26,9.06,3.14,2.37,.68,4.56-.32,6.5-1.7,.7-.5,1.03-1.62,1.38-2.72-1.5,.52-2.85,1.06-4.04-.28-.17-.49-.23-1.1-.53-1.47-4.45-5.51-6.37-12.25-7.7-19.18-2.18-11.36-4.35-22.73-5.95-34.2-1.34-9.63-2.69-19.34-2.13-29.15,.45-7.91,1.3-15.75,3.3-23.42,1.5-5.74,4.27-10.74,7.4-15.51,3.74-5.69,8.16-10.74,13.46-14.7,3.1-2.32,6.48-4.33,9.96-5.89,4.61-2.07,9.42-3.58,14.16-5.3C86.24,.12,93.36-.47,100.58,.89c1.95,.37,3.89,1.05,5.71,1.91,6.48,3.04,12.27,7.18,17.26,12.7,4.48,4.96,9.34,9.44,14.71,13.31,6.8,4.91,14.36,7.5,22.16,9.58,9.38,2.5,18.86,1.66,28.34,1.07,8.07-.5,15.67-3.24,23.35-5.65,9.3-2.91,18.6-5.82,27.88-8.83,6.6-2.14,13.14-4.47,19.72-6.67,1.71-.57,3.48-.97,5.21-1.5,2.78-.85,5.54-1.79,8.33-2.6,4.05-1.18,8.12-2.29,12.18-3.43,9.38-2.63,18.76-5.35,28.4-6.57,7.73-.98,15.32-3.02,23.18-3.09,8.61-.08,17.12,.05,25.61,2.16,7.04,1.74,13.92,3.95,20.67,6.63,5.69,2.26,10.8,5.64,14.91,10.58,4.69,5.64,6.86,12.31,6.92,19.9,.04,6.02-1.09,11.83-2.12,17.68-.98,5.58-3.78,10.03-7.42,13.83-5.04,5.25-10.42,10.12-15.45,15.39-7.46,7.81-13.82,16.53-17.9,27.01-2.18,5.59-4.59,11.11-5.2,17.25-.66,6.55,.93,12.35,4.77,17.54,4.17,5.63,9.37,9.98,14.27,14.75,6.81,6.64,13.87,13.01,19.76,20.77,6.7,8.83,12.47,18.3,17.55,28.24,2.21,4.32,3.69,9.14,5.1,13.87,1.48,4.94,2.77,9.99,3.62,15.09,1.34,7.98,1.52,15.99-1.83,23.59-1.08,2.44-2.2,4.88-3.57,7.14-2.07,3.42-5.11,5.38-8.83,6.11-5.91,1.15-11.57,0-16.97-2.54-6.65-3.12-12.55-7.6-18.08-12.62-1.52-1.38-2.76-3.14-4.06-4.78-4.45-5.6-9.47-10.46-14.99-14.86-3.14-2.51-6.15-5.2-9.69-6.95-4.34-2.15-8.67-4.31-13.6-4.73-3.24-.27-6.17,.29-8.99,1.76-3.95,2.06-7.78,4.41-11.75,6.42-4.32,2.19-5.91,6.18-6.6,10.88-1.22,8.36-.76,16.65,1.43,24.75,.83,3.08,2.24,6.01,3.59,8.9,4.02,8.65,9.55,16.23,14.72,24.06,2.04,3.09,4.11,6.15,6.29,9.11,1.49,2.02,3.25,3.8,4.79,5.79,3.41,4.4,6.73,8.87,10.12,13.28,3.64,4.74,7.31,9.43,10.96,14.16,3.49,4.53,6.18,9.55,8.06,15.11,1.66,4.9,2.82,9.93,3.54,15.07,1.64,11.74-1.18,22.18-9.22,30.17-6.44,6.4-14.66,9.7-23.17,11.51-5.66,1.2-10.86-.88-15.48-4.55-3.47-2.75-6.91-5.53-10.38-8.28-3.78-2.99-7.91-5.57-11.27-9.04-4.22-4.37-8.92-7.98-13.52-11.78-1.94-1.6-4.22-2.72-6.35-4.06-1.1-1.19-2.09-2.53-3.32-3.54-3.9-3.19-7.87-6.26-11.84-9.34-4.13-3.21-8.31-6.35-12.45-9.56-2.51-1.95-5.03-3.89-7.47-5.94-4.4-3.71-9.38-6.24-14.64-7.98-10.23-3.39-7.1-3.46-18.86-.13-3.01,.85-5.86,2.06-8.36,4.16-2.99,2.51-4.55,5.97-5.73,9.69-.75,2.35-1.19,4.83-2.06,7.12-2.56,6.8-6.78,12.02-13.15,14.76-1.78,.77-3.94,.91-5.89,.77-5.36-.39-10.74-.85-15.95-2.41-6.64-1.99-13.3-3.91-19.85-6.19-3.01-1.05-5.94-2.59-8.18-5.24-1.26-1.48-1.92-3.11-2.12-5.2-.74-7.71,1.05-15.06,2.23-22.53,.67-4.22,2.32-8.03,3.71-11.95,1.27-3.57,2.3-7.16,1.81-11.06-.69-5.52-4.49-9.79-9.63-10.4-2.66-.32-5.39-.32-8.05-.04-5.57,.58-11.11,1.39-16.65,2.21-4.74,.7-9.45,1.73-14.21,2.24-5.59,.61-11.21,.5-16.65-1.28-6.05-1.98-11.79-4.72-16.86-8.95-1-.83-2.23-1.34-3.35-1.99Z"/>
</svg>