<?xml version="1.0" encoding="UTF-8"?>
<svg id="Layer_4" data-name="Layer 4" xmlns="http://www.w3.org/2000/svg" viewBox="0 0 425.2 425.2">
  <path d="M192.95,379.54c8.41,2.04,20.17,4.34,34.35,5.34,14.64,1.03,36.42,2.57,58.54-4.25,28.27-8.72,69.14-34.78,71.38-72.22,.79-13.18,1.37-22.92-6.93-31.19,11.55-3.02,36-10.03,52.82-28.06,7.59-8.14,17.59-18.86,20.19-36.09,3.35-22.21-7.97-39.54-11.95-44.98-15.04-20.56-40.54-26.45-45.16-27.14,14.42-12.77,21.26-30.86,16.52-45.7-5.86-18.37-26.91-23.81-38.95-26.93-23.94-6.19-44.25,.88-52.73,4.44,4.53-22.72-19.43-55.47-64.44-55.3-36.27,.14-61.99,12.41-67.69,25.86-2.43-15.33-10.76-29.77-30.33-37.83-23.1-9.51-49.73-2.17-66.21,14.96-16.71,17.37-17.75,39.36-17.84,45.09-18.54-7.53-33.44,1.28-36.5,12.71-2.57,9.59,4.86,25.59,19.74,28.98-4.11,1.72-18.11,9.02-23.53,17.99-8.76,14.48-3.75,30.68-1.59,37.68,6.6,21.34,22.89,31.65,25.8,33.41,10.78,6.52,24.86,9.47,30.38,9.77-5.27,2.28-23.2,10.84-33.15,31.55-.65,1.35-15.93,34.58,3.78,64.17,15.51,23.28,32.05,28.37,50.79,26.54-8.35,5.71-12.34,23.2-10.09,40.2,4.21,31.9,36.49,45.91,45.55,49.45,2.78,1.08,45.88,17.26,66.43-6.93,7.9-9.3,10.65-24.21,10.81-31.48Z"/>
</svg>