<?xml version="1.0" encoding="UTF-8"?>
<svg id="image" xmlns="http://www.w3.org/2000/svg" viewBox="0 0 260.02 425.2">
  <path d="M61.01,344.69l-.07,.15c.4-1.09,.95-2.15,1.17-3.28,1.24-6.35,2.57-12.7,3.56-19.09,1.29-8.29,2.63-16.59,3.33-24.94,.79-9.3,.9-18.67,1.28-28,.44-10.93,.1-21.93,2.09-32.72,1.25-6.76,2.97-13.46,4.98-20.04,2.63-8.61,6.88-16.68,8.71-25.59,.32-1.58,1.23-3.04,2.11-5.12,.99,1.34,1.78,2.08,2.17,3,1.21,2.82,2.62,5.61,3.32,8.57,3.77,15.87,3.44,31.79,.21,47.71-1.43,7.07-3.15,14.08-4.37,21.19-1.21,7-2.21,14.05-2.83,21.12-.69,7.92-.98,15.89-1.2,23.85-.16,5.73,.03,11.48,.15,17.21,.13,6.26,.13,12.54,.63,18.77,.67,8.46,1.42,16.91,2.9,25.29,1.59,9,3.18,17.98,6.72,26.48,1.88,4.51,3.58,9.1,5.7,13.49,1.65,3.4,2.52,7.26,5.44,9.98l-.09-.12c1.6,3.45,3.58,3.7,5.74,.72,.37-.52,.74-1.05,1.02-1.62,1.22-2.47,2.61-4.89,3.55-7.47,1.74-4.78,3.67-9.57,4.67-14.53,1.39-6.85,2.33-13.83,2.87-20.8,.84-10.91,1.3-21.85,1.7-32.79,.39-10.83,.4-21.68,1.83-32.46,.35-2.63,.7-5.28,.8-7.93,.3-8.4,.4-16.8,.73-25.19,.29-7.54,.69-15.07,1.23-22.59,.28-3.91,.91-7.8,1.47-11.69,.9-6.31,1.93-12.6,2.8-18.91,1-7.25,2.93-14.35,3.13-21.73,.06-2.4,.77-4.82,1.46-7.14,.73-2.46,2.76-3.24,5.03-2.14,1.54,.75,2.81,1.77,3.7,3.36,2.55,4.59,3.97,9.6,5.38,14.59,2.58,9.17,3.25,18.64,3.17,28.09-.07,7.96-.78,15.92-1.34,23.87-.54,7.74-1.36,15.46-1.85,23.2-.46,7.2-.63,14.42-.96,21.64-.5,11.14-1.37,22.28-1.43,33.42-.06,10.31,1.12,20.61,3.57,30.65,1.45,5.96,3.03,11.97,6.23,17.33,1.06,1.78,1.85,3.87,4.06,4.69,.61,.62,1.21,1.24,1.82,1.86,1.64,.87,3.27,1.75,4.91,2.62l-.15-.07c2.99,.96,4.82,.53,6.49-2.15,1.27-2.04,2.47-4.31,2.96-6.64,2.37-11.22,4.62-22.47,6.64-33.76,.99-5.53,1.24-11.19,2.07-16.76,1.77-11.87,3.66-23.72,5.57-35.56,1.51-9.43,3.17-18.83,4.67-28.26,1.65-10.38,3.21-20.78,4.78-31.17,.92-6.09,1.44-12.26,2.74-18.26,1.34-6.21,1.85-12.36,1.23-18.66-.37-3.8-.64-7.62-.89-11.43-.2-3.02,1.27-5.25,3.93-6.34,4.31-1.78,8.76-3.18,13.48-3.59,3.06-.26,6.15-.55,9.13-1.22,3.77-.85,7.5-1.31,11.37-1.17,2.5,.09,5.04-.5,7.54-.92,.56-.09,1.02-.77,1.86-1.43-1.12-.49-1.74-.92-2.42-1.04-2.4-.42-4.82-.79-7.24-1.09-7.75-.97-14.97-3.3-20.92-8.54-3.35-2.95-6.84-6.13-7.36-10.84-.44-3.97-.44-8.09,.11-12.04,.8-5.72,3.16-11.02,6.03-16.03,4.07-7.11,9.89-12.43,17.19-16.11,5.16-2.6,10.56-4.44,16.41-4.74,.9-.05,1.97-.07,1.94-1.77-2.07,.19-4.04,.55-6,.51-3.08-.06-6.15-.53-9.22-.58-6.17-.1-12.34,.05-18.5-.09-3.19-.07-6.37-.5-8.89-2.86-5.19-4.86-8.55-10.81-10.39-17.63-2.42-9-2-18.01,.99-26.71,3.13-9.13,6.77-18.1,10.47-27.03,2.27-5.48,4.58-11.01,8.62-15.55,.31-.35,.39-.91,.6-1.42-1.2-.66-2.05-.37-2.58,.56-2,3.52-5.46,5.44-8.76,7.17-9.59,5.05-19.31,9.91-29.73,13.1-9.09,2.78-18.24,3.71-27.69,1.56-9.82-2.23-17.43-7.61-22.37-16.08-3.55-6.09-6.44-12.74-6.33-20.15,.01-.87-.09-1.77-1.22-1.64-.87,.86-1.53,1.89-2.46,2.36-2.07,1.04-4.25,1.89-6.45,2.66-1.69,.59-3.44,1.28-5.19,1.35-4.78,.2-9.57,.28-14.34,.05-4.45-.22-8.89-.83-13.32-1.38-3.27-.4-6.54-.83-9.75-1.52-4.15-.9-8.24-2.07-12.36-3.12-6.58-1.69-13.15-3.4-19.74-5.06-.51-.13-1.1,.05-1.84,.1,.25,.56,.3,.93,.51,1.09,5.13,3.97,8.03,9.62,10.86,15.16,4.51,8.85,7.43,18.29,9.05,28.12,.55,3.37,.85,6.71,.34,10.13-.96,6.43-4.07,9.81-10.31,11.39-6.69,1.7-13.47,1.82-20.29,1.6-10.2-.34-20.41-.76-30.61-1.11-.64-.02-1.28,.26-2.26,.48,1.09,1.29,2.01,2.18,2.67,3.22,4.17,6.54,8.23,13.14,12.41,19.67,5.27,8.24,10.74,16.36,15.89,24.67,3.84,6.19,7.97,12.38,6.78,20.64-3.3,.86-4.79,3.86-6.44,6.72-.63,1.1-1.22,2.31-2.11,3.18-2.69,2.64-3.88,6.05-5.17,9.42-1.25,3.27-2.48,6.56-3.54,9.9-2.34,7.38-4.71,14.75-6.82,22.2-2.55,9.03-3.19,18.4-4.39,27.67-.87,6.74-1.37,13.53-2.19,20.28-1.03,8.44-2.42,16.83-2.5,25.37-.07,8.2,.11,16.37,2.37,24.33,1.01,3.54,2.48,6.79,5.59,9.03,1.79,1.29,2.91,1.31,4.56-.11,.79-.68,1.58-1.5,2.05-2.41,1.64-3.2,3.47-6.35,3.93-10.03,.78-6.32,1.6-12.64,2.4-18.95,.64-5.05,1.24-10.11,1.93-15.16,1.04-7.57,2.09-15.14,3.23-22.7,.52-3.46,1.4-6.88,1.87-10.35,1.26-9.3,3.3-18.39,6.83-27.11,.72-1.76,1.5-3.53,2.49-5.15,.54-.88,1.57-1.45,2.72-2.46,.59,1.51,1.07,2.45,1.34,3.44,1.38,5.18,2.1,10.49,1.4,15.79-.98,7.47-2.18,14.92-3.69,22.3-1.42,6.96-2.76,13.92-3.9,20.94-1.76,10.77-1.68,21.61-1.95,32.44-.22,8.92-.1,17.85-.05,26.78,.03,4.99-.06,10.01,.41,14.98,.83,8.67,1.82,17.34,3.2,25.93,.61,3.82,2.25,7.5,3.62,11.17,.36,.98,1.45,1.69,2.21,2.52,.82,1.05,1.64,2.1,2.45,3.15,2.58,1.48,4.42-.22,5.79-1.84,2.98-3.51,5.02-7.57,5.48-12.26Z"/>
  <path d="M167.26,399c-.61-.62-1.21-1.24-1.82-1.86-1.91-3.43-4.24-6.69-5.63-10.32-2.7-7.05-4.16-14.44-5.21-21.94-1.34-9.51-1.92-19.02-1.5-28.6,.2-4.56,.28-9.13,.52-13.69,.42-7.95,.95-15.9,1.38-23.86,.39-7.11,.63-14.22,1.1-21.33,.64-9.64,1.62-19.26,2.11-28.91,.52-10.3,.14-20.59-2.21-30.71-1.44-6.22-3.43-12.25-6.32-17.97-1.12-2.21-2.81-3.68-5.11-4.53-2.48-.91-4.23-.37-5.09,2.13-.99,2.89-1.74,5.9-2.23,8.91-1.27,7.74-2.35,15.52-3.49,23.28-1.04,7.14-2.16,14.28-3.06,21.44-.76,6.1-1.57,12.22-1.81,18.36-.58,14.87-.28,29.77-1.93,44.59-.24,2.11-.64,4.21-.72,6.33-.48,12.85-.82,25.71-1.36,38.56-.33,7.96-.66,15.94-1.48,23.86-.88,8.54-2.09,17.06-4.92,25.26-1.63,4.73-3.28,9.42-5.92,13.7-1.9,3.08-2.83,3.21-5.66,.88,0,0,.09,.12,.09,.12-.2-.49-.39-.98-.61-1.46-5.28-11.58-10.74-23.05-13.56-35.62-3.01-13.44-4.96-27-5.54-40.71-.53-12.52-.57-25.07-.41-37.61,.11-8.38,.49-16.81,1.58-25.11,1.29-9.78,3.47-19.44,5.27-29.16,.95-5.11,1.98-10.21,2.86-15.34,1.44-8.44,1.06-16.95,.64-25.43-.38-7.68-1.81-15.2-5.12-22.23-.54-1.15-1.1-2.33-1.88-3.31-.54-.67-1.53-1.46-2.22-1.38-.66,.08-1.4,1.13-1.73,1.92-.61,1.46-.9,3.05-1.4,4.57-1.74,5.23-3.46,10.47-5.28,15.68-1.61,4.61-3.63,9.09-4.97,13.77-2.69,9.43-4.26,19.08-4.69,28.89-.39,8.91-.73,17.82-1.01,26.74-.36,11.69-.64,23.37-2.59,34.95-1.46,8.69-2.81,17.4-4.22,26.11-.37,2.3-.79,4.6-1.19,6.89,0,0,.07-.15,.07-.15-.75,1.94-1.34,3.97-2.29,5.81-1.96,3.83-3.62,8.1-8.98,8.29-.82-1.05-1.64-2.1-2.45-3.15-3.4-5.1-4.41-10.91-5.37-16.84-2.32-14.21-3.23-28.53-3.23-42.88,0-13.39,.6-26.78,1.03-40.17,.3-9.05,1.58-18.02,3.55-26.82,2.2-9.86,4.54-19.67,5.27-29.77,.46-6.31-.2-12.53-2.02-18.59-.71-2.38-2.16-2.78-3.96-1.02-1.11,1.08-2.15,2.46-2.65,3.9-2.18,6.31-4.68,12.58-6.06,19.08-2.35,11.11-4.03,22.37-5.81,33.59-.85,5.34-1.27,10.74-1.88,16.12-.72,6.33-1.35,12.67-2.18,18.98-.55,4.21-1.18,8.43-2.18,12.54-.77,3.18-2.04,6.28-4.45,8.7-1.62,1.63-3.09,1.85-4.7,.2-1.52-1.56-2.98-3.38-3.83-5.35-1.03-2.41-1.63-5.07-2.02-7.68-1.53-10.05-1.15-20.14-.1-30.2,1.12-10.68,2.41-21.33,3.64-32,.74-6.43,1.21-12.91,2.35-19.27,1.1-6.15,2.63-12.25,4.47-18.23,2.34-7.6,5.51-14.96,7.69-22.6,1.93-6.77,6.65-11.77,9.94-17.66,.25-.45,.64-.94,1.09-1.14,3.43-1.54,5.02-4.75,6.97-7.62,.31-.45,.41-1.05,.6-1.57-.2-.12-.39-.23-.59-.35-.85,1.09-1.71,2.18-2.68,3.42-.41-1.94-.52-3.58-1.11-5.01-1.14-2.74-2.39-5.46-3.89-8.02-2.84-4.85-5.85-9.61-8.87-14.36-4.22-6.63-8.56-13.19-12.78-19.82-2.8-4.38-5.52-8.82-8.22-13.26-.57-.94-.91-2.01-1.5-3.34,2.6,0,4.7-.04,6.79,0,6.17,.15,12.34,.22,18.5,.54,8.52,.44,16.99,.53,25.34-1.55,4.89-1.22,8.37-4.04,9.85-9.01,1.43-4.79,1.35-9.58,.41-14.48-2.44-12.75-6.52-24.83-13.74-35.73-1.01-1.53-1.84-3.18-3.04-5.28,5.24,1.22,9.87,2.32,14.51,3.38,6.73,1.53,13.46,3.13,20.22,4.49,3.01,.61,6.13,.64,9.18,1.07,6.01,.83,12.03,1.15,18.12,1.12,5.17-.03,9.87-1.11,14.23-3.88,.91-.58,2.05-.8,2.96-1.14,.4,.48,.6,.62,.65,.81,.13,.51,.19,1.04,.28,1.56,1.43,8.58,4.88,16.21,10.55,22.83,5.51,6.42,12.65,9.8,20.79,11.55,9.79,2.11,19.36,.92,28.55-2.39,8.08-2.91,15.85-6.68,23.7-10.22,2.83-1.28,5.47-2.98,8.91-4.88-1.28,2.93-2.29,5.12-3.19,7.35-2.55,6.3-4.87,12.71-7.63,18.91-2.92,6.56-5.15,13.29-6,20.41-1.36,11.3,.76,21.82,7.56,31.15,3.15,4.32,6.83,7.94,12.68,8.06,1.91,.04,3.83,0,5.74,0,5.42,.02,10.84,.03,16.26,.1,.61,0,1.22,.36,2.4,.73-1.34,.51-2,.79-2.69,1.01-11.79,3.87-20.1,11.6-25.28,22.79-2.89,6.24-4.52,12.81-4.78,19.69-.15,3.8,.44,7.52,2.68,10.64,4.05,5.62,9.14,10,15.81,12.41,4.85,1.75,9.8,2.76,14.92,3.12,.81,.06,1.92-.23,2.56,1.36-2.28,.06-4.27,.05-6.26,.19-3.17,.22-6.35,.48-9.51,.84-2.1,.24-4.17,.79-6.28,1-5.83,.59-11.54,1.72-17.03,3.78-4.29,1.62-5.71,3.61-5.65,8.18,.04,3.07,.43,6.13,.71,9.19,.6,6.69,.9,13.33-.74,19.97-.97,3.9-1.5,7.93-2.04,11.92-.61,4.41-.91,8.87-1.52,13.28-.84,6.1-1.79,12.18-2.79,18.25-.93,5.66-2.09,11.27-2.98,16.94-1.66,10.49-3.15,21-4.8,31.49-.82,5.24-1.98,10.43-2.71,15.68-1.66,11.98-2.45,24.09-5.06,35.95-1.39,6.32-2.44,12.71-3.79,19.04-.44,2.06-1.24,4.06-2.03,6.03-1.27,3.16-3.51,5.01-7.12,4.72,0,0,.15,.07,.15,.07-1.64-.87-3.27-1.75-4.91-2.62Z"/>
  <path d="M172.02,401.55c3.61,.29,5.85-1.56,7.12-4.72,.79-1.96,1.59-3.96,2.03-6.03,1.35-6.33,2.39-12.72,3.79-19.04,2.62-11.86,3.4-23.96,5.06-35.95,.73-5.25,1.89-10.44,2.71-15.68,1.64-10.49,3.14-21,4.8-31.49,.89-5.66,2.05-11.28,2.98-16.94,1-6.07,1.95-12.16,2.79-18.25,.61-4.41,.92-8.87,1.52-13.28,.55-3.99,1.08-8.02,2.04-11.92,1.64-6.64,1.34-13.28,.74-19.97-.27-3.06-.67-6.13-.71-9.19-.06-4.57,1.36-6.56,5.65-8.18,5.49-2.07,11.2-3.2,17.03-3.78,2.11-.21,4.18-.76,6.28-1,3.16-.36,6.33-.62,9.51-.84,1.98-.14,3.97-.13,6.26-.19-.65-1.59-1.76-1.3-2.56-1.36-5.12-.36-10.07-1.37-14.92-3.12-6.67-2.41-11.76-6.78-15.81-12.41-2.25-3.12-2.83-6.84-2.68-10.64,.27-6.88,1.89-13.45,4.78-19.69,5.18-11.18,13.49-18.92,25.28-22.79,.68-.22,1.35-.51,2.69-1.01-1.19-.37-1.79-.72-2.4-.73-5.42-.07-10.84-.08-16.26-.1-1.91,0-3.83,.03-5.74,0-5.85-.12-9.53-3.74-12.68-8.06-6.8-9.33-8.92-19.85-7.56-31.15,.86-7.12,3.08-13.85,6-20.41,2.76-6.21,5.08-12.61,7.63-18.91,.9-2.23,1.91-4.42,3.19-7.35-3.43,1.9-6.07,3.6-8.91,4.88-7.84,3.54-15.62,7.3-23.7,10.22-9.19,3.32-18.76,4.5-28.55,2.39-8.14-1.75-15.28-5.13-20.79-11.55-5.68-6.62-9.13-14.25-10.55-22.83-.09-.52-.15-1.05-.28-1.56-.05-.18-.25-.32-.65-.81-.91,.34-2.05,.56-2.96,1.14-4.36,2.77-9.05,3.85-14.23,3.88-6.08,.04-12.1-.28-18.12-1.12-3.05-.42-6.17-.46-9.18-1.07-6.77-1.36-13.49-2.96-20.22-4.49-4.64-1.05-9.27-2.16-14.51-3.38,1.2,2.1,2.03,3.75,3.04,5.28,7.22,10.9,11.29,22.98,13.74,35.73,.94,4.9,1.02,9.69-.41,14.48-1.48,4.97-4.96,7.79-9.85,9.01-8.35,2.08-16.82,1.99-25.34,1.55-6.16-.32-12.33-.39-18.5-.54-2.09-.05-4.19,0-6.79,0,.59,1.33,.93,2.41,1.5,3.34,2.7,4.44,5.42,8.88,8.22,13.26,4.23,6.63,8.56,13.19,12.78,19.82,3.02,4.75,6.03,9.51,8.87,14.36,1.5,2.56,2.75,5.28,3.89,8.02,.59,1.43,.7,3.07,1.11,5.01,.97-1.24,1.82-2.33,2.68-3.42,.2,.12,.39,.23,.59,.35-.2,.53-.29,1.12-.6,1.57-1.95,2.87-3.54,6.08-6.97,7.62-.45,.2-.84,.69-1.09,1.14-3.29,5.89-8.01,10.89-9.94,17.66-2.18,7.64-5.35,15-7.69,22.6-1.84,5.97-3.36,12.08-4.47,18.23-1.14,6.36-1.61,12.84-2.35,19.27-1.23,10.66-2.52,21.32-3.64,32-1.06,10.06-1.43,20.15,.1,30.2,.4,2.61,.99,5.27,2.02,7.68,.85,1.98,2.31,3.79,3.83,5.35,1.61,1.65,3.08,1.43,4.7-.2,2.41-2.42,3.67-5.52,4.45-8.7,1-4.12,1.63-8.34,2.18-12.54,.83-6.31,1.46-12.65,2.18-18.98,.61-5.38,1.04-10.78,1.88-16.12,1.78-11.22,3.46-22.48,5.81-33.59,1.37-6.5,3.88-12.77,6.06-19.08,.5-1.44,1.54-2.81,2.65-3.9,1.8-1.76,3.25-1.36,3.96,1.02,1.82,6.06,2.48,12.28,2.02,18.59-.73,10.1-3.07,19.91-5.27,29.77-1.96,8.8-3.25,17.77-3.55,26.82-.44,13.39-1.03,26.78-1.03,40.17,0,14.35,.91,28.67,3.23,42.88,.97,5.93,1.97,11.74,5.37,16.84-.76-.83-1.84-1.54-2.21-2.52-1.37-3.67-3-7.35-3.62-11.17-1.38-8.6-2.37-17.26-3.2-25.93-.47-4.96-.38-9.98-.41-14.98-.05-8.93-.17-17.86,.05-26.78,.27-10.83,.19-21.67,1.95-32.44,1.14-7.02,2.48-13.98,3.9-20.94,1.51-7.38,2.71-14.83,3.69-22.3,.69-5.3-.02-10.61-1.4-15.79-.27-.99-.74-1.93-1.34-3.44-1.15,1-2.18,1.58-2.72,2.46-.99,1.62-1.77,3.38-2.49,5.15-3.53,8.72-5.57,17.81-6.83,27.11-.47,3.47-1.35,6.88-1.87,10.35-1.14,7.56-2.19,15.13-3.23,22.7-.69,5.05-1.29,10.1-1.93,15.16-.8,6.32-1.62,12.63-2.4,18.95-.46,3.68-2.28,6.82-3.93,10.03-.47,.92-1.26,1.73-2.05,2.41-1.65,1.42-2.77,1.4-4.56,.11-3.11-2.24-4.58-5.49-5.59-9.03-2.27-7.97-2.45-16.13-2.37-24.33,.07-8.53,1.47-16.93,2.5-25.37,.82-6.75,1.33-13.53,2.19-20.28,1.19-9.26,1.84-18.63,4.39-27.67,2.1-7.45,4.47-14.83,6.82-22.2,1.06-3.34,2.29-6.63,3.54-9.9,1.29-3.37,2.48-6.78,5.17-9.42,.89-.87,1.48-2.08,2.11-3.18,1.65-2.87,3.14-5.87,6.44-6.72,1.19-8.26-2.94-14.45-6.78-20.64-5.16-8.31-10.62-16.43-15.89-24.67-4.18-6.53-8.25-13.13-12.41-19.67-.67-1.05-1.59-1.93-2.67-3.22,.97-.22,1.62-.5,2.26-.48,10.2,.35,20.41,.77,30.61,1.11,6.82,.23,13.6,.1,20.29-1.6,6.24-1.59,9.35-4.96,10.31-11.39,.51-3.42,.21-6.75-.34-10.13-1.61-9.83-4.53-19.27-9.05-28.12-2.83-5.54-5.72-11.19-10.86-15.16-.21-.16-.25-.53-.51-1.09,.74-.05,1.33-.23,1.84-.1,6.59,1.66,13.16,3.37,19.74,5.06,4.12,1.06,8.21,2.23,12.36,3.12,3.21,.69,6.49,1.12,9.75,1.52,4.43,.55,8.87,1.17,13.32,1.38,4.77,.23,9.57,.15,14.34-.05,1.75-.07,3.51-.76,5.19-1.35,2.19-.77,4.37-1.62,6.45-2.66,.93-.47,1.59-1.49,2.46-2.36,1.13-.13,1.23,.77,1.22,1.64-.11,7.41,2.78,14.06,6.33,20.15,4.94,8.48,12.56,13.85,22.37,16.08,9.44,2.15,18.6,1.22,27.69-1.56,10.42-3.19,20.14-8.04,29.73-13.1,3.3-1.74,6.75-3.66,8.76-7.17,.53-.93,1.38-1.22,2.58-.56-.21,.51-.28,1.07-.6,1.42-4.04,4.54-6.35,10.07-8.62,15.55-3.7,8.93-7.34,17.9-10.47,27.03-2.99,8.7-3.41,17.71-.99,26.71,1.83,6.82,5.2,12.77,10.39,17.63,2.52,2.36,5.7,2.79,8.89,2.86,6.17,.14,12.34-.02,18.5,.09,3.08,.05,6.15,.52,9.22,.58,1.96,.04,3.94-.32,6-.51,.03,1.71-1.04,1.73-1.94,1.77-5.84,.29-11.25,2.14-16.41,4.74-7.3,3.68-13.12,8.99-17.19,16.11-2.87,5.01-5.23,10.31-6.03,16.03-.55,3.95-.55,8.07-.11,12.04,.52,4.72,4.02,7.9,7.36,10.84,5.94,5.24,13.17,7.57,20.92,8.54,2.42,.3,4.84,.67,7.24,1.09,.68,.12,1.3,.55,2.42,1.04-.84,.67-1.3,1.34-1.86,1.43-2.5,.42-5.04,1.01-7.54,.92-3.88-.14-7.61,.32-11.37,1.17-2.99,.67-6.07,.95-9.13,1.22-4.72,.41-9.16,1.81-13.48,3.59-2.66,1.09-4.13,3.32-3.93,6.34,.26,3.81,.52,7.63,.89,11.43,.62,6.3,.12,12.45-1.23,18.66-1.3,6-1.82,12.17-2.74,18.26-1.57,10.39-3.13,20.79-4.78,31.17-1.5,9.43-3.15,18.84-4.67,28.26-1.9,11.85-3.8,23.7-5.57,35.56-.83,5.57-1.08,11.23-2.07,16.76-2.02,11.29-4.27,22.54-6.64,33.76-.49,2.32-1.69,4.59-2.96,6.64-1.67,2.68-3.5,3.11-6.49,2.15Z"/>
  <path d="M106.91,422.59c2.83,2.33,3.76,2.2,5.66-.88,2.64-4.28,4.29-8.97,5.92-13.7,2.83-8.2,4.04-16.72,4.92-25.26,.82-7.92,1.15-15.9,1.48-23.86,.54-12.85,.88-25.7,1.36-38.56,.08-2.11,.48-4.22,.72-6.33,1.66-14.82,1.35-29.72,1.93-44.59,.24-6.13,1.05-12.26,1.81-18.36,.9-7.16,2.01-14.3,3.06-21.44,1.14-7.76,2.22-15.54,3.49-23.28,.49-3.01,1.24-6.02,2.23-8.91,.86-2.5,2.61-3.04,5.09-2.13,2.3,.84,3.99,2.31,5.11,4.53,2.89,5.72,4.87,11.75,6.32,17.97,2.35,10.12,2.73,20.4,2.21,30.71-.49,9.65-1.47,19.27-2.11,28.91-.47,7.1-.71,14.22-1.1,21.33-.44,7.95-.96,15.9-1.38,23.86-.24,4.56-.32,9.13-.52,13.69-.43,9.58,.16,19.09,1.5,28.6,1.05,7.51,2.51,14.9,5.21,21.94,1.39,3.63,3.72,6.89,5.63,10.32-2.21-.82-3-2.92-4.06-4.69-3.21-5.36-4.78-11.37-6.23-17.33-2.45-10.04-3.63-20.34-3.57-30.65,.07-11.14,.93-22.28,1.43-33.42,.32-7.21,.5-14.43,.96-21.64,.49-7.74,1.31-15.46,1.85-23.2,.56-7.95,1.27-15.91,1.34-23.87,.09-9.46-.58-18.92-3.17-28.09-1.4-4.99-2.83-9.99-5.38-14.59-.88-1.59-2.15-2.61-3.7-3.36-2.27-1.1-4.3-.32-5.03,2.14-.69,2.33-1.4,4.75-1.46,7.14-.19,7.38-2.13,14.49-3.13,21.73-.87,6.31-1.9,12.6-2.8,18.91-.56,3.89-1.19,7.78-1.47,11.69-.54,7.52-.94,15.06-1.23,22.59-.33,8.39-.43,16.8-.73,25.19-.09,2.65-.45,5.3-.8,7.93-1.42,10.78-1.44,21.63-1.83,32.46-.4,10.94-.86,21.88-1.7,32.79-.54,6.97-1.48,13.95-2.87,20.8-1.01,4.96-2.93,9.74-4.67,14.53-.94,2.58-2.33,4.99-3.55,7.47-.28,.57-.64,1.1-1.02,1.62-2.16,2.98-4.14,2.73-5.74-.72Z"/>
  <path d="M60.94,344.85c.4-2.3,.81-4.59,1.19-6.89,1.41-8.7,2.75-17.41,4.22-26.11,1.95-11.57,2.23-23.26,2.59-34.95,.28-8.92,.62-17.83,1.01-26.74,.43-9.81,2-19.46,4.69-28.89,1.34-4.68,3.36-9.16,4.97-13.77,1.82-5.2,3.54-10.44,5.28-15.68,.5-1.51,.79-3.1,1.4-4.57,.33-.78,1.07-1.84,1.73-1.92,.69-.08,1.69,.71,2.22,1.38,.78,.98,1.34,2.16,1.88,3.31,3.32,7.04,4.75,14.56,5.12,22.23,.41,8.48,.8,16.99-.64,25.43-.88,5.13-1.91,10.23-2.86,15.34-1.8,9.71-3.98,19.38-5.27,29.16-1.09,8.3-1.47,16.73-1.58,25.11-.16,12.53-.12,25.09,.41,37.61,.58,13.71,2.53,27.28,5.54,40.71,2.82,12.57,8.27,24.04,13.56,35.62,.22,.48,.41,.98,.61,1.46-2.92-2.72-3.79-6.58-5.44-9.98-2.13-4.39-3.82-8.98-5.7-13.49-3.54-8.5-5.13-17.47-6.72-26.48-1.48-8.38-2.23-16.84-2.9-25.29-.49-6.24-.49-12.51-.63-18.77-.12-5.74-.31-11.48-.15-17.21,.22-7.96,.51-15.92,1.2-23.85,.62-7.07,1.63-14.12,2.83-21.12,1.22-7.1,2.94-14.12,4.37-21.19,3.23-15.91,3.56-31.84-.21-47.71-.7-2.95-2.11-5.75-3.32-8.57-.39-.91-1.18-1.66-2.17-3-.87,2.08-1.78,3.54-2.11,5.12-1.83,8.91-6.08,16.98-8.71,25.59-2.01,6.58-3.73,13.28-4.98,20.04-1.99,10.79-1.65,21.79-2.09,32.72-.38,9.34-.49,18.7-1.28,28-.71,8.35-2.04,16.66-3.33,24.94-.99,6.39-2.32,12.74-3.56,19.09-.22,1.13-.77,2.19-1.17,3.28Z"/>
  <path d="M49.74,358.79c5.36-.19,7.02-4.46,8.98-8.29,.95-1.84,1.54-3.87,2.29-5.81-.46,4.7-2.5,8.76-5.48,12.26-1.37,1.61-3.2,3.32-5.79,1.84Z"/>
  <path d="M167.26,399c1.64,.87,3.27,1.75,4.91,2.62-1.64-.87-3.27-1.75-4.91-2.62Z"/>
</svg>