<?xml version="1.0" encoding="UTF-8"?>
<svg id="image" xmlns="http://www.w3.org/2000/svg" viewBox="0 0 348.96 425.2">
  <path d="M327.45,168.49c3.03-4.24,7.05-7.79,10.68-11.58,3.71-3.87,7.67-7.5,9.82-12.64,1.39-3.32,.85-6.4-.43-9.47-.33-.79-1.17-1.53-1.96-1.93-3.63-1.84-7.44-3.12-11.58-2.37-4.66,.84-9.35,1.65-13.94,2.83-7.45,1.92-14.83,4.12-22.24,6.23-1.27,.36-2.4,.63-3.5-.48-4.27-4.32-9.55-5.92-15.53-5.69-1.69,.07-3.46,.35-5.48-.24,2.88-3.75,5.56-7.16,9.28-9.45,4.85-2.98,9.66-6.11,14.8-8.5,8.41-3.9,17.09-7.25,25.64-10.85,4.48-1.89,8.92-3.88,12.44-7.39,2.45-2.44,2.71-4,1.22-7.09-1.93-3.99-5.18-6.81-8.47-9.63-8.05-6.91-17.17-11.77-27.3-14.85-10.98-3.34-21.15-1.16-30.57,4.75-7.54,4.73-13.74,11.13-19.9,17.52-4.31,4.48-8.78,8.81-13.29,13.08-2.3,2.17-5.12,3.65-8.32,4.2-2.4,.41-4.65-1.01-5.35-3.34-.58-1.95-.76-4.18-.47-6.19,1.43-10.04,6.45-18.43,12.98-25.89,3.8-4.35,8.15-8.23,12.38-12.18,3.48-3.25,6.99-6.44,9.65-10.42,2.69-4.01,4.62-8.31,1.99-12.99-1.52-2.71-3.4-5.44-5.75-7.42-10.28-8.68-22.45-12.63-35.77-13.46-6.8-.42-13.5,.44-20.15,1.58-7.74,1.33-13.68,5.65-18.3,11.82-.61,.81-1.33,2.3-1.56,3.29-.9,3.89-.09,7.69,.83,11.46,1.07,4.4,2.26,8.77,3.19,13.19,.77,3.67,.29,7.37-.49,10.99-.55,2.53-2.59,3.42-4.82,2.14-1.15-.66-2.27-1.63-2.99-2.73-3.97-6.09-7.94-12.19-11.64-18.44-2.3-3.89-4.29-7.99-6.13-12.11-2.51-5.62-3.53-11.68-4.68-17.69-.74-3.85-1.73-7.55-3.61-11.06-1.39-2.58-3.29-4.24-6.04-4.54-3.12-.34-6.41-.73-9.42-.12-8.59,1.75-16.25,5.87-23.54,10.59-3.72,2.41-3.97,4.14-2.61,8.34,1.25,3.87,3.63,6.93,6.25,9.83-1.52,.78-3.42,1.87-4,1.97-3.12,.53-6.24,1.04-9.34,1.66-3.82,.77-7.65,1.54-11.41,2.52-4.69,1.22-8.25,4.14-11.1,7.97-2.78,3.74-2.77,8.72,.08,12.33,3.42,4.32,7.36,8.09,11.75,11.44,4.69,3.58,9.23,7.36,13.76,11.14,4.31,3.6,3.89,9.74,1.43,13.57-2.58,4.01-5.9,7.49-9.97,10.03-5.54,3.46-11.3,6.58-16.85,10.04-4.65,2.89-9.24,5.9-13.65,9.14-3.56,2.62-6.9,5.58-9.12,9.55-1.69,3.01-1.3,5.94,1.19,8.29,3.41,3.22,7.46,5.46,11.57,7.65,2.34,1.25,4.57,2.78,6.68,4.41,1.67,1.3,2.26,3.56,1.44,5.51-.96,2.29-2.68,3.89-4.66,5.27-1.82,1.26-3.69,2.45-5.51,3.7-6.43,4.4-12.81,8.88-19.3,13.21-7.98,5.32-16.13,10.4-24.04,15.82-6.18,4.23-11.82,9.15-16.66,14.9-4.41,5.25-7.04,11.87-6.78,18.72,.51,13.35,9.9,23.48,21.61,28.07,6.73,2.64,13.97,3.08,21.15,3.52,4.96,.3,9.91,.72,14.57,2.61,3.02,1.23,3.38,2.27,2.48,5.43-.91,3.21-2.88,5.8-4.64,8.56-5.67,8.91-10.45,18.32-14.42,28.11-2.17,5.35-3,10.99-2.55,16.76,.28,3.61,2.05,6.3,5.5,7.82,3.41,1.51,6.9,2.54,10.66,2.74,4.64,.24,9.27,.57,13.9,.93,4.1,.32,8.16,.87,11.96,2.65,4,1.87,5.31,4.51,4,8.7-.53,1.7-1.1,3.46-2.03,4.95-3.39,5.46-6.98,10.8-10.42,16.23-3.83,6.05-7.82,12.02-11.33,18.25-6.17,10.94-2.43,21.4,6.01,28.63,8.45,7.24,18.38,11.4,29.6,12.27,7.29,.57,14.56,.89,21.72-1.06,3.15-.86,6.27-1.8,9.43-2.59,5.57-1.39,10.73-3.74,15.7-6.56,.45-.25,.71-.84,1.12-1.35-1.1-.38-2.15-.75-3.19-1.12-2.82-.99-3.9-4.48-2.04-6.83,.83-1.05,1.77-1.99,2.77-2.9,6-5.47,13.08-9.24,20.32-12.69,6.38-3.03,13-5.57,19.36-8.64,11.99-5.8,23.36-12.66,33.61-21.21,2.49-2.08,4.7-4.53,6.81-7.01,4.09-4.83,4.23-10.09,1.35-15.6-1.81-3.45-3.48-6.98-5.27-10.45-1.33-2.6-1.95-5.38-1.83-8.25,.17-4.14,2.67-8.46,7.92-7.68,.83,.12,1.72,.11,2.49,.41,4.97,1.96,9.37,4.48,14.19,6.77,8.46,4.01,12.83,7.68,21.2,11.88,1,.5,6.61,.84,8.29,.11-2.36-1.3-4.29-2.32-6.17-3.4-3.13-1.79-6.08-3.79-8.23-6.79-3.04-4.24-2.8-8.94,.81-12.63,3.53-3.6,7.6-6.46,12.55-7.6,7.17-1.66,14.41-3.03,21.64-4.46,6.72-1.33,13.5-2.41,20.18-3.93,3.26-.74,6.41-2.1,9.49-3.46,2.36-1.03,2.42-2.67,.47-4.41-.23-.21-.52-.37-.77-.55-6.87-5.07-13.64-10.26-20.63-15.16-5.63-3.94-8.76-9.2-9.84-15.9-.63-3.92,.15-7.39,2.96-10.17,2.01-1.99,4.11-4.1,6.57-5.36,6.27-3.21,12.71-6.08,19.17-8.9,5.69-2.48,11.58-4.54,17.23-7.11,2.4-1.09,4.62-2.72,6.69-4.41,3.33-2.72,3.94-7.58,1.34-11.01-2.01-2.64-4.7-4.43-7.41-6.22-3.42-2.27-6.95-4.39-10.2-6.89-3.3-2.54-4.76-6.19-3.2-10.14,1.77-4.48,3.75-9.03,6.52-12.91Z"/>
</svg>