<?xml version="1.0" encoding="UTF-8"?>
<svg id="image" xmlns="http://www.w3.org/2000/svg" viewBox="0 0 425.2 425.2">
  <path d="M54.04,328.58l-.11-.1c.74,.74,1.41,1.57,2.22,2.19,4.29,3.33,8.61,6.62,12.94,9.9,4.91,3.72,9.75,7.54,14.76,11.1,7.15,5.07,14.2,10.26,20.55,16.44,1.87,1.82,3.68,3.7,5.52,5.55,0,0-.11-.12-.11-.12,.25,.46,.44,.97,.75,1.38,2.22,2.97,4.46,5.91,6.69,8.87,.09,.08,.17,.15,.25,.24,1.77,2.86,3.53,5.73,5.3,8.59,0,0-.09-.14-.09-.14,.38,.89,.77,1.77,1.14,2.66,1.68,4.04,4.19,7.72,4.65,12.31,.07,.66,.94,1.22,1.54,1.94,1.98-2.68,4.41-3.82,7.26-4.13,2.64-.29,5.31-.46,7.88-1.1,9.15-2.26,18.45-2.17,27.74-2.07,2.33,.03,4.66,.72,6.99,.8,10.13,.34,20.16,1.65,30.16,3.29,1.11,.18,2.21,.42,3.31,.63,7.03,1.35,14.08,2.65,21.1,4.06,5.91,1.19,11.8,2.51,17.7,3.76,5.21,1.1,10.46,2.01,15.61,3.34,3.38,.87,6.65,2.29,8.24,6.11,.19,.47,.79,.74,1.44,1.3,.19-.76,.38-1.15,.37-1.53-.09-2.27-.35-4.53-.31-6.79,.07-5.2,.29-10.41,.43-15.61,.21-7.29,.81-14.54,2.09-21.71,1.49-8.32,2.72-16.7,4.94-24.85,2.3-8.43,4.47-16.91,7.06-25.24,2.34-7.52,5.73-14.57,9.94-21.15,3.31-5.17,6.29-10.59,9.66-15.71,2.56-3.89,5.43-7.55,8.28-11.2,4.03-5.15,7.98-10.4,12.34-15.23,4.64-5.16,9.63-9.98,14.61-14.77,6.8-6.53,13.59-13.09,20.67-19.26,5.75-5.01,11.91-9.49,17.9-14.19,.66-.51,1.37-.97,2.1-1.34,5.07-2.55,10.08-5.25,15.26-7.54,6.31-2.79,12.69-5.42,19.43-6.86,.81-.17,1.59-.55,2.38-.83-.02-.27-.04-.53-.06-.8-.73-.08-1.47-.29-2.19-.22-1.12,.11-2.21,.47-3.32,.6-8.66,1.02-17.1,3.08-25.51,5.47-3.43,.97-7.03,1.77-10.54,1.74-5.27-.04-9.21-1.66-11.24-8.89-1-3.55-1.03-7-.43-10.6,.88-5.32,1.55-10.7,3.23-15.81,.93-2.84,2.33-5.5,3.53-8.24,.52-1.18,.91-2.47,1.64-3.48,4.24-5.84,8.74-11.36,14.46-15.77,4.99-3.85,10.16-7.24,15.63-10.2,2.18-1.18,4.31-2.52,6.35-3.96,1.11-.78,2.39-1.74,1.54-3.82-.66,.34-1.27,.51-1.69,.91-6.12,5.7-13.57,8.37-21.28,10.27-8.48,2.1-17.06,3.7-25.83,2.96-4.51-.38-8.9-1.3-12.54-4.57-3.93-3.53-6.63-7.93-8.29-13.06-2.43-7.54-3.94-15.29-4.6-23.24-1.15-13.81,.45-27.05,6.66-39.49,4.39-8.8,10.36-16.08,17.68-22.2,1.87-1.56,3.77-3.09,5.65-4.63-.11-.27-.21-.53-.32-.8-1.23,.23-2.53,.27-3.68,.73-4.4,1.74-8.74,3.67-13.13,5.44-9.45,3.82-18.95,7.51-28.36,11.43-5.8,2.41-11.43,5.25-17.21,7.71-6.19,2.63-12.51,4.75-19.34,4.36-2.41-.14-4.77-.45-6.71-1.94-2.21-1.71-4.63-3.42-6.19-5.72-6.81-10.05-11.41-21.32-14.66-33.15-1.15-4.2-1.94-8.71-1.2-13.2,.33-2,1.1-3.91,1.59-5.89,.3-1.22,1.46-2.51-.07-3.79-.43,.22-.85,.34-1.15,.61-.87,.76-1.76,1.51-2.52,2.38-7.5,8.57-16.07,15.76-25.25,22.15-10.77,7.51-21.7,14.76-33.44,20.48-9.14,4.46-18.56,7.94-28.61,9.25-11.36,1.47-22.52,.31-33.28-3.65-10.68-3.94-20.52-9.6-29.04-17.78-6.62-6.35-10.99-13.88-12.71-23.18-.18-.95-.66-1.83-1.01-2.74-.25,.04-.49,.08-.74,.12-.25,1.45-.58,2.89-.72,4.35-.66,7.02-.81,14.13-2.95,20.91-1.91,6.08-3.77,12.18-5.97,18.15-3.31,9-6.92,17.88-10.35,26.84-1.69,4.42-3.19,8.93-4.88,13.35-1.27,3.32-2.61,6.61-4.08,9.83-.92,2-1.71,2.22-3.76,1.27-1.4-.65-2.74-1.47-4.03-2.34-6.81-4.61-13.72-9.08-20.37-13.94-8.34-6.1-17.68-10.5-25.62-17.27-.43-.36-1.2-.27-2.23-.47,.53,1.28,.84,2.07,1.19,2.83,4.16,8.97,8.31,17.94,10.74,27.66,.58,2.3,1.13,4.61,1.78,6.89,2.97,10.39,6.06,20.74,8.92,31.16,1.45,5.26,1.62,10.68,1.19,16.16-.3,3.81-.86,7.61,.24,11.51,.75,2.64,.7,5.6,.7,8.41,0,5.21-.15,10.43-.37,15.64-.6,13.79-1.19,27.58-1.96,41.36-.72,12.87-6.12,23.96-12.15,34.77-2.08,3.73-4.05,7.52-6.13,11.25-.56,1-1.14,2.16-2.02,2.75-2.94,1.96-5.95,3.82-9.06,5.45-1.25,.66-2.81,.63-4.23,.92-.13,.22-.26,.45-.39,.67,.59,.4,1.19,.78,1.77,1.2,3.13,2.25,6.23,4.55,9.4,6.75,1.35,.94,2.83,1.67,4.25,2.5,0,0-.12-.1-.12-.1,.3,.41,.55,.9,.92,1.22,9.9,8.45,19.8,16.9,29.75,25.29,2.62,2.21,5.41,4.18,8.12,6.26Z"/>
  <path d="M117.5,384.01c-.08-.08-.16-.16-.25-.24-.16-.62-.16-1.38-.51-1.82-2.27-2.85-4.61-5.62-6.93-8.42,0,0,.11,.12,.11,.12-.11-.3-.15-.66-.34-.89-4.43-5.6-9.76-10.17-15.2-14.55-3.65-2.94-7.65-5.39-11.4-8.19-7.43-5.54-14.79-11.2-22.2-16.76-2.23-1.67-4.56-3.19-6.84-4.78,0,0,.11,.1,.11,.1-.54-.62-1.01-1.33-1.62-1.85-10.98-9.28-21.97-18.55-32.97-27.79-1.34-1.12-2.79-2.09-4.2-3.13,0,0,.12,.1,.12,.1-.83-.78-1.6-1.64-2.5-2.31-2.43-1.81-4.92-3.52-7.37-5.31-.63-.46-1.15-1.08-1.91-1.8,3.2-1.95,6.08-3.8,9.05-5.47,2.01-1.12,3.38-2.68,4.24-4.91,.77-2,1.73-3.93,2.75-5.81,2.31-4.23,4.81-8.35,7.05-12.62,3.77-7.18,6.53-14.85,7.4-23.02,1.08-10.14,1.63-20.35,2.26-30.54,.37-5.97,.55-11.95,.59-17.93,.05-6.73-.17-13.46-.26-20.19-.03-2.15,0-4.31-.03-6.46-.09-5.95,.79-11.94-.44-17.86-.68-3.27-1.31-6.56-2.14-9.79-1.15-4.5-2.44-8.96-3.73-13.42-1.35-4.67-2.84-9.29-4.16-13.98-1.17-4.16-1.89-8.5-3.34-12.54-2.15-5.97-4.77-11.75-7.19-17.61-.34-.83-.67-1.66-1.09-2.69,.58,.12,.8,.1,.95,.2,7.34,4.9,14.68,9.8,22.01,14.73,6.22,4.18,12.4,8.41,18.64,12.56,2.51,1.67,5.04,3.33,7.7,4.68,2.15,1.1,3.47,.49,4.56-1.71,1.05-2.11,2.13-4.24,2.88-6.49,2.24-6.76,4.65-13.43,7.3-20.03,4.18-10.38,7.89-20.98,11.85-31.46,3.22-8.52,5.4-17.29,5.84-26.51,.06-1.29,.05-2.7,.91-3.97,1.31,3.09,2.35,6.04,3.75,8.78,4.74,9.28,12.24,15.65,20.52,20.96,9.43,6.05,19.54,10.3,30.52,12.18,9.11,1.56,18.12,1.39,27.13-.45,6.75-1.38,13.28-3.58,19.46-6.78,7.07-3.66,14.13-7.35,21.01-11.4,5.17-3.05,10.07-6.64,15.04-10.08,7.63-5.29,15.05-10.86,21.57-17.69,1.53-1.61,3.22-3.05,5.2-4.91-1.05,7.69-.7,14.66,1.58,21.26,2.43,7.02,5.22,13.93,8.31,20.65,2.46,5.34,5.22,10.6,9.76,14.46,2.53,2.15,5.19,3.81,8.47,4.2,3.79,.45,7.61,.54,11.25-.68,5.16-1.72,10.27-3.64,15.29-5.79,6.64-2.83,13.11-6.12,19.76-8.92,9.58-4.04,19.26-7.84,28.9-11.71,.59-.24,1.27-.26,1.97-.39-1.23,1.41-2.22,2.82-3.45,3.92-7.26,6.51-12.56,14.57-16.32,23.74-3.42,8.35-5.02,17.1-5.04,26.32-.03,12.67,1.61,24.93,6.31,36.6,3.48,8.64,9.63,13.86,18.51,15.11,7.28,1.03,14.48,.11,21.65-1.23,3.53-.66,7.01-1.57,10.51-2.36-3.22,3.21-6.64,5.94-9.91,8.85-3.53,3.15-6.69,6.7-9.24,10.84-4.42,7.17-7.49,14.88-8.8,23.39-.71,4.62-1.57,9.2-1.23,13.92,.47,6.49,4.18,12.51,10.62,13.18,2.7,.28,5.55,.53,8.17-.05,6-1.33,11.89-3.2,17.82-4.83,.72-.2,1.47-.31,2.2-.46-.32,.84-.77,1.26-1.29,1.48-1.61,.68-3.27,1.25-4.88,1.94-6.53,2.82-13.06,5.65-18.91,9.96-9.51,7.01-18.33,14.94-27,23.06-8.13,7.62-16.28,15.21-23.74,23.59-3.23,3.63-6.61,7.13-9.63,10.96-5.97,7.57-11.54,15.47-16.77,23.67-4.48,7.03-8.9,14.11-12.1,21.86-2.75,6.65-4.91,13.59-7.03,20.5-3.49,11.39-5.88,23.08-7.76,34.87-1.11,6.95-1.91,13.97-2.46,21-.5,6.39-.44,12.82-.67,19.23-.04,1.14-.27,2.27-.49,4.02-5.44-3.87-11.3-4.33-16.99-5.45-1.31-.26-2.62-.47-3.92-.75-7.9-1.72-15.78-3.57-23.71-5.17-7.52-1.52-15.08-2.88-22.64-4.16-4.63-.78-9.3-1.36-13.97-1.87-5.39-.58-10.78-1.13-16.19-1.42-6.42-.35-12.87-.64-19.29-.54-4.06,.07-8.12,.87-12.17,1.4-2.53,.33-5.04,.83-7.56,1.18-3.1,.44-6.33,.25-9.32,2.67-.67-1.34-1.26-2.41-1.77-3.53-1.63-3.59-2.72-7.5-5.53-10.38,0,0,.09,.14,.09,.14-.88-3.48-2.61-6.37-5.3-8.59Z"/>
  <path d="M122.71,392.47c2.81,2.88,3.89,6.79,5.53,10.38,.51,1.12,1.09,2.19,1.77,3.53,2.99-2.41,6.22-2.23,9.32-2.67,2.53-.36,5.03-.85,7.56-1.18,4.05-.54,8.11-1.34,12.17-1.4,6.43-.1,12.87,.18,19.29,.54,5.41,.3,10.8,.84,16.19,1.42,4.67,.5,9.33,1.08,13.97,1.87,7.56,1.28,15.12,2.64,22.64,4.16,7.92,1.6,15.8,3.44,23.71,5.17,1.3,.28,2.62,.5,3.92,.75,5.69,1.12,11.55,1.58,16.99,5.45,.22-1.76,.45-2.89,.49-4.02,.23-6.41,.17-12.85,.67-19.23,.55-7.03,1.35-14.05,2.46-21,1.89-11.79,4.28-23.49,7.76-34.87,2.12-6.92,4.28-13.86,7.03-20.5,3.21-7.76,7.62-14.83,12.1-21.86,5.22-8.2,10.8-16.09,16.77-23.67,3.02-3.83,6.4-7.33,9.63-10.96,7.46-8.38,15.61-15.97,23.74-23.59,8.67-8.12,17.49-16.05,27-23.06,5.85-4.32,12.38-7.14,18.91-9.96,1.61-.69,3.26-1.26,4.88-1.94,.52-.22,.98-.64,1.29-1.48-.73,.15-1.48,.26-2.2,.46-5.94,1.63-11.83,3.49-17.82,4.83-2.62,.58-5.46,.33-8.17,.05-6.44-.68-10.16-6.7-10.62-13.18-.34-4.72,.52-9.29,1.23-13.92,1.31-8.51,4.38-16.22,8.8-23.39,2.55-4.14,5.7-7.68,9.24-10.84,3.27-2.92,6.69-5.64,9.91-8.85-3.5,.8-6.99,1.7-10.51,2.36-7.16,1.34-14.36,2.26-21.65,1.23-8.88-1.25-15.04-6.47-18.51-15.11-4.7-11.66-6.33-23.93-6.31-36.6,.02-9.21,1.61-17.97,5.04-26.32,3.76-9.17,9.06-17.23,16.32-23.74,1.23-1.1,2.22-2.51,3.45-3.92-.7,.13-1.38,.15-1.97,.39-9.64,3.88-19.32,7.67-28.9,11.71-6.65,2.81-13.12,6.09-19.76,8.92-5.02,2.14-10.13,4.06-15.29,5.79-3.64,1.21-7.46,1.13-11.25,.68-3.28-.39-5.94-2.05-8.47-4.2-4.54-3.86-7.3-9.12-9.76-14.46-3.09-6.72-5.88-13.63-8.31-20.65-2.28-6.6-2.63-13.57-1.58-21.26-1.98,1.86-3.66,3.3-5.2,4.91-6.52,6.83-13.94,12.4-21.57,17.69-4.97,3.44-9.87,7.03-15.04,10.08-6.87,4.05-13.94,7.75-21.01,11.4-6.18,3.2-12.71,5.4-19.46,6.78-9.01,1.84-18.02,2.01-27.13,.45-10.98-1.88-21.09-6.13-30.52-12.18-8.28-5.32-15.78-11.68-20.52-20.96-1.4-2.74-2.44-5.69-3.75-8.78-.86,1.26-.85,2.68-.91,3.97-.44,9.22-2.62,17.98-5.84,26.51-3.96,10.48-7.67,21.08-11.85,31.46-2.66,6.6-5.06,13.27-7.3,20.03-.75,2.24-1.83,4.38-2.88,6.49-1.1,2.2-2.41,2.8-4.56,1.71-2.66-1.36-5.19-3.02-7.7-4.68-6.24-4.15-12.42-8.38-18.64-12.56-7.33-4.92-14.67-9.82-22.01-14.73-.15-.1-.37-.08-.95-.2,.42,1.03,.75,1.86,1.09,2.69,2.42,5.86,5.04,11.64,7.19,17.61,1.45,4.04,2.17,8.38,3.34,12.54,1.32,4.68,2.81,9.31,4.16,13.98,1.29,4.46,2.57,8.92,3.73,13.42,.83,3.23,1.46,6.52,2.14,9.79,1.23,5.92,.35,11.9,.44,17.86,.03,2.15,0,4.31,.03,6.46,.09,6.73,.3,13.46,.26,20.19-.04,5.98-.22,11.96-.59,17.93-.62,10.19-1.18,20.4-2.26,30.54-.87,8.17-3.62,15.83-7.4,23.02-2.24,4.27-4.74,8.39-7.05,12.62-1.02,1.87-1.97,3.81-2.75,5.81-.86,2.24-2.23,3.79-4.24,4.91-2.97,1.66-5.85,3.52-9.05,5.47,.76,.72,1.28,1.34,1.91,1.8,2.44,1.79,4.94,3.5,7.37,5.31,.9,.67,1.67,1.54,2.5,2.31-1.42-.83-2.9-1.56-4.25-2.5-3.16-2.2-6.27-4.5-9.4-6.75-.58-.42-1.18-.8-1.77-1.2,.13-.22,.26-.45,.39-.67,1.42-.29,2.98-.26,4.23-.92,3.11-1.64,6.12-3.49,9.06-5.45,.87-.58,1.46-1.75,2.02-2.75,2.08-3.73,4.05-7.52,6.13-11.25,6.02-10.81,11.43-21.9,12.15-34.77,.77-13.78,1.36-27.57,1.96-41.36,.23-5.21,.37-10.43,.37-15.64,0-2.81,.05-5.77-.7-8.41-1.1-3.9-.54-7.7-.24-11.51,.43-5.48,.26-10.9-1.19-16.16-2.87-10.42-5.95-20.77-8.92-31.16-.65-2.28-1.21-4.59-1.78-6.89-2.43-9.73-6.58-18.7-10.74-27.66-.35-.76-.66-1.56-1.19-2.83,1.03,.2,1.81,.1,2.23,.47,7.94,6.77,17.28,11.17,25.62,17.27,6.65,4.86,13.55,9.33,20.37,13.94,1.29,.87,2.63,1.69,4.03,2.34,2.05,.95,2.84,.74,3.76-1.27,1.48-3.22,2.82-6.51,4.08-9.83,1.69-4.42,3.19-8.93,4.88-13.35,3.42-8.96,7.04-17.83,10.35-26.84,2.19-5.96,4.05-12.07,5.97-18.15,2.13-6.78,2.29-13.88,2.95-20.91,.14-1.46,.48-2.9,.72-4.35,.25-.04,.49-.08,.74-.12,.34,.91,.83,1.8,1.01,2.74,1.72,9.3,6.09,16.83,12.71,23.18,8.52,8.17,18.36,13.84,29.04,17.78,10.75,3.96,21.92,5.13,33.28,3.65,10.05-1.3,19.47-4.79,28.61-9.25,11.74-5.72,22.66-12.98,33.44-20.48,9.17-6.39,17.75-13.58,25.25-22.15,.76-.87,1.65-1.62,2.52-2.38,.3-.27,.72-.39,1.15-.61,1.53,1.28,.37,2.57,.07,3.79-.49,1.98-1.26,3.89-1.59,5.89-.73,4.49,.05,8.99,1.2,13.2,3.24,11.83,7.85,23.1,14.66,33.15,1.56,2.3,3.98,4.01,6.19,5.72,1.94,1.5,4.3,1.81,6.71,1.94,6.83,.39,13.15-1.73,19.34-4.36,5.78-2.46,11.42-5.3,17.21-7.71,9.41-3.92,18.91-7.6,28.36-11.43,4.39-1.78,8.73-3.7,13.13-5.44,1.15-.46,2.45-.5,3.68-.73,.11,.27,.21,.53,.32,.8-1.89,1.54-3.78,3.07-5.65,4.63-7.32,6.12-13.29,13.39-17.68,22.2-6.21,12.44-7.81,25.68-6.66,39.49,.66,7.95,2.18,15.7,4.6,23.24,1.65,5.13,4.36,9.52,8.29,13.06,3.64,3.27,8.03,4.19,12.54,4.57,8.77,.74,17.35-.87,25.83-2.96,7.71-1.91,15.15-4.57,21.28-10.27,.43-.4,1.04-.57,1.69-.91,.85,2.08-.43,3.04-1.54,3.82-2.04,1.44-4.16,2.78-6.35,3.96-5.47,2.95-10.64,6.35-15.63,10.2-5.72,4.41-10.22,9.93-14.46,15.77-.73,1.01-1.12,2.3-1.64,3.48-1.2,2.74-2.59,5.4-3.53,8.24-1.68,5.11-2.35,10.49-3.23,15.81-.6,3.59-.56,7.04,.43,10.6,2.03,7.23,5.96,8.85,11.24,8.89,3.52,.03,7.12-.77,10.54-1.74,8.4-2.39,16.85-4.46,25.51-5.47,1.11-.13,2.21-.5,3.32-.6,.72-.07,1.46,.14,2.19,.22,.02,.27,.04,.53,.06,.8-.79,.28-1.57,.65-2.38,.83-6.74,1.44-13.12,4.07-19.43,6.86-5.17,2.29-10.19,4.99-15.26,7.54-.74,.37-1.45,.83-2.1,1.34-5.99,4.7-12.15,9.17-17.9,14.19-7.08,6.18-13.87,12.73-20.67,19.26-4.99,4.79-9.97,9.61-14.61,14.77-4.35,4.83-8.3,10.08-12.34,15.23-2.86,3.65-5.73,7.31-8.28,11.2-3.37,5.12-6.35,10.54-9.66,15.71-4.22,6.59-7.6,13.63-9.94,21.15-2.59,8.33-4.77,16.81-7.06,25.24-2.22,8.15-3.45,16.53-4.94,24.85-1.28,7.17-1.89,14.42-2.09,21.71-.15,5.2-.36,10.41-.43,15.61-.03,2.26,.23,4.53,.31,6.79,.01,.38-.18,.77-.37,1.53-.64-.56-1.24-.84-1.44-1.3-1.59-3.82-4.86-5.24-8.24-6.11-5.15-1.33-10.4-2.23-15.61-3.34-5.9-1.25-11.79-2.57-17.7-3.76-7.02-1.41-14.06-2.71-21.1-4.06-1.1-.21-2.2-.45-3.31-.63-10-1.64-20.03-2.95-30.16-3.29-2.34-.08-4.66-.77-6.99-.8-9.29-.1-18.59-.2-27.74,2.07-2.57,.64-5.24,.8-7.88,1.1-2.85,.31-5.28,1.45-7.26,4.13-.6-.72-1.47-1.29-1.54-1.94-.46-4.59-2.97-8.27-4.65-12.31-.37-.89-.76-1.77-1.14-2.66Z"/>
  <path d="M53.93,328.48c2.28,1.59,4.61,3.11,6.84,4.78,7.42,5.56,14.77,11.22,22.2,16.76,3.76,2.8,7.75,5.25,11.4,8.19,5.45,4.38,10.77,8.95,15.2,14.55,.18,.23,.23,.59,.34,.89-1.84-1.85-3.65-3.73-5.52-5.55-6.36-6.18-13.41-11.37-20.55-16.44-5.01-3.56-9.86-7.37-14.76-11.1-4.33-3.28-8.64-6.57-12.94-9.9-.81-.63-1.48-1.46-2.22-2.19Z"/>
  <path d="M15.25,295.81c1.4,1.04,2.86,2.01,4.2,3.13,11.01,9.24,22,18.51,32.97,27.79,.61,.52,1.09,1.23,1.62,1.85-2.71-2.08-5.5-4.06-8.12-6.26-9.95-8.39-19.85-16.84-29.75-25.29-.37-.32-.62-.81-.92-1.22Z"/>
  <path d="M109.81,373.53c2.32,2.8,4.66,5.57,6.93,8.42,.35,.44,.35,1.21,.51,1.82-2.23-2.95-4.47-5.9-6.69-8.87-.31-.41-.5-.91-.75-1.38Z"/>
  <path d="M117.5,384.01c2.69,2.22,4.42,5.11,5.3,8.59-1.77-2.86-3.53-5.73-5.3-8.59Z"/>
</svg>