<?xml version="1.0" encoding="UTF-8"?>
<svg id="image" xmlns="http://www.w3.org/2000/svg" viewBox="0 0 310.84 425.2">
  <path d="M22.84,93.72c-3.59,1.28-6.92,2.94-9.52,5.64-5.03,2.62-9.09,5.98-10.82,11.32-.62,1.92-.53,3.71,.45,5.43,1.75,3.1,4.07,5.74,7.42,7.51,3.42,1.82,6.92,3.53,10.22,5.52,2.44,1.47,4.78,3.16,6.87,5.02,1.89,1.68,2.77,3.89,3.03,6.43,.47,4.64-.35,9.12-1.29,13.62-2.39,11.48-4.09,23.04-3.56,34.74,.41,9.03,1.38,18.04,2.28,27.05,.58,5.83,2.21,11.44,4.61,16.88,2.43,5.53,3.72,11.33,4.16,17.3,.68,9.25,.98,18.5-.05,27.75-.94,8.48-1.88,16.96-2.76,25.45-.55,5.27-1.08,10.55-1.46,15.83-.28,3.85,1.75,6.49,5.48,8.21,4.49,2.07,9.22,3.43,14.12,4.25,3.99,.67,7.36-.55,9.98-3.42,2.86-3.14,5.13-6.56,6.38-10.55,.5-1.58,.65-3.5,2.84-4.41,1.49,1.71,2.89,3.33,4.31,4.93,4.12,4.63,6.33,9.9,7.14,15.88,1.05,7.71,2.65,15.36,4.07,23.02,.76,4.09,1.73,8.15,2.48,12.25,1.22,6.75,2.25,13.52,3.53,20.26,.85,4.47,1.51,8.96,2.65,13.4,1.11,4.3,.93,8.87,1.57,13.29,.31,2.19-.67,4.96,2.57,6.21,.28,.11,.22,.81,.49,1.12,.45,.52,1.03,.94,1.48,1.33,2.01-.85,2.05-2.47,2.49-3.81,1.8-5.5,3.7-10.99,7.63-15.54,4.22-4.88,8.43-9.85,13.29-14.15,11.7-10.37,21.65-22.05,31.5-33.85,1.68-2.02,3.73-3.78,5.93-5.98,.53,1.17,.8,1.81,1.11,2.44,1.01,2.08,1.83,4.27,3.09,6.21,2.56,3.92,5.33,7.71,8.07,11.52,.93,1.29,2.07,2.44,4.07,2.49,.29-.38,.58-.69,.78-1.05,3.39-6.22,6.82-12.42,10.15-18.67,5.94-11.14,8.61-23.19,11.19-35.23,1.74-8.15,3.11-16.37,4.74-24.55,1.69-8.42,4.09-16.64,8.44-24.28,.77-1.36,1.5-2.73,3.51-3.61,.28,1.23,.69,2.21,.68,3.18-.03,5.93,0,11.83,1.15,17.71,.8,4.07,.93,8.25,1.6,12.34,.99,6.06,2.65,12.03,2.61,18.21-.06,7.81,2.75,14.91,6.31,21.81,1.43,2.78,6.5,4.58,9.61,3.48,.59-.21,1.2-.66,1.53-1.16,.64-.97,1.25-2,1.57-3.09,2.37-8.05,4-16.22,4.84-24.53,.47-4.66,.78-9.35,1.56-13.97,1.01-5.95,2.32-11.87,3.7-17.76,2.14-9.15,4.47-18.25,6.69-27.39,2.44-10.05,5.04-20.07,7.24-30.17,2.49-11.44,.96-22.32-6.09-32.33-2.21-3.13-4.24-6.48-3.76-10.47,.7-5.78,1.54-11.55,2.25-17.34,.63-5.05,2.04-10.01,1.72-15.17-.33-5.29-.45-10.58-.52-15.88-.06-4.57-.09-9.19,2.19-13.42,1.3-2.42,2.81-4.75,4.4-7.02,2.07-2.97,4.24-5.85,7.44-7.98,9.28-6.2,19.31-11.15,29.77-15.4,1.9-.77,3.85-1.14,5.93-.42,.49,.17,1.14-.07,1.72-.12,.05-.22,.11-.45,.16-.67-1.07-.41-2.1-.94-3.21-1.21-4.69-1.12-9.42-2.13-14.11-3.22-5.58-1.3-11.24-2.39-16.69-4.04-9.22-2.79-18.34-5.83-27.21-9.52-10.85-4.51-21.39-9.46-30.51-16.58-4.95-3.86-8.88-8.54-11.58-14.04-3.34-6.8-4.19-13.97-3.97-21.34,.17-5.8,1.84-11.29,4.06-16.65,.46-1.12,1.21-2.16,.27-3.57-1.98,1.34-3.73,2.62-5.57,3.76-7.5,4.63-15.04,9.22-22.55,13.83-3.75,2.31-7.31,4.93-11.25,6.92-6.84,3.45-13.5,7.12-20.14,10.87-10.94,6.17-21.73,12.6-33.49,17.5-9.05,3.77-17.71,8.32-26.73,12.15-9.83,4.18-19.34,8.94-29.58,12.37-11.79,3.95-22.78,9.59-33.87,14.98-1.04,.51-1.86,1.42-2.78,2.14Z"/>
  <path d="M22.84,93.72c.92-.72,1.73-1.64,2.78-2.14,11.09-5.38,22.08-11.03,33.87-14.98,10.24-3.43,19.75-8.19,29.58-12.37,9.02-3.83,17.68-8.38,26.73-12.15,11.76-4.9,22.55-11.33,33.49-17.5,6.65-3.75,13.31-7.42,20.14-10.87,3.94-1.99,7.5-4.61,11.25-6.92,7.51-4.62,15.05-9.2,22.55-13.83,1.85-1.14,3.59-2.42,5.57-3.76,.94,1.42,.2,2.45-.27,3.57-2.23,5.37-3.89,10.85-4.06,16.65-.22,7.36,.63,14.53,3.97,21.34,2.7,5.5,6.63,10.18,11.58,14.04,9.13,7.12,19.66,12.07,30.51,16.58,8.87,3.69,17.99,6.73,27.21,9.52,5.46,1.65,11.11,2.74,16.69,4.04,4.7,1.1,9.42,2.11,14.11,3.22,1.11,.26,2.14,.8,3.21,1.21-.05,.22-.11,.45-.16,.67-.58,.05-1.23,.29-1.72,.12-2.07-.72-4.03-.35-5.93,.42-10.46,4.25-20.49,9.2-29.77,15.4-3.2,2.14-5.37,5.02-7.44,7.98-1.59,2.27-3.1,4.6-4.4,7.02-2.28,4.23-2.25,8.85-2.19,13.42,.07,5.29,.2,10.59,.52,15.88,.32,5.16-1.1,10.12-1.72,15.17-.72,5.78-1.55,11.55-2.25,17.34-.49,3.99,1.55,7.34,3.76,10.47,7.05,10.01,8.58,20.89,6.09,32.33-2.2,10.1-4.79,20.12-7.24,30.17-2.22,9.13-4.55,18.24-6.69,27.39-1.38,5.89-2.68,11.81-3.7,17.76-.78,4.62-1.1,9.31-1.56,13.97-.83,8.31-2.47,16.48-4.84,24.53-.32,1.08-.94,2.12-1.57,3.09-.33,.5-.94,.95-1.53,1.16-3.11,1.1-8.17-.7-9.61-3.48-3.57-6.91-6.37-14.01-6.31-21.81,.05-6.18-1.62-12.15-2.61-18.21-.67-4.1-.8-8.27-1.6-12.34-1.15-5.88-1.18-11.78-1.15-17.71,0-.98-.41-1.95-.68-3.18-2.01,.88-2.74,2.26-3.51,3.61-4.35,7.64-6.75,15.87-8.44,24.28-1.64,8.17-3,16.39-4.74,24.55-2.58,12.05-5.25,24.09-11.19,35.23-3.33,6.25-6.75,12.45-10.15,18.67-.19,.36-.49,.67-.78,1.05-1.99-.05-3.14-1.2-4.07-2.49-2.75-3.81-5.52-7.61-8.07-11.52-1.27-1.94-2.08-4.13-3.09-6.21-.3-.63-.58-1.27-1.11-2.44-2.2,2.2-4.24,3.96-5.93,5.98-9.85,11.8-19.8,23.48-31.5,33.85-4.86,4.31-9.07,9.28-13.29,14.15-3.93,4.54-5.83,10.04-7.63,15.54-.44,1.34-.48,2.96-2.49,3.81-.45-.39-1.03-.81-1.48-1.33-.27-.31-.21-1.01-.49-1.12-3.24-1.24-2.25-4.02-2.57-6.21-.64-4.42-.46-8.99-1.57-13.29-1.14-4.44-1.8-8.93-2.65-13.4-1.28-6.74-2.31-13.51-3.53-20.26-.74-4.1-1.71-8.16-2.48-12.25-1.42-7.66-3.02-15.31-4.07-23.02-.82-5.98-3.02-11.25-7.14-15.88-1.42-1.6-2.82-3.22-4.31-4.93-2.18,.9-2.34,2.82-2.84,4.41-1.25,3.99-3.52,7.42-6.38,10.55-2.62,2.87-5.99,4.08-9.98,3.42-4.9-.82-9.63-2.18-14.12-4.25-3.73-1.72-5.76-4.36-5.48-8.21,.38-5.28,.91-10.56,1.46-15.83,.88-8.49,1.82-16.97,2.76-25.45,1.03-9.25,.73-18.5,.05-27.75-.44-5.97-1.72-11.77-4.16-17.3-2.4-5.45-4.03-11.06-4.61-16.88-.9-9-1.87-18.02-2.28-27.05-.53-11.7,1.17-23.26,3.56-34.74,.94-4.49,1.76-8.98,1.29-13.62-.26-2.53-1.14-4.74-3.03-6.43-2.09-1.87-4.43-3.56-6.87-5.02-3.3-1.99-6.8-3.7-10.22-5.52-3.35-1.78-5.67-4.42-7.42-7.51-.97-1.72-1.07-3.51-.45-5.43,1.72-5.34,5.78-8.71,10.82-11.32,0,0-.07-.09-.07-.09-2.48,2.41-5.11,4.7-7.41,7.25-2.69,2.97-3.17,6.28-1.08,9.85,1.56,2.66,3.79,4.66,6.52,6.2,3.27,1.85,6.62,3.56,9.93,5.34,7.02,3.79,11.76,8.77,10.41,16.94-.56,3.39-.76,6.85-1.59,10.18-2.37,9.5-3.1,19.17-3.16,28.83-.05,8.72,.95,17.45,1.53,26.17,.5,7.42,2.24,14.61,5.03,21.58,3.32,8.29,4.69,16.87,4.91,25.69,.41,16.61-1.66,33.03-3.81,49.46-.58,4.43-.82,8.9-1.1,13.36-.17,2.67,1.2,4.52,3.87,5.68,4.51,1.95,9.01,3.83,13.99,4.58,4.35,.65,7.68-.65,10.36-3.85,3.08-3.69,5.09-7.84,6.5-12.26,.49-1.55,1.2-2.86,3.07-3.86,1.95,2.5,3.69,5.03,5.75,7.31,4.27,4.76,6.05,10.31,6.89,16.3,.93,6.6,2.06,13.18,3.25,19.74,.78,4.3,1.94,8.55,2.71,12.85,1.67,9.34,3.13,18.7,4.83,28.04,.51,2.81,1.68,5.51,2.26,8.32,.42,2.03,.33,4.14,.52,6.22,.23,2.48,.17,5.05,.87,7.41,.54,1.82,2.73,3.05,2.72,5.24,1.65-.23,1.55-1.32,1.84-2.16,2.28-6.6,5.36-12.84,10.33-18.09,4.53-4.78,9.33-9.33,13.94-14.05,5.97-6.1,11.97-12.18,17.75-18.43,5.12-5.54,9.94-11.32,14.97-16.93,.95-1.06,2.29-1.82,3.93-3.09,.84,5.12,2.76,9.16,5.54,12.89,2.71,3.64,4.81,7.67,8.23,11.24,.64-.89,1.06-1.35,1.34-1.88,1.24-2.33,2.37-4.71,3.66-7.01,1.97-3.51,4.24-6.89,6.02-10.47,2.87-5.77,5.06-11.75,6.81-17.92,2.68-9.48,4.78-19.05,6.5-28.69,1.67-9.34,3.4-18.65,6.55-27.7,1.7-4.89,3.77-9.58,7.2-13.68,.76-.91,1.46-1.89,3.27-1.52,1.37,4.34,2.79,8.78,4.15,13.23,.13,.43-.12,.95-.17,1.34-2.11,.58-1.46-1.86-2.94-2.09-.11,.57-.3,.98-.26,1.37,.53,5.18,.96,10.36,1.66,15.52,1.03,7.52,2.51,14.99,3.31,22.53,.49,4.66,.53,9.37,2.2,13.84,1.25,3.34,2.69,6.63,4.25,9.85,1.29,2.65,4.06,2.7,6.71,2.65,2.54-.05,2.85-1.98,3.43-3.66,2.32-6.66,3.57-13.51,4.39-20.45,.78-6.61,1.46-13.23,2.6-19.79,1.39-8,2.98-15.99,4.9-23.9,2.92-12.08,6.3-24.06,9.27-36.13,1.42-5.76,2.51-11.61,3.48-17.45,1.72-10.39-1.32-19.77-7.58-28.39-2.4-3.3-3.67-6.91-3.08-10.93,.96-6.49,1.93-12.97,2.93-19.45,1.09-7.02,1.48-14.05,1.03-21.14-.29-4.56-.43-9.15-.19-13.71,.12-2.32,.88-4.76,1.99-6.86,1.81-3.45,3.94-6.8,6.32-9.95,1.78-2.35,3.8-4.83,6.35-6.35,8.71-5.21,17.71-9.99,27.17-14.01,.74-.32,1.38-.84,2.69-1.67-2.94-.8-5.18-1.42-7.43-2.03-9.85-2.68-19.82-5.04-29.52-8.13-12.6-4.01-24.82-8.9-36.22-15.39-6.37-3.63-12.33-7.63-17.31-12.89-5.33-5.62-8.17-12.24-9.49-19.35-1.46-7.85-1.1-15.76,1.43-23.48,.43-1.31,.61-2.7,1.03-4.6-3.12,1.83-5.7,3.29-8.23,4.83-13.1,7.95-25.47,16.89-39.51,23.57-7.81,3.71-15.12,8.32-22.59,12.61-4.39,2.52-8.65,5.24-13,7.82-.51,.3-1.36,.57-1.83,.38-1.38-.55-2.39,.05-3.51,.55-13.41,5.99-26.78,12.07-40.28,17.9-7.55,3.26-15.37,6-22.96,9.17-6.88,2.87-13.63,6-20.43,9.04-3.64,1.62-7.26,3.29-10.89,4.93,0,0,.09,.07,.09,.07Z"/>
  <path d="M13.32,99.36c2.6-2.7,5.93-4.36,9.52-5.64,0,0-.09-.07-.09-.07-3.17,1.87-6.33,3.75-9.5,5.62l.07,.09Z"/>
  <path d="M13.25,99.27c3.17-1.87,6.33-3.75,9.5-5.62,3.63-1.65,7.25-3.31,10.89-4.93,6.8-3.04,13.55-6.17,20.43-9.04,7.6-3.17,15.41-5.91,22.96-9.17,13.49-5.83,26.86-11.91,40.28-17.9,1.12-.5,2.13-1.1,3.51-.55,.47,.19,1.32-.08,1.83-.38,4.35-2.58,8.61-5.3,13-7.82,7.47-4.29,14.78-8.9,22.59-12.61,14.04-6.67,26.41-15.62,39.51-23.57,2.53-1.54,5.11-3,8.23-4.83-.42,1.9-.6,3.28-1.03,4.6-2.53,7.73-2.89,15.63-1.43,23.48,1.32,7.11,4.17,13.73,9.49,19.35,4.98,5.26,10.94,9.26,17.31,12.89,11.4,6.49,23.62,11.38,36.22,15.39,9.7,3.08,19.67,5.44,29.52,8.13,2.25,.61,4.49,1.23,7.43,2.03-1.31,.82-1.94,1.35-2.69,1.67-9.45,4.02-18.46,8.8-27.17,14.01-2.55,1.52-4.57,4-6.35,6.35-2.38,3.15-4.51,6.5-6.32,9.95-1.11,2.1-1.86,4.54-1.99,6.86-.24,4.56-.1,9.15,.19,13.71,.45,7.09,.06,14.12-1.03,21.14-1,6.48-1.98,12.96-2.93,19.45-.59,4.02,.67,7.63,3.08,10.93,6.27,8.62,9.3,18,7.58,28.39-.97,5.85-2.06,11.69-3.48,17.45-2.97,12.07-6.35,24.05-9.27,36.13-1.91,7.91-3.51,15.9-4.9,23.9-1.14,6.56-1.82,13.19-2.6,19.79-.82,6.94-2.07,13.79-4.39,20.45-.59,1.68-.89,3.61-3.43,3.66-2.65,.05-5.42,0-6.71-2.65-1.57-3.22-3.01-6.51-4.25-9.85-1.67-4.47-1.7-9.17-2.2-13.84-.8-7.54-2.29-15.01-3.31-22.53-.71-5.16-1.14-10.34-1.66-15.52-.04-.39,.14-.8,.26-1.37,1.48,.23,.82,2.67,2.94,2.09,.06-.39,.3-.91,.17-1.34-1.36-4.46-2.78-8.9-4.15-13.23-1.81-.37-2.51,.61-3.27,1.52-3.43,4.1-5.5,8.79-7.2,13.68-3.16,9.05-4.88,18.36-6.55,27.7-1.73,9.64-3.82,19.21-6.5,28.69-1.75,6.17-3.94,12.16-6.81,17.92-1.78,3.58-4.05,6.96-6.02,10.47-1.29,2.3-2.42,4.68-3.66,7.01-.28,.53-.7,1-1.34,1.88-3.41-3.57-5.52-7.6-8.23-11.24-2.77-3.73-4.69-7.77-5.54-12.89-1.65,1.28-2.99,2.04-3.93,3.09-5.03,5.61-9.85,11.39-14.97,16.93-5.78,6.25-11.78,12.33-17.75,18.43-4.61,4.71-9.41,9.27-13.94,14.05-4.98,5.26-8.05,11.5-10.33,18.09-.29,.83-.19,1.93-1.84,2.16,.02-2.2-2.18-3.42-2.72-5.24-.7-2.37-.64-4.93-.87-7.41-.19-2.07-.1-4.19-.52-6.22-.58-2.8-1.75-5.51-2.26-8.32-1.7-9.33-3.16-18.7-4.83-28.04-.77-4.3-1.93-8.55-2.71-12.85-1.19-6.56-2.32-13.14-3.25-19.74-.84-5.99-2.62-11.55-6.89-16.3-2.05-2.29-3.8-4.81-5.75-7.31-1.87,1.01-2.58,2.32-3.07,3.86-1.41,4.42-3.42,8.56-6.5,12.26-2.67,3.2-6.01,4.5-10.36,3.85-4.98-.75-9.48-2.63-13.99-4.58-2.67-1.16-4.04-3.01-3.87-5.68,.28-4.46,.52-8.93,1.1-13.36,2.15-16.43,4.23-32.85,3.81-49.46-.22-8.83-1.59-17.4-4.91-25.69-2.79-6.97-4.53-14.16-5.03-21.58-.58-8.72-1.58-17.45-1.53-26.17,.05-9.66,.79-19.33,3.16-28.83,.83-3.33,1.03-6.79,1.59-10.18,1.34-8.17-3.4-13.15-10.41-16.94-3.31-1.79-6.66-3.5-9.93-5.34-2.73-1.54-4.96-3.54-6.52-6.2-2.09-3.57-1.61-6.88,1.08-9.85,2.3-2.55,4.93-4.84,7.41-7.25Z"/>
</svg>