<?xml version="1.0" encoding="UTF-8"?>
<svg id="image" xmlns="http://www.w3.org/2000/svg" viewBox="0 0 382 425.2">
  <path d="M348.22,295.43c-1.16-3.8-2.27-7.72-2.51-11.67-.48-7.74-.5-15.53-.45-23.31,.08-8.54,.8-17.06,3.04-25.35,2.12-7.86,4.42-15.69,6.81-23.49,1.5-4.91,3.21-9.79,5.02-14.59,3.02-7.99,6.09-15.94,9.34-23.82,2.97-7.19,6.18-14.28,9.34-21.38,1.04-2.33,2.26-4.59,3.39-6.88-.18-.2-.35-.4-.54-.61-1.07,.66-2.17,1.28-3.21,1.98-3.59,2.43-4.89,2.46-8.52,.01-9.07-6.09-18.08-12.27-27.22-18.27-10.07-6.64-20.85-12.21-30.18-19.98-5.1-4.26-10.55-8.15-15.53-12.55-6.95-6.19-13.31-12.95-19.1-20.3-5.2-6.6-10.97-12.76-16.44-19.16-3.59-4.21-7.11-8.48-10.64-12.74-2.17-2.59-4.34-5.2-6.44-7.85-3.33-4.25-6.53-8.58-9.91-12.78-3.78-4.7-7.8-9.24-9.99-14.99-.17-.43-.66-.75-1.02-1.07-1.64-1.49-1.92-3.11-.6-4.94,.11-.15-.04-.47-.08-.91-.8-.34-1.71-.72-2.53-1.09-.96,.83-1.71,1.77-2.67,2.23-6.79,3.29-13.61,6.49-20.45,9.67-4.44,2.07-8.94,4.02-13.36,6.11-.69,.33-1.21,1-1.81,1.55,.78-.07,1.63,0,2.29-.29,8.59-3.9,17.13-7.87,25.73-11.76,3.04-1.38,6.15-2.56,9.11-3.78,3.13,4.64,5.92,8.96,8.88,13.17,1.78,2.57,3.82,4.97,5.74,7.47,4.44,5.77,8.66,11.74,13.36,17.31,8.75,10.38,18.01,20.33,26.62,30.82,9.6,11.7,19.53,22.98,31.86,31.96,7.01,5.09,13.81,10.51,21,15.35,13.04,8.78,26.28,17.23,39.45,25.8,3.53,2.3,6.73,5.4,11.96,4.14-1.55,3.71-2.92,6.91-4.23,10.17-5.19,12.82-10.67,25.52-15.43,38.51-3.76,10.25-6.75,20.78-9.83,31.26-3.09,10.55-4.61,21.38-4.57,32.38,.05,8.02,.11,16.07,.81,24.06,.45,5.03,1.19,10.23,4.52,14.74-1.16,.52-2.13,1.04-3.15,1.41-10.14,3.75-20.42,7.11-30.37,11.28-11.59,4.84-23.01,10.12-34.29,15.67-9.69,4.76-19.11,10.1-28.59,15.28-10.36,5.67-20.68,11.44-30.99,17.23-10.87,6.08-21.77,12.1-32.54,18.37-8.57,4.99-17.12,10.05-25.38,15.52-9.04,5.96-17.29,12.96-25.1,20.47-.98,.94-1.71,2.14-2.62,3.17-.93,1.06-1.95,2.06-3.16,3.32-2.8-5.16-5.27-9.81-7.86-14.37-4.38-7.75-8.87-15.43-13.31-23.13-1.18-2.06-2.44-4.09-3.6-6.17-2.98-5.38-5.81-10.85-8.93-16.14-3.25-5.52-6.78-10.88-10.21-16.3-5.2-8.16-10.37-16.33-15.65-24.43-1.16-1.8-2.69-3.38-4.07-5.05-.2,.17-.42,.33-.61,.5,23.29,34.44,44.16,70.34,63.84,107.05,1.74,.24,2.45-1.28,3.41-2.37,1.57-1.79,3.03-3.7,4.68-5.4,6.6-6.76,13.9-12.71,21.75-17.98,7.5-5.02,14.93-10.17,22.71-14.76,11.37-6.68,23.02-12.85,34.49-19.34,11.9-6.72,23.54-13.98,35.68-20.24,13.02-6.72,25.55-14.42,39.16-20.02,5.76-2.37,11.25-5.39,17.04-7.65,12.18-4.76,24.47-9.2,36.71-13.75,1.21-.45,2.43-.9,3.49-1.29-1.35-2.19-2.94-3.95-3.57-5.98ZM181.65,19.32c.06,.02,.12,.02,.19,.04,.04-.04,.09-.09,.14-.12-.06,0-.11,0-.18,0-.04,.02-.1,.05-.14,.07Zm-17.51,7.7c-1.12,.6-2.12,1.43-3.15,2.18,2.85-1.14,5.78-2.14,8.52-3.47,4.12-2,8.09-4.26,12.14-6.41-2.23-.42-4,.85-5.82,1.74-3.92,1.93-7.82,3.92-11.69,5.96Zm-3.94,2.55c.14-.02,.26-.04,.38-.06,.14-.09,.27-.2,.41-.3-.15,.07-.32,.12-.47,.19-.1,.07-.22,.12-.32,.18Zm-6.65,2.56c-.46,.22-.95,.45-1.43,.68h-.02s0,.01,0,.01c.16,.03,.32,.1,.48,.15,.41,.16,.86,.33,1.13,.18,2.19-1.13,4.33-2.36,6.48-3.58-.71,.11-1.42,.17-2.05,.44-1.55,.66-3.08,1.4-4.6,2.12Zm-1.51,.73s.02-.03,.04-.04l-.08-.02h-.02s0,.05,0,.08c.01,0,.02-.01,.04-.02h.01Zm-.05,.02c-1.98,.88-3.98,1.76-5.97,2.67-6.03,2.69-12.04,5.39-18.13,7.92-5.56,2.3-11.3,4.15-16.96,6.24-2.34,.87-4.6,2.02-7,2.7-6.25,1.79-12.57,3.35-18.84,5.11-7.97,2.21-15.78,5.09-24.24,4.8-.16,0-.33,.31-.49,.48,0,.25-.07,.54,.02,.73,4.44,10.02,6.72,20.4,5.92,31.4-1.12,15.73-3.82,31.07-9.24,45.98-4.4,12.08-9.73,23.69-15.6,35.06-3.51,6.8-7.32,13.44-11.16,20.07-1.09,1.89-2.26,3.74-3.45,5.58-1.16,1.82-2.34,3.61-3.48,5.46,.55-.03,1.25,.05,1.5-.23,.83-.93,1.5-2.01,2.14-3.08,7.37-12.52,14.79-25,21.01-38.15,3.6-7.61,7.27-15.17,9.81-23.23,1.57-5.02,3.76-9.88,4.9-14.99,2.13-9.67,4.32-19.35,4.87-29.32,.41-7.3,.56-14.53-1.31-21.68-1.07-4.1-2.13-8.21-3.2-12.31,4.94-1.07,9.83-1.77,14.47-3.22,13.42-4.21,27.1-7.52,40.31-12.54,10.59-4.04,21.06-8.25,31.34-13.03,1.13-.53,2.77-.62,2.78-2.43v-.02ZM22.84,208.59c-3.96,6.4-7.97,12.76-11.95,19.14-2.63,4.23-5.2,8.49-7.81,12.73,.97-.06,1.58-.47,1.93-1.02,5.91-9.47,11.81-18.95,17.7-28.43,.73-1.19,1.23-2.39,.59-3.77l-.12,.38c-.09,.35-.16,.69-.35,.98Zm.41-1.49s.03,.06,.04,.09c.01,.02,.03,.02,.02,.04v-.05s.05-.07,.08-.1c-.02,0-.05,0-.07,.01-.02,0-.05-.01-.06,0Zm39.85,100.26c-.3-1.13-.99-1.67-1.99-1.94v.02s0,.02,0,.02c.08,.91,.36,1.67,1.19,2.26,.25,.19,.58,.36,.98,.51-.03-.32-.08-.6-.18-.86Zm-2.02-2.05c-.08-.06-.15-.11-.22-.18,.04,.08,.08,.16,.12,.25l.12,.04s0-.06,0-.1h-.02Zm-.23-.21c-1.63-3.56-4.01-6.5-7.04-8.96,1.5,3.65,3.97,6.55,7.04,8.96Zm-7.37-9.34c.05,.06,.09,.14,.13,.22,.07,.05,.13,.11,.2,.16-.05-.06-.07-.14-.1-.21-.08-.06-.15-.11-.23-.17Zm0,0c-2-3.64-4.89-6.47-8.25-8.85,2.18,3.48,4.91,6.46,8.25,8.85Z"/>
  <path d="M181.79,19.25c.07-.01,.12-.01,.18,0-.04,.04-.09,.09-.14,.12l-.05-.11Z"/>
  <path d="M351.8,301.41c-1.06,.38-2.28,.83-3.49,1.29-12.25,4.55-24.54,9-36.71,13.75-5.8,2.26-11.28,5.28-17.04,7.65-13.6,5.6-26.13,13.3-39.16,20.02-12.14,6.27-23.78,13.53-35.68,20.24-11.47,6.49-23.12,12.66-34.49,19.34-7.78,4.59-15.21,9.74-22.71,14.76-7.85,5.27-15.16,11.22-21.75,17.98-1.66,1.7-3.11,3.61-4.68,5.4-.96,1.09-1.67,2.6-3.41,2.37-19.68-36.72-40.55-72.61-63.84-107.05,.2-.17,.41-.33,.61-.5,1.38,1.67,2.91,3.24,4.07,5.05,5.28,8.1,10.45,16.27,15.65,24.43,3.43,5.41,6.96,10.78,10.21,16.3,3.13,5.29,5.95,10.76,8.93,16.14,1.16,2.08,2.41,4.11,3.6,6.17,4.45,7.7,8.93,15.38,13.31,23.13,2.59,4.56,5.05,9.22,7.86,14.37,1.21-1.26,2.22-2.25,3.16-3.32,.91-1.02,1.64-2.23,2.62-3.17,7.81-7.51,16.06-14.5,25.1-20.47,8.26-5.48,16.81-10.54,25.38-15.52,10.78-6.27,21.68-12.29,32.54-18.37,10.32-5.79,20.63-11.56,30.99-17.23,9.47-5.19,18.9-10.52,28.59-15.28,11.28-5.54,22.69-10.83,34.29-15.67,9.95-4.17,20.24-7.53,30.37-11.28,1.02-.36,1.99-.89,3.15-1.41-3.33-4.51-4.06-9.71-4.52-14.74-.7-7.99-.76-16.04-.81-24.06-.04-11,1.47-21.83,4.57-32.38,3.08-10.49,6.07-21.02,9.83-31.26,4.76-12.99,10.24-25.69,15.43-38.51,1.31-3.26,2.68-6.46,4.23-10.17-5.23,1.27-8.43-1.84-11.96-4.14-13.17-8.57-26.41-17.02-39.45-25.8-7.18-4.83-13.99-10.26-21-15.35-12.32-8.97-22.26-20.26-31.86-31.96-8.62-10.49-17.88-20.44-26.62-30.82-4.7-5.57-8.92-11.54-13.36-17.31-1.92-2.5-3.95-4.9-5.74-7.47-2.96-4.21-5.76-8.53-8.88-13.17-2.96,1.22-6.07,2.41-9.11,3.78-8.6,3.89-17.14,7.86-25.73,11.76-.66,.29-1.51,.21-2.29,.29,.6-.56,1.12-1.22,1.81-1.55,4.43-2.09,8.93-4.04,13.36-6.11,6.83-3.18,13.66-6.38,20.45-9.67,.96-.46,1.71-1.4,2.67-2.23,.83,.37,1.73,.74,2.53,1.09,.05,.44,.19,.77,.08,.91-1.32,1.84-1.04,3.45,.6,4.94,.36,.32,.86,.64,1.02,1.07,2.19,5.76,6.2,10.3,9.99,14.99,3.38,4.19,6.58,8.53,9.91,12.78,2.1,2.65,4.27,5.26,6.44,7.85,3.54,4.26,7.06,8.53,10.64,12.74,5.47,6.4,11.24,12.56,16.44,19.16,5.79,7.35,12.15,14.11,19.1,20.3,4.98,4.4,10.42,8.29,15.53,12.55,9.33,7.78,20.11,13.35,30.18,19.98,9.13,6,18.14,12.19,27.22,18.27,3.63,2.44,4.93,2.41,8.52-.01,1.04-.7,2.13-1.32,3.21-1.98,.18,.2,.35,.4,.54,.61-1.13,2.29-2.35,4.55-3.39,6.88-3.16,7.1-6.37,14.19-9.34,21.38-3.25,7.88-6.32,15.83-9.34,23.82-1.81,4.8-3.52,9.68-5.02,14.59-2.39,7.8-4.68,15.63-6.81,23.49-2.24,8.29-2.97,16.81-3.04,25.35-.05,7.77-.03,15.57,.45,23.31,.24,3.94,1.35,7.87,2.51,11.67,.63,2.04,2.22,3.79,3.57,5.98Z"/>
  <path d="M23.24,207.1s.05,0,.06,0t-.02,.03s-.04-.03-.04-.03Z"/>
  <path d="M152,32.88s0-.06,0-.1v.02s.03,0,.02,.02c.01,0,.03,.02,.02,.04-.02,.01-.02,.03-.04,.02Z"/>
  <path d="M149.21,35.32c-10.27,4.78-20.75,8.99-31.34,13.03-13.21,5.02-26.89,8.33-40.31,12.54-4.64,1.45-9.53,2.14-14.47,3.22,1.07,4.1,2.13,8.21,3.2,12.31,1.87,7.14,1.71,14.37,1.31,21.68-.55,9.98-2.73,19.65-4.87,29.32-1.13,5.1-3.33,9.97-4.9,14.99-2.53,8.07-6.21,15.62-9.81,23.23-6.21,13.15-13.64,25.64-21.01,38.15-.64,1.07-1.32,2.15-2.14,3.08-.25,.29-.95,.2-1.5,.23-.02,0-.05,0-.07,.01,1.15-1.84,2.37-3.64,3.55-5.47,1.19-1.84,2.36-3.69,3.45-5.58,3.84-6.63,7.65-13.27,11.16-20.07,5.87-11.38,11.2-22.99,15.6-35.06,5.42-14.91,8.12-30.26,9.24-45.98,.8-11-1.48-21.38-5.92-31.4-.09-.19-.02-.48-.02-.73,.17-.16,.33-.48,.49-.48,8.46,.28,16.27-2.6,24.24-4.8,6.27-1.76,12.59-3.31,18.84-5.11,2.4-.68,4.66-1.84,7-2.7,5.66-2.09,11.4-3.94,16.96-6.24,6.09-2.53,12.11-5.24,18.13-7.92,1.99-.89,3.97-1.78,5.97-2.65,0,1.81-1.65,1.9-2.78,2.43Z"/>
  <path d="M45.22,286.92c-1.66-1.3-17.53-15.95-18.91-17.53-7.09-8.03-15.55-14.52-23.93-21.09-.77-.6-1.65-1.06-2.81-1.8,.97-1.46,2.62-4.7,3.52-6.06,.2,.11-.36,2.1-.18,2.2l-1.03,3.36c3.03,2.52,5.98,5.22,9.15,7.61,6.17,4.6,11.43,10.13,16.65,15.71,1.21,1.31,2.35,2.71,3.51,4.07l14.03,13.51Z"/>
  <path d="M23.29,207.15v.05s-.03-.05-.05-.09c0,0,.03,.02,.04,.03,0,.02,.01,.02,.01,.02Z"/>
  <path d="M22.71,211c-5.9,9.48-11.79,18.95-17.7,28.43-.35,.55-.95,.96-1.93,1.02,2.61-4.24,5.18-8.49,7.81-12.73,3.98-6.38,7.98-12.74,11.95-19.14,.19-.29,.26-.63,.35-.98,.03-.14,.07-.28,.09-.42,.01,.02,.03,.02,.02,.04,.63,1.38,.13,2.58-.59,3.77Z"/>
  <path d="M160.52,29.39c.15-.07,.32-.12,.47-.19-.13,.11-.26,.22-.41,.3l-.06-.12Z"/>
  <path d="M175.83,21.07c1.82-.89,3.59-2.16,5.82-1.74-4.05,2.15-8.02,4.41-12.14,6.41-2.75,1.33-5.67,2.33-8.52,3.47,1.04-.75,2.03-1.58,3.15-2.18,3.87-2.04,7.77-4.03,11.69-5.96Z"/>
  <path d="M181.84,19.36c-.06-.02-.13-.02-.19-.04,.04-.02,.1-.05,.14-.07l.05,.11Z"/>
  <path d="M45.22,286.92c3.36,2.38,6.25,5.2,8.25,8.85-3.34-2.39-6.07-5.36-8.25-8.85Z"/>
  <path d="M53.69,295.94l-.1,.05c-.04-.08-.08-.16-.13-.22,.08,.06,.15,.11,.23,.17Z"/>
  <path d="M53.69,295.94c.03,.07,.05,.15,.1,.21-.07-.05-.13-.11-.2-.16l.1-.05Z"/>
  <path d="M53.79,296.15c3.04,2.46,5.41,5.39,7.04,8.96-3.07-2.4-5.54-5.3-7.04-8.96Z"/>
  <path d="M61.07,305.31l-.1,.07c-.04-.09-.08-.17-.12-.25,.08,.07,.14,.13,.22,.18Z"/>
  <path d="M152.13,32.82s-.02,.01-.02,.01c-.02,.01-.04,.02-.06,.03h-.01s0-.04-.02-.04v-.02h-.01s0-.02,0-.02l.12,.04Z"/>
  <path d="M158.16,30.02c.63-.27,1.34-.33,2.05-.44-2.15,1.22-4.29,2.46-6.48,3.58-.28,.15-.72-.02-1.13-.18-.15-.05-.3-.11-.45-.15,.47-.24,.93-.46,1.41-.69,1.52-.72,3.05-1.46,4.6-2.12Z"/>
  <path d="M160.59,29.51c-.12,.03-.24,.04-.38,.06,.1-.07,.22-.12,.32-.18l.06,.12Z"/>
  <path d="M349.25,300.53c-1.16,.52-2.13,1.04-3.15,1.41-10.14,3.75-20.42,7.11-30.37,11.28-11.59,4.84-23.01,10.12-34.29,15.67-9.69,4.76-19.11,10.1-28.59,15.28-10.36,5.67-20.68,11.44-30.99,17.23-10.87,6.08-21.77,12.1-32.54,18.37-8.57,4.99-17.12,10.05-25.38,15.52-9.04,5.96-17.29,12.96-25.1,20.47-.98,.94-1.71,2.14-2.62,3.17-.93,1.06-1.95,2.06-3.16,3.32-2.8-5.16-5.27-9.81-7.86-14.37-4.38-7.75-8.87-15.43-13.31-23.13-1.18-2.06-2.44-4.09-3.6-6.17-2.98-5.38-5.81-10.85-8.93-16.14-3.25-5.52-6.78-10.88-10.21-16.3-5.2-8.16-10.37-16.33-15.65-24.43-1.16-1.8-2.69-3.38-4.07-5.05-.15-1.3-3.83-6.44-6.34-9.3-.3-1.13-.99-1.67-1.99-1.94h-.02s0-.07,0-.1h-.02c-.08-.06-.15-.12-.22-.19v-.02c-1.64-3.56-4.02-6.5-7.05-8.96-.05-.06-.07-.14-.1-.21-.08-.06-.15-.11-.23-.17-2-3.64-4.89-6.47-8.25-8.85l-14.03-13.51c-1.16-1.36-2.3-2.76-3.51-4.07-5.23-5.58-10.48-11.11-16.65-15.71-3.17-2.39-6.12-5.08-9.15-7.61l1.03-3.36c-.18-.1,.38-2.09,.18-2.2,.97-.06,1.58-.47,1.93-1.02,5.91-9.47,11.81-18.95,17.7-28.43,.73-1.19,1.23-2.39,.59-3.77v-.05s.05-.07,.08-.1c.55-.03,1.25,.05,1.5-.23,.83-.93,1.5-2.01,2.14-3.08,7.37-12.52,14.79-25,21.01-38.15,3.6-7.61,7.27-15.17,9.81-23.23,1.57-5.02,3.76-9.88,4.9-14.99,2.13-9.67,4.32-19.35,4.87-29.32,.41-7.3,.56-14.53-1.31-21.68-1.07-4.1-2.13-8.21-3.2-12.31,4.94-1.07,9.83-1.77,14.47-3.22,13.42-4.21,27.1-7.52,40.31-12.54,10.59-4.04,21.06-8.25,31.34-13.03,1.13-.53,2.77-.62,2.78-2.43v-.02s.02-.01,.04-.02h.01s.04-.02,.06-.03c.16,.03,.32,.1,.48,.15,.41,.16,.86,.33,1.13,.18,2.19-1.13,4.33-2.36,6.48-3.58,.14-.02,.26-.04,.38-.06,.14-.09,.27-.2,.41-.3,2.85-1.14,5.78-2.14,8.52-3.47,4.12-2,8.09-4.26,12.14-6.41,.06,.02,.12,.02,.19,.04,.04-.04,.09-.09,.14-.12,.78-.07,1.63,0,2.29-.29,8.59-3.9,17.13-7.87,25.73-11.76,3.04-1.38,6.15-2.56,9.11-3.78,3.13,4.64,5.92,8.96,8.88,13.17,1.78,2.57,3.82,4.97,5.74,7.47,4.44,5.77,8.66,11.74,13.36,17.31,8.75,10.38,18.01,20.33,26.62,30.82,9.6,11.7,19.53,22.98,31.86,31.96,7.01,5.09,13.81,10.51,21,15.35,13.04,8.78,26.28,17.23,39.45,25.8,3.53,2.3,6.73,5.4,11.96,4.14-1.55,3.71-2.92,6.91-4.23,10.17-5.19,12.82-10.67,25.52-15.43,38.51-3.76,10.25-6.75,20.78-9.83,31.26-3.09,10.55-4.61,21.38-4.57,32.38,.05,8.02,.11,16.07,.81,24.06,.45,5.03,1.19,10.23,4.52,14.74Z"/>
  <path d="M61.1,305.42v.02s-.09-.04-.12-.05h-.02s.1-.07,.1-.07l.02,.1h.02Z"/>
  <path d="M69.44,316.66c-1.23-.46-5.13-5.72-7.14-8.95-.62-1.03-1.07-1.84-1.19-2.26-.02,0-.01-.02-.01-.02,.4,.2,1.13,.92,2,1.93,2.52,2.86,6.2,8,6.34,9.3Z"/>
</svg>