<?xml version="1.0" encoding="UTF-8"?>
<svg id="image" xmlns="http://www.w3.org/2000/svg" viewBox="0 0 425.2 425.2">
  <defs>
    <style>
      .cls-1 {
        stroke: #000;
        stroke-miterlimit: 10;
      }
    </style>
  </defs>
  <path class="cls-1" d="M126.11,33.15c-4.37,2.32-25.49,13.55-37.67,37.57-12.67,24.97-4.36,41.45-18.84,55.24-12.91,12.3-21.74,7.16-33.63,19.71-9.56,10.09-10.92,20.66-14.5,39.96C16.15,214.28,1.14,235.24,.54,267.38c-.58,30.8,12.43,71.09,39.76,86.18,16.89,9.32,21.43-.81,58.66,6.74,36.19,7.34,61.36,22.88,66.91,26.41,27.11,17.21,24.26,25.52,41.86,33.15,28.63,12.4,69.85,4.97,94.18-19.89,33.85-34.58,31.68-99.49,31.39-108.28-.6-18.08,1.53-25.33,9.56-38.78,10.14-16.98,20.15-19.33,40.66-34.14,19.2-13.86,45.36-41.27,39.76-68.5-8.37-40.76-5.88-19.81-39.76-77.34-27.72-47.07-29.03-53.82-41.86-61.87C316.74-4.58,288.06-.16,272.6,2.22c-30.08,4.64-29.1,14.72-60.69,22.1-43.89,10.25-56.64-6.67-85.8,8.84Z"/>
</svg>