<?xml version="1.0" encoding="UTF-8"?>
<svg id="Layer_4" data-name="Layer 4" xmlns="http://www.w3.org/2000/svg" viewBox="0 0 277.24 425.2">
  <path d="M94.67,51.69c-18.14,8.71-31.06,7.28-41.98,10.29-22.53,6.2-32.26,30.07-38.78,46.04-8.1,19.85-6.42,48.78-2.73,105.83,2.44,37.76,4.71,46.88-2.25,62.15-3.9,8.56-9.45,16.28-6.73,26.54,2.99,11.3,12.69,13.1,24.33,26.54,4.7,5.43,9.53,17.05,19,40.07,12.77,31.04,13.01,34.87,20.1,41.11,1.33,1.18,19.92,17.07,43.46,14.69,14.78-1.49,24.46-9.9,43.23-26.65,9.98-8.91,20.93-18.8,34-35.91,29.7-38.89,20.18-49.38,44.8-70.14,12.24-10.32,21.48-13.53,31.97-27.72,5.8-7.84,13.46-18.19,12.79-31.52-.63-12.56-8.01-14.67-8.71-29.39-.54-11.46,3.84-12.12,4.04-24.13,.15-8.85-2.17-11.78-10-34.15-6.66-19.04-9.99-28.55-10.26-34.45-.7-14.89,4.64-18,3.86-34.22-.28-5.86-.78-16.15-6.16-26.38-6.61-12.56-28.21-22.76-71.13-42.65C164.36,1.53,156.51-1.81,146.87-.21c-15.86,2.63-25.38,16.74-26.04,17.76-6.28,9.61-2.86,14.84-10.57,23.5-.96,1.08-5.12,5.61-15.58,10.63Z"/>
</svg>