<?xml version="1.0" encoding="UTF-8"?>
<svg id="Layer_4" data-name="Layer 4" xmlns="http://www.w3.org/2000/svg" viewBox="0 0 425.2 425.2">
  <path d="M-.04,184.86c27.08-8.62,80.19-29.49,128.05-78.61C166.77,66.46,185.6,25.08,194.67,.15c4.08,39.33,16.07,99.2,22.99,121.2,7.55,24.01,12.26,31.96,19.85,38.18,22.02,18.04,55.49,11,80.13,5.81,22.97-4.83,63.61-16.98,106.98-51.93-8.91,15.65-30.33,62.64-28.59,106.55,.96,24.17,8.36,49.25,13.89,62.83-20.29-1.21-74.94-1.82-131.11,31.27-64.05,37.74-88.31,94.71-94.99,112.25-5.87-30.83-24.34-115.24-75.23-170.38C69.03,213.06,30.95,192.47-.04,184.86Z"/>
</svg>