<?xml version="1.0" encoding="UTF-8"?>
<svg id="Layer_4" data-name="Layer 4" xmlns="http://www.w3.org/2000/svg" viewBox="0 0 425.2 425.2">
  <path d="M72.05,15.8c-1.38,.67,.7,8.96,1.37,11.7,14.52,59.5,7.45,139.04,6.17,153.44-5.51,62.02-13.05,68.45-18.29,72.62-6.6,5.26-16.44,10.85-30.21,12.9-15.38,2.29-31.73,3.68-29.63,4.35,1.29,.41,31.26,6.4,57.75,14.17,2.78,.81,8.96,.29,12.39,4.9,3.5,4.7,5.56,12.58,.42,36.1-6.38,29.2-14.98,41.87-10.4,46.96,3.48,3.86,11.86,.36,14.5-.75,11.28-4.71,16.08-14.58,25.44-29.44,12.95-20.57,22.97-36.49,27.95-34.64,6.03,2.23,2.78,29.81,1.73,38.74-.59,5.02-2.97,23.47-11.91,51.13-5.83,18.02-9.97,26.11-8.52,27.1,2.16,1.48,13.78-14.92,29.07-36.49,10.54-14.87,15.8-22.3,18.27-26.51,12.54-21.41,13.99-32.43,25.17-37.55,7.36-3.37,14.66-2.22,16.79-1.81,8.72,1.67,14.33,7.05,16.97,9.64,7.17,7.04,11.96,16.65,17.84,43.72,5.05,23.24,7.25,42.56,7.9,42.47,.77-.1-4.34-26.76,2.2-58.13,3.13-15.03,5.55-26.61,14.18-32.35,10.08-6.69,21.17-.45,46.32,7.71,36,11.67,60.38,14.14,60.69,12.88,.56-2.25-75.79-14.52-81.49-49.8-2.12-13.14,6.03-26.57,10.02-33.14,10.58-17.43,25.69-25.12,35.88-29.83,48.74-22.54,93.15-26.9,93.06-27.81-.1-.98-53.9-12.08-103.98,17.74-14.61,8.7-32.46,20-40.94,12.74-4.23-3.62-5.21-8.15-5.39-10.66-4.71-68.12,18.91-112.7,18.91-112.7C309.9,64.9,328.79,2.29,324.92,.38c-3.45-1.7-28.07,44.26-43.99,80.39-10.44,23.7-15.91,39.56-30.25,64.7-13.41,23.51-25.74,45.1-35.92,42.78-11.28-2.56-14.45-33.21-16.07-50.09-6.9-71.9,12.38-128.3,10.06-129.06-2.01-.66-19.52,40.52-37.47,104.02-9.04,31.97-12.14,48.23-19.85,49.04-8.68,.92-14.7-18.65-39.7-72-6.87-14.66-35.74-76.26-39.68-74.36Z"/>
</svg>