<?xml version="1.0" encoding="UTF-8"?>
<svg id="image" xmlns="http://www.w3.org/2000/svg" viewBox="0 0 425.2 425.2">
  <path d="M424.61,170.94c-.9-4.72-1.89-9.43-2.76-14.15-1.6-8.57-3.87-16.91-8.73-24.2-1.65-2.46-3.72-4.63-5.64-6.91,.69,1.15,1.37,2.31,2.13,3.41,3.26,4.75,6.26,9.68,7.92,15.26,1.49,5.05,2.42,10.27,3.83,15.35,2.47,9.03,3.04,18.17,2.75,27.51-.41,12.95-2.98,25.34-8.43,36.99-2.11,4.52-4.31,9.17-8.45,12.29-3.12,2.35-6.26,4.69-9.47,6.91-5.23,3.63-11.33,5.32-17.09,7.77-3.01,1.27-6.13,2.64-8.66,4.68-6.44,5.17-11.77,11.46-15.53,18.96-4.92,9.85-10.53,19.3-14.67,29.6-4.99,12.47-10.4,24.79-16.37,36.8-4.42,8.88-9.81,17.27-15.1,25.65-4.46,7.1-10.15,13.24-16.04,19.15-6.16,6.17-12.45,12.22-19.81,16.86-6.91,4.36-14.05,8.38-21.26,12.22-3.96,2.1-8.23,3.59-12.42,5.16-6.38,2.38-13.12,3.12-19.82,3.36-4.55,.18-9.23-.23-13.71-1.13-7.53-1.54-14.02-5.87-20.13-10.21-6.13-4.34-11.57-9.83-16.81-15.32-5.92-6.2-11.66-12.52-18.24-18.04-6.31-5.28-13.03-9.89-20.22-13.77-10.16-5.5-21.45-7.28-32.59-9.24-8.6-1.52-17.22-2.85-25.64-5.16-8.08-2.23-15.98-5.13-24.06-7.36-6.88-1.92-12.73-5.58-18.11-10.13-3.97-3.36-7.68-7.06-11.58-10.53-7.5-6.7-10.86-15.82-13.97-25.03-1.4-4.16-2.1-8.57-3.38-12.77-1.95-6.38-2.67-12.97-3.1-19.56-.27-4.16,.41-8.38,.61-12.59,.35-7.95,1.83-15.67,4.51-23.13,2.73-7.56,5.5-15.07,9.97-21.85,4.3-6.53,9.38-12.32,14.67-17.96,3.81-4.07,8.07-7.72,12.01-11.69,4.61-4.61,9.1-9.35,13.61-14.06,5.63-5.84,10.89-11.97,14.91-19.12,2.92-5.2,5.91-10.38,8.83-15.58,.44-.78,.72-1.64,1.06-2.47-.21-.11-.41-.21-.64-.33-.75,1.4-1.58,2.77-2.26,4.21-3.4,7.18-7.28,14.13-12.17,20.3-8.3,10.47-17.53,20.1-27.34,29.17-5.41,5.01-10.36,10.54-15.36,15.96-2.42,2.62-4.76,5.38-6.71,8.37-3.15,4.78-5.98,9.71-8.18,15.11-4.21,10.3-7.15,20.81-8.17,31.93-.92,10.15-.93,20.22,1.65,30.12,1.85,7.07,3.74,14.18,6.15,21.07,1.64,4.71,4.03,9.18,6.43,13.57,3.44,6.35,9.2,10.62,14.37,15.29,7.3,6.61,15.63,11.57,25.2,14.09,3.66,.97,7.31,1.95,10.93,3,5.33,1.55,10.55,3.54,15.95,4.72,11.06,2.4,22.25,4.25,33.34,6.59,6.8,1.43,13.62,3.05,19.68,6.76,4.22,2.59,8.33,5.41,12.41,8.26,8.54,5.93,15.84,13.26,22.85,20.95,4.49,4.92,9.23,9.64,14.23,14.03,5.1,4.49,11.2,7.53,17.14,10.72,4.37,2.34,9.01,3.92,13.86,4.06,6.44,.2,12.91,.2,19.35-1.09,7.24-1.45,14.18-3.59,20.71-7.12,3.94-2.14,7.96-4.15,11.82-6.45,5.07-3.05,10.1-6.17,14.93-9.59,3.47-2.46,6.68-5.34,9.82-8.22,5.27-4.81,10.28-9.86,14.88-15.4,6.87-8.28,12.53-17.37,17.9-26.65,6.4-11.05,11.46-22.79,16.28-34.63,3.5-8.61,6.69-17.34,11.3-25.46,4.12-7.24,7.34-15.01,12.33-21.73,3.97-5.35,8.1-10.63,14.26-13.56,4.17-1.98,8.46-3.65,12.72-5.4,7.49-3.09,14.12-7.52,20.18-12.95,2.57-2.31,3.97-5.26,5.64-8.16,3.87-6.71,6.01-14.01,7.74-21.46,1.23-5.26,2.13-10.56,2.08-16.02-.04-5.14,.34-10.29,.4-15.43,.01-1.52-.37-3.06-.66-4.57Zm-17.65-45.98c.04,.09,.09,.18,.13,.27,.13,.15,.25,.3,.38,.45-.1-.18-.21-.35-.31-.51l-.21-.21Zm-16.18-13.87c-7.86-4.37-16.25-7.21-24.79-9.37-10.62-2.68-21.51-4.24-32.25-6.48-6.8-1.42-13.12-4.06-18.2-9.05-2.19-2.14-4.59-4.36-5.88-7.06-3.09-6.47-6.09-12.97-10.18-18.9-3.59-5.19-6.81-10.66-10.64-15.65-4.34-5.66-9.17-10.95-13.84-16.33-1-1.16-2.3-2.05-3.4-3.15-5.39-5.38-12.02-8.87-18.42-12.73-2.16-1.3-4.62-2.08-6.94-3.09,.09,.84,.43,1.15,.81,1.33,8.88,4.06,17.31,8.85,24.34,15.8,4.05,4.01,8.02,8.14,11.6,12.59,4.25,5.29,8.1,10.96,12.02,16.51,2.39,3.41,4.87,6.8,6.9,10.44,2.44,4.39,4.25,9.14,6.69,13.53,1.43,2.56,3.31,5.01,5.44,7,5.23,4.93,11.51,7.95,18.45,9.44,7.05,1.54,14.08,3.09,21.17,4.33,11.32,1.96,22.35,4.77,32.85,9.59,6.51,2.99,12.23,7.19,17.48,12.08,1.03,.96,1.98,2.02,2.95,3.05-.28-.65-.52-1.34-.96-1.87-4.3-5.01-9.45-8.79-15.22-12Zm-307.66,1.21c-.19,.6-.4,1.19-.61,1.79-.21,.59-.41,1.18-.61,1.76,.58-.27,1.54-.45,1.62-.86,.43-1.93,.62-3.92,.92-5.9-.72,1.01-.99,2.11-1.33,3.2Zm-1.24,3.74c-.15,1.25-.31,2.5-.53,4.3t.01-.02c1.39-1.76,1.12-3.08,.53-4.4-.01,.03-.01,.08-.01,.12Zm.01-.15s0-.02,.01-.03c-.01,0-.01,.02-.03,.02v.02Z"/>
  <path d="M407.17,125.17c.1,.17,.21,.33,.31,.51-.13-.15-.25-.3-.38-.45l.07-.06Z"/>
  <path d="M425.28,175.51c-.06,5.14-.44,10.29-.4,15.43,.04,5.46-.86,10.75-2.08,16.02-1.73,7.45-3.87,14.75-7.74,21.46-1.67,2.9-3.07,5.85-5.64,8.16-6.06,5.43-12.69,9.86-20.18,12.95-4.25,1.75-8.55,3.42-12.72,5.4-6.16,2.93-10.28,8.2-14.26,13.56-4.99,6.73-8.21,14.49-12.33,21.73-4.61,8.11-7.8,16.84-11.3,25.46-4.82,11.84-9.88,23.57-16.28,34.63-5.38,9.27-11.03,18.37-17.9,26.65-4.59,5.53-9.6,10.59-14.88,15.4-3.15,2.88-6.35,5.76-9.82,8.22-4.83,3.42-9.87,6.55-14.93,9.59-3.86,2.31-7.87,4.31-11.82,6.45-6.53,3.53-13.47,5.67-20.71,7.12-6.44,1.28-12.91,1.28-19.35,1.09-4.85-.14-9.48-1.72-13.86-4.06-5.94-3.2-12.04-6.23-17.14-10.72-4.99-4.39-9.74-9.11-14.23-14.03-7.02-7.69-14.31-15.02-22.85-20.95-4.08-2.85-8.18-5.67-12.41-8.26-6.06-3.71-12.88-5.32-19.68-6.76-11.09-2.34-22.28-4.19-33.34-6.59-5.41-1.18-10.62-3.17-15.95-4.72-3.62-1.06-7.27-2.04-10.93-3-9.57-2.52-17.9-7.48-25.2-14.09-5.17-4.68-10.93-8.94-14.37-15.29-2.39-4.39-4.79-8.87-6.43-13.57-2.41-6.89-4.3-13.99-6.15-21.07-2.59-9.89-2.57-19.97-1.65-30.12,1.02-11.11,3.96-21.63,8.17-31.93,2.2-5.4,5.04-10.33,8.18-15.11,1.95-2.99,4.28-5.75,6.71-8.37,5.01-5.41,9.96-10.95,15.36-15.96,9.81-9.06,19.04-18.7,27.34-29.17,4.89-6.17,8.77-13.12,12.17-20.3,.68-1.43,1.51-2.8,2.26-4.21,.22,.12,.43,.23,.64,.33-.34,.83-.62,1.69-1.06,2.47-2.92,5.2-5.91,10.38-8.83,15.58-4.02,7.15-9.28,13.29-14.91,19.12-4.51,4.71-9,9.44-13.61,14.06-3.94,3.97-8.2,7.62-12.01,11.69-5.29,5.64-10.37,11.43-14.67,17.96-4.48,6.79-7.24,14.3-9.97,21.85C1.85,237.08,.37,244.8,.01,252.75c-.19,4.21-.87,8.43-.61,12.59,.43,6.59,1.15,13.18,3.1,19.56,1.28,4.21,1.98,8.61,3.38,12.77,3.12,9.21,6.47,18.34,13.97,25.03,3.9,3.47,7.61,7.16,11.58,10.53,5.38,4.55,11.23,8.22,18.11,10.13,8.08,2.23,15.98,5.13,24.06,7.36,8.42,2.31,17.05,3.63,25.64,5.16,11.14,1.96,22.42,3.74,32.59,9.24,7.19,3.88,13.92,8.49,20.22,13.77,6.59,5.52,12.32,11.84,18.24,18.04,5.24,5.49,10.68,10.98,16.81,15.32,6.12,4.34,12.6,8.67,20.13,10.21,4.48,.9,9.16,1.31,13.71,1.13,6.71-.24,13.44-.98,19.82-3.36,4.2-1.57,8.46-3.06,12.42-5.16,7.21-3.83,14.34-7.86,21.26-12.22,7.36-4.64,13.65-10.69,19.81-16.86,5.89-5.91,11.58-12.05,16.04-19.15,5.29-8.38,10.68-16.77,15.1-25.65,5.97-12,11.37-24.32,16.37-36.8,4.14-10.3,9.75-19.76,14.67-29.6,3.75-7.5,9.08-13.78,15.53-18.96,2.53-2.04,5.64-3.41,8.66-4.68,5.76-2.44,11.86-4.13,17.09-7.77,3.21-2.22,6.35-4.55,9.47-6.91,4.14-3.12,6.34-7.77,8.45-12.29,5.45-11.66,8.02-24.04,8.43-36.99,.3-9.33-.28-18.47-2.75-27.51-1.4-5.08-2.33-10.3-3.83-15.35-1.65-5.58-4.65-10.51-7.92-15.26-.75-1.1-1.43-2.26-2.13-3.41,1.92,2.28,3.99,4.45,5.64,6.91,4.86,7.3,7.14,15.64,8.73,24.2,.87,4.72,1.86,9.43,2.76,14.15,.3,1.51,.68,3.05,.66,4.57Z"/>
  <path d="M246.25,9.27c-.1,.26-3.01-.96-3.12-.71-1.43-.63-2.82-1.39-4.3-1.85-6.32-2.01-12.78-3.38-19.4-3.83-5.64-.38-11.29-1.03-16.93-1.25-12.14-.5-24.29-.89-36.43-1.15-5.24-.12-10.4,1.07-15.02,3.48-4.48,2.32-8.58,5.43-12.87,8.16-3.19,2.05-6.48,3.95-9.6,6.11-8.51,5.88-16.91,11.91-23.44,20.18-3.78,4.8-6.97,9.97-9.48,15.61-5.01,11.22-7.52,22.95-7.56,35.27-.01,1.42,.5,3.2-1.12,4.27l-2.53,15.53c1.26-15.26,4.87-45.78,11.66-59.63,4.36-8.91,10.78-16.33,18.49-22.53,8.15-6.56,16.72-12.49,25.76-17.73,1.94-1.13,3.81-2.38,5.72-3.59,.47-.32,1.11-.75,1.31-1.09,1.96-3.17,2.01-2.46,3.52-2.76,6.59-1.34,13.16-2.65,19.97-2.34C184.09,.03,197.31,.06,210.49,.92c9.03,.59,18.11,1.42,26.81,4.37,2.08,.71,6.9,3.15,8.95,3.98Z"/>
  <path d="M406,123.09c.44,.53,.68,1.22,.96,1.87-.98-1.03-1.92-2.08-2.95-3.05-5.24-4.89-10.96-9.09-17.48-12.08-10.5-4.83-21.54-7.63-32.85-9.59-7.09-1.24-14.12-2.79-21.17-4.33-6.94-1.49-13.22-4.51-18.45-9.44-2.13-1.99-4-4.43-5.44-7-2.44-4.39-4.25-9.14-6.69-13.53-2.02-3.63-4.51-7.03-6.9-10.44-3.93-5.55-7.77-11.22-12.02-16.51-3.57-4.45-7.55-8.58-11.6-12.59-7.03-6.95-15.47-11.75-24.34-15.8-.38-.18-.72-.48-.81-1.33,2.32,1.01,4.79,1.79,6.94,3.09,6.4,3.86,13.03,7.34,18.42,12.73,1.09,1.1,2.39,1.99,3.4,3.15,4.67,5.38,9.5,10.68,13.84,16.33,3.83,4.99,7.05,10.47,10.64,15.65,4.09,5.93,7.09,12.43,10.18,18.9,1.28,2.7,3.69,4.92,5.88,7.06,5.08,4.99,11.4,7.63,18.2,9.05,10.74,2.25,21.63,3.8,32.25,6.48,8.54,2.16,16.93,4.99,24.79,9.37,5.76,3.21,10.92,7,15.22,12Z"/>
  <path d="M407.17,125.17l-.07,.06c-.04-.09-.09-.18-.13-.27l.21,.21Z"/>
  <path d="M84.45,109.09c-.3,1.98-.49,3.97-.92,5.9-.09,.41-1.05,.59-1.62,.86-.01,0-.01,.02-.03,.02,.21-.6,.43-1.19,.64-1.78,.21-.6,.41-1.19,.61-1.79,.34-1.09,.61-2.19,1.33-3.2Z"/>
  <path d="M424.09,187.21c-.41,12.95-2.98,25.34-8.43,36.99-2.11,4.52-4.31,9.17-8.45,12.29-3.12,2.35-6.26,4.69-9.47,6.91-5.23,3.63-11.33,5.32-17.09,7.77-3.01,1.27-6.13,2.64-8.66,4.68-6.44,5.17-11.77,11.46-15.53,18.96-4.92,9.85-10.53,19.3-14.67,29.6-4.99,12.47-10.4,24.79-16.37,36.8-4.42,8.88-9.81,17.27-15.1,25.65-4.46,7.1-10.15,13.24-16.04,19.15-6.16,6.17-12.45,12.22-19.81,16.86-6.91,4.36-14.05,8.38-21.26,12.22-3.96,2.1-8.23,3.59-12.42,5.16-6.38,2.38-13.12,3.12-19.82,3.36-4.55,.18-9.23-.23-13.71-1.13-7.53-1.54-14.02-5.87-20.13-10.21-6.13-4.34-11.57-9.83-16.81-15.32-5.92-6.2-11.66-12.52-18.24-18.04-6.31-5.28-13.03-9.89-20.22-13.77-10.16-5.5-21.45-7.28-32.59-9.24-8.6-1.52-17.22-2.85-25.64-5.16-8.08-2.23-15.98-5.13-24.06-7.36-6.88-1.92-12.73-5.58-18.11-10.13-3.97-3.36-7.68-7.06-11.58-10.53-7.5-6.7-10.86-15.82-13.97-25.03-1.4-4.16-2.1-8.57-3.38-12.77-1.95-6.38-2.67-12.97-3.1-19.56-.27-4.16,.41-8.38,.61-12.59,.35-7.95,1.83-15.67,4.51-23.13,2.73-7.56,5.5-15.07,9.97-21.85,4.3-6.53,9.38-12.32,14.67-17.96,3.81-4.07,8.07-7.72,12.01-11.69,4.61-4.61,9.1-9.35,13.61-14.06,5.63-5.84,10.89-11.97,14.91-19.12,2.92-5.2,5.91-10.38,8.83-15.58,.44-.78,.72-1.64,1.06-2.47-.21-.11-.41-.21-.64-.33,.78-.98,1.77-3.72,2.41-6.23t.01-.02c1.39-1.76,1.12-3.08,.53-4.4v-.03s0-.02,.01-.03c.58-.27,1.54-.45,1.62-.86,.43-1.93,.62-3.92,.92-5.9l2.53-15.53c1.62-1.07,1.11-2.85,1.12-4.27,.04-12.32,2.56-24.05,7.56-35.27,2.51-5.64,5.7-10.81,9.48-15.61,6.53-8.26,14.93-14.3,23.44-20.18,3.12-2.16,6.41-4.06,9.6-6.11,4.28-2.73,8.39-5.84,12.87-8.16,4.62-2.41,9.78-3.6,15.02-3.48,12.14,.26,24.29,.65,36.43,1.15,5.64,.23,11.29,.87,16.93,1.25,6.62,.45,13.07,1.82,19.4,3.83,1.48,.47,2.87,1.22,4.3,1.85,.1-.26,3.01,.96,3.12,.71,.09,.84,.43,1.15,.81,1.33,8.88,4.06,17.31,8.85,24.34,15.8,4.05,4.01,8.02,8.14,11.6,12.59,4.25,5.29,8.1,10.96,12.02,16.51,2.39,3.41,4.87,6.8,6.9,10.44,2.44,4.39,4.25,9.14,6.69,13.53,1.43,2.56,3.31,5.01,5.44,7,5.23,4.93,11.51,7.95,18.45,9.44,7.05,1.54,14.08,3.09,21.17,4.33,11.32,1.96,22.35,4.77,32.85,9.59,6.51,2.99,12.23,7.19,17.48,12.08,1.03,.96,1.98,2.02,2.95,3.05,.04,.09,.09,.18,.13,.27,.13,.15,.25,.3,.38,.45,.69,1.15,1.37,2.31,2.13,3.41,3.26,4.75,6.26,9.68,7.92,15.26,1.49,5.05,2.42,10.27,3.83,15.35,2.47,9.03,3.04,18.17,2.75,27.51Z"/>
  <path d="M81.9,115.89s-.01-.02-.01-.03v.02s.01,.02,.01,.02Z"/>
  <path d="M81.37,120.31s0,.02-.01,.02c-.64,2.5-1.62,5.25-2.41,6.23,.22-1.79,2.63-8.88,2.94-10.53,0-.05,0-.09,.01-.12,.25,.63-.03,2.44-.53,4.4Z"/>
</svg>