<?xml version="1.0" encoding="UTF-8"?>
<svg id="Layer_5" data-name="Layer 5" xmlns="http://www.w3.org/2000/svg" viewBox="0 0 425.2 425.2">
  <path d="M16.84,79.13c-3.76,5.06-21.58,30.16-15.43,63.15,7.78,41.74,51.8,65.78,55.73,67.49-3.73,2.85-34.07,26.78-32.24,61.33,1.87,35.28,34.77,79.34,82.03,82.82-7.05,33.71,15.58,64.76,46.25,70.25,24.67,4.42,53.31-5.72,66.92-29.15,1.66,1.35,11.47,1.73,13.02,10.28,1.56,8.6,2.13,14.48,1.04,16.29l-.34,.95c28.61-34.77,57.32-58.25,78.16-73.12,40.32-28.77,64.04-34.45,77.39-36.55,14.63-2.3,27.09-1.92,35.64-1.16-38.7-57.58-57.39-110.5-57.96-130.15-.48-16.58,3.89-30.27,3.89-30.27,1.48-5.37,4.11-12.27,8.98-19.43,11.29-16.58,31.86-27,39.13-29.82-9.71,.13-23.87,.17-40.92-.34-31.63-.94-79.79-2.58-137.58-14.76-52.71-11.11-79.56-17.11-104.15-39.15C118.18,31.45,108.44,13.09,103.1,.16c-4.95,22.01-15.13,48.25-21.42,58.26-16.38,26.07-30.98,31.76-34.74,33.09-4.93,1.74-13.28,4.57-20.46,.63-6-3.29-7.97-9.54-8.59-11.94"/>
</svg>